<svg width="20" height="20" viewBox="0 0 20 20" fill="none" xmlns="http://www.w3.org/2000/svg">
<path d="M10 0C4.47502 0 0 4.47502 0 10C0 15.525 4.47502 20 10 20C15.525 20 20 15.525 20 10C20 4.47498 15.525 0 10 0ZM11 17H9.00001V15H11V17ZM13.065 9.25501L12.17 10.175C11.45 10.895 11 11.5001 11 13.0001H9.00001V12.5C9.00001 11.395 9.45002 10.395 10.17 9.67005L11.415 8.41004C11.775 8.05004 12 7.55003 12 7.00004C12 5.89506 11.105 5.00002 10 5.00002C8.89497 5.00002 7.99998 5.89501 7.99998 7.00004H6.00001C6.00001 4.79002 7.79003 3 10 3C12.21 3 14 4.79002 14 7C14 7.88003 13.645 8.67503 13.065 9.25501Z" fill="white"/>
</svg>
