<svg width="44" height="44" viewBox="0 0 44 44" fill="none" xmlns="http://www.w3.org/2000/svg">
<circle cx="22" cy="22" r="22" fill="#FFD949"/>
<path d="M32.9827 12.2622C32.614 11.8286 32.0763 11.5801 31.5075 11.5801H29.6406V10.9961C29.6406 10.2735 29.0527 9.68555 28.3301 9.68555H15.6701C14.9475 9.68555 14.3596 10.2735 14.3596 10.996V11.58H12.4926C11.9238 11.58 11.3861 11.8286 11.0174 12.2621C10.6525 12.6912 10.4948 13.2547 10.5848 13.8081C11.0754 16.8245 12.9737 19.4893 15.6678 20.9509C15.9139 21.5428 16.1927 22.1034 16.5032 22.6256C17.4948 24.2943 18.7276 25.4475 20.0846 26.0052C20.2221 27.3957 19.2969 28.7129 17.9035 29.0268C17.9005 29.0275 17.8984 29.0285 17.8955 29.0292C17.6236 29.0942 17.4211 29.3382 17.4211 29.63V32.467H16.2738C15.2508 32.467 14.4186 33.2992 14.4186 34.3222V35.7864C14.4186 36.128 14.6954 36.4048 15.037 36.4048H29.0222C29.3638 36.4048 29.6406 36.128 29.6406 35.7864V34.3222C29.6406 33.2992 28.8084 32.467 27.7855 32.467H26.638V29.6301C26.638 29.3377 26.4348 29.0933 26.1622 29.0289C26.1596 29.0283 26.1572 29.0274 26.1546 29.0268C24.7507 28.7108 23.8238 27.3803 23.9757 25.9794C25.309 25.4127 26.5202 24.2698 27.4972 22.6258C27.8077 22.1034 28.0864 21.5428 28.3326 20.9508C31.0266 19.4891 32.9247 16.8244 33.4153 13.8081C33.5053 13.2547 33.3476 12.6912 32.9827 12.2622ZM11.8056 13.6095C11.7734 13.4119 11.8281 13.2179 11.9595 13.0634C12.0928 12.9066 12.2871 12.8167 12.4925 12.8167H14.3596V13.9545C14.3596 15.7385 14.5873 17.4666 15.0188 19.047C13.3229 17.7069 12.1553 15.7602 11.8056 13.6095ZM27.7855 33.7039C28.1265 33.7039 28.4039 33.9813 28.4039 34.3223V35.1681H15.6554V34.3223C15.6554 33.9813 15.9328 33.7039 16.2738 33.7039H27.7855ZM25.4012 30.2485V32.4671H18.6581V30.2485H25.4012ZM20.2798 29.0117C20.4327 28.8435 20.5725 28.6611 20.6974 28.4659C21.1096 27.8219 21.3259 27.0904 21.3356 26.3432C21.5552 26.3731 21.7769 26.3892 22.0005 26.3892C22.2437 26.3892 22.4847 26.3705 22.7234 26.3351C22.7374 27.3391 23.1282 28.2895 23.7853 29.0117H20.2798V29.0117ZM28.4038 13.9545C28.4038 17.0011 27.7042 19.8562 26.4339 21.9938C25.2236 24.0306 23.649 25.1523 22.0004 25.1523C20.3514 25.1523 18.7768 24.0307 17.5663 21.9939C16.296 19.8563 15.5964 17.0012 15.5964 13.9546V10.996C15.5964 10.9553 15.6295 10.9223 15.6701 10.9223H28.33C28.3707 10.9223 28.4038 10.9554 28.4038 10.996V13.9545ZM32.1945 13.6095C31.8448 15.76 30.6773 17.7067 28.9815 19.0469C29.413 17.4665 29.6406 15.7385 29.6406 13.9545V12.8168H31.5075C31.713 12.8168 31.9073 12.9067 32.0405 13.0634C32.1719 13.2179 32.2266 13.4119 32.1945 13.6095Z" fill="#C08514"/>
<path d="M25.7543 16.0352C25.6815 15.8115 25.4879 15.6483 25.255 15.6144L23.389 15.3432L22.5545 13.6523C22.4502 13.4413 22.2353 13.3076 21.9999 13.3076C21.7645 13.3076 21.5496 13.4413 21.4454 13.6523L20.6109 15.3432L18.7448 15.6144C18.5118 15.6482 18.3183 15.8114 18.2456 16.0353C18.1729 16.2592 18.2335 16.5049 18.4021 16.6692L19.7524 17.9854L19.4336 19.8439C19.3938 20.076 19.4891 20.3104 19.6796 20.4488C19.87 20.5871 20.1225 20.6053 20.3309 20.4959L21.9999 19.6184L23.6689 20.4959C23.7594 20.5434 23.8582 20.5668 23.9566 20.5668C24.0848 20.5668 24.2124 20.527 24.3201 20.4487C24.5106 20.3103 24.6059 20.0759 24.5661 19.8439L24.2473 17.9854L25.5976 16.6692C25.7663 16.5049 25.8269 16.2592 25.7543 16.0352ZM23.1514 17.3267C23.0056 17.4687 22.9391 17.6734 22.9735 17.8741L23.1354 18.8181L22.2876 18.3724C22.1976 18.325 22.0987 18.3014 21.9999 18.3014C21.901 18.3014 21.8022 18.3251 21.7121 18.3724L20.8644 18.8181L21.0262 17.8741C21.0607 17.6735 20.9941 17.4688 20.8484 17.3267L20.1626 16.6582L21.1104 16.5204C21.3118 16.4912 21.4859 16.3646 21.576 16.1821L21.9999 15.3233L22.4238 16.1821C22.5139 16.3646 22.6879 16.4911 22.8894 16.5204L23.8372 16.6582L23.1514 17.3267Z" fill="#C08514"/>
</svg>
