<svg width="44" height="44" viewBox="0 0 44 44" fill="none" xmlns="http://www.w3.org/2000/svg">
<circle cx="22" cy="22" r="22" fill="#2662FC"/>
<path d="M33.612 20.5162L28.7413 25.2644L29.8909 31.9694C29.9733 32.4522 29.7737 32.9407 29.3779 33.229C29.1539 33.3919 28.8874 33.4749 28.6209 33.4749C28.4162 33.4749 28.2103 33.426 28.0217 33.3269L22.0001 30.1614L15.9785 33.3269C15.5447 33.5554 15.0195 33.5168 14.6223 33.2303C14.2265 32.942 14.0276 32.4541 14.1106 31.9707L15.2608 25.2657L10.3889 20.5168C10.0368 20.1751 9.91192 19.6634 10.0619 19.1973C10.2138 18.7313 10.6161 18.3921 11.1014 18.3213L17.8336 17.3423L20.846 11.2418C21.0616 10.8015 21.5096 10.5234 21.9995 10.5234C22.4906 10.5234 22.9366 10.8015 23.1536 11.2411L26.166 17.3417L32.8994 18.3207C33.3835 18.3908 33.787 18.7307 33.9364 19.1967C34.0896 19.6627 33.9615 20.1744 33.612 20.5162Z" fill="#0D2C7D"/>
</svg>
