<svg width="268" height="160" viewBox="0 0 268 160" fill="none" xmlns="http://www.w3.org/2000/svg">
<rect x="22" width="82" height="26" rx="6" fill="#152E6C"/>
<rect x="165" width="82" height="26" rx="6" fill="#152E6C"/>
<path d="M40.7812 9.89258H38.168V17H36.4102V9.89258H33.832V8.46875H40.7812V9.89258ZM44.9473 13.877H43.5469V17H41.7891V8.46875H44.959C45.9668 8.46875 46.7441 8.69336 47.291 9.14258C47.8379 9.5918 48.1113 10.2266 48.1113 11.0469C48.1113 11.6289 47.9844 12.1152 47.7305 12.5059C47.4805 12.8926 47.0996 13.2012 46.5879 13.4316L48.4336 16.918V17H46.5469L44.9473 13.877ZM43.5469 12.4531H44.9648C45.4062 12.4531 45.748 12.3418 45.9902 12.1191C46.2324 11.8926 46.3535 11.582 46.3535 11.1875C46.3535 10.7852 46.2383 10.4688 46.0078 10.2383C45.7812 10.0078 45.4316 9.89258 44.959 9.89258H43.5469V12.4531ZM54.2695 15.2422H51.1875L50.6016 17H48.7324L51.9082 8.46875H53.5371L56.7305 17H54.8613L54.2695 15.2422ZM51.6621 13.8184H53.7949L52.7227 10.625L51.6621 13.8184ZM59.3965 17H57.6387V8.46875H59.3965V17ZM67.9688 17H66.2109L62.7891 11.3867V17H61.0312V8.46875H62.7891L66.2168 14.0938V8.46875H67.9688V17ZM76.3594 14.7559C76.3594 14.4355 76.2695 14.1816 76.0898 13.9941C75.9141 13.8027 75.6133 13.627 75.1875 13.4668C74.7617 13.3066 74.3945 13.1484 74.0859 12.9922C73.7773 12.832 73.5117 12.6504 73.2891 12.4473C73.0703 12.2402 72.8984 11.998 72.7734 11.7207C72.6523 11.4434 72.5918 11.1133 72.5918 10.7305C72.5918 10.0703 72.8027 9.5293 73.2246 9.10742C73.6465 8.68555 74.207 8.43945 74.9062 8.36914V7.11523H75.8438V8.38672C76.5352 8.48438 77.0762 8.77344 77.4668 9.25391C77.8574 9.73047 78.0527 10.3496 78.0527 11.1113H76.3594C76.3594 10.6426 76.2617 10.293 76.0664 10.0625C75.875 9.82812 75.6172 9.71094 75.293 9.71094C74.9727 9.71094 74.7246 9.80273 74.5488 9.98633C74.373 10.166 74.2852 10.416 74.2852 10.7363C74.2852 11.0332 74.3711 11.2715 74.543 11.4512C74.7148 11.6309 75.0332 11.8145 75.498 12.002C75.9668 12.1895 76.3516 12.3672 76.6523 12.5352C76.9531 12.6992 77.207 12.8867 77.4141 13.0977C77.6211 13.3047 77.7793 13.543 77.8887 13.8125C77.998 14.0781 78.0527 14.3887 78.0527 14.7441C78.0527 15.4082 77.8457 15.9473 77.4316 16.3613C77.0176 16.7754 76.4473 17.0195 75.7207 17.0938V18.2598H74.7891V17.0996C73.9883 17.0137 73.3672 16.7305 72.9258 16.25C72.4883 15.7656 72.2695 15.123 72.2695 14.3223H73.9629C73.9629 14.7871 74.0723 15.1445 74.291 15.3945C74.5137 15.6406 74.832 15.7637 75.2461 15.7637C75.5898 15.7637 75.8613 15.6738 76.0605 15.4941C76.2598 15.3105 76.3594 15.0645 76.3594 14.7559ZM83.3145 17H81.6211V10.4727L79.5996 11.0996V9.72266L83.1328 8.45703H83.3145V17ZM91.834 13.4727C91.834 14.6523 91.5898 15.5547 91.1016 16.1797C90.6133 16.8047 89.8984 17.1172 88.957 17.1172C88.0273 17.1172 87.3164 16.8105 86.8242 16.1973C86.332 15.584 86.0801 14.7051 86.0684 13.5605V11.9902C86.0684 10.7988 86.3145 9.89453 86.8066 9.27734C87.3027 8.66016 88.0156 8.35156 88.9453 8.35156C89.875 8.35156 90.5859 8.6582 91.0781 9.27148C91.5703 9.88086 91.8223 10.7578 91.834 11.9023V13.4727ZM90.1406 11.75C90.1406 11.043 90.043 10.5293 89.8477 10.209C89.6562 9.88477 89.3555 9.72266 88.9453 9.72266C88.5469 9.72266 88.252 9.87695 88.0605 10.1855C87.873 10.4902 87.7734 10.9688 87.7617 11.6211V13.6953C87.7617 14.3906 87.8555 14.9082 88.043 15.248C88.2344 15.584 88.5391 15.752 88.957 15.752C89.3711 15.752 89.6699 15.5898 89.8535 15.2656C90.0371 14.9414 90.1328 14.4453 90.1406 13.7773V11.75Z" fill="white"/>
<path d="M75.902 47.6146C75.902 47.9524 75.8832 48.2851 75.8438 48.6127C75.3498 52.9004 71.7071 56.2292 67.2874 56.2292C62.53 56.2292 58.6729 52.3721 58.6729 47.6146C58.6729 46.9664 58.7449 46.3334 58.882 45.7264C59.0758 44.8534 59.4034 44.0302 59.8408 43.2807C61.3346 40.7202 64.1096 39 67.2874 39C71.4876 39 74.9879 42.0082 75.7476 45.9871C75.8489 46.5137 75.902 47.0573 75.902 47.6146Z" fill="#A7BDC6"/>
<path d="M63.6461 47.6143C63.6461 43.7216 66.2288 40.4332 69.7735 39.366C68.986 39.1288 68.1516 39 67.2866 39C62.5291 39 58.6724 42.8568 58.6724 47.6144C58.6724 52.3719 62.5291 56.2287 67.2866 56.2287C68.1516 56.2287 68.9858 56.0999 69.7735 55.8627C66.2288 54.7953 63.6461 51.507 63.6461 47.6143Z" fill="#789CAB"/>
<path d="M45.6871 79.1447C41.1353 74.6272 35.5067 78.956 35.8171 84.8952C36.2356 92.901 28 91.6628 28 91.6628C28 91.6628 30.931 87.9926 30.0083 80.8117C29.0872 73.6309 33.7573 65.5582 41.0943 68.4567C45.5363 70.2111 47.6286 73.3565 48.589 75.5655" fill="#EFBC4B"/>
<path d="M90.7096 107.086L78.2138 108.36L71.6968 105.273L76.1558 100.814L80.6149 104.244H85.76L76.8487 95.3326L80.8413 89.0898L91.9308 102.82L92.2978 103.275C93.469 104.724 92.5652 106.895 90.7096 107.086Z" fill="#A56247"/>
<path d="M91.9307 102.82C89.6788 102.587 87.3138 102.227 85.1855 101.666C85.1838 101.664 85.1838 101.664 85.182 101.664C84.0964 101.378 83.0725 101.04 82.1584 100.642L76.8486 95.3326L80.8413 89.0898L91.9307 102.82Z" fill="#8C4C35"/>
<path d="M112 72.8584L109.378 75.4806L108.993 75.8648C107.718 77.1407 105.649 77.1407 104.373 75.8648L103.51 75.0022L100.406 74.2631C99.5418 74.0573 98.7307 73.7297 97.9898 73.2976C97.2385 72.8602 96.5577 72.3166 95.9711 71.6889C94.7449 70.382 93.9131 68.7082 93.649 66.856C93.649 66.856 92.68 68.5076 92.68 71.2207C92.68 72.1846 92.8036 73.2821 93.1345 74.4878C93.2905 75.0504 93.4912 75.6369 93.745 76.244C93.841 76.4738 93.9456 76.7069 94.0588 76.9437C94.3299 77.5097 94.6488 78.0928 95.0209 78.6896C99.3085 85.5497 93.9919 92.4098 93.9919 92.4098L104.255 96.2584C104.716 96.4317 105.064 96.8157 105.191 97.2909C106.073 100.585 108.726 113.568 97.0791 117.449L96.5646 110.761L101.367 109.217V99.4416C101.367 99.4416 92.0404 99.6972 85.1853 97.8928C85.1837 97.8912 85.1837 97.8912 85.1819 97.8912C84.0963 97.6047 83.0724 97.2669 82.1582 96.8691C78.8722 95.437 75.461 94.9567 72.1288 95.0202L64.7866 96.9685L61.499 97.8396C60.1288 99.9595 56.956 103.901 52.3168 103.901C50.9258 103.901 49.4012 103.636 47.8713 103.223C46.6794 102.902 45.4822 102.493 44.3418 102.048C44.4035 102.23 48.3104 113.779 40.4831 120.879L37.5674 116.249C37.5674 116.249 47.1716 112.476 37.5674 98.0692L40.4829 95.6681C40.4829 95.6681 45.1136 98.5837 49.2296 94.4677C49.2296 94.4677 41.3405 90.0086 45.285 80.0614C46.7754 76.3037 49.0478 74.8219 51.502 74.4343L52.6562 74.1256L78.6355 67.1916C82.129 60.1378 88.8999 50.4461 99.1371 52.4492C99.1371 52.4492 102.053 48.8477 104.625 48.8477L103.939 54.6788L112 72.8584Z" fill="#A56247"/>
<path d="M109.378 75.4812L108.993 75.8654C107.717 77.1412 105.649 77.1412 104.373 75.8654L103.51 75.0029L100.406 74.2638C96.8457 73.4166 94.1669 70.4787 93.6489 66.8566C93.6489 66.8566 92.68 68.5082 92.68 71.2213C92.68 72.6362 92.9441 74.3375 93.7451 76.2446C88.751 73.1625 88.393 66.0331 93.0529 62.4659L99.1268 57.8164C97.139 59.8505 102.138 72.1353 109.146 75.3698C109.225 75.4057 109.302 75.4433 109.378 75.4812Z" fill="#8C4C35"/>
<path d="M76.1558 100.814L80.6149 104.245L78.2138 108.361L71.6968 105.274L76.1558 100.814Z" fill="#455256"/>
<path d="M103.5 112.97C102.125 114.853 100.075 116.453 97.079 117.451L96.5645 110.762L101.367 109.219L103.5 112.97Z" fill="#455256"/>
<path d="M85.1824 97.8903C84.0968 97.6038 83.0729 97.266 82.1587 96.8682C78.8727 95.4361 75.4615 94.9559 72.1292 95.0194L64.7871 96.9676L65.5607 79.2891L70.5874 80.1535C70.2719 82.5802 74.2765 94.3675 85.1824 97.8903Z" fill="#8C4C35"/>
<path d="M47.8712 103.222C46.6792 102.902 45.4821 102.492 44.3417 102.048C44.4034 102.229 48.3102 113.778 40.4829 120.879L37.5674 116.248C37.5674 116.248 47.1716 112.475 37.5674 98.0686L40.4829 95.6675C40.4829 95.6675 45.1136 98.5831 49.2296 94.4671C49.2296 94.4671 41.3405 90.008 45.285 80.0608C46.7754 76.3031 49.0478 74.8213 51.502 74.4338L52.6562 74.125L53.1244 76.6393C53.1244 76.6393 46.9744 85.9142 54.0694 93.0092C54.0693 93.0096 55.3898 99.7153 47.8712 103.222Z" fill="#8C4C35"/>
<path d="M40.7144 113.434L44.0759 115.8C43.323 117.594 42.179 119.342 40.4829 120.88L37.5674 116.25C37.5674 116.25 39.4505 115.509 40.7144 113.434Z" fill="#455256"/>
<path d="M102.403 61.7965C101.225 61.7965 100.671 60.2631 101.587 59.5166C102.503 58.7706 103.895 59.6009 103.663 60.7623C103.544 61.3572 103.01 61.7965 102.403 61.7965Z" fill="#252C2D"/>
<path d="M93.6505 68.1426C93.5334 68.1426 93.4146 68.1265 93.2964 68.0927C92.6135 67.8975 92.2179 67.1856 92.4131 66.5025C94.9441 57.6436 103.042 53.683 103.385 53.5186C104.026 53.2124 104.794 53.4833 105.101 54.124C105.407 54.7641 105.137 55.5315 104.497 55.8384C104.404 55.8835 97.0896 59.499 94.8867 67.2089C94.7253 67.7741 94.2101 68.1424 93.6505 68.1426Z" fill="#455256"/>
<path d="M103.511 76.2876C103.351 76.2876 103.188 76.2574 103.03 76.1938C102.371 75.928 102.053 75.1784 102.318 74.5195C104.444 69.2515 109.005 66.8334 109.198 66.7331C109.828 66.4055 110.605 66.6509 110.933 67.2814C111.26 67.9107 111.015 68.6863 110.387 69.0144C110.32 69.05 106.457 71.1374 104.704 75.4821C104.502 75.9834 104.02 76.2876 103.511 76.2876Z" fill="#455256"/>
<path d="M106.299 71.1611C100.98 68.2038 96.562 60.8187 96.3765 60.5057L98.5895 59.194L97.4829 59.8498L98.5892 59.1934C98.6312 59.2641 102.843 66.2955 107.55 68.9123L106.299 71.1611Z" fill="#455256"/>
<path d="M75.902 47.316L63.9654 45.2838L59.2661 44.4846C60.5181 41.2741 63.6412 39 67.2942 39C68.1517 39 68.9801 39.1252 69.7622 39.3601C73.2265 40.3924 75.7751 43.5463 75.902 47.316Z" fill="#455256"/>
<path d="M69.7741 39.3652C66.9649 40.2108 64.7594 42.4522 63.9654 45.2838L59.2661 44.4846C60.5181 41.2741 63.6412 39 67.2942 39C68.1517 39 68.9801 39.1252 69.7622 39.3601C69.7656 39.3618 69.7707 39.3634 69.7741 39.3652Z" fill="#2D373A"/>
<path d="M93.7451 76.2445C93.841 76.4744 93.9457 76.7075 94.0589 76.9442C91.9734 78.1893 89.4524 78.944 86.5111 79.2081C83.2748 79.498 79.5309 79.1927 75.2982 78.2905C74.0445 78.023 72.7943 77.6525 71.5835 77.1877L67.0283 75.4418L67.9494 73.0391L72.5046 74.7867C73.5902 75.2017 74.7101 75.5345 75.8334 75.7745C83.5253 77.4141 89.3393 76.9818 93.1346 74.4882C93.2906 75.0508 93.4913 75.6375 93.7451 76.2445Z" fill="#8C4C35"/>
<path d="M76.6065 66.6089L68.9008 66.7856L65.4211 58.3339L64.0354 55.5831C62.5674 52.6726 58.4118 52.683 56.9558 55.6003C53.6251 62.2736 49.9362 70.8384 51.502 74.4348C53.7264 79.5474 63.3306 80.5764 63.3306 80.5764L61.1645 97.8398H72.4195V96.4174C72.4195 94.4884 70.8556 92.9245 68.9266 92.9245L70.8097 78.4326C70.9572 76.8959 70.2644 75.4003 68.997 74.5205L68.0073 73.8327L76.7832 73.627C78.7213 73.5789 80.2528 71.9669 80.2029 70.0306V70.0289C80.155 68.0924 78.5446 66.5592 76.6065 66.6089Z" fill="#EAEAE4"/>
<path d="M89.4477 77.412C86.1996 77.412 82.4976 76.7741 78.3607 75.498C77.1358 75.1202 75.9246 74.6397 74.76 74.0694L70.3779 71.9238L71.5091 69.6133L75.8913 71.7589C76.9358 72.2701 78.0218 72.7011 79.1192 73.0397C87.1221 75.5087 93.2123 75.4475 97.2195 72.8573C100.97 70.4333 101.487 66.597 101.492 66.5586L104.045 66.8765C104.019 67.0821 103.363 71.9497 98.616 75.0178C96.1471 76.6137 93.0814 77.412 89.4477 77.412Z" fill="#455256"/>
<path d="M54.1823 74.4354C52.6165 70.839 56.3054 62.2741 59.6361 55.6009C60.1302 54.6111 60.9353 53.9568 61.8404 53.6371C60.0718 53.0121 57.9211 53.6671 56.9558 55.6009C53.6251 62.2741 49.9362 70.839 51.502 74.4354C53.7264 79.5479 63.3306 80.5769 63.3306 80.5769L61.1645 97.8404H63.8448L65.6729 82.5455C65.8511 81.0553 64.8144 79.6879 63.3294 79.4697C60.3146 79.0267 55.6474 77.8028 54.1823 74.4354Z" fill="#CECECC"/>
<path d="M72.4204 96.419V97.8408H61.1646L62.7665 85.0723H69.9473L68.9268 92.9254C70.8562 92.9254 72.4204 94.4896 72.4204 96.419Z" fill="#455256"/>
<path d="M65.3716 85.0723L63.8452 97.8406H61.1646L62.7665 85.0723H65.3716Z" fill="#2D373A"/>
<path d="M80.2031 70.029V70.0306C80.2203 70.6703 80.0642 71.2723 79.7779 71.7971C79.1982 72.8604 78.0816 73.5944 76.7834 73.6271L68.0075 73.8328L66.6629 73.8636C65.4418 73.8945 64.3099 73.2891 63.6513 72.296C63.5262 72.1073 63.4181 71.9051 63.329 71.6906L62.6893 70.1368L54.1948 69.281L51.5742 69.0169C52.5174 64.9815 54.8105 59.8981 56.956 55.6002C57.918 53.6708 60.0618 53.0123 61.8284 53.6313C61.8335 53.6329 61.837 53.6347 61.8404 53.6364C62.7408 53.9519 63.5399 54.6002 64.0357 55.583L65.4214 58.3338L68.9012 66.7855L76.6069 66.6088C78.5448 66.5596 80.1552 68.0927 80.2031 70.029Z" fill="#2662FC"/>
<path d="M61.8404 53.6365C60.935 53.9555 60.1306 54.6107 59.6366 55.6002C57.4447 59.9925 55.0968 65.2061 54.1948 69.281L51.5742 69.0169C52.5174 64.9815 54.8105 59.8981 56.956 55.6002C57.918 53.6708 60.0618 53.0123 61.8284 53.6313C61.8335 53.6331 61.837 53.6347 61.8404 53.6365Z" fill="#0437BA"/>
<path d="M63.5844 51.9699C63.5168 51.9699 63.449 51.9669 63.3808 51.9612C62.4451 51.8797 61.6578 51.2485 61.3753 50.3527L59.9755 45.916C59.7617 45.2386 60.1376 44.516 60.8152 44.3023C61.4929 44.0882 62.2149 44.4645 62.4289 45.1419L63.6403 48.9817L65.2816 45.8239C65.6092 45.1935 66.3861 44.9482 67.0161 45.2758C67.6466 45.6036 67.8918 46.38 67.564 47.0104L65.6342 50.7233C65.2325 51.4959 64.4428 51.9699 63.5844 51.9699Z" fill="#455256"/>
<path d="M79.7778 71.7961C79.1981 72.8594 78.0815 73.5934 76.7833 73.6261L68.0074 73.8318L66.6628 73.8626C65.4417 73.8935 64.3098 73.2881 63.6513 72.295C63.5261 72.1064 63.418 71.9041 63.3289 71.6896L62.6892 70.1358L59.6245 62.7062C60.9815 62.4551 62.3333 63.1691 62.8908 64.4315L65.6755 70.7399C65.9588 71.3819 66.5944 71.7958 67.2961 71.7958L79.7778 71.7961Z" fill="#0437BA"/>
<path d="M80.2034 70.0285V70.0302C80.2531 71.9664 78.7216 73.5785 76.7837 73.6266L74.3003 73.6848V66.6618L76.607 66.6086C78.2483 66.5658 79.6563 67.6599 80.0766 69.1726C80.1521 69.4454 80.1965 69.7319 80.2034 70.0285Z" fill="#789CAB"/>
<path d="M80.0766 69.1726C79.6735 70.6201 78.3633 71.6988 76.7837 71.7384L74.3003 71.7966V66.6618L76.607 66.6086C78.2483 66.5658 79.6564 67.6599 80.0766 69.1726Z" fill="#A7BDC6"/>
<path d="M80.3763 48.0799C80.27 48.7076 79.7263 49.1501 79.1106 49.1501C79.0386 49.1501 78.9665 49.145 78.8927 49.1329L75.8434 48.6133L58.8818 45.7269C59.0756 44.854 59.4032 44.0307 59.8406 43.2812L75.7476 45.9876L79.3252 46.5965C80.0247 46.7147 80.4964 47.3802 80.3763 48.0799Z" fill="#2D373A"/>
<path d="M184.127 17V8.46875H187.115C188.15 8.46875 188.936 8.66797 189.471 9.06641C190.006 9.46094 190.273 10.041 190.273 10.8066C190.273 11.2246 190.166 11.5938 189.951 11.9141C189.736 12.2305 189.438 12.4629 189.055 12.6113C189.492 12.7207 189.836 12.9414 190.086 13.2734C190.34 13.6055 190.467 14.0117 190.467 14.4922C190.467 15.3125 190.205 15.9336 189.682 16.3555C189.158 16.7773 188.412 16.9922 187.443 17H184.127ZM185.885 13.2852V15.5879H187.391C187.805 15.5879 188.127 15.4902 188.357 15.2949C188.592 15.0957 188.709 14.8223 188.709 14.4746C188.709 13.6934 188.305 13.2969 187.496 13.2852H185.885ZM185.885 12.043H187.186C188.072 12.0273 188.516 11.6738 188.516 10.9824C188.516 10.5957 188.402 10.3184 188.176 10.1504C187.953 9.97852 187.6 9.89258 187.115 9.89258H185.885V12.043ZM196.924 13.3027H193.549V15.5879H197.51V17H191.791V8.46875H197.498V9.89258H193.549V11.9258H196.924V13.3027ZM205.08 9.89258H202.467V17H200.709V9.89258H198.131V8.46875H205.08V9.89258ZM212.592 14.7559C212.592 14.4355 212.502 14.1816 212.322 13.9941C212.146 13.8027 211.846 13.627 211.42 13.4668C210.994 13.3066 210.627 13.1484 210.318 12.9922C210.01 12.832 209.744 12.6504 209.521 12.4473C209.303 12.2402 209.131 11.998 209.006 11.7207C208.885 11.4434 208.824 11.1133 208.824 10.7305C208.824 10.0703 209.035 9.5293 209.457 9.10742C209.879 8.68555 210.439 8.43945 211.139 8.36914V7.11523H212.076V8.38672C212.768 8.48438 213.309 8.77344 213.699 9.25391C214.09 9.73047 214.285 10.3496 214.285 11.1113H212.592C212.592 10.6426 212.494 10.293 212.299 10.0625C212.107 9.82812 211.85 9.71094 211.525 9.71094C211.205 9.71094 210.957 9.80273 210.781 9.98633C210.605 10.166 210.518 10.416 210.518 10.7363C210.518 11.0332 210.604 11.2715 210.775 11.4512C210.947 11.6309 211.266 11.8145 211.73 12.002C212.199 12.1895 212.584 12.3672 212.885 12.5352C213.186 12.6992 213.439 12.8867 213.646 13.0977C213.854 13.3047 214.012 13.543 214.121 13.8125C214.23 14.0781 214.285 14.3887 214.285 14.7441C214.285 15.4082 214.078 15.9473 213.664 16.3613C213.25 16.7754 212.68 17.0195 211.953 17.0938V18.2598H211.021V17.0996C210.221 17.0137 209.6 16.7305 209.158 16.25C208.721 15.7656 208.502 15.123 208.502 14.3223H210.195C210.195 14.7871 210.305 15.1445 210.523 15.3945C210.746 15.6406 211.064 15.7637 211.479 15.7637C211.822 15.7637 212.094 15.6738 212.293 15.4941C212.492 15.3105 212.592 15.0645 212.592 14.7559ZM219.547 17H217.854V10.4727L215.832 11.0996V9.72266L219.365 8.45703H219.547V17ZM228.066 13.4727C228.066 14.6523 227.822 15.5547 227.334 16.1797C226.846 16.8047 226.131 17.1172 225.189 17.1172C224.26 17.1172 223.549 16.8105 223.057 16.1973C222.564 15.584 222.312 14.7051 222.301 13.5605V11.9902C222.301 10.7988 222.547 9.89453 223.039 9.27734C223.535 8.66016 224.248 8.35156 225.178 8.35156C226.107 8.35156 226.818 8.6582 227.311 9.27148C227.803 9.88086 228.055 10.7578 228.066 11.9023V13.4727ZM226.373 11.75C226.373 11.043 226.275 10.5293 226.08 10.209C225.889 9.88477 225.588 9.72266 225.178 9.72266C224.779 9.72266 224.484 9.87695 224.293 10.1855C224.105 10.4902 224.006 10.9688 223.994 11.6211V13.6953C223.994 14.3906 224.088 14.9082 224.275 15.248C224.467 15.584 224.771 15.752 225.189 15.752C225.604 15.752 225.902 15.5898 226.086 15.2656C226.27 14.9414 226.365 14.4453 226.373 13.7773V11.75Z" fill="white"/>
<path d="M34.1505 96.8264C43.4245 96.8264 50.9426 89.3083 50.9426 80.0343C50.9426 70.7603 43.4245 63.2422 34.1505 63.2422C24.8765 63.2422 17.3584 70.7603 17.3584 80.0343C17.3584 89.3083 24.8765 96.8264 34.1505 96.8264Z" fill="white"/>
<path d="M34.1503 95.1474C35.0777 95.1474 35.8295 94.3956 35.8295 93.4682C35.8295 92.5408 35.0777 91.7891 34.1503 91.7891C33.223 91.7891 32.4712 92.5408 32.4712 93.4682C32.4712 94.3956 33.223 95.1474 34.1503 95.1474Z" fill="#595A66"/>
<path d="M50.9426 65.5939L51.4464 66.0977C51.7822 66.4335 52.286 66.6015 52.6218 66.6015C52.9576 66.6015 53.4613 66.4335 53.7971 66.0977C54.4689 65.426 54.4689 64.4186 53.7971 63.7468L50.4387 60.3884C49.7669 59.7166 48.7595 59.7166 48.0878 60.3884C47.416 61.0601 47.416 62.0675 48.0878 62.7393L48.5916 63.243L47.2482 64.5864C44.0577 61.8997 40.1955 60.2204 35.9975 59.8846V56.3583H37.6766C38.6842 56.3583 39.3558 55.6866 39.3558 54.6792C39.3558 53.6716 38.684 53 37.6766 53H30.9599C29.9523 53 29.2807 53.6717 29.2807 54.6792C29.2807 55.6867 29.9525 56.3583 30.9599 56.3583H32.639V59.8846C28.273 60.2204 24.4109 61.8997 21.3883 64.5864L20.0449 63.243L20.5487 62.7393C21.2205 62.0675 21.2205 61.0601 20.5487 60.3884C19.877 59.7166 18.8696 59.7166 18.1978 60.3884L14.8394 63.7468C14.1676 64.4186 14.1676 65.426 14.8394 66.0977C15.1752 66.4335 15.6789 66.6015 16.0147 66.6015C16.3505 66.6015 16.8543 66.4335 17.1901 66.0977L17.6939 65.5939L19.0373 66.9373C16.0147 70.4636 14.3354 74.9975 14.3354 79.8672C14.3354 90.9499 23.4031 100.018 34.4859 100.018C45.5686 100.018 54.6363 90.9499 54.6363 79.8672C54.6363 74.9975 52.7892 70.4636 49.9345 66.9373L50.9426 65.5939ZM34.1505 96.8273C24.9149 96.8273 17.3584 89.2708 17.3584 80.0351C17.3584 70.7995 24.9149 63.243 34.1505 63.243C43.3861 63.243 50.9426 70.7995 50.9426 80.0351C50.9426 89.2708 43.3861 96.8273 34.1505 96.8273Z" fill="#595A66"/>
<path d="M47.5841 80.0343H34.1504L43.7218 70.4629C46.0727 72.9816 47.5841 76.3401 47.5841 80.0343Z" fill="#D5DFEA"/>
<path d="M47.5841 80.0352C47.5841 83.7294 46.0727 87.0879 43.7218 89.6066L34.1504 80.0352H47.5841Z" fill="#C9D5E3"/>
<path d="M43.7218 70.4638L34.1504 80.0352V66.6016C37.8446 66.6016 41.2031 68.1129 43.7218 70.4638Z" fill="#E2E7F0"/>
<path d="M47.5839 81.7138C48.5113 81.7138 49.2631 80.962 49.2631 80.0346C49.2631 79.1072 48.5113 78.3555 47.5839 78.3555C46.6566 78.3555 45.9048 79.1072 45.9048 80.0346C45.9048 80.962 46.6566 81.7138 47.5839 81.7138Z" fill="#595A66"/>
<path d="M42.5465 90.111C42.0427 90.111 41.7069 89.9431 41.3711 89.6073L29.6166 77.8528C28.9449 77.181 28.9449 76.1736 29.6166 75.5019C30.2884 74.8301 31.2958 74.8301 31.9675 75.5019L43.722 87.2564C44.3938 87.9281 44.3938 88.9355 43.722 89.6073C43.3861 89.9432 43.0503 90.111 42.5465 90.111Z" fill="#F04D4F"/>
<path d="M43.7221 87.9282C43.3863 88.264 42.8825 88.432 42.5467 88.432C42.2109 88.432 41.7071 88.264 41.3713 87.9282L29.6168 76.1737C29.4489 76.0057 29.4489 76.0057 29.4489 75.8379C29.1131 76.5096 29.1131 77.3492 29.6168 77.853L41.3713 89.6075C41.7071 89.9433 42.2109 90.1113 42.5467 90.1113C42.8825 90.1113 43.3863 89.9433 43.7221 89.6075C44.2259 89.1037 44.3939 88.2641 43.8901 87.5924C43.8901 87.7602 43.8901 87.7602 43.7221 87.9282Z" fill="#DE333F"/>
<path d="M34.1504 83.3927C36.0053 83.3927 37.5089 81.8891 37.5089 80.0342C37.5089 78.1794 36.0053 76.6758 34.1504 76.6758C32.2956 76.6758 30.792 78.1794 30.792 80.0342C30.792 81.8891 32.2956 83.3927 34.1504 83.3927Z" fill="#595A66"/>
<path d="M35.4939 77.0117C35.6619 77.5155 35.8297 77.8513 35.8297 78.3551C35.8297 80.2022 34.3184 81.7135 32.4713 81.7135C31.9675 81.7135 31.4637 81.5455 31.1279 81.3777C31.6317 82.5531 32.8071 83.3928 34.1504 83.3928C35.9976 83.3928 37.5089 81.8815 37.5089 80.0344C37.509 78.6909 36.6695 77.5155 35.4939 77.0117Z" fill="#494A52"/>
<path d="M19.0377 81.7135C19.0377 72.4778 26.5942 64.9213 35.8298 64.9213C40.0278 64.9213 43.8901 66.4327 46.7446 69.1194C43.7221 65.5931 39.1881 63.2422 34.1505 63.2422C24.9149 63.2422 17.3584 70.7987 17.3584 80.0343C17.3584 85.0719 19.5413 89.6057 23.2356 92.6284C20.5489 89.7737 19.0377 85.9115 19.0377 81.7135Z" fill="#D5DFEA"/>
<path d="M20.7168 81.7138C21.6441 81.7138 22.3959 80.962 22.3959 80.0346C22.3959 79.1072 21.6441 78.3555 20.7168 78.3555C19.7894 78.3555 19.0376 79.1072 19.0376 80.0346C19.0376 80.962 19.7894 81.7138 20.7168 81.7138Z" fill="#595A66"/>
<path d="M34.1503 68.2802C35.0777 68.2802 35.8295 67.5284 35.8295 66.601C35.8295 65.6737 35.0777 64.9219 34.1503 64.9219C33.223 64.9219 32.4712 65.6737 32.4712 66.601C32.4712 67.5284 33.223 68.2802 34.1503 68.2802Z" fill="#595A66"/>
<path d="M34.1504 59.8848C23.0677 59.8848 14 68.9524 14 80.0352C14.8396 80.0352 15.6792 79.3634 15.6792 78.356C16.015 74.4938 17.5263 70.9675 19.8772 68.2808C22.8997 64.5866 27.4337 62.0677 32.4713 61.5641C33.4787 61.5639 34.1504 60.7243 34.1504 59.8848Z" fill="#6F707E"/>
<path d="M52.6216 80.0342C52.6216 85.4076 50.4386 90.1094 46.7444 93.4679C43.3859 96.4904 39.0199 98.5055 34.1503 98.5055C33.6465 98.5055 32.9749 98.5055 32.4711 98.3375C31.6316 98.1696 30.792 98.8413 30.792 99.8488C31.9674 100.017 32.9749 100.185 34.1504 100.185C39.6918 100.185 44.7294 98.0017 48.4237 94.3075C52.1179 90.6132 54.3009 85.5756 54.3009 80.0342C54.3009 78.8589 54.1329 77.8513 53.9651 76.6758C53.1255 76.6758 52.4537 77.5154 52.4537 78.3549C52.6216 78.8589 52.6216 79.5305 52.6216 80.0342Z" fill="#494A52"/>
<path d="M34.1503 56.5254H32.4712V58.2045H34.1503V59.8837C34.6541 59.8837 35.3257 59.8837 35.8295 60.0517V58.2045V56.5254H34.1503Z" fill="#494A52"/>
<path d="M19.8773 65.7629C20.2131 65.4271 20.7168 64.9233 21.0526 64.5875L19.7093 63.2441L17.3584 65.595L18.7018 66.9384C19.2055 66.6024 19.5415 66.2666 19.8773 65.7629Z" fill="#494A52"/>
<path d="M48.4236 65.7611C48.7594 66.0969 49.2631 66.6006 49.5989 66.9364L50.9423 65.5931L48.5914 63.2422L47.248 64.5855C47.584 65.0893 47.9198 65.4253 48.4236 65.7611Z" fill="#494A52"/>
<path d="M242.164 95.6731H173.436C171.546 95.6731 170 94.1267 170 92.2367V54.4364C170 52.5464 171.546 51 173.436 51H242.164C244.054 51 245.601 52.5464 245.601 54.4364V92.2367C245.601 94.1267 244.054 95.6731 242.164 95.6731Z" fill="#0E9347"/>
<path d="M233.573 81.9277C229.621 81.9277 226.013 83.8177 223.951 86.9104C222.233 86.0515 220.343 85.3642 218.109 85.3642C212.096 85.3642 207.113 89.8315 206.254 95.6733H242.164C243.882 95.6733 245.257 94.4706 245.601 92.7524C244.913 86.7387 239.759 81.9277 233.573 81.9277Z" fill="#0D8944"/>
<path d="M235.292 92.2376H180.309C180.309 88.4576 177.217 85.3649 173.437 85.3649V61.3102C177.217 61.3102 180.309 58.2175 180.309 54.4375H235.292C235.292 58.2175 238.384 61.3102 242.164 61.3102V85.3649C238.384 85.3649 235.292 88.4576 235.292 92.2376Z" fill="#3BB54A"/>
<path d="M233.573 81.9277C229.621 81.9277 226.013 83.8177 223.951 86.9104C222.233 86.0515 220.343 85.3642 218.109 85.3642C213.298 85.3642 209.175 88.1133 207.285 92.2369H235.291C235.291 88.4569 238.212 85.5359 241.992 85.3642C239.759 83.3023 236.838 81.9277 233.573 81.9277Z" fill="#0E9347"/>
<path d="M207.8 88.8005C215.392 88.8005 221.546 81.8771 221.546 73.3368C221.546 64.7964 215.392 57.873 207.8 57.873C200.209 57.873 194.055 64.7964 194.055 73.3368C194.055 81.8771 200.209 88.8005 207.8 88.8005Z" fill="#0E9347"/>
<path d="M187.182 76.7733C189.08 76.7733 190.618 75.2347 190.618 73.3368C190.618 71.4389 189.08 69.9004 187.182 69.9004C185.284 69.9004 183.746 71.4389 183.746 73.3368C183.746 75.2347 185.284 76.7733 187.182 76.7733Z" fill="#0E9347"/>
<path d="M228.418 76.7733C230.316 76.7733 231.855 75.2347 231.855 73.3368C231.855 71.4389 230.316 69.9004 228.418 69.9004C226.52 69.9004 224.982 71.4389 224.982 73.3368C224.982 75.2347 226.52 76.7733 228.418 76.7733Z" fill="#0E9347"/>
<path d="M209.519 71.6181H206.082C205.051 71.6181 204.364 70.9307 204.364 69.8999C204.364 68.869 205.051 68.1818 206.082 68.1818H211.237C212.268 68.1818 212.955 67.4944 212.955 66.4636C212.955 65.4327 212.268 64.7455 211.237 64.7455H209.519C209.519 63.7145 208.831 63.0273 207.8 63.0273C206.77 63.0273 206.082 63.7147 206.082 64.7455C203.161 64.7455 200.928 66.9791 200.928 69.9001C200.928 72.821 203.161 75.0546 206.082 75.0546H209.519C210.55 75.0546 211.237 75.742 211.237 76.7728C211.237 77.8037 210.55 78.4909 209.519 78.4909H204.364C203.333 78.4909 202.646 79.1783 202.646 80.2091C202.646 81.24 203.333 81.9272 204.364 81.9272H206.082C206.082 82.9581 206.77 83.6453 207.8 83.6453C208.831 83.6453 209.519 82.958 209.519 81.9272C212.44 81.9272 214.673 79.6936 214.673 76.7726C214.673 73.8517 212.44 71.6181 209.519 71.6181Z" fill="#89C763"/>
<path d="M214.673 109.418C221.316 109.418 226.7 104.033 226.7 97.3907C226.7 90.7481 221.316 85.3633 214.673 85.3633C208.03 85.3633 202.646 90.7481 202.646 97.3907C202.646 104.033 208.03 109.418 214.673 109.418Z" fill="#FFCA5D"/>
<path d="M230.137 105.983C236.779 105.983 242.164 100.598 242.164 93.9552C242.164 87.3126 236.779 81.9277 230.137 81.9277C223.494 81.9277 218.109 87.3126 218.109 93.9552C218.109 100.598 223.494 105.983 230.137 105.983Z" fill="#F6B545"/>
<path d="M230.137 81.9277C223.436 81.9277 218.109 87.2542 218.109 93.9552C218.109 100.656 223.436 105.983 230.137 105.983C236.838 105.983 242.164 100.656 242.164 93.9552C242.164 87.2542 236.838 81.9277 230.137 81.9277ZM230.137 102.546C225.326 102.546 221.546 98.7661 221.546 93.9552C221.546 89.1442 225.326 85.3642 230.137 85.3642C234.948 85.3642 238.728 89.1442 238.728 93.9552C238.728 98.7661 234.948 102.546 230.137 102.546Z" fill="#FFCB5B"/>
<path d="M230.137 105.811C236.838 105.983 242.164 100.484 242.164 93.9551H241.992C241.133 93.9551 240.446 94.6424 240.274 95.5015C239.931 97.907 238.728 100.141 237.01 101.687C235.635 103.062 233.745 103.921 231.683 104.264C230.824 104.264 230.137 104.952 230.137 105.811Z" fill="#F6B545"/>
<path d="M230.137 82.0996C223.436 81.9278 218.109 87.4261 218.109 93.9552H218.281C219.14 93.9552 219.828 93.2678 219.999 92.4088C220.343 90.0033 221.546 87.7697 223.264 86.2233C224.638 84.8487 226.529 83.9896 228.59 83.6459C229.449 83.646 230.137 82.9587 230.137 82.0996Z" fill="#FFE27A"/>
<path d="M222.749 95.157C222.749 90.346 226.529 86.5659 231.34 86.5659C233.401 86.5659 235.291 87.2533 236.838 88.6278C235.12 86.566 232.886 85.3633 230.137 85.3633C225.326 85.3633 221.546 89.1433 221.546 93.9543C221.546 96.7034 222.749 98.937 224.639 100.483C223.436 99.1089 222.749 97.2188 222.749 95.157Z" fill="#F19920"/>
<path d="M235.291 99.2812C235.119 99.2812 234.948 99.2812 234.776 99.1093C234.432 98.7657 234.432 98.2503 234.776 97.9067C235.807 96.8757 236.322 95.3293 236.322 93.9548C236.322 93.4393 236.666 93.0957 237.181 93.0957C237.697 93.0957 238.04 93.4393 238.04 93.9548C238.04 95.8448 237.353 97.7348 236.15 99.1093C235.807 99.2812 235.463 99.2812 235.291 99.2812Z" fill="#FFCB5B"/>
<path d="M230.137 99.1078C229.106 99.1078 228.418 98.4205 228.418 97.3897V90.517C228.418 89.486 229.106 88.7988 230.137 88.7988C231.167 88.7988 231.855 89.4862 231.855 90.517V97.3897C231.855 98.4205 231.168 99.1078 230.137 99.1078Z" fill="#F19920"/>
<path d="M236.494 104.092C235.292 99.7961 232.199 96.3596 228.247 94.8134C227.559 90.8615 224.982 87.4252 221.718 85.3633C219.656 87.5969 218.281 90.5179 218.281 93.7824C218.281 100.483 223.608 105.81 230.309 105.81C232.542 105.982 234.604 105.294 236.494 104.092Z" fill="#F19920"/>
<path d="M224.639 100.484C223.436 98.9376 222.577 97.0476 222.577 94.9858C222.577 92.5804 223.608 90.3467 225.326 88.8003C224.982 88.2849 224.639 87.9413 224.295 87.5977C222.577 89.1441 221.546 91.3777 221.546 93.955C221.546 96.704 222.749 98.9376 224.639 100.484Z" fill="#E78825"/>
<path d="M228.418 94.9863V97.3918C228.418 98.4228 229.106 99.11 230.137 99.11C231.167 99.11 231.855 98.4226 231.855 97.3918V97.0482C230.824 96.189 229.621 95.5018 228.418 94.9863Z" fill="#E78825"/>
<path d="M236.494 104.092C236.15 102.889 235.807 101.858 235.12 100.827C233.745 101.858 232.027 102.545 230.137 102.545C225.326 102.545 221.546 98.7654 221.546 93.9544C221.546 91.3771 222.577 89.1435 224.295 87.597C223.436 86.738 222.577 86.0506 221.546 85.5352C219.484 87.7688 218.109 90.6897 218.109 93.9543C218.109 100.655 223.436 105.982 230.137 105.982C232.542 105.982 234.604 105.295 236.494 104.092Z" fill="#F6B545"/>
<path d="M235.979 102.547C234.776 103.406 233.23 103.921 231.683 104.265C230.824 104.437 230.137 105.124 230.137 105.983C232.542 105.983 234.604 105.296 236.494 104.093C236.322 103.578 236.151 103.062 235.979 102.547Z" fill="#F19920"/>
<path d="M221.546 85.5352C219.484 87.7688 218.109 90.6897 218.109 93.9543H218.281C219.14 93.9543 219.828 93.2669 219.999 92.4079C220.343 90.0024 221.546 87.9405 223.092 86.3942C222.577 86.2224 222.061 85.8788 221.546 85.5352Z" fill="#FFCB5B"/>
<path d="M214.673 109.418C221.316 109.418 226.7 104.033 226.7 97.3907C226.7 90.7481 221.316 85.3633 214.673 85.3633C208.03 85.3633 202.646 90.7481 202.646 97.3907C202.646 104.033 208.03 109.418 214.673 109.418Z" fill="#F6B545"/>
<path d="M212.955 105.983C212.955 107.185 213.126 108.216 213.47 109.419C213.814 109.419 214.329 109.419 214.673 109.419C221.374 109.419 226.7 104.092 226.7 97.3915C226.7 96.1888 226.528 95.1579 226.185 93.9551C225.841 93.9551 225.326 93.9551 224.982 93.9551C218.281 93.9552 212.955 99.2817 212.955 105.983Z" fill="#F19920"/>
<path d="M214.673 85.3633C207.972 85.3633 202.646 90.6897 202.646 97.3907C202.646 104.092 207.972 109.418 214.673 109.418C221.374 109.418 226.7 104.092 226.7 97.3907C226.7 90.6899 221.374 85.3633 214.673 85.3633ZM214.673 105.982C209.862 105.982 206.082 102.202 206.082 97.3906C206.082 92.5796 209.862 88.7996 214.673 88.7996C219.484 88.7996 223.264 92.5796 223.264 97.3906C223.264 102.202 219.484 105.982 214.673 105.982Z" fill="#FFCB5B"/>
<path d="M214.673 109.246C221.374 109.418 226.7 103.92 226.7 97.3906H226.528C225.669 97.3906 224.982 98.078 224.81 98.937C224.467 101.343 223.264 103.576 221.546 105.123C220.171 106.497 218.281 107.356 216.219 107.7C215.36 107.7 214.673 108.387 214.673 109.246Z" fill="#F6B545"/>
<path d="M214.673 85.5352C207.972 85.3633 202.646 90.8616 202.646 97.3907H202.817C203.676 97.3907 204.364 96.7034 204.536 95.8443C204.879 93.4388 206.082 91.2052 207.8 89.6588C209.175 88.2843 211.065 87.4252 213.127 87.0814C213.986 87.0814 214.673 86.3942 214.673 85.5352Z" fill="#FFE27A"/>
<path d="M207.285 98.5945C207.285 93.7835 211.065 90.0034 215.876 90.0034C217.938 90.0034 219.828 90.6908 221.374 92.0653C219.656 90.0034 217.422 88.8008 214.673 88.8008C209.862 88.8008 206.082 92.5808 206.082 97.3918C206.082 100.141 207.285 102.374 209.175 103.921C207.972 102.546 207.285 100.656 207.285 98.5945Z" fill="#F19920"/>
<path d="M219.828 102.717C219.656 102.717 219.484 102.717 219.312 102.545C218.969 102.201 218.969 101.686 219.312 101.342C220.343 100.311 220.859 98.7649 220.859 97.3903C220.859 96.8749 221.202 96.5312 221.718 96.5312C222.233 96.5312 222.577 96.8749 222.577 97.3903C222.577 99.2803 221.89 101.17 220.687 102.545C220.343 102.717 220 102.717 219.828 102.717Z" fill="#FFCB5B"/>
<path d="M214.673 102.545C213.642 102.545 212.955 101.858 212.955 100.827V93.9545C212.955 92.9235 213.642 92.2363 214.673 92.2363C215.704 92.2363 216.391 92.9237 216.391 93.9545V100.827C216.391 101.858 215.704 102.545 214.673 102.545Z" fill="#F19920"/>
<path d="M222.577 94.127C222.92 95.1579 223.264 96.1888 223.264 97.3915C223.264 102.202 219.484 105.983 214.673 105.983C214.158 105.983 213.471 105.983 212.955 105.811V105.983C212.955 107.185 213.127 108.216 213.471 109.419C213.814 109.419 214.33 109.419 214.673 109.419C221.374 109.419 226.701 104.092 226.701 97.3915C226.701 96.1888 226.529 95.1579 226.185 93.9551C225.842 93.9551 225.326 93.9551 224.983 93.9551C224.123 93.9552 223.436 93.9552 222.577 94.127Z" fill="#F6B545"/>
<path d="M223.264 119.729C229.907 119.729 235.292 114.344 235.292 107.701C235.292 101.059 229.907 95.6738 223.264 95.6738C216.622 95.6738 211.237 101.059 211.237 107.701C211.237 114.344 216.622 119.729 223.264 119.729Z" fill="#F6B545"/>
<path d="M223.264 95.6738C216.563 95.6738 211.236 101 211.236 107.701C211.236 114.402 216.563 119.729 223.264 119.729C229.965 119.729 235.291 114.402 235.291 107.701C235.291 101 229.965 95.6738 223.264 95.6738ZM223.264 116.292C218.453 116.292 214.673 112.512 214.673 107.701C214.673 102.89 218.453 99.1103 223.264 99.1103C228.075 99.1103 231.855 102.89 231.855 107.701C231.855 112.512 228.075 116.292 223.264 116.292Z" fill="#FFCB5B"/>
<path d="M223.264 119.557C229.965 119.729 235.291 114.23 235.291 107.701H235.119C234.26 107.701 233.573 108.389 233.401 109.248C233.057 111.653 231.855 113.887 230.137 115.433C228.762 116.808 226.872 117.667 224.81 118.01C223.951 118.01 223.264 118.698 223.264 119.557Z" fill="#F6B545"/>
<path d="M223.264 95.8457C216.563 95.6738 211.236 101.172 211.236 107.701H211.408C212.267 107.701 212.955 107.014 213.126 106.155C213.47 103.749 214.673 101.516 216.391 99.9693C217.765 98.5948 219.655 97.7357 221.717 97.392C222.577 97.3921 223.264 96.7048 223.264 95.8457Z" fill="#FFE27A"/>
<path d="M215.876 108.903C215.876 104.092 219.656 100.312 224.467 100.312C226.529 100.312 228.419 100.999 229.965 102.374C228.247 100.312 226.013 99.1094 223.264 99.1094C218.453 99.1094 214.673 102.889 214.673 107.7C214.673 110.449 215.876 112.683 217.766 114.229C216.563 112.855 215.876 110.965 215.876 108.903Z" fill="#F19920"/>
<path d="M228.419 113.027C228.247 113.027 228.075 113.027 227.903 112.855C227.56 112.512 227.56 111.996 227.903 111.653C228.934 110.622 229.45 109.075 229.45 107.701C229.45 107.185 229.793 106.842 230.309 106.842C230.824 106.842 231.168 107.185 231.168 107.701C231.168 109.591 230.48 111.481 229.278 112.855C228.934 113.027 228.591 113.027 228.419 113.027Z" fill="#FFCB5B"/>
<path d="M223.264 112.856C222.233 112.856 221.546 112.169 221.546 111.138V104.265C221.546 103.234 222.233 102.547 223.264 102.547C224.295 102.547 224.982 103.234 224.982 104.265V111.138C224.982 112.169 224.295 112.856 223.264 112.856Z" fill="#F19920"/>
<path d="M13.418 140H12.0986V135.399H7.08105V140H5.76855V130.047H7.08105V134.326H12.0986V130.047H13.418V140ZM18.6201 140.137C17.6175 140.137 16.8018 139.809 16.1729 139.152C15.5439 138.492 15.2295 137.61 15.2295 136.507V136.274C15.2295 135.541 15.3685 134.887 15.6465 134.312C15.929 133.734 16.321 133.283 16.8223 132.959C17.3281 132.631 17.875 132.467 18.4629 132.467C19.4245 132.467 20.1719 132.784 20.7051 133.417C21.2383 134.05 21.5049 134.957 21.5049 136.138V136.664H16.4941C16.5124 137.393 16.7243 137.983 17.1299 138.435C17.54 138.881 18.0596 139.104 18.6885 139.104C19.1351 139.104 19.5133 139.013 19.8232 138.831C20.1331 138.649 20.4043 138.407 20.6367 138.106L21.4092 138.708C20.7894 139.66 19.8597 140.137 18.6201 140.137ZM18.4629 133.506C17.9525 133.506 17.5241 133.693 17.1777 134.066C16.8314 134.436 16.6172 134.955 16.5352 135.625H20.2402V135.529C20.2038 134.887 20.0306 134.39 19.7207 134.039C19.4108 133.684 18.9915 133.506 18.4629 133.506ZM24.3486 140H23.084V129.5H24.3486V140ZM32.627 136.384C32.627 137.509 32.3695 138.416 31.8545 139.104C31.3395 139.793 30.6423 140.137 29.7627 140.137C28.8649 140.137 28.1585 139.852 27.6436 139.282V142.844H26.3789V132.604H27.5342L27.5957 133.424C28.1107 132.786 28.8262 132.467 29.7422 132.467C30.6309 132.467 31.3327 132.802 31.8477 133.472C32.3672 134.142 32.627 135.074 32.627 136.268V136.384ZM31.3623 136.24C31.3623 135.406 31.1846 134.748 30.8291 134.265C30.4736 133.782 29.986 133.54 29.3662 133.54C28.6006 133.54 28.0264 133.88 27.6436 134.559V138.093C28.0218 138.767 28.6006 139.104 29.3799 139.104C29.986 139.104 30.4668 138.865 30.8223 138.387C31.1823 137.904 31.3623 137.188 31.3623 136.24ZM38.9775 133.499C39.5381 132.811 40.2673 132.467 41.165 132.467C42.7282 132.467 43.5166 133.349 43.5303 135.112V140H42.2656V135.105C42.2611 134.572 42.138 134.178 41.8965 133.923C41.6595 133.668 41.2881 133.54 40.7822 133.54C40.3721 133.54 40.012 133.649 39.7021 133.868C39.3923 134.087 39.1507 134.374 38.9775 134.729V140H37.7129V129.5H38.9775V133.499ZM45.0889 136.233C45.0889 135.509 45.2301 134.857 45.5127 134.278C45.7998 133.7 46.1963 133.253 46.7021 132.938C47.2126 132.624 47.7936 132.467 48.4453 132.467C49.4525 132.467 50.266 132.815 50.8857 133.513C51.5101 134.21 51.8223 135.137 51.8223 136.295V136.384C51.8223 137.104 51.6833 137.751 51.4053 138.325C51.1318 138.895 50.7376 139.339 50.2227 139.658C49.7122 139.977 49.1243 140.137 48.459 140.137C47.4564 140.137 46.6429 139.788 46.0186 139.091C45.3988 138.394 45.0889 137.471 45.0889 136.322V136.233ZM46.3604 136.384C46.3604 137.204 46.5495 137.863 46.9277 138.359C47.3105 138.856 47.821 139.104 48.459 139.104C49.1016 139.104 49.612 138.854 49.9902 138.353C50.3685 137.847 50.5576 137.14 50.5576 136.233C50.5576 135.422 50.3639 134.766 49.9766 134.265C49.5938 133.759 49.0833 133.506 48.4453 133.506C47.821 133.506 47.3174 133.754 46.9346 134.251C46.5518 134.748 46.3604 135.459 46.3604 136.384ZM56.9834 133.738C56.792 133.706 56.5846 133.69 56.3613 133.69C55.5319 133.69 54.9691 134.044 54.6729 134.75V140H53.4082V132.604H54.6387L54.6592 133.458C55.0739 132.797 55.6618 132.467 56.4229 132.467C56.6689 132.467 56.8558 132.499 56.9834 132.562V133.738ZM62.459 138.038C62.459 137.696 62.3291 137.432 62.0693 137.245C61.8141 137.054 61.3652 136.89 60.7227 136.753C60.0846 136.616 59.5765 136.452 59.1982 136.261C58.8245 136.069 58.5465 135.841 58.3643 135.577C58.1865 135.313 58.0977 134.998 58.0977 134.634C58.0977 134.028 58.3529 133.515 58.8633 133.096C59.3783 132.676 60.0345 132.467 60.832 132.467C61.6706 132.467 62.3496 132.683 62.8691 133.116C63.3932 133.549 63.6553 134.103 63.6553 134.777H62.3838C62.3838 134.431 62.2357 134.132 61.9395 133.882C61.6478 133.631 61.2786 133.506 60.832 133.506C60.3717 133.506 60.0117 133.606 59.752 133.807C59.4922 134.007 59.3623 134.269 59.3623 134.593C59.3623 134.898 59.4831 135.128 59.7246 135.283C59.9661 135.438 60.4014 135.586 61.0303 135.728C61.6637 135.869 62.1764 136.037 62.5684 136.233C62.9603 136.429 63.2497 136.666 63.4365 136.944C63.6279 137.218 63.7236 137.553 63.7236 137.949C63.7236 138.61 63.4593 139.141 62.9307 139.542C62.402 139.938 61.7161 140.137 60.873 140.137C60.2806 140.137 59.7565 140.032 59.3008 139.822C58.8451 139.613 58.4873 139.321 58.2275 138.947C57.9723 138.569 57.8447 138.161 57.8447 137.724H59.1094C59.1322 138.147 59.3008 138.485 59.6152 138.735C59.9342 138.981 60.3535 139.104 60.873 139.104C61.3516 139.104 61.7344 139.009 62.0215 138.817C62.3132 138.621 62.459 138.362 62.459 138.038ZM68.4404 140.137C67.4378 140.137 66.6221 139.809 65.9932 139.152C65.3643 138.492 65.0498 137.61 65.0498 136.507V136.274C65.0498 135.541 65.1888 134.887 65.4668 134.312C65.7493 133.734 66.1413 133.283 66.6426 132.959C67.1484 132.631 67.6953 132.467 68.2832 132.467C69.2448 132.467 69.9922 132.784 70.5254 133.417C71.0586 134.05 71.3252 134.957 71.3252 136.138V136.664H66.3145C66.3327 137.393 66.5446 137.983 66.9502 138.435C67.3604 138.881 67.8799 139.104 68.5088 139.104C68.9554 139.104 69.3337 139.013 69.6436 138.831C69.9535 138.649 70.2246 138.407 70.457 138.106L71.2295 138.708C70.6097 139.66 69.68 140.137 68.4404 140.137ZM68.2832 133.506C67.7728 133.506 67.3444 133.693 66.998 134.066C66.6517 134.436 66.4375 134.955 66.3555 135.625H70.0605V135.529C70.0241 134.887 69.8509 134.39 69.541 134.039C69.2311 133.684 68.8118 133.506 68.2832 133.506ZM77.1016 138.038C77.1016 137.696 76.9717 137.432 76.7119 137.245C76.4567 137.054 76.0078 136.89 75.3652 136.753C74.7272 136.616 74.2191 136.452 73.8408 136.261C73.4671 136.069 73.1891 135.841 73.0068 135.577C72.8291 135.313 72.7402 134.998 72.7402 134.634C72.7402 134.028 72.9954 133.515 73.5059 133.096C74.0208 132.676 74.6771 132.467 75.4746 132.467C76.3132 132.467 76.9922 132.683 77.5117 133.116C78.0358 133.549 78.2979 134.103 78.2979 134.777H77.0264C77.0264 134.431 76.8783 134.132 76.582 133.882C76.2904 133.631 75.9212 133.506 75.4746 133.506C75.0143 133.506 74.6543 133.606 74.3945 133.807C74.1348 134.007 74.0049 134.269 74.0049 134.593C74.0049 134.898 74.1257 135.128 74.3672 135.283C74.6087 135.438 75.0439 135.586 75.6729 135.728C76.3063 135.869 76.819 136.037 77.2109 136.233C77.6029 136.429 77.8923 136.666 78.0791 136.944C78.2705 137.218 78.3662 137.553 78.3662 137.949C78.3662 138.61 78.1019 139.141 77.5732 139.542C77.0446 139.938 76.3587 140.137 75.5156 140.137C74.9232 140.137 74.3991 140.032 73.9434 139.822C73.4876 139.613 73.1299 139.321 72.8701 138.947C72.6149 138.569 72.4873 138.161 72.4873 137.724H73.752C73.7747 138.147 73.9434 138.485 74.2578 138.735C74.5768 138.981 74.9961 139.104 75.5156 139.104C75.9941 139.104 76.377 139.009 76.6641 138.817C76.9557 138.621 77.1016 138.362 77.1016 138.038ZM90.0352 138.257L91.457 132.604H92.7217L90.5684 140H89.543L87.7451 134.395L85.9951 140H84.9697L82.8232 132.604H84.0811L85.5371 138.141L87.2598 132.604H88.2783L90.0352 138.257ZM95.3877 140H94.123V132.604H95.3877V140ZM94.0205 130.642C94.0205 130.437 94.082 130.263 94.2051 130.122C94.3327 129.981 94.5195 129.91 94.7656 129.91C95.0117 129.91 95.1986 129.981 95.3262 130.122C95.4538 130.263 95.5176 130.437 95.5176 130.642C95.5176 130.847 95.4538 131.018 95.3262 131.154C95.1986 131.291 95.0117 131.359 94.7656 131.359C94.5195 131.359 94.3327 131.291 94.2051 131.154C94.082 131.018 94.0205 130.847 94.0205 130.642ZM98.6143 132.604L98.6553 133.533C99.2204 132.822 99.9587 132.467 100.87 132.467C102.433 132.467 103.222 133.349 103.235 135.112V140H101.971V135.105C101.966 134.572 101.843 134.178 101.602 133.923C101.365 133.668 100.993 133.54 100.487 133.54C100.077 133.54 99.7171 133.649 99.4072 133.868C99.0973 134.087 98.8558 134.374 98.6826 134.729V140H97.418V132.604H98.6143ZM108.28 136.233C108.28 135.509 108.422 134.857 108.704 134.278C108.991 133.7 109.388 133.253 109.894 132.938C110.404 132.624 110.985 132.467 111.637 132.467C112.644 132.467 113.457 132.815 114.077 133.513C114.701 134.21 115.014 135.137 115.014 136.295V136.384C115.014 137.104 114.875 137.751 114.597 138.325C114.323 138.895 113.929 139.339 113.414 139.658C112.904 139.977 112.316 140.137 111.65 140.137C110.648 140.137 109.834 139.788 109.21 139.091C108.59 138.394 108.28 137.471 108.28 136.322V136.233ZM109.552 136.384C109.552 137.204 109.741 137.863 110.119 138.359C110.502 138.856 111.012 139.104 111.65 139.104C112.293 139.104 112.803 138.854 113.182 138.353C113.56 137.847 113.749 137.14 113.749 136.233C113.749 135.422 113.555 134.766 113.168 134.265C112.785 133.759 112.275 133.506 111.637 133.506C111.012 133.506 110.509 133.754 110.126 134.251C109.743 134.748 109.552 135.459 109.552 136.384ZM120.175 133.738C119.983 133.706 119.776 133.69 119.553 133.69C118.723 133.69 118.16 134.044 117.864 134.75V140H116.6V132.604H117.83L117.851 133.458C118.265 132.797 118.853 132.467 119.614 132.467C119.86 132.467 120.047 132.499 120.175 132.562V133.738ZM25.0664 157H23.8018V146.5H25.0664V157ZM26.7617 153.233C26.7617 152.509 26.903 151.857 27.1855 151.278C27.4727 150.7 27.8691 150.253 28.375 149.938C28.8854 149.624 29.4665 149.467 30.1182 149.467C31.1253 149.467 31.9388 149.815 32.5586 150.513C33.1829 151.21 33.4951 152.137 33.4951 153.295V153.384C33.4951 154.104 33.3561 154.751 33.0781 155.325C32.8047 155.895 32.4105 156.339 31.8955 156.658C31.3851 156.977 30.7972 157.137 30.1318 157.137C29.1292 157.137 28.3158 156.788 27.6914 156.091C27.0716 155.394 26.7617 154.471 26.7617 153.322V153.233ZM28.0332 153.384C28.0332 154.204 28.2223 154.863 28.6006 155.359C28.9834 155.856 29.4938 156.104 30.1318 156.104C30.7744 156.104 31.2848 155.854 31.6631 155.353C32.0413 154.847 32.2305 154.14 32.2305 153.233C32.2305 152.422 32.0368 151.766 31.6494 151.265C31.2666 150.759 30.7562 150.506 30.1182 150.506C29.4938 150.506 28.9902 150.754 28.6074 151.251C28.2246 151.748 28.0332 152.459 28.0332 153.384ZM39.3877 155.038C39.3877 154.696 39.2578 154.432 38.998 154.245C38.7428 154.054 38.2939 153.89 37.6514 153.753C37.0133 153.616 36.5052 153.452 36.127 153.261C35.7533 153.069 35.4753 152.841 35.293 152.577C35.1152 152.313 35.0264 151.998 35.0264 151.634C35.0264 151.028 35.2816 150.515 35.792 150.096C36.307 149.676 36.9632 149.467 37.7607 149.467C38.5993 149.467 39.2783 149.683 39.7979 150.116C40.3219 150.549 40.584 151.103 40.584 151.777H39.3125C39.3125 151.431 39.1644 151.132 38.8682 150.882C38.5765 150.631 38.2074 150.506 37.7607 150.506C37.3005 150.506 36.9404 150.606 36.6807 150.807C36.4209 151.007 36.291 151.269 36.291 151.593C36.291 151.898 36.4118 152.128 36.6533 152.283C36.8949 152.438 37.3301 152.586 37.959 152.728C38.5924 152.869 39.1051 153.037 39.4971 153.233C39.889 153.429 40.1784 153.666 40.3652 153.944C40.5566 154.218 40.6523 154.553 40.6523 154.949C40.6523 155.61 40.388 156.141 39.8594 156.542C39.3307 156.938 38.6449 157.137 37.8018 157.137C37.2093 157.137 36.6852 157.032 36.2295 156.822C35.7738 156.613 35.416 156.321 35.1562 155.947C34.901 155.569 34.7734 155.161 34.7734 154.724H36.0381C36.0609 155.147 36.2295 155.485 36.5439 155.735C36.863 155.981 37.2822 156.104 37.8018 156.104C38.2803 156.104 38.6631 156.009 38.9502 155.817C39.2419 155.621 39.3877 155.362 39.3877 155.038ZM45.3691 157.137C44.3665 157.137 43.5508 156.809 42.9219 156.152C42.293 155.492 41.9785 154.61 41.9785 153.507V153.274C41.9785 152.541 42.1175 151.887 42.3955 151.312C42.6781 150.734 43.07 150.283 43.5713 149.959C44.0771 149.631 44.624 149.467 45.2119 149.467C46.1735 149.467 46.9209 149.784 47.4541 150.417C47.9873 151.05 48.2539 151.957 48.2539 153.138V153.664H43.2432C43.2614 154.393 43.4733 154.983 43.8789 155.435C44.2891 155.881 44.8086 156.104 45.4375 156.104C45.8841 156.104 46.2624 156.013 46.5723 155.831C46.8822 155.649 47.1533 155.407 47.3857 155.106L48.1582 155.708C47.5384 156.66 46.6087 157.137 45.3691 157.137ZM45.2119 150.506C44.7015 150.506 44.2731 150.693 43.9268 151.066C43.5804 151.436 43.3662 151.955 43.2842 152.625H46.9893V152.529C46.9528 151.887 46.7796 151.39 46.4697 151.039C46.1598 150.684 45.7406 150.506 45.2119 150.506ZM54.9121 147.812V149.604H56.293V150.581H54.9121V155.168C54.9121 155.464 54.9736 155.688 55.0967 155.838C55.2197 155.984 55.4294 156.057 55.7256 156.057C55.8714 156.057 56.0719 156.029 56.3271 155.975V157C55.9945 157.091 55.6709 157.137 55.3564 157.137C54.7913 157.137 54.3652 156.966 54.0781 156.624C53.791 156.282 53.6475 155.797 53.6475 155.168V150.581H52.3008V149.604H53.6475V147.812H54.9121ZM59.041 150.499C59.6016 149.811 60.3307 149.467 61.2285 149.467C62.7917 149.467 63.5801 150.349 63.5938 152.112V157H62.3291V152.105C62.3245 151.572 62.2015 151.178 61.96 150.923C61.723 150.668 61.3516 150.54 60.8457 150.54C60.4355 150.54 60.0755 150.649 59.7656 150.868C59.4557 151.087 59.2142 151.374 59.041 151.729V157H57.7764V146.5H59.041V150.499ZM68.5566 157.137C67.554 157.137 66.7383 156.809 66.1094 156.152C65.4805 155.492 65.166 154.61 65.166 153.507V153.274C65.166 152.541 65.305 151.887 65.583 151.312C65.8656 150.734 66.2575 150.283 66.7588 149.959C67.2646 149.631 67.8115 149.467 68.3994 149.467C69.361 149.467 70.1084 149.784 70.6416 150.417C71.1748 151.05 71.4414 151.957 71.4414 153.138V153.664H66.4307C66.4489 154.393 66.6608 154.983 67.0664 155.435C67.4766 155.881 67.9961 156.104 68.625 156.104C69.0716 156.104 69.4499 156.013 69.7598 155.831C70.0697 155.649 70.3408 155.407 70.5732 155.106L71.3457 155.708C70.7259 156.66 69.7962 157.137 68.5566 157.137ZM68.3994 150.506C67.889 150.506 67.4606 150.693 67.1143 151.066C66.7679 151.436 66.5537 151.955 66.4717 152.625H70.1768V152.529C70.1403 151.887 69.9671 151.39 69.6572 151.039C69.3473 150.684 68.9281 150.506 68.3994 150.506ZM79.959 150.738C79.7676 150.706 79.5602 150.69 79.3369 150.69C78.5075 150.69 77.9447 151.044 77.6484 151.75V157H76.3838V149.604H77.6143L77.6348 150.458C78.0495 149.797 78.6374 149.467 79.3984 149.467C79.6445 149.467 79.8314 149.499 79.959 149.562V150.738ZM85.4209 157C85.348 156.854 85.2887 156.594 85.2432 156.221C84.6553 156.831 83.9535 157.137 83.1377 157.137C82.4085 157.137 81.8092 156.932 81.3398 156.521C80.875 156.107 80.6426 155.583 80.6426 154.949C80.6426 154.179 80.9342 153.582 81.5176 153.158C82.1055 152.73 82.9303 152.516 83.9922 152.516H85.2227V151.935C85.2227 151.493 85.0905 151.142 84.8262 150.882C84.5618 150.618 84.1722 150.485 83.6572 150.485C83.2061 150.485 82.8278 150.599 82.5225 150.827C82.2171 151.055 82.0645 151.331 82.0645 151.654H80.793C80.793 151.285 80.9229 150.93 81.1826 150.588C81.4469 150.242 81.8024 149.968 82.249 149.768C82.7002 149.567 83.1947 149.467 83.7324 149.467C84.5846 149.467 85.2523 149.681 85.7354 150.109C86.2184 150.533 86.4691 151.119 86.4873 151.866V155.271C86.4873 155.95 86.5739 156.49 86.7471 156.891V157H85.4209ZM83.3223 156.036C83.7188 156.036 84.0947 155.934 84.4502 155.729C84.8057 155.523 85.0632 155.257 85.2227 154.929V153.411H84.2314C82.682 153.411 81.9072 153.865 81.9072 154.771C81.9072 155.168 82.0394 155.478 82.3037 155.701C82.568 155.924 82.9076 156.036 83.3223 156.036ZM91.4365 156.104C91.8877 156.104 92.2819 155.968 92.6191 155.694C92.9564 155.421 93.1432 155.079 93.1797 154.669H94.376C94.3532 155.093 94.2074 155.496 93.9385 155.879C93.6696 156.262 93.3096 156.567 92.8584 156.795C92.4118 157.023 91.9378 157.137 91.4365 157.137C90.4294 157.137 89.6273 156.802 89.0303 156.132C88.4378 155.457 88.1416 154.537 88.1416 153.37V153.158C88.1416 152.438 88.2738 151.798 88.5381 151.237C88.8024 150.677 89.1807 150.242 89.6729 149.932C90.1696 149.622 90.7552 149.467 91.4297 149.467C92.2591 149.467 92.9473 149.715 93.4941 150.212C94.0456 150.709 94.3395 151.354 94.376 152.146H93.1797C93.1432 151.668 92.9609 151.276 92.6328 150.971C92.3092 150.661 91.9082 150.506 91.4297 150.506C90.7871 150.506 90.2881 150.738 89.9326 151.203C89.5817 151.663 89.4062 152.331 89.4062 153.206V153.445C89.4062 154.298 89.5817 154.954 89.9326 155.414C90.2835 155.874 90.7848 156.104 91.4365 156.104ZM98.8672 157.137C97.8646 157.137 97.0488 156.809 96.4199 156.152C95.791 155.492 95.4766 154.61 95.4766 153.507V153.274C95.4766 152.541 95.6156 151.887 95.8936 151.312C96.1761 150.734 96.568 150.283 97.0693 149.959C97.5752 149.631 98.1221 149.467 98.71 149.467C99.6715 149.467 100.419 149.784 100.952 150.417C101.485 151.05 101.752 151.957 101.752 153.138V153.664H96.7412C96.7594 154.393 96.9714 154.983 97.377 155.435C97.7871 155.881 98.3066 156.104 98.9355 156.104C99.3822 156.104 99.7604 156.013 100.07 155.831C100.38 155.649 100.651 155.407 100.884 155.106L101.656 155.708C101.036 156.66 100.107 157.137 98.8672 157.137ZM98.71 150.506C98.1995 150.506 97.7712 150.693 97.4248 151.066C97.0785 151.436 96.8643 151.955 96.7822 152.625H100.487V152.529C100.451 151.887 100.278 151.39 99.9678 151.039C99.6579 150.684 99.2386 150.506 98.71 150.506Z" fill="#979797"/>
<path d="M159.351 131.127H156.151V140H154.846V131.127H151.653V130.047H159.351V131.127ZM162.003 140H160.738V132.604H162.003V140ZM160.636 130.642C160.636 130.437 160.697 130.263 160.82 130.122C160.948 129.981 161.135 129.91 161.381 129.91C161.627 129.91 161.814 129.981 161.941 130.122C162.069 130.263 162.133 130.437 162.133 130.642C162.133 130.847 162.069 131.018 161.941 131.154C161.814 131.291 161.627 131.359 161.381 131.359C161.135 131.359 160.948 131.291 160.82 131.154C160.697 131.018 160.636 130.847 160.636 130.642ZM165.223 132.604L165.257 133.424C165.799 132.786 166.531 132.467 167.451 132.467C168.486 132.467 169.19 132.863 169.563 133.656C169.81 133.301 170.129 133.014 170.521 132.795C170.917 132.576 171.384 132.467 171.922 132.467C173.544 132.467 174.369 133.326 174.396 135.044V140H173.132V135.119C173.132 134.59 173.011 134.196 172.77 133.937C172.528 133.672 172.122 133.54 171.553 133.54C171.083 133.54 170.694 133.681 170.384 133.964C170.074 134.242 169.894 134.618 169.844 135.092V140H168.572V135.153C168.572 134.078 168.046 133.54 166.993 133.54C166.164 133.54 165.596 133.893 165.291 134.6V140H164.026V132.604H165.223ZM179.38 140.137C178.377 140.137 177.562 139.809 176.933 139.152C176.304 138.492 175.989 137.61 175.989 136.507V136.274C175.989 135.541 176.128 134.887 176.406 134.312C176.689 133.734 177.081 133.283 177.582 132.959C178.088 132.631 178.635 132.467 179.223 132.467C180.184 132.467 180.932 132.784 181.465 133.417C181.998 134.05 182.265 134.957 182.265 136.138V136.664H177.254C177.272 137.393 177.484 137.983 177.89 138.435C178.3 138.881 178.819 139.104 179.448 139.104C179.895 139.104 180.273 139.013 180.583 138.831C180.893 138.649 181.164 138.407 181.396 138.106L182.169 138.708C181.549 139.66 180.619 140.137 179.38 140.137ZM179.223 133.506C178.712 133.506 178.284 133.693 177.938 134.066C177.591 134.436 177.377 134.955 177.295 135.625H181V135.529C180.964 134.887 180.79 134.39 180.48 134.039C180.171 133.684 179.751 133.506 179.223 133.506ZM189.627 138.147L191.35 132.604H192.703L189.729 141.142C189.269 142.372 188.538 142.987 187.535 142.987L187.296 142.967L186.824 142.878V141.853L187.166 141.88C187.594 141.88 187.927 141.793 188.164 141.62C188.406 141.447 188.604 141.13 188.759 140.67L189.039 139.918L186.4 132.604H187.781L189.627 138.147ZM193.394 136.233C193.394 135.509 193.535 134.857 193.817 134.278C194.104 133.7 194.501 133.253 195.007 132.938C195.517 132.624 196.098 132.467 196.75 132.467C197.757 132.467 198.571 132.815 199.19 133.513C199.815 134.21 200.127 135.137 200.127 136.295V136.384C200.127 137.104 199.988 137.751 199.71 138.325C199.437 138.895 199.042 139.339 198.527 139.658C198.017 139.977 197.429 140.137 196.764 140.137C195.761 140.137 194.948 139.788 194.323 139.091C193.703 138.394 193.394 137.471 193.394 136.322V136.233ZM194.665 136.384C194.665 137.204 194.854 137.863 195.232 138.359C195.615 138.856 196.126 139.104 196.764 139.104C197.406 139.104 197.917 138.854 198.295 138.353C198.673 137.847 198.862 137.14 198.862 136.233C198.862 135.422 198.669 134.766 198.281 134.265C197.898 133.759 197.388 133.506 196.75 133.506C196.126 133.506 195.622 133.754 195.239 134.251C194.856 134.748 194.665 135.459 194.665 136.384ZM206.279 139.269C205.787 139.847 205.065 140.137 204.112 140.137C203.324 140.137 202.722 139.909 202.308 139.453C201.897 138.993 201.69 138.314 201.686 137.416V132.604H202.95V137.382C202.95 138.503 203.406 139.063 204.317 139.063C205.284 139.063 205.926 138.703 206.245 137.983V132.604H207.51V140H206.307L206.279 139.269ZM213.013 133.738C212.821 133.706 212.614 133.69 212.391 133.69C211.561 133.69 210.998 134.044 210.702 134.75V140H209.438V132.604H210.668L210.688 133.458C211.103 132.797 211.691 132.467 212.452 132.467C212.698 132.467 212.885 132.499 213.013 132.562V133.738ZM223.916 136.384C223.916 137.514 223.656 138.423 223.137 139.111C222.617 139.795 221.92 140.137 221.045 140.137C220.111 140.137 219.388 139.806 218.878 139.146L218.816 140H217.654V129.5H218.919V133.417C219.429 132.784 220.133 132.467 221.031 132.467C221.929 132.467 222.633 132.806 223.144 133.485C223.659 134.164 223.916 135.094 223.916 136.274V136.384ZM222.651 136.24C222.651 135.379 222.485 134.714 222.152 134.244C221.82 133.775 221.341 133.54 220.717 133.54C219.883 133.54 219.284 133.927 218.919 134.702V137.901C219.306 138.676 219.91 139.063 220.73 139.063C221.337 139.063 221.808 138.829 222.146 138.359C222.483 137.89 222.651 137.184 222.651 136.24ZM228.585 140.137C227.582 140.137 226.767 139.809 226.138 139.152C225.509 138.492 225.194 137.61 225.194 136.507V136.274C225.194 135.541 225.333 134.887 225.611 134.312C225.894 133.734 226.286 133.283 226.787 132.959C227.293 132.631 227.84 132.467 228.428 132.467C229.389 132.467 230.137 132.784 230.67 133.417C231.203 134.05 231.47 134.957 231.47 136.138V136.664H226.459C226.477 137.393 226.689 137.983 227.095 138.435C227.505 138.881 228.024 139.104 228.653 139.104C229.1 139.104 229.478 139.013 229.788 138.831C230.098 138.649 230.369 138.407 230.602 138.106L231.374 138.708C230.754 139.66 229.825 140.137 228.585 140.137ZM228.428 133.506C227.917 133.506 227.489 133.693 227.143 134.066C226.796 134.436 226.582 134.955 226.5 135.625H230.205V135.529C230.169 134.887 229.995 134.39 229.686 134.039C229.376 133.684 228.956 133.506 228.428 133.506ZM234.655 130.812V132.604H236.036V133.581H234.655V138.168C234.655 138.464 234.717 138.688 234.84 138.838C234.963 138.984 235.173 139.057 235.469 139.057C235.615 139.057 235.815 139.029 236.07 138.975V140C235.738 140.091 235.414 140.137 235.1 140.137C234.535 140.137 234.108 139.966 233.821 139.624C233.534 139.282 233.391 138.797 233.391 138.168V133.581H232.044V132.604H233.391V130.812H234.655ZM241.826 138.038C241.826 137.696 241.696 137.432 241.437 137.245C241.181 137.054 240.732 136.89 240.09 136.753C239.452 136.616 238.944 136.452 238.565 136.261C238.192 136.069 237.914 135.841 237.731 135.577C237.554 135.313 237.465 134.998 237.465 134.634C237.465 134.028 237.72 133.515 238.23 133.096C238.745 132.676 239.402 132.467 240.199 132.467C241.038 132.467 241.717 132.683 242.236 133.116C242.76 133.549 243.022 134.103 243.022 134.777H241.751C241.751 134.431 241.603 134.132 241.307 133.882C241.015 133.631 240.646 133.506 240.199 133.506C239.739 133.506 239.379 133.606 239.119 133.807C238.859 134.007 238.729 134.269 238.729 134.593C238.729 134.898 238.85 135.128 239.092 135.283C239.333 135.438 239.769 135.586 240.397 135.728C241.031 135.869 241.544 136.037 241.936 136.233C242.327 136.429 242.617 136.666 242.804 136.944C242.995 137.218 243.091 137.553 243.091 137.949C243.091 138.61 242.826 139.141 242.298 139.542C241.769 139.938 241.083 140.137 240.24 140.137C239.648 140.137 239.124 140.032 238.668 139.822C238.212 139.613 237.854 139.321 237.595 138.947C237.34 138.569 237.212 138.161 237.212 137.724H238.477C238.499 138.147 238.668 138.485 238.982 138.735C239.301 138.981 239.721 139.104 240.24 139.104C240.719 139.104 241.102 139.009 241.389 138.817C241.68 138.621 241.826 138.362 241.826 138.038ZM249.927 130.812V132.604H251.308V133.581H249.927V138.168C249.927 138.464 249.988 138.688 250.111 138.838C250.234 138.984 250.444 139.057 250.74 139.057C250.886 139.057 251.087 139.029 251.342 138.975V140C251.009 140.091 250.686 140.137 250.371 140.137C249.806 140.137 249.38 139.966 249.093 139.624C248.806 139.282 248.662 138.797 248.662 138.168V133.581H247.315V132.604H248.662V130.812H249.927ZM252.319 136.233C252.319 135.509 252.461 134.857 252.743 134.278C253.03 133.7 253.427 133.253 253.933 132.938C254.443 132.624 255.024 132.467 255.676 132.467C256.683 132.467 257.496 132.815 258.116 133.513C258.741 134.21 259.053 135.137 259.053 136.295V136.384C259.053 137.104 258.914 137.751 258.636 138.325C258.362 138.895 257.968 139.339 257.453 139.658C256.943 139.977 256.355 140.137 255.689 140.137C254.687 140.137 253.873 139.788 253.249 139.091C252.629 138.394 252.319 137.471 252.319 136.322V136.233ZM253.591 136.384C253.591 137.204 253.78 137.863 254.158 138.359C254.541 138.856 255.051 139.104 255.689 139.104C256.332 139.104 256.842 138.854 257.221 138.353C257.599 137.847 257.788 137.14 257.788 136.233C257.788 135.422 257.594 134.766 257.207 134.265C256.824 133.759 256.314 133.506 255.676 133.506C255.051 133.506 254.548 133.754 254.165 134.251C253.782 134.748 253.591 135.459 253.591 136.384ZM155.481 149.604L155.516 150.424C156.058 149.786 156.789 149.467 157.71 149.467C158.744 149.467 159.449 149.863 159.822 150.656C160.068 150.301 160.387 150.014 160.779 149.795C161.176 149.576 161.643 149.467 162.181 149.467C163.803 149.467 164.628 150.326 164.655 152.044V157H163.391V152.119C163.391 151.59 163.27 151.196 163.028 150.937C162.787 150.672 162.381 150.54 161.812 150.54C161.342 150.54 160.952 150.681 160.643 150.964C160.333 151.242 160.153 151.618 160.103 152.092V157H158.831V152.153C158.831 151.078 158.305 150.54 157.252 150.54C156.423 150.54 155.855 150.893 155.55 151.6V157H154.285V149.604H155.481ZM171.136 157C171.063 156.854 171.004 156.594 170.958 156.221C170.37 156.831 169.668 157.137 168.853 157.137C168.123 157.137 167.524 156.932 167.055 156.521C166.59 156.107 166.357 155.583 166.357 154.949C166.357 154.179 166.649 153.582 167.232 153.158C167.82 152.73 168.645 152.516 169.707 152.516H170.938V151.935C170.938 151.493 170.805 151.142 170.541 150.882C170.277 150.618 169.887 150.485 169.372 150.485C168.921 150.485 168.543 150.599 168.237 150.827C167.932 151.055 167.779 151.331 167.779 151.654H166.508C166.508 151.285 166.638 150.93 166.897 150.588C167.162 150.242 167.517 149.968 167.964 149.768C168.415 149.567 168.91 149.467 169.447 149.467C170.299 149.467 170.967 149.681 171.45 150.109C171.933 150.533 172.184 151.119 172.202 151.866V155.271C172.202 155.95 172.289 156.49 172.462 156.891V157H171.136ZM169.037 156.036C169.434 156.036 169.81 155.934 170.165 155.729C170.521 155.523 170.778 155.257 170.938 154.929V153.411H169.946C168.397 153.411 167.622 153.865 167.622 154.771C167.622 155.168 167.754 155.478 168.019 155.701C168.283 155.924 168.622 156.036 169.037 156.036ZM176.249 153.575L175.456 154.402V157H174.191V146.5H175.456V152.851L176.133 152.037L178.437 149.604H179.975L177.097 152.693L180.31 157H178.826L176.249 153.575ZM184.213 157.137C183.21 157.137 182.395 156.809 181.766 156.152C181.137 155.492 180.822 154.61 180.822 153.507V153.274C180.822 152.541 180.961 151.887 181.239 151.312C181.522 150.734 181.914 150.283 182.415 149.959C182.921 149.631 183.468 149.467 184.056 149.467C185.017 149.467 185.765 149.784 186.298 150.417C186.831 151.05 187.098 151.957 187.098 153.138V153.664H182.087C182.105 154.393 182.317 154.983 182.723 155.435C183.133 155.881 183.652 156.104 184.281 156.104C184.728 156.104 185.106 156.013 185.416 155.831C185.726 155.649 185.997 155.407 186.229 155.106L187.002 155.708C186.382 156.66 185.452 157.137 184.213 157.137ZM184.056 150.506C183.545 150.506 183.117 150.693 182.771 151.066C182.424 151.436 182.21 151.955 182.128 152.625H185.833V152.529C185.797 151.887 185.623 151.39 185.313 151.039C185.004 150.684 184.584 150.506 184.056 150.506ZM193.756 147.812V149.604H195.137V150.581H193.756V155.168C193.756 155.464 193.817 155.688 193.94 155.838C194.063 155.984 194.273 156.057 194.569 156.057C194.715 156.057 194.916 156.029 195.171 155.975V157C194.838 157.091 194.515 157.137 194.2 157.137C193.635 157.137 193.209 156.966 192.922 156.624C192.635 156.282 192.491 155.797 192.491 155.168V150.581H191.145V149.604H192.491V147.812H193.756ZM197.885 150.499C198.445 149.811 199.174 149.467 200.072 149.467C201.635 149.467 202.424 150.349 202.438 152.112V157H201.173V152.105C201.168 151.572 201.045 151.178 200.804 150.923C200.567 150.668 200.195 150.54 199.689 150.54C199.279 150.54 198.919 150.649 198.609 150.868C198.299 151.087 198.058 151.374 197.885 151.729V157H196.62V146.5H197.885V150.499ZM207.4 157.137C206.398 157.137 205.582 156.809 204.953 156.152C204.324 155.492 204.01 154.61 204.01 153.507V153.274C204.01 152.541 204.149 151.887 204.427 151.312C204.709 150.734 205.101 150.283 205.603 149.959C206.108 149.631 206.655 149.467 207.243 149.467C208.205 149.467 208.952 149.784 209.485 150.417C210.019 151.05 210.285 151.957 210.285 153.138V153.664H205.274C205.293 154.393 205.505 154.983 205.91 155.435C206.32 155.881 206.84 156.104 207.469 156.104C207.915 156.104 208.294 156.013 208.604 155.831C208.913 155.649 209.185 155.407 209.417 155.106L210.189 155.708C209.57 156.66 208.64 157.137 207.4 157.137ZM207.243 150.506C206.733 150.506 206.304 150.693 205.958 151.066C205.612 151.436 205.397 151.955 205.315 152.625H209.021V152.529C208.984 151.887 208.811 151.39 208.501 151.039C208.191 150.684 207.772 150.506 207.243 150.506ZM216.417 149.604L216.451 150.424C216.993 149.786 217.725 149.467 218.646 149.467C219.68 149.467 220.384 149.863 220.758 150.656C221.004 150.301 221.323 150.014 221.715 149.795C222.111 149.576 222.578 149.467 223.116 149.467C224.739 149.467 225.563 150.326 225.591 152.044V157H224.326V152.119C224.326 151.59 224.205 151.196 223.964 150.937C223.722 150.672 223.317 150.54 222.747 150.54C222.278 150.54 221.888 150.681 221.578 150.964C221.268 151.242 221.088 151.618 221.038 152.092V157H219.767V152.153C219.767 151.078 219.24 150.54 218.188 150.54C217.358 150.54 216.791 150.893 216.485 151.6V157H215.221V149.604H216.417ZM227.17 153.233C227.17 152.509 227.311 151.857 227.594 151.278C227.881 150.7 228.277 150.253 228.783 149.938C229.294 149.624 229.875 149.467 230.526 149.467C231.534 149.467 232.347 149.815 232.967 150.513C233.591 151.21 233.903 152.137 233.903 153.295V153.384C233.903 154.104 233.764 154.751 233.486 155.325C233.213 155.895 232.819 156.339 232.304 156.658C231.793 156.977 231.205 157.137 230.54 157.137C229.537 157.137 228.724 156.788 228.1 156.091C227.48 155.394 227.17 154.471 227.17 153.322V153.233ZM228.441 153.384C228.441 154.204 228.631 154.863 229.009 155.359C229.392 155.856 229.902 156.104 230.54 156.104C231.183 156.104 231.693 155.854 232.071 155.353C232.45 154.847 232.639 154.14 232.639 153.233C232.639 152.422 232.445 151.766 232.058 151.265C231.675 150.759 231.164 150.506 230.526 150.506C229.902 150.506 229.398 150.754 229.016 151.251C228.633 151.748 228.441 152.459 228.441 153.384ZM239.796 155.038C239.796 154.696 239.666 154.432 239.406 154.245C239.151 154.054 238.702 153.89 238.06 153.753C237.422 153.616 236.913 153.452 236.535 153.261C236.161 153.069 235.883 152.841 235.701 152.577C235.523 152.313 235.435 151.998 235.435 151.634C235.435 151.028 235.69 150.515 236.2 150.096C236.715 149.676 237.371 149.467 238.169 149.467C239.007 149.467 239.687 149.683 240.206 150.116C240.73 150.549 240.992 151.103 240.992 151.777H239.721C239.721 151.431 239.573 151.132 239.276 150.882C238.985 150.631 238.616 150.506 238.169 150.506C237.709 150.506 237.349 150.606 237.089 150.807C236.829 151.007 236.699 151.269 236.699 151.593C236.699 151.898 236.82 152.128 237.062 152.283C237.303 152.438 237.738 152.586 238.367 152.728C239.001 152.869 239.513 153.037 239.905 153.233C240.297 153.429 240.587 153.666 240.773 153.944C240.965 154.218 241.061 154.553 241.061 154.949C241.061 155.61 240.796 156.141 240.268 156.542C239.739 156.938 239.053 157.137 238.21 157.137C237.618 157.137 237.093 157.032 236.638 156.822C236.182 156.613 235.824 156.321 235.564 155.947C235.309 155.569 235.182 155.161 235.182 154.724H236.446C236.469 155.147 236.638 155.485 236.952 155.735C237.271 155.981 237.69 156.104 238.21 156.104C238.688 156.104 239.071 156.009 239.358 155.817C239.65 155.621 239.796 155.362 239.796 155.038ZM244.424 147.812V149.604H245.805V150.581H244.424V155.168C244.424 155.464 244.485 155.688 244.608 155.838C244.731 155.984 244.941 156.057 245.237 156.057C245.383 156.057 245.584 156.029 245.839 155.975V157C245.506 157.091 245.183 157.137 244.868 157.137C244.303 157.137 243.877 156.966 243.59 156.624C243.303 156.282 243.159 155.797 243.159 155.168V150.581H241.812V149.604H243.159V147.812H244.424ZM255.655 154.437C255.655 154.017 255.507 153.664 255.211 153.377C254.919 153.09 254.425 152.83 253.728 152.598C252.757 152.301 252.048 151.916 251.602 151.442C251.16 150.964 250.938 150.358 250.938 149.624C250.938 148.877 251.155 148.264 251.588 147.785C252.025 147.307 252.625 147.022 253.386 146.931V145.434H254.404V146.938C255.17 147.042 255.765 147.364 256.188 147.901C256.617 148.439 256.831 149.175 256.831 150.109H255.573C255.573 149.467 255.421 148.956 255.115 148.578C254.81 148.2 254.397 148.011 253.878 148.011C253.336 148.011 252.921 148.152 252.634 148.435C252.347 148.713 252.203 149.102 252.203 149.604C252.203 150.068 252.354 150.44 252.654 150.718C252.96 150.991 253.459 151.242 254.151 151.47C254.849 151.693 255.391 151.941 255.778 152.215C256.17 152.484 256.457 152.798 256.64 153.158C256.826 153.518 256.92 153.94 256.92 154.423C256.92 155.193 256.688 155.813 256.223 156.282C255.762 156.752 255.115 157.03 254.281 157.116V158.422H253.27V157.116C252.422 157.039 251.757 156.738 251.273 156.214C250.795 155.685 250.556 154.97 250.556 154.067H251.82C251.82 154.701 251.987 155.188 252.319 155.53C252.652 155.872 253.124 156.043 253.734 156.043C254.331 156.043 254.801 155.899 255.143 155.612C255.484 155.325 255.655 154.933 255.655 154.437Z" fill="#979797"/>
</svg>
