<svg width="213" height="84" viewBox="0 0 213 84" fill="none" xmlns="http://www.w3.org/2000/svg">
<ellipse cx="44.2075" cy="74.6887" rx="44.2075" ry="8.76095" fill="#E5E5E5"/>
<ellipse cx="173.615" cy="75.3145" rx="39.3849" ry="6.25782" fill="#E5E5E5"/>
<path d="M45.7046 75.8854H8.13771C7.11328 75.8854 6.43018 75.2288 6.43018 74.244V70.9615C6.43018 69.9767 7.11328 69.3203 8.13771 69.3203H45.7046C46.7292 69.3203 47.4122 69.9769 47.4122 70.9615V74.244C47.4123 75.2288 46.7292 75.8854 45.7046 75.8854Z" fill="#F6B545"/>
<path d="M38.8744 70.9615H6.43018C6.43018 69.9767 7.11328 69.3203 8.13771 69.3203H38.8744V70.9615Z" fill="#FFCB5B"/>
<path d="M38.8744 70.9611V72.6023C38.8744 73.587 38.1913 74.2435 37.1668 74.2435H6.43018C6.43018 75.2282 7.11328 75.8846 8.13771 75.8846H37.1667H45.7046C46.7292 75.8846 47.4122 75.2281 47.4122 74.2435V70.9609H38.8744V70.9611Z" fill="#F19920"/>
<path d="M11.5527 74.2415V71.7796C11.5527 71.2872 11.2113 70.959 10.699 70.959C10.1867 70.959 9.84521 71.2872 9.84521 71.7796V74.2415" fill="#F19920"/>
<path d="M16.6758 74.2415V71.7796C16.6758 71.2872 16.3343 70.959 15.822 70.959C15.3097 70.959 14.9683 71.2872 14.9683 71.7796V74.2415" fill="#F19920"/>
<path d="M21.7983 74.2415V71.7796C21.7983 71.2872 21.4569 70.959 20.9446 70.959C20.4323 70.959 20.0908 71.2872 20.0908 71.7796V74.2415" fill="#F19920"/>
<path d="M26.9209 74.2415V71.7796C26.9209 71.2872 26.5794 70.959 26.0671 70.959C25.5549 70.959 25.2134 71.2872 25.2134 71.7796V74.2415" fill="#F19920"/>
<path d="M32.044 74.2415V71.7796C32.044 71.2872 31.7025 70.959 31.1902 70.959C30.6779 70.959 30.3364 71.2872 30.3364 71.7796V74.2415" fill="#F19920"/>
<path d="M37.1665 74.2415V71.7796C37.1665 71.2872 36.825 70.959 36.3128 70.959C35.8005 70.959 35.459 71.2872 35.459 71.7796V74.2415" fill="#F19920"/>
<path d="M49.1197 69.3188H11.5527C10.5282 69.3188 9.84521 68.6622 9.84521 67.6776V64.3951C9.84521 63.4103 10.5283 62.7539 11.5527 62.7539H49.1197C50.1443 62.7539 50.8272 63.4105 50.8272 64.3951V67.6776C50.8272 68.6623 50.1443 69.3188 49.1197 69.3188Z" fill="#F6B545"/>
<path d="M42.2894 64.3951H9.84521C9.84521 63.4103 10.5283 62.7539 11.5527 62.7539H42.2894V64.3951Z" fill="#FFCB5B"/>
<path d="M42.2899 64.3947V66.0359C42.2899 67.0206 41.6068 67.677 40.5824 67.677H9.8457C9.8457 68.6618 10.5288 69.3182 11.5532 69.3182H40.5822H49.1202C50.1447 69.3182 50.8277 68.6617 50.8277 67.677V64.3945H42.2899V64.3947Z" fill="#F19920"/>
<path d="M14.9683 67.6771V65.2151C14.9683 64.7227 14.6268 64.3945 14.1145 64.3945C13.6022 64.3945 13.2607 64.7227 13.2607 65.2151V67.6771" fill="#F19920"/>
<path d="M20.0908 67.6771V65.2151C20.0908 64.7227 19.7494 64.3945 19.2371 64.3945C18.7248 64.3945 18.3833 64.7227 18.3833 65.2151V67.6771" fill="#F19920"/>
<path d="M25.2144 67.6771V65.2151C25.2144 64.7227 24.8729 64.3945 24.3606 64.3945C23.8483 64.3945 23.5068 64.7227 23.5068 65.2151V67.6771" fill="#F19920"/>
<path d="M30.3369 67.6771V65.2151C30.3369 64.7227 29.9955 64.3945 29.4832 64.3945C28.9709 64.3945 28.6294 64.7227 28.6294 65.2151V67.6771" fill="#F19920"/>
<path d="M35.459 67.6771V65.2151C35.459 64.7227 35.1175 64.3945 34.6052 64.3945C34.0929 64.3945 33.7515 64.7227 33.7515 65.2151V67.6771" fill="#F19920"/>
<path d="M40.582 67.6771V65.2151C40.582 64.7227 40.2406 64.3945 39.7283 64.3945C39.216 64.3945 38.8745 64.7227 38.8745 65.2151V67.6771" fill="#F19920"/>
<path d="M52.5352 56.1899H14.9683C13.9437 56.1899 13.2607 55.5333 13.2607 54.5487V51.2662C13.2607 50.2814 13.9438 49.625 14.9683 49.625H52.5352C53.5598 49.625 54.2427 50.2816 54.2427 51.2662V54.5487C54.2427 55.5335 53.5598 56.1899 52.5352 56.1899Z" fill="#F6B545"/>
<path d="M45.7049 51.2662H13.2607C13.2607 50.2814 13.9438 49.625 14.9683 49.625H45.7049V51.2662Z" fill="#FFCB5B"/>
<path d="M45.7049 51.2658V52.9069C45.7049 53.8917 45.0218 54.5481 43.9974 54.5481H13.2607C13.2607 55.5329 13.9438 56.1893 14.9683 56.1893H43.9974H52.5354C53.5599 56.1893 54.2429 55.5327 54.2429 54.5481V51.2656H45.7049V51.2658Z" fill="#F19920"/>
<path d="M18.3833 54.5481V52.0862C18.3833 51.5938 18.0418 51.2656 17.5295 51.2656C17.0173 51.2656 16.6758 51.5938 16.6758 52.0862V54.5481" fill="#F19920"/>
<path d="M23.5059 54.5481V52.0862C23.5059 51.5938 23.1644 51.2656 22.6521 51.2656C22.1398 51.2656 21.7983 51.5938 21.7983 52.0862V54.5481" fill="#F19920"/>
<path d="M28.6289 54.5481V52.0862C28.6289 51.5938 28.2874 51.2656 27.7752 51.2656C27.2629 51.2656 26.9214 51.5938 26.9214 52.0862V54.5481" fill="#F19920"/>
<path d="M33.7515 54.5481V52.0862C33.7515 51.5938 33.41 51.2656 32.8977 51.2656C32.3854 51.2656 32.0439 51.5938 32.0439 52.0862V54.5481" fill="#F19920"/>
<path d="M38.874 54.5481V52.0862C38.874 51.5938 38.5326 51.2656 38.0203 51.2656C37.508 51.2656 37.1665 51.5938 37.1665 52.0862V54.5481" fill="#F19920"/>
<path d="M43.9971 54.5481V52.0862C43.9971 51.5938 43.6556 51.2656 43.1433 51.2656C42.631 51.2656 42.2896 51.5938 42.2896 52.0862V54.5481" fill="#F19920"/>
<path d="M49.1197 49.6254H11.5527C10.5282 49.6254 9.84521 48.9689 9.84521 47.9843V44.7017C9.84521 43.717 10.5283 43.0605 11.5527 43.0605H49.1197C50.1443 43.0605 50.8272 43.7171 50.8272 44.7017V47.9843C50.8272 48.9689 50.1443 49.6254 49.1197 49.6254Z" fill="#F6B545"/>
<path d="M42.2894 44.7018H9.84521C9.84521 43.717 10.5283 43.0605 11.5527 43.0605H42.2894V44.7018Z" fill="#FFCB5B"/>
<path d="M42.2894 44.7013V46.3425C42.2894 47.3273 41.6063 47.9837 40.5819 47.9837H9.84521C9.84521 48.9684 10.5283 49.6249 11.5527 49.6249H40.5817H49.1197C50.1443 49.6249 50.8272 48.9683 50.8272 47.9837V44.7012H42.2894V44.7013Z" fill="#F19920"/>
<path d="M14.9683 47.9837V45.5218C14.9683 45.0294 14.6268 44.7012 14.1145 44.7012C13.6022 44.7012 13.2607 45.0294 13.2607 45.5218V47.9837" fill="#F19920"/>
<path d="M20.0908 47.9837V45.5218C20.0908 45.0294 19.7494 44.7012 19.2371 44.7012C18.7248 44.7012 18.3833 45.0294 18.3833 45.5218V47.9837" fill="#F19920"/>
<path d="M25.2139 47.9837V45.5218C25.2139 45.0294 24.8724 44.7012 24.3601 44.7012C23.8478 44.7012 23.5063 45.0294 23.5063 45.5218V47.9837" fill="#F19920"/>
<path d="M30.3364 47.9837V45.5218C30.3364 45.0294 29.995 44.7012 29.4827 44.7012C28.9704 44.7012 28.6289 45.0294 28.6289 45.5218V47.9837" fill="#F19920"/>
<path d="M35.459 47.9837V45.5218C35.459 45.0294 35.1175 44.7012 34.6052 44.7012C34.0929 44.7012 33.7515 45.0294 33.7515 45.5218V47.9837" fill="#F19920"/>
<path d="M40.582 47.9837V45.5218C40.582 45.0294 40.2406 44.7012 39.7283 44.7012C39.216 44.7012 38.8745 45.0294 38.8745 45.5218V47.9837" fill="#F19920"/>
<path d="M45.7046 62.7545H8.13771C7.11328 62.7545 6.43018 62.098 6.43018 61.1132V57.8307C6.43018 56.8459 7.11328 56.1895 8.13771 56.1895H45.7046C46.7292 56.1895 47.4122 56.846 47.4122 57.8307V61.1132C47.4123 62.098 46.7292 62.7545 45.7046 62.7545Z" fill="#F6B545"/>
<path d="M38.8744 57.8306H6.43018C6.43018 56.8459 7.11328 56.1895 8.13771 56.1895H38.8744V57.8306Z" fill="#FFCB5B"/>
<path d="M38.8744 57.8283V59.4695C38.8744 60.4542 38.1913 61.1107 37.1668 61.1107H6.43018C6.43018 62.0954 7.11328 62.7519 8.13771 62.7519H37.1667H45.7046C46.7292 62.7519 47.4122 62.0953 47.4122 61.1107V57.8281H38.8744V57.8283Z" fill="#F19920"/>
<path d="M11.5527 61.1107V58.6487C11.5527 58.1563 11.2113 57.8281 10.699 57.8281C10.1867 57.8281 9.84521 58.1563 9.84521 58.6487V61.1107" fill="#F19920"/>
<path d="M16.6758 61.1107V58.6487C16.6758 58.1563 16.3343 57.8281 15.822 57.8281C15.3097 57.8281 14.9683 58.1563 14.9683 58.6487V61.1107" fill="#F19920"/>
<path d="M21.7983 61.1107V58.6487C21.7983 58.1563 21.4569 57.8281 20.9446 57.8281C20.4323 57.8281 20.0908 58.1563 20.0908 58.6487V61.1107" fill="#F19920"/>
<path d="M26.9209 61.1107V58.6487C26.9209 58.1563 26.5794 57.8281 26.0671 57.8281C25.5549 57.8281 25.2134 58.1563 25.2134 58.6487V61.1107" fill="#F19920"/>
<path d="M32.044 61.1107V58.6487C32.044 58.1563 31.7025 57.8281 31.1902 57.8281C30.6779 57.8281 30.3364 58.1563 30.3364 58.6487V61.1107" fill="#F19920"/>
<path d="M37.1665 61.1107V58.6487C37.1665 58.1563 36.825 57.8281 36.3128 57.8281C35.8005 57.8281 35.459 58.1563 35.459 58.6487V61.1107" fill="#F19920"/>
<path d="M78.1491 65.2171C75.9292 63.74 74.7339 61.2782 74.7339 58.6522C74.7339 48.6407 70.6357 39.1215 63.293 32.0642L55.9504 25.0069V20.0832L61.9269 12.8617C62.4393 12.2052 62.7808 11.3846 62.7808 10.5639C62.7808 8.59431 61.0733 6.95312 59.0241 6.95312H52.5353L50.8278 10.2356L47.4126 6.95312H39.2161C37.1669 6.95312 35.4594 8.59431 35.4594 10.5639C35.4594 11.3844 35.8009 12.205 36.3132 12.8616L42.2897 20.0831V25.0068L34.9471 32.064C27.6045 39.1213 23.5062 48.6405 23.5062 58.6521C23.5062 61.2781 22.311 63.74 20.091 65.217C17.871 66.694 16.6758 69.1559 16.6758 71.7819C16.6758 74.0796 18.5541 75.885 20.9448 75.885H77.2952C79.6858 75.885 81.5641 74.0796 81.5641 71.7819C81.5643 69.1562 80.369 66.6943 78.1491 65.2171Z" fill="#2662FC"/>
<path d="M78.1485 65.2172C75.9287 63.576 74.7333 61.114 74.7333 58.4881C74.9041 48.1483 69.952 38.4649 62.4387 31.0794L55.9498 25.0068V20.0831L61.9264 12.8616C62.9509 11.7128 63.1216 10.0715 62.2678 8.59431C61.5847 7.44551 60.2187 6.95312 58.8526 6.95312C57.6574 6.95312 56.9743 8.2661 57.3158 9.25087C57.4866 9.57908 57.6572 10.0715 57.6572 10.5639C57.6572 11.3844 57.3158 12.205 56.8035 12.8616L50.827 20.0831V25.0068H42.289L40.5814 26.648H52.5346L58.8528 32.7206C65.8539 39.4497 68.586 48.6407 67.903 57.9957C67.7322 60.7858 68.9276 63.4118 71.1474 65.053C71.3182 65.2172 71.4889 65.3812 71.6597 65.3812C74.2212 68.0072 72.0012 72.4385 68.0738 72.4385H16.8462C17.1877 74.2438 18.8953 75.721 20.9444 75.721H70.4645H74.7335H77.2949C79.6854 75.7211 81.5637 73.9158 81.5637 71.618V71.2898C81.5637 68.8279 80.1977 66.6943 78.1485 65.2172Z" fill="#0437BA"/>
<path d="M56.8039 25.0078H41.4355C40.0694 25.0078 38.874 23.859 38.874 22.5459C38.874 21.2329 40.0693 20.084 41.4355 20.084H56.8037C58.1698 20.084 59.3652 21.2328 59.3652 22.5459C59.3652 23.859 58.1699 25.0078 56.8039 25.0078Z" fill="#FFCB5B"/>
<path d="M41.4358 20.084H49.9738C50.486 20.084 50.8275 20.4122 50.8275 20.9046C50.8275 21.3969 50.486 21.7252 49.9738 21.7252H41.4358C40.9235 21.7252 40.582 21.3969 40.582 20.9046C40.582 20.4123 40.9237 20.084 41.4358 20.084Z" fill="#FFE278"/>
<path d="M56.8043 20.084H55.9505V21.7252C55.9505 22.7099 55.2674 23.3664 54.243 23.3664H39.0454C39.3869 24.3511 40.4115 25.0075 41.436 25.0075H56.8043C58.1704 25.0075 59.3657 23.8587 59.3657 22.5456C59.3657 21.2325 58.1704 20.084 56.8043 20.084Z" fill="#F6B545"/>
<path d="M51.6814 23.3652H56.8042C57.3164 23.3652 57.6579 23.6934 57.6579 24.1858C57.6579 24.6782 57.3164 25.0064 56.8042 25.0064H51.6814C51.1691 25.0064 50.8276 24.6782 50.8276 24.1858C50.8275 23.6934 51.1691 23.3652 51.6814 23.3652Z" fill="#F19920"/>
<path d="M50.8278 25.0078H47.4126V38.1377H50.8278V25.0078Z" fill="#F6B545"/>
<path d="M47.4126 25.0078V26.6491H49.1201V38.1377H50.8277V26.6491V25.0078H47.4126Z" fill="#F19920"/>
<path d="M49.1192 62.7559C56.6638 62.7559 62.7799 56.8775 62.7799 49.626C62.7799 42.3746 56.6638 36.4961 49.1192 36.4961C41.5746 36.4961 35.4585 42.3746 35.4585 49.626C35.4585 56.8775 41.5746 62.7559 49.1192 62.7559Z" fill="#F6B545"/>
<path d="M59.5366 41.2539C61.5857 43.5517 62.781 46.3418 62.781 49.6243C62.781 56.8457 56.6336 62.7542 49.1203 62.7542C45.705 62.7542 42.8021 61.6054 40.4116 59.6359C42.9731 62.59 46.7298 64.3954 50.8279 64.3954C58.3413 64.3954 64.4887 58.4869 64.4887 51.2655C64.4885 47.1624 62.6102 43.5517 59.5366 41.2539Z" fill="#B06328"/>
<path d="M49.1197 61.1141C55.7212 61.1141 61.0729 55.9705 61.0729 49.6254C61.0729 43.2804 55.7212 38.1367 49.1197 38.1367C42.5181 38.1367 37.1665 43.2804 37.1665 49.6254C37.1665 55.9705 42.5181 61.1141 49.1197 61.1141Z" fill="#FFCB5B"/>
<path d="M61.0733 49.625C61.0733 56.0259 55.7797 61.1137 49.1201 61.1137V62.7549C56.6335 62.7549 62.7808 56.8465 62.7808 49.625H61.0733Z" fill="#F19920"/>
<path d="M49.1192 38.1373V36.4961C41.6058 36.4961 35.4585 42.4046 35.4585 49.626H37.166C37.1662 43.2252 42.4596 38.1373 49.1192 38.1373Z" fill="#FFE27A"/>
<path d="M50.8274 47.9833H47.4122C46.3876 47.9833 45.7046 47.3267 45.7046 46.3421C45.7046 45.3573 46.3877 44.7009 47.4122 44.7009H52.5349C53.5595 44.7009 54.2424 44.0444 54.2424 43.0597C54.2424 42.075 53.5593 41.4185 52.5349 41.4185H50.8274C50.8274 40.4338 50.1443 39.7773 49.1198 39.7773C48.0953 39.7773 47.4123 40.4339 47.4123 41.4185C44.5094 41.4185 42.2896 43.5521 42.2896 46.3423C42.2896 49.1324 44.5094 51.266 47.4123 51.266H50.8275C51.8521 51.266 52.5351 51.9225 52.5351 52.9072C52.5351 53.8918 51.852 54.5483 50.8275 54.5483H45.7048C44.6802 54.5483 43.9972 55.2049 43.9972 56.1895C43.9972 57.1743 44.6803 57.8307 45.7048 57.8307H47.4123C47.4123 58.8155 48.0954 59.4719 49.1198 59.4719C50.1444 59.4719 50.8274 58.8154 50.8274 57.8307C53.7303 57.8307 55.9501 55.6972 55.9501 52.907C55.9501 50.1169 53.7303 47.9833 50.8274 47.9833Z" fill="#E78825"/>
<path d="M194.367 60.2226C194.367 58.3299 192.756 56.7812 190.787 56.7812H154.982C153.013 56.7812 151.402 58.3299 151.402 60.2226V68.826H194.367V60.2226Z" fill="#26A6E3"/>
<path d="M196.158 68.8281C197.053 68.8281 197.948 69.6884 197.948 70.5487V73.9901C197.948 74.8504 197.053 75.7107 196.158 75.7107H149.612C148.717 75.7107 147.822 74.8504 147.822 73.9901V70.5487C147.822 69.6884 148.717 68.8281 149.612 68.8281H196.158Z" fill="#2662FC"/>
<path d="M183.626 53.3421C182.552 53.3421 181.836 52.6538 181.836 51.6215V45.9434C180.761 46.2875 179.508 46.4596 178.255 46.4596H167.514C166.261 46.4596 165.008 46.2875 163.933 45.9434V51.6215C163.933 52.654 163.217 53.3421 162.143 53.3421C161.069 53.3421 160.353 54.0305 160.353 55.0627V56.7835H185.416V55.0629C185.416 54.0305 184.7 53.3421 183.626 53.3421Z" fill="#F6B545"/>
<path d="M194.367 68.826V60.2226C194.367 58.3299 192.756 56.7812 190.787 56.7812H181.835V68.826H194.367Z" fill="#2662FC"/>
<path d="M180.045 67.1073H165.724C163.754 67.1073 162.143 65.5587 162.143 63.666C162.143 61.7732 163.754 60.2246 165.724 60.2246H180.045C182.015 60.2246 183.626 61.7732 183.626 63.666C183.626 65.5587 182.015 67.1073 180.045 67.1073Z" fill="#FFCB5B"/>
<path d="M174.675 67.1091H171.095L174.675 60.2266H178.256L174.675 67.1091Z" fill="#F6B545"/>
<path d="M183.626 63.666C183.626 61.7732 182.015 60.2246 180.046 60.2246L176.465 67.1072H180.046C182.015 67.1073 183.626 65.5587 183.626 63.666Z" fill="#F6B545"/>
<path d="M196.158 68.8281H183.626V70.5487C183.626 72.4415 182.015 73.9901 180.045 73.9901H151.402C150.328 73.9901 149.612 73.3018 149.612 72.2695V68.8281C148.538 68.8281 147.822 69.5165 147.822 70.5487V73.9901C147.822 74.8504 148.538 75.7107 149.612 75.7107H172.885H196.158C197.053 75.7107 197.948 74.8504 197.948 73.9901V70.5487C197.948 69.6884 197.053 68.8281 196.158 68.8281Z" fill="#0437BA"/>
<path d="M163.039 53.3418H168.409C168.946 53.3418 169.304 53.6859 169.304 54.2021C169.304 54.7183 168.946 55.0624 168.409 55.0624H163.039C162.502 55.0624 162.144 54.7183 162.144 54.2021C162.144 53.686 162.502 53.3418 163.039 53.3418Z" fill="#FFCB5B"/>
<path d="M156.773 37.8546H152.655C150.328 37.8546 148.001 36.9943 146.389 35.2736L143.346 32.3486C141.556 30.8 140.661 28.7353 140.661 26.3263V15.4862C140.661 12.561 142.988 10.3242 146.031 10.3242H154.982C156.057 10.3242 156.773 11.0125 156.773 12.0448C156.773 13.0772 156.056 13.7654 154.982 13.7654H146.031C144.957 13.7654 144.241 14.4538 144.241 15.486V26.3262C144.241 27.7027 144.778 29.0792 145.853 29.9395L148.896 32.8647C149.97 33.8971 151.223 34.4133 152.655 34.4133H156.773C157.847 34.4133 158.563 35.1016 158.563 36.1339C158.563 37.1663 157.847 37.8546 156.773 37.8546Z" fill="#F6B545"/>
<path d="M193.114 37.8545H188.997C187.923 37.8545 187.207 37.1662 187.207 36.1339C187.207 35.1015 187.923 34.4133 188.997 34.4133H193.114C194.546 34.4133 195.979 33.8971 196.874 32.8647L199.917 29.9395C200.991 28.9071 201.528 27.7027 201.528 26.3262V15.486C201.528 14.4536 200.812 13.7654 199.738 13.7654H190.787C189.713 13.7654 188.997 13.0771 188.997 12.0448C188.997 11.0124 189.713 10.3242 190.787 10.3242H199.738C202.782 10.3242 205.109 12.561 205.109 15.4862V26.3263C205.109 28.5632 204.214 30.8001 202.423 32.3486L199.38 35.2738C197.769 36.9942 195.621 37.8545 193.114 37.8545Z" fill="#F6B545"/>
<path d="M194.367 34.2422C194.009 34.2422 193.651 34.4143 193.114 34.4143H188.997C187.923 34.4143 187.207 35.1026 187.207 36.1349C187.207 37.1673 187.923 37.8555 188.997 37.8555H193.114C193.293 37.8555 193.472 37.8555 193.83 37.8555C194.188 36.6511 194.367 35.6187 194.367 34.2422Z" fill="#F19920"/>
<path d="M188.997 12.045C188.997 13.0774 189.713 13.7656 190.787 13.7656H194.367V10.3242H190.787C189.713 10.3242 188.997 11.0126 188.997 12.045Z" fill="#F19920"/>
<path d="M178.255 46.4601H167.514C160.532 46.4601 154.982 41.126 154.982 34.4154V6.88477H190.787V34.4154C190.787 41.126 185.237 46.4601 178.255 46.4601Z" fill="#FFCA5D"/>
<path d="M183.626 53.3383C182.731 53.3383 181.836 52.478 181.836 51.6176V47.6601V46.2835V45.9395C180.762 46.2835 179.509 46.4557 178.255 46.4557H167.514C166.261 46.4557 165.008 46.2835 163.934 45.9395V47.6601C165.008 48.0042 166.261 48.1763 167.514 48.1763H172.885C174.854 48.1763 176.465 49.7249 176.465 51.6176C176.465 52.478 177.181 53.3383 178.255 53.3383C179.33 53.3383 180.046 54.0266 180.046 55.0589V56.7796H181.836H185.416V55.059C185.416 54.0266 184.521 53.3383 183.626 53.3383Z" fill="#F19920"/>
<path d="M205.109 16.3447V23.2273C205.109 23.7435 204.751 24.0876 204.213 24.0876C203.676 24.0876 203.318 23.7435 203.318 23.2273V16.3447C203.318 15.8285 203.676 15.4844 204.213 15.4844C204.75 15.4844 205.109 15.8286 205.109 16.3447Z" fill="#F19920"/>
<path d="M154.982 6.88477V8.60537H180.045C182.015 8.60537 183.626 10.154 183.626 12.0467V34.4154C183.626 41.126 179.867 46.4601 172.885 46.4601H178.255C185.237 46.4601 190.787 41.126 190.787 34.4154V6.88477H154.982Z" fill="#F6B545"/>
<path d="M190.787 6.88273H154.982C153.013 6.88273 151.402 5.33409 151.402 3.44137C151.402 1.54864 153.013 0 154.982 0H190.787C192.756 0 194.367 1.54864 194.367 3.44137C194.367 5.33424 192.756 6.88273 190.787 6.88273Z" fill="#F6B545"/>
<path d="M190.787 0C190.787 1.89273 189.175 3.44137 187.206 3.44137H151.402C151.402 5.33409 153.013 6.88273 154.982 6.88273H190.608C192.398 6.88273 194.009 5.67833 194.367 3.95758C194.725 1.89273 192.935 0 190.787 0Z" fill="#F19920"/>
<path d="M177.002 30.9744H176.823L172.885 28.9096L168.946 30.9744C168.767 30.9744 168.588 30.9744 168.409 30.9744C168.23 30.8023 168.23 30.6304 168.23 30.4582L168.946 25.9844L165.724 22.8873C165.724 22.7152 165.724 22.5432 165.724 22.3711C165.724 22.199 165.903 22.027 166.082 22.027L170.558 21.3387L172.527 17.3811C172.527 17.209 172.706 17.209 172.885 17.209C173.064 17.209 173.243 17.3811 173.243 17.3811L175.212 21.3387L179.688 22.027C179.867 22.027 180.046 22.1991 180.046 22.3711C180.046 22.5431 180.046 22.7152 179.867 22.8873L176.644 25.9844L177.36 30.4582C177.36 30.6304 177.36 30.8023 177.181 30.9744C177.181 30.9744 177.181 30.9744 177.002 30.9744Z" fill="#F19920"/>
<path d="M154.982 56.7812C153.013 56.7812 151.402 58.3299 151.402 60.2226V68.826H154.982V56.7812Z" fill="#2662FC"/>
<rect x="99.668" y="39.6445" width="21.2196" height="4.005" fill="#152E6C"/>
<rect x="99.668" y="48.1543" width="21.2196" height="4.005" fill="#152E6C"/>
</svg>
