<svg width="102" height="102" viewBox="0 0 102 102" fill="none" xmlns="http://www.w3.org/2000/svg">
<circle cx="51" cy="51" r="49.5" stroke="#E1ECEF" stroke-width="3"/>
<g clip-path="url(#clip0)">
<path d="M61.4401 65.8821C61.5379 67.0984 61.7068 68.2879 61.6979 69.4684C61.689 70.5326 61.5646 71.6058 61.3423 72.6522C61.2178 73.2335 60.8444 73.788 60.5066 74.3067C60.231 74.736 59.7776 74.9059 59.253 74.7539C58.7107 74.5929 58.5062 74.1815 58.4173 73.6539C58.2217 72.4376 58.1239 71.1855 57.7683 70.0139C57.3682 68.6993 56.7281 67.4561 56.1858 66.1862C56.1413 66.0878 56.0613 65.9984 55.9813 65.8821C55.679 66.9195 54.4877 77.7499 54.6655 78.8141C54.7188 78.8678 54.7722 78.832 54.8255 78.8857C54.8878 78.7515 54.9233 78.68 55.0033 78.5727C56.0524 77.2043 55.7768 76.6499 56.817 75.2726C57.3238 74.6018 58.8885 75.4962 59.6887 75.7555C60.3732 75.9791 61.0667 76.2206 61.6979 76.5694C62.5425 77.0255 62.6848 77.7231 62.2403 78.5727C61.3334 80.3345 60.4533 82.1053 59.1997 83.6614C57.5727 85.6915 55.6968 87.4265 53.2608 88.4461C52.0784 88.938 50.8426 89.1616 49.5623 88.9022C47.6242 88.5176 46.3528 87.3192 45.6149 85.5216C44.9481 83.8939 44.637 82.1768 44.3613 80.4597C43.7479 76.5962 43.8101 77.4458 43.5523 73.5555C43.3923 71.1766 43.25 68.7976 43.0989 66.4187C43.09 66.3203 43.0722 66.222 43.0367 65.9894C42.9122 66.1951 42.8322 66.3114 42.7699 66.4277C41.6319 68.583 40.8585 70.8456 40.7073 73.3051C40.654 74.2352 40.3695 74.6555 39.7649 74.7986C39.2048 74.9327 38.6892 74.6287 38.2446 73.8774C37.569 72.7506 37.3734 71.4985 37.3911 70.2286C37.4089 68.9497 37.5601 67.6708 37.649 66.4008C37.6579 66.2577 37.6845 66.1057 37.7112 65.9268C37.1422 65.8374 36.5821 65.7748 36.0398 65.6585C33.9327 65.2292 32.1101 64.1829 30.4387 62.8682C28.6873 61.4999 27.1403 59.9169 25.7623 58.173C24.2509 56.2681 22.4372 54.7566 20.3657 53.5135C18.9521 52.6639 17.503 51.8769 16.2938 50.7321C14.5246 49.0061 13.9112 46.8597 14.009 44.4897C14.0356 43.8547 14.3024 43.2108 14.578 42.6206C17.4141 36.5033 20.8369 32.452 25.3089 27.3901C26.0201 26.5852 26.8736 25.8876 27.7093 25.199C29.0162 24.1258 30.5098 23.8307 32.1813 24.1168C34.075 24.4388 35.8264 25.1274 37.5778 25.8697C38.5202 26.2632 39.4626 26.6657 40.4228 27.0145C42.4321 27.7568 44.468 27.9982 46.6107 27.5869C48.8955 27.1576 51.216 27.2917 53.5097 27.7299C54.6655 27.9535 55.8035 27.8462 56.8881 27.5064C58.4707 27.0145 59.9998 26.3706 61.5646 25.825C63.0938 25.2795 64.6229 24.716 66.1877 24.2599C68.437 23.5981 70.3751 24.251 72.091 25.7982C73.8336 27.3722 75.3272 29.1609 76.6874 31.0569C79.5857 35.0992 82.0751 37.6928 84.28 42.1644C86.0047 45.6613 84.4311 49.6947 81.7906 51.4744C80.6082 52.2704 79.399 53.0216 78.1899 53.7729C76.3496 54.9176 74.7315 56.3217 73.3624 58.0209C71.6287 60.1673 69.7172 62.1438 67.4235 63.6999C65.7254 64.8536 63.885 65.6228 61.8224 65.8106C61.7157 65.8195 61.6179 65.8374 61.5112 65.8553C61.4935 65.8463 61.4668 65.8642 61.4401 65.8821ZM40.3784 29.4113C38.3602 28.5974 36.3598 27.7657 34.3417 26.9966C33.5949 26.7104 32.8036 26.5673 32.0301 26.3706C30.8032 26.0665 29.7097 26.308 28.7673 27.1755C28.1361 27.7568 27.4782 28.3202 26.9003 28.9552C24.2776 31.8349 22.1527 35.0903 20.1701 38.4351C18.7832 40.7603 17.4763 41.4311 16.4361 43.9442C16.3294 44.2035 16.2227 44.4808 16.2138 44.758C16.1605 46.7613 16.8006 48.4605 18.472 49.6411C19.37 50.276 20.2946 50.8573 21.2459 51.4208C23.6552 52.8428 25.789 54.5867 27.5315 56.8046C28.7406 58.334 30.1009 59.7291 31.6301 60.9543C33.3015 62.2958 35.1063 63.3333 37.2845 63.5747C38.138 63.6731 38.138 63.6731 38.3424 62.8235C38.4136 62.5194 38.4847 62.269 38.2357 61.9649C34.1283 56.7957 32.0301 50.8752 31.7545 44.284C31.6123 40.8051 32.1813 39.1416 33.826 36.0383C34.2261 35.287 34.1461 34.6073 33.746 33.9277C33.4437 33.4089 32.9725 33.087 32.4213 32.8634C31.8523 32.6309 31.6123 32.0138 31.8168 31.4593C32.0124 30.9316 32.5725 30.6097 33.097 30.7617C35.8442 31.5666 37.0444 34.8309 35.8797 36.9237C35.6219 37.3798 35.4085 37.8538 35.213 38.3367C34.0483 41.2075 33.7905 42.4954 34.0572 45.545C34.4839 50.5175 36.0931 55.0786 38.9114 59.1836C39.0003 59.3088 39.0981 59.434 39.2582 59.6486C39.3826 59.2193 39.5249 58.9063 39.5693 58.5754C40.0672 55.4363 40.5206 52.2972 40.6184 49.1223C40.6362 48.4784 41.1252 48.0044 41.7208 48.0044C42.3343 48.0044 42.8144 48.4963 42.8322 49.1671C42.8411 49.4354 42.8411 49.7037 42.8144 49.972C42.5032 52.798 42.1743 55.6241 41.872 58.4502C41.8542 58.638 41.9342 58.8884 42.0587 59.0226C42.9033 59.899 43.7835 60.7397 44.6103 61.634C44.8414 61.8844 45.037 62.269 45.0548 62.6089C45.3482 66.6691 45.5971 70.7294 45.8816 74.7897C46.1483 78.5637 46.0772 77.5979 46.7885 81.3272C47.0196 82.5346 47.3397 83.7419 47.7842 84.8867C48.3443 86.3176 49.6157 86.9794 51.1182 86.72C51.7494 86.6127 52.3895 86.416 52.9674 86.1208C54.9856 85.1013 56.577 83.572 57.8483 81.7207C58.6129 80.6117 59.2619 79.4312 59.9465 78.2954C59.6087 77.9824 59.502 78.206 59.3775 78.367C58.6396 79.3418 57.9461 80.3434 57.146 81.2646C56.5059 81.998 55.8124 82.7224 55.03 83.2858C53.7498 84.1891 52.4695 83.5273 52.3717 81.9532C52.3095 80.9248 52.2828 79.8963 52.3273 78.8678C52.5496 74.2352 53.1541 74.3514 53.4208 69.7277C53.5542 67.3488 53.7409 64.9699 53.9365 62.591C53.9632 62.2869 54.1054 61.9471 54.3099 61.7235C54.9233 61.0617 55.5546 60.3909 56.2569 59.8364C57.1193 59.1657 57.2438 58.4234 57.0482 57.3681C56.5592 54.703 56.1947 52.011 56.1502 49.2923C56.1413 48.541 56.577 48.0402 57.226 48.0134C57.8661 47.9955 58.3551 48.4963 58.3729 49.2297C58.444 52.3956 58.9774 55.5168 59.4842 58.6291C59.5286 58.9153 59.6709 59.1925 59.8042 59.595C59.8932 59.4429 59.9198 59.3982 59.9465 59.3624C60.0532 59.2015 60.1776 59.0494 60.2843 58.8884C63.3249 54.2737 64.943 49.2028 65.023 43.658C65.0675 40.6799 64.5518 39.4993 63.0938 36.87C61.9647 34.8399 63.1293 31.5487 65.8854 30.7528C66.5966 30.5471 67.2723 31.1373 67.2368 31.8796C67.2101 32.4431 66.8722 32.7561 66.3655 32.9439C65.2364 33.3553 64.4807 34.9293 65.183 36.1188C65.7343 37.0578 66.0988 38.1221 66.4188 39.1684C67.4146 42.4685 67.459 44.1409 66.9523 47.5215C66.1877 52.6102 64.3562 57.2608 61.2178 61.3479C60.7555 61.9471 60.4977 62.4658 60.8267 63.1812C60.8444 63.217 60.8533 63.2707 60.8622 63.3154C60.8889 63.5569 61.0223 63.6463 61.2534 63.6105C61.8935 63.4942 62.5514 63.4406 63.1738 63.2617C65.0141 62.752 66.5789 61.7145 67.9569 60.4356C69.1216 59.3535 70.2773 58.2445 71.2642 57.0103C73.1934 54.5867 75.5317 52.6907 78.1899 51.1435C79.1857 50.5622 80.1725 49.9362 81.0438 49.1849C82.7597 47.7182 83.2664 45.384 82.324 43.3539C79.7636 37.8359 76.6519 34.348 72.74 29.6885C71.8687 28.6511 70.8019 27.7657 69.7795 26.8714C69.166 26.3258 68.3925 26.1559 67.5657 26.308C67.1923 26.3795 66.8011 26.4153 66.4277 26.4958C64.5696 26.8893 62.8804 27.7299 61.1378 28.4365C60.3021 28.7763 59.4664 29.0893 58.5862 29.4381C58.7196 29.5275 58.8174 29.5902 58.9152 29.6528C59.5998 30.0999 60.2932 30.5292 60.96 30.9943C61.609 31.4504 61.7424 32.1658 61.3334 32.6935C60.9156 33.2301 60.2843 33.239 59.6353 32.7919C58.9685 32.3268 58.2929 31.8618 57.5816 31.4772C52.6474 28.7853 44.5214 28.83 39.5338 32.6309C39.3026 32.8097 38.9648 32.8992 38.6803 32.9171C38.2357 32.9439 37.8623 32.604 37.7201 32.1837C37.569 31.7008 37.6934 31.2178 38.1291 30.9138C38.8581 30.3951 39.6227 29.9121 40.3784 29.4113ZM58.1328 61.3031C58.0528 61.2763 57.9817 61.2405 57.9017 61.2137C57.5549 61.5983 57.226 61.9918 56.8615 62.3495C56.657 62.5552 56.6659 62.6983 56.8081 62.9487C57.5994 64.3349 58.364 65.748 59.1375 67.1431C59.173 67.2147 59.2264 67.2773 59.2708 67.3399C59.3153 67.322 59.3686 67.313 59.4131 67.2952C58.9863 65.3008 58.5596 63.3064 58.1328 61.3031ZM41.0896 61.1779C40.4584 63.2886 40.0228 65.2829 39.7827 67.2326C40.6362 65.7837 41.5164 64.2723 42.3876 62.7609C42.4232 62.6983 42.4054 62.5463 42.3521 62.4926C41.9698 62.0812 41.5697 61.6698 41.0896 61.1779Z" fill="#E1ECEF"/>
<path d="M38.4229 45.7595C37.1872 45.7684 36.1914 44.7668 36.1914 43.5237C36.1914 42.2984 37.1694 41.3147 38.3963 41.3057C39.6321 41.2968 40.6367 42.3074 40.6278 43.5415C40.6189 44.7668 39.6321 45.7505 38.4229 45.7595Z" fill="#E1ECEF"/>
<path d="M62.8182 43.5147C62.8271 44.7578 61.8313 45.7594 60.5955 45.7594C59.3775 45.7594 58.3996 44.7757 58.3907 43.5504C58.3818 42.3073 59.3775 41.3057 60.6133 41.3057C61.8402 41.3146 62.8182 42.2894 62.8182 43.5147Z" fill="#E1ECEF"/>
</g>
<defs>
<clipPath id="clip0">
<rect width="71" height="65" fill="white" transform="translate(14 24)"/>
</clipPath>
</defs>
</svg>
