<svg width="64" height="58" viewBox="0 0 64 58" fill="none" xmlns="http://www.w3.org/2000/svg">
<path opacity="0.5" d="M32.5582 42.9389C32.5582 42.9389 32.9655 45.3855 33.3486 49.1395C33.8016 53.5014 34.9775 56.1655 35.2975 55.7926C35.2975 55.7926 35.4782 56.0582 36.3995 55.9317C37.3208 55.8051 37.4367 54.1984 37.4367 54.1984C37.4367 54.1984 36.3952 54.9205 35.6432 50.9305C34.8911 46.9406 34.3244 42.8579 34.3244 42.8579L41.1223 50.4894C41.1223 50.4894 40.432 47.8451 40.9544 46.8308C41.4758 45.7955 42.1953 45.4043 42.1953 45.4043C42.1953 45.4043 44.0811 45.6338 45.7904 46.6088C47.4997 47.5839 48.8582 48.259 48.8582 48.259C48.8582 48.259 48.3687 45.8584 51.1005 44.3212C53.8323 42.7841 58.3352 41.271 58.3352 41.271C58.3352 41.271 53.7581 39.3319 52.5801 37.9954C51.401 36.6378 49.9199 35.1255 49.9199 35.1255C49.9199 35.1255 50.3553 32.2188 52.7928 30.6952C55.2513 29.1706 59.1053 25.9174 59.1053 25.9174C59.1053 25.9174 56.4556 25.1119 56.226 22.4044C55.9963 19.6968 58.5407 13.6171 58.5407 13.6171C58.5407 13.6171 54.8297 16.3159 52.5045 16.6123C50.1793 16.9086 48.753 16.1313 48.0799 15.6986C47.4069 15.266 47.1075 14.7108 47.1075 14.7108C47.1075 14.7108 44.9444 18.5396 43.2515 20.2187C42.8083 20.6604 43.8096 19.9823 43.2515 20.2187C40.2769 21.5141 39.1152 20.535 39.1973 18.1924C39.2389 17.2634 39.1028 18.4285 39.2964 17.5979C39.8411 15.234 41.4383 9.17668 41.4383 9.17668C41.4383 9.17668 39.5301 10.2967 37.8008 9.34366C36.0714 8.39059 34.9444 8.16841 34.1274 6.43599C33.3104 4.70357 31.8437 1.20998 31.8437 1.20998C31.8437 1.20998 31.1137 3.66661 30.1606 5.396C29.2075 7.12539 29.1784 8.32774 27.6152 9.15804C26.0519 9.98834 25.3498 10.758 24.61 10.7077C23.8702 10.6574 21.8677 10.1804 21.8677 10.1804C21.8677 10.1804 23.5769 12.9886 24.1513 14.9429C24.7036 16.8771 24.8145 16.9984 24.7903 18.3059C24.7912 18.3269 24.7893 18.2849 24.7903 18.3059C24.765 19.5924 22.9597 22.0351 20.6237 21.6367C20.6237 21.6367 20.3407 21.4389 20.1437 21.2794C18.397 19.9479 19.3866 20.8506 18.174 19.2207C16.9613 17.5907 15.4962 15.5087 15.4962 15.5087C15.4962 15.5087 15.2653 16.4464 13.8865 17.1629C12.5076 17.8794 12.6514 18.7156 10.216 18.4482C7.78061 18.1807 3.54117 16.7107 3.54117 16.7107C3.54117 16.7107 5.95271 19.2128 6.63624 21.7098C7.31977 24.2069 8.27871 24.9004 7.79208 26.6926C7.30544 28.4849 6.8863 29.4523 6.2509 29.8397C5.61646 30.2481 9.68362 31.1781 11.3958 32.2162C13.1291 33.2534 15.6282 34.9086 15.6282 34.9086L16.0871 35.2668C16.7 35.7655 16.8867 36.6208 16.5391 37.311C16.1132 38.1312 15.4676 39.2144 14.5811 40.0979C12.8873 41.7559 12.754 42.9841 11.3626 43.4273C9.97127 43.8704 8.70142 44.6662 8.70142 44.6662C8.70142 44.6662 13.0961 44.928 14.6401 45.9739C16.1841 47.0197 17.3302 49.4956 17.3302 49.4956L22.2566 46.1931C23.0124 45.6738 24.0543 45.8788 24.5526 46.6356C24.7333 46.9012 24.852 47.1907 24.8884 47.5262C25.0295 48.7629 24.5899 51.1219 24.5899 51.1219C24.5899 51.1219 27.2145 49.084 28.9044 47.3418C30.6173 45.6408 32.5582 42.9389 32.5582 42.9389Z" fill="#54AB5A"/>
<path opacity="0.5" d="M35.6438 30.5085V33.951H28.3508V30.5085H35.6438Z" fill="white"/>
</svg>
