<svg width="137" height="137" viewBox="0 0 137 137" fill="none" xmlns="http://www.w3.org/2000/svg">
<path d="M70.3512 101.791C70.3512 101.791 71.3171 107.592 72.2254 116.494C73.2997 126.837 76.088 133.155 76.8468 132.271C76.8468 132.271 77.2755 132.901 79.4601 132.6C81.6448 132.3 81.9196 128.49 81.9196 128.49C81.9196 128.49 79.45 130.203 77.6666 120.741C75.8832 111.28 74.5395 101.598 74.5395 101.598L90.6594 119.695C90.6594 119.695 89.0225 113.425 90.2612 111.019C91.4975 108.564 93.2037 107.637 93.2037 107.637C93.2037 107.637 97.6755 108.181 101.729 110.493C105.782 112.805 109.004 114.406 109.004 114.406C109.004 114.406 107.843 108.713 114.321 105.068C120.799 101.423 131.477 97.8354 131.477 97.8354C131.477 97.8354 120.623 93.2372 117.829 90.0678C115.033 86.8485 111.521 83.2624 111.521 83.2624C111.521 83.2624 112.554 76.3698 118.334 72.7568C124.164 69.1416 133.303 61.4272 133.303 61.4272C133.303 61.4272 127.019 59.5172 126.475 53.0967C125.93 46.6762 131.964 32.2592 131.964 32.2592C131.964 32.2592 123.164 38.659 117.65 39.3618C112.136 40.0645 108.754 38.2212 107.158 37.1953C105.562 36.1693 104.852 34.8528 104.852 34.8528C104.852 34.8528 99.7227 43.9321 95.7084 47.9137C94.6573 48.9612 97.0318 47.3533 95.7084 47.9137C88.6545 50.9855 85.8998 48.6637 86.0945 43.1087C86.1932 40.9057 85.8704 43.6686 86.3296 41.6989C87.6212 36.0935 91.4087 21.7296 91.4087 21.7296C91.4087 21.7296 86.8839 24.3856 82.7829 22.1256C78.682 19.8656 76.0097 19.3387 74.0723 15.2306C72.135 11.1225 68.6569 2.83808 68.6569 2.83808C68.6569 2.83808 66.9257 8.6635 64.6657 12.7644C62.4056 16.8654 62.3367 19.7165 58.6297 21.6854C54.9228 23.6543 53.2578 25.4795 51.5035 25.3602C49.7493 25.2409 45.0007 24.1098 45.0007 24.1098C45.0007 24.1098 49.0537 30.7689 50.4156 35.4031C51.7254 39.9897 51.9885 40.2774 51.9309 43.3779C51.9332 43.4277 51.9286 43.328 51.9309 43.3779C51.8711 46.4285 47.5902 52.221 42.0507 51.2762C42.0507 51.2762 41.3796 50.8073 40.9126 50.429C36.7705 47.2715 39.1171 49.4122 36.2416 45.5471C33.3661 41.6819 29.8917 36.7449 29.8917 36.7449C29.8917 36.7449 29.3443 38.9685 26.0746 40.6675C22.805 42.3665 23.1458 44.3495 17.3708 43.7152C11.5957 43.0809 1.54264 39.5952 1.54264 39.5952C1.54264 39.5952 7.26117 45.5283 8.88203 51.4497C10.5029 57.3711 12.7768 59.0155 11.6229 63.2655C10.4689 67.5155 9.47501 69.8095 7.96827 70.7281C6.46381 71.6965 16.1083 73.9019 20.1686 76.3637C24.2786 78.8232 30.2048 82.7482 30.2048 82.7482L31.293 83.5976C32.7463 84.78 33.1892 86.8082 32.3649 88.4449C31.355 90.3899 29.8241 92.9585 27.7218 95.0536C23.7052 98.9853 23.3892 101.898 20.0898 102.949C16.7904 103.999 13.7792 105.886 13.7792 105.886C13.7792 105.886 24.2004 106.507 27.8618 108.987C31.5231 111.467 34.2409 117.338 34.2409 117.338L45.9229 109.507C47.7151 108.276 50.1857 108.762 51.3673 110.556C51.7959 111.186 52.0773 111.873 52.1637 112.668C52.4982 115.601 51.4559 121.195 51.4559 121.195C51.4559 121.195 57.6795 116.362 61.687 112.231C65.7488 108.197 70.3512 101.791 70.3512 101.791Z" fill="#3A6A3D"/>
</svg>
