<svg width="64" height="59" viewBox="0 0 64 59" fill="none" xmlns="http://www.w3.org/2000/svg">
<path opacity="0.4" d="M32.5582 43.8989C32.5582 43.8989 32.9655 46.3454 33.3486 50.0995C33.8016 54.4613 34.9775 57.1255 35.2975 56.7526C35.2975 56.7526 35.4782 57.0182 36.3995 56.8916C37.3208 56.7651 37.4367 55.1584 37.4367 55.1584C37.4367 55.1584 36.3952 55.8804 35.6432 51.8905C34.8911 47.9005 34.3244 43.8178 34.3244 43.8178L41.1223 51.4493C41.1223 51.4493 40.432 48.8051 40.9544 47.7908C41.4758 46.7555 42.1953 46.3642 42.1953 46.3642C42.1953 46.3642 44.0811 46.5937 45.7904 47.5688C47.4997 48.5438 48.8582 49.219 48.8582 49.219C48.8582 49.219 48.3687 46.8183 51.1005 45.2812C53.8323 43.7441 58.3352 42.231 58.3352 42.231C58.3352 42.231 53.7581 40.2919 52.5801 38.9553C51.401 37.5977 49.9199 36.0854 49.9199 36.0854C49.9199 36.0854 50.3553 33.1788 52.7928 31.6552C55.2513 30.1306 59.1053 26.8774 59.1053 26.8774C59.1053 26.8774 56.4556 26.0719 56.226 23.3644C55.9963 20.6568 58.5407 14.5771 58.5407 14.5771C58.5407 14.5771 54.8297 17.2759 52.5045 17.5722C50.1793 17.8686 48.753 17.0913 48.0799 16.6586C47.4069 16.226 47.1075 15.6708 47.1075 15.6708C47.1075 15.6708 44.9444 19.4996 43.2515 21.1786C42.8083 21.6204 43.8096 20.9423 43.2515 21.1786C40.2769 22.4741 39.1152 21.4949 39.1973 19.1523C39.2389 18.2233 39.1028 19.3885 39.2964 18.5578C39.8411 16.194 41.4383 10.1366 41.4383 10.1366C41.4383 10.1366 39.5301 11.2567 37.8008 10.3036C36.0714 9.35055 34.9444 9.12837 34.1274 7.39595C33.3104 5.66353 31.8437 2.16995 31.8437 2.16995C31.8437 2.16995 31.1137 4.62657 30.1606 6.35596C29.2075 8.08535 29.1784 9.2877 27.6152 10.118C26.0519 10.9483 25.3498 11.718 24.61 11.6677C23.8702 11.6174 21.8677 11.1404 21.8677 11.1404C21.8677 11.1404 23.5769 13.9486 24.1513 15.9028C24.7036 17.837 24.8145 17.9584 24.7903 19.2659C24.7912 19.2869 24.7893 19.2448 24.7903 19.2659C24.765 20.5523 22.9597 22.9951 20.6237 22.5966C20.6237 22.5966 20.3407 22.3989 20.1437 22.2394C18.397 20.9078 19.3866 21.8106 18.174 20.1806C16.9613 18.5506 15.4962 16.4687 15.4962 16.4687C15.4962 16.4687 15.2653 17.4064 13.8865 18.1229C12.5076 18.8394 12.6514 19.6756 10.216 19.4081C7.78061 19.1406 3.54117 17.6707 3.54117 17.6707C3.54117 17.6707 5.95271 20.1727 6.63624 22.6698C7.31977 25.1669 8.27871 25.8603 7.79208 27.6526C7.30544 29.4449 6.8863 30.4123 6.2509 30.7996C5.61646 31.208 9.68362 32.1381 11.3958 33.1762C13.1291 34.2134 15.6282 35.8686 15.6282 35.8686L16.0871 36.2268C16.7 36.7254 16.8867 37.5807 16.5391 38.2709C16.1132 39.0912 15.4676 40.1743 14.5811 41.0579C12.8873 42.7159 12.754 43.9441 11.3626 44.3872C9.97127 44.8304 8.70142 45.6261 8.70142 45.6261C8.70142 45.6261 13.0961 45.888 14.6401 46.9338C16.1841 47.9797 17.3302 50.4555 17.3302 50.4555L22.2566 47.1531C23.0124 46.6338 24.0543 46.8388 24.5526 47.5955C24.7333 47.8611 24.852 48.1507 24.8884 48.4861C25.0295 49.7228 24.5899 52.0818 24.5899 52.0818C24.5899 52.0818 27.2145 50.0439 28.9044 48.3018C30.6173 46.6007 32.5582 43.8989 32.5582 43.8989Z" fill="#54AB5A"/>
<g opacity="0.4">
<path d="M35.6438 31.2722V34.7147H28.3508V31.2722H35.6438Z" fill="white"/>
<path d="M35.6438 31.2722H38.6438V28.2722H35.6438V31.2722ZM35.6438 34.7147V37.7147H38.6438V34.7147H35.6438ZM28.3508 34.7147H25.3508V37.7147H28.3508V34.7147ZM28.3508 31.2722V28.2722H25.3508V31.2722H28.3508ZM32.6438 31.2722V34.7147H38.6438V31.2722H32.6438ZM35.6438 31.7147H28.3508V37.7147H35.6438V31.7147ZM31.3508 34.7147V31.2722H25.3508V34.7147H31.3508ZM28.3508 34.2722H35.6438V28.2722H28.3508V34.2722Z" fill="#54AB5A"/>
</g>
</svg>
