<svg width="274" height="273" viewBox="0 0 274 273" fill="none" xmlns="http://www.w3.org/2000/svg">
<path d="M140.95 203.939C140.95 203.939 142.885 215.563 144.705 233.398C146.857 254.121 152.443 266.778 153.964 265.007C153.964 265.007 154.823 266.269 159.2 265.668C163.577 265.066 164.127 257.433 164.127 257.433C164.127 257.433 159.179 260.863 155.606 241.907C152.033 222.951 149.341 203.554 149.341 203.554L181.638 239.811C181.638 239.811 178.358 227.249 180.84 222.43C183.317 217.511 186.735 215.652 186.735 215.652C186.735 215.652 195.695 216.743 203.816 221.375C211.936 226.007 218.39 229.215 218.39 229.215C218.39 229.215 216.065 217.81 229.044 210.507C242.022 203.204 263.415 196.015 263.415 196.015C263.415 196.015 241.67 186.803 236.073 180.453C230.471 174.003 223.434 166.818 223.434 166.818C223.434 166.818 225.503 153.009 237.084 145.77C248.764 138.527 267.074 123.071 267.074 123.071C267.074 123.071 254.485 119.244 253.394 106.381C252.303 93.517 264.392 64.6323 264.392 64.6323C264.392 64.6323 246.761 77.4543 235.714 78.8623C224.667 80.2704 217.89 76.5773 214.693 74.5217C211.495 72.4662 210.073 69.8287 210.073 69.8287C210.073 69.8287 199.796 88.019 191.753 95.9962C189.647 98.095 194.405 94.8735 191.753 95.9962C177.621 102.151 172.102 97.499 172.492 86.3694C172.69 81.9557 172.043 87.4912 172.963 83.5448C175.55 72.3143 183.139 43.5361 183.139 43.5361C183.139 43.5361 174.073 48.8574 165.857 44.3294C157.641 39.8014 152.287 38.7458 148.405 30.5151C144.524 22.2845 137.555 5.68657 137.555 5.68657C137.555 5.68657 134.087 17.3579 129.559 25.5742C125.031 33.7905 124.893 39.5028 117.466 43.4475C110.039 47.3922 106.703 51.0491 103.188 50.81C99.6735 50.5709 90.1596 48.3048 90.1596 48.3048C90.1596 48.3048 98.2799 61.6464 101.009 70.9311C103.633 80.1204 104.16 80.6969 104.044 86.9087C104.049 87.0086 104.04 86.8088 104.044 86.9087C103.925 93.0206 95.3477 104.626 84.2493 102.733C84.2493 102.733 82.9048 101.794 81.969 101.036C73.6702 94.7097 78.3718 98.9987 72.6107 91.2547C66.8495 83.5107 59.8886 73.6195 59.8886 73.6195C59.8886 73.6195 58.7917 78.0745 52.2409 81.4785C45.6901 84.8825 46.373 88.8553 34.8026 87.5846C23.2321 86.3138 3.09071 79.3301 3.09071 79.3301C3.09071 79.3301 14.5479 91.2172 17.7953 103.081C21.0427 114.944 25.5986 118.239 23.2866 126.754C20.9747 135.269 18.9833 139.865 15.9646 141.705C12.9504 143.646 32.2733 148.064 40.408 152.996C48.6427 157.924 60.5157 165.788 60.5157 165.788L62.6961 167.49C65.6078 169.859 66.495 173.922 64.8437 177.201C62.8202 181.098 59.753 186.244 55.5411 190.442C47.4938 198.319 46.8607 204.154 40.2503 206.26C33.6399 208.365 27.6069 212.146 27.6069 212.146C27.6069 212.146 48.4859 213.389 55.8215 218.358C63.1571 223.327 68.6022 235.09 68.6022 235.09L92.0073 219.4C95.598 216.933 100.548 217.907 102.915 221.502C103.774 222.764 104.338 224.14 104.511 225.733C105.181 231.609 103.093 242.816 103.093 242.816C103.093 242.816 115.562 233.134 123.591 224.857C131.729 216.776 140.95 203.939 140.95 203.939Z" fill="#54AB5A"/>
</svg>
