<svg width="1078" height="208" viewBox="0 0 1078 208" fill="none" xmlns="http://www.w3.org/2000/svg">
<path d="M949 0H241C255.667 36.6667 291.4 120.4 317 162C342.6 203.6 393 208.667 415 206C643 207.333 759.8 209.2 803 206C846.2 202.8 869 166 875 148L949 0Z" fill="#CDCDCD"/>
<path d="M708 0H0C14.6667 36.6667 50.4 120.4 76 162C101.6 203.6 152 208.667 174 206C402 207.333 518.8 209.2 562 206C605.2 202.8 628 166 634 148L708 0Z" fill="#CDCDCD"/>
<path d="M1078 0H540C554.667 36.6667 590.4 120.4 616 162C641.6 203.6 689.5 206.86 713.5 207C941.5 208.333 887.5 207 931 207C974.318 207 998 166 1004 148L1078 0Z" fill="#DEE8EC"/>
</svg>
