<svg width="312" height="350" viewBox="0 0 312 350" fill="none" xmlns="http://www.w3.org/2000/svg">
<rect x="96" y="75" width="123" height="163" fill="#3C0803"/>
<g filter="url(#filter0_d)">
<path d="M251.1 49.8V40H60V49.8H69.4V149.8H60V159.6H69.4V259.6H60V269.4H251.1V259.6H241.7V159.6H251.1V149.8H241.7V49.8H251.1ZM88.6 238.2C88.6 240.9 86.4 243.1 83.7 243.1C81 243.1 78.8 240.9 78.8 238.2V72.4C78.8 69.7 81 67.5 83.7 67.5C86.4 67.5 88.6 69.7 88.6 72.4V238.2ZM157.2 223.4C156.7 223.4 156.1 223.4 155.6 223.4C147 223.4 138.7 221.8 131.3 219C100.8 207.4 89.1 174.1 106.1 148.7L154.9 84.8L199.6 145.3C225.5 177.2 201.2 222.4 157.2 223.4Z" fill="#DEE8EC"/>
</g>
<path d="M148 38.6414C149.3 38.1414 150.6 37.1414 151.9 37.1414C173.9 37.0414 195.9 36.9414 217.9 37.0414C221.8 37.0414 223.5 39.7414 223.2 43.1414C222.8 47.8414 221.8 52.4414 221.1 57.1414C220.7 59.6414 220.6 62.2414 219.9 64.6414C219.5 66.0414 218 68.1414 217.1 68.1414C215.6 68.1414 213.9 66.7414 212.9 65.5414C212.1 64.6414 212.2 62.9414 211.9 61.6414C211 57.7414 211.4 54.0414 205.8 51.9414C204.9 51.5414 204.1 49.9414 203.3 48.8414C201.5 46.4414 196.8 45.2414 195.4 45.0414C180.8 43.2414 170.2 42.5414 155.6 40.8414C153.1 40.5414 150.7 40.1414 148.2 39.8414C148.1 39.4414 148.1 39.0414 148 38.6414Z" fill="#3C0803"/>
<path d="M94.0326 76.504C94.3286 76.208 94.7006 76.06 95.1486 76.06C95.5966 76.06 95.9686 76.208 96.2646 76.504C96.5606 76.8 96.7086 77.172 96.7086 77.62C96.7086 78.068 96.5606 78.44 96.2646 78.736C95.9686 79.032 95.5966 79.18 95.1486 79.18C94.7006 79.18 94.3286 79.032 94.0326 78.736C93.7366 78.44 93.5886 78.068 93.5886 77.62C93.5886 77.172 93.7366 76.8 94.0326 76.504ZM106.733 75.34H103.229V77.056H106.265V78.748H103.229V82H101.369V73.6H106.733V75.34ZM114.613 73.6V78.604C114.613 79.716 114.309 80.588 113.701 81.22C113.093 81.844 112.209 82.156 111.049 82.156C109.881 82.156 108.993 81.844 108.385 81.22C107.777 80.588 107.473 79.716 107.473 78.604V73.6H109.453V78.436C109.453 78.98 109.589 79.416 109.861 79.744C110.141 80.072 110.537 80.236 111.049 80.236C111.561 80.236 111.953 80.072 112.225 79.744C112.505 79.416 112.645 78.98 112.645 78.436V73.6H114.613ZM117.877 73.6V80.248H121.225V82H116.017V73.6H117.877ZM123.83 73.6V80.248H127.178V82H121.97V73.6H123.83Z" fill="black"/>
<defs>
<filter id="filter0_d" x="0" y="0" width="311.1" height="349.4" filterUnits="userSpaceOnUse" color-interpolation-filters="sRGB">
<feFlood flood-opacity="0" result="BackgroundImageFix"/>
<feColorMatrix in="SourceAlpha" type="matrix" values="0 0 0 0 0 0 0 0 0 0 0 0 0 0 0 0 0 0 127 0"/>
<feOffset dy="20"/>
<feGaussianBlur stdDeviation="30"/>
<feColorMatrix type="matrix" values="0 0 0 0 0 0 0 0 0 0 0 0 0 0 0 0 0 0 0.5 0"/>
<feBlend mode="normal" in2="BackgroundImageFix" result="effect1_dropShadow"/>
<feBlend mode="normal" in="SourceGraphic" in2="effect1_dropShadow" result="shape"/>
</filter>
</defs>
</svg>
