<svg width="192" height="233" viewBox="0 0 192 233" fill="none" xmlns="http://www.w3.org/2000/svg">
<rect x="36" y="38" width="123" height="163" fill="#3C0803"/>
<path d="M191.1 12.8V3H0V12.8H9.4V112.8H0V122.6H9.4V222.6H0V232.4H191.1V222.6H181.7V122.6H191.1V112.8H181.7V12.8H191.1ZM28.6 201.2C28.6 203.9 26.4 206.1 23.7 206.1C21 206.1 18.8 203.9 18.8 201.2V35.4C18.8 32.7 21 30.5 23.7 30.5C26.4 30.5 28.6 32.7 28.6 35.4V201.2ZM97.2 186.4C96.7 186.4 96.1 186.4 95.6 186.4C87 186.4 78.7 184.8 71.3 182C40.8 170.4 29.1 137.1 46.1 111.7L94.9 47.8L139.6 108.3C165.5 140.2 141.2 185.4 97.2 186.4Z" fill="#DEE8EC"/>
<path d="M88 1.64142C89.3 1.14142 90.6 0.141421 91.9 0.141421C113.9 0.0414214 135.9 -0.0585786 157.9 0.0414214C161.8 0.0414214 163.5 2.74142 163.2 6.14142C162.8 10.8414 161.8 15.4414 161.1 20.1414C160.7 22.6414 160.6 25.2414 159.9 27.6414C159.5 29.0414 158 31.1414 157.1 31.1414C155.6 31.1414 153.9 29.7414 152.9 28.5414C152.1 27.6414 152.2 25.9414 151.9 24.6414C151 20.7414 151.4 17.0414 145.8 14.9414C144.9 14.5414 144.1 12.9414 143.3 11.8414C141.5 9.44142 136.8 8.24142 135.4 8.04142C120.8 6.24142 110.2 5.54142 95.6 3.84142C93.1 3.54142 90.7 3.14142 88.2 2.84142C88.1 2.44142 88.1 2.04142 88 1.64142Z" fill="#3C0803"/>
<path d="M34.0326 39.504C34.3286 39.208 34.7006 39.06 35.1486 39.06C35.5966 39.06 35.9686 39.208 36.2646 39.504C36.5606 39.8 36.7086 40.172 36.7086 40.62C36.7086 41.068 36.5606 41.44 36.2646 41.736C35.9686 42.032 35.5966 42.18 35.1486 42.18C34.7006 42.18 34.3286 42.032 34.0326 41.736C33.7366 41.44 33.5886 41.068 33.5886 40.62C33.5886 40.172 33.7366 39.8 34.0326 39.504ZM46.7327 38.34H43.2287V40.056H46.2647V41.748H43.2287V45H41.3687V36.6H46.7327V38.34ZM54.6125 36.6V41.604C54.6125 42.716 54.3085 43.588 53.7005 44.22C53.0925 44.844 52.2085 45.156 51.0485 45.156C49.8805 45.156 48.9925 44.844 48.3845 44.22C47.7765 43.588 47.4725 42.716 47.4725 41.604V36.6H49.4525V41.436C49.4525 41.98 49.5885 42.416 49.8605 42.744C50.1405 43.072 50.5365 43.236 51.0485 43.236C51.5605 43.236 51.9525 43.072 52.2245 42.744C52.5045 42.416 52.6445 41.98 52.6445 41.436V36.6H54.6125ZM57.8772 36.6V43.248H61.2252V45H56.0172V36.6H57.8772ZM63.8303 36.6V43.248H67.1783V45H61.9703V36.6H63.8303Z" fill="black"/>
</svg>
