<svg width="102" height="107" viewBox="0 0 102 107" fill="none" xmlns="http://www.w3.org/2000/svg">
<path d="M7.10374 5.48759V3.98759H5.60374H1.5V1.5H100.5V3.98759H96.3963H94.8963V5.48759V50.2842V51.7842H96.3963H100.5V54.2718H96.3963H94.8963V55.7718V100.568V102.068H96.3963H100.5V104.556H1.5V102.068H5.60374H7.10374V100.568V55.7718V54.2718H5.60374H1.5V51.7842H5.60374H7.10374V50.2842V5.48759ZM51.9836 92.9971H51.9996L52.0156 92.9967C65.6136 92.7065 76.2953 85.9886 81.5481 76.8679C86.816 67.7208 86.5532 56.2428 78.4179 46.8101L51.7915 12.9596L50.6319 11.4854L49.4486 12.9407L20.3569 48.722L20.3268 48.759L20.2991 48.7978C14.9381 56.3217 14.0855 65.0658 17.0108 72.7804C19.9307 80.4806 26.5735 87.0644 36.0389 90.4458L36.0412 90.4467C40.6131 92.0716 45.7309 92.9971 51.0298 92.9971H51.0316H51.0333H51.035H51.0368H51.0386H51.0403H51.0421H51.0438H51.0456H51.0473H51.0491H51.0509H51.0526H51.0544H51.0562H51.0579H51.0597H51.0615H51.0632H51.065H51.0668H51.0686H51.0703H51.0721H51.0739H51.0757H51.0774H51.0792H51.081H51.0828H51.0846H51.0864H51.0882H51.0899H51.0917H51.0935H51.0953H51.0971H51.0989H51.1007H51.1025H51.1043H51.1061H51.1079H51.1097H51.1115H51.1133H51.1151H51.1169H51.1187H51.1205H51.1223H51.1242H51.126H51.1278H51.1296H51.1314H51.1332H51.135H51.1369H51.1387H51.1405H51.1423H51.1441H51.146H51.1478H51.1496H51.1514H51.1533H51.1551H51.1569H51.1588H51.1606H51.1624H51.1643H51.1661H51.1679H51.1698H51.1716H51.1734H51.1753H51.1771H51.179H51.1808H51.1826H51.1845H51.1863H51.1882H51.19H51.1919H51.1937H51.1956H51.1974H51.1993H51.2011H51.203H51.2048H51.2067H51.2085H51.2104H51.2122H51.2141H51.216H51.2178H51.2197H51.2215H51.2234H51.2253H51.2271H51.229H51.2309H51.2327H51.2346H51.2365H51.2383H51.2402H51.2421H51.2439H51.2458H51.2477H51.2495H51.2514H51.2533H51.2552H51.257H51.2589H51.2608H51.2627H51.2645H51.2664H51.2683H51.2702H51.2721H51.2739H51.2758H51.2777H51.2796H51.2815H51.2834H51.2853H51.2871H51.289H51.2909H51.2928H51.2947H51.2966H51.2985H51.3004H51.3022H51.3041H51.306H51.3079H51.3098H51.3117H51.3136H51.3155H51.3174H51.3193H51.3212H51.3231H51.325H51.3269H51.3288H51.3307H51.3326H51.3345H51.3364H51.3383H51.3402H51.3421H51.344H51.3459H51.3478H51.3497H51.3516H51.3535H51.3554H51.3573H51.3592H51.3611H51.363H51.3649H51.3668H51.3687H51.3706H51.3725H51.3745H51.3764H51.3783H51.3802H51.3821H51.384H51.3859H51.3878H51.3897H51.3916H51.3936H51.3955H51.3974H51.3993H51.4012H51.4031H51.405H51.4069H51.4089H51.4108H51.4127H51.4146H51.4165H51.4184H51.4203H51.4223H51.4242H51.4261H51.428H51.4299H51.4318H51.4338H51.4357H51.4376H51.4395H51.4414H51.4434H51.4453H51.4472H51.4491H51.451H51.4529H51.4549H51.4568H51.4587H51.4606H51.4625H51.4645H51.4664H51.4683H51.4702H51.4721H51.4741H51.476H51.4779H51.4798H51.4817H51.4837H51.4856H51.4875H51.4894H51.4913H51.4933H51.4952H51.4971H51.499H51.501H51.5029H51.5048H51.5067H51.5086H51.5106H51.5125H51.5144H51.5163H51.5182H51.5202H51.5221H51.524H51.5259H51.5279H51.5298H51.5317H51.5336H51.5355H51.5375H51.5394H51.5413H51.5432H51.5451H51.5471H51.549H51.5509H51.5528H51.5547H51.5567H51.5586H51.5605H51.5624H51.5643H51.5662H51.5682H51.5701H51.572H51.5739H51.5758H51.5778H51.5797H51.5816H51.5835H51.5854H51.5873H51.5893H51.5912H51.5931H51.595H51.5969H51.5988H51.6007H51.6027H51.6046H51.6065H51.6084H51.6103H51.6122H51.6141H51.6161H51.618H51.6199H51.6218H51.6237H51.6256H51.6275H51.6294H51.6313H51.6333H51.6352H51.6371H51.639H51.6409H51.6428H51.6447H51.6466H51.6485H51.6504H51.6523H51.6542H51.6561H51.6581H51.66H51.6619H51.6638H51.6657H51.6676H51.6695H51.6714H51.6733H51.6752H51.6771H51.679H51.6809H51.6828H51.6847H51.6866H51.6885H51.6904H51.6923H51.6942H51.696H51.6979H51.6998H51.7017H51.7036H51.7055H51.7074H51.7093H51.7112H51.7131H51.715H51.7169H51.7188H51.7206H51.7225H51.7244H51.7263H51.7282H51.7301H51.732H51.7338H51.7357H51.7376H51.7395H51.7414H51.7432H51.7451H51.747H51.7489H51.7508H51.7526H51.7545H51.7564H51.7583H51.7601H51.762H51.7639H51.7658H51.7676H51.7695H51.7714H51.7732H51.7751H51.777H51.7788H51.7807H51.7826H51.7844H51.7863H51.7882H51.79H51.7919H51.7938H51.7956H51.7975H51.7993H51.8012H51.803H51.8049H51.8068H51.8086H51.8105H51.8123H51.8142H51.816H51.8179H51.8197H51.8216H51.8234H51.8253H51.8271H51.8289H51.8308H51.8326H51.8345H51.8363H51.8382H51.84H51.8418H51.8437H51.8455H51.8473H51.8492H51.851H51.8528H51.8547H51.8565H51.8583H51.8602H51.862H51.8638H51.8656H51.8675H51.8693H51.8711H51.8729H51.8748H51.8766H51.8784H51.8802H51.882H51.8838H51.8857H51.8875H51.8893H51.8911H51.8929H51.8947H51.8965H51.8983H51.9001H51.9019H51.9037H51.9055H51.9073H51.9091H51.9109H51.9127H51.9145H51.9163H51.9181H51.9199H51.9217H51.9235H51.9253H51.9271H51.9289H51.9306H51.9324H51.9342H51.936H51.9378H51.9396H51.9413H51.9431H51.9449H51.9467H51.9484H51.9502H51.952H51.9537H51.9555H51.9573H51.959H51.9608H51.9626H51.9643H51.9661H51.9679H51.9696H51.9714H51.9731H51.9749H51.9766H51.9784H51.9801H51.9819H51.9836Z" fill="#E1ECEF" fill-opacity="0.6" stroke="#E1ECEF" stroke-width="3"/>
<path d="M7.10374 5.48759V3.98759H5.60374H1.5V1.5H100.5V3.98759H96.3963H94.8963V5.48759V50.2842V51.7842H96.3963H100.5V54.2718H96.3963H94.8963V55.7718V100.568V102.068H96.3963H100.5V104.556H1.5V102.068H5.60374H7.10374V100.568V55.7718V54.2718H5.60374H1.5V51.7842H5.60374H7.10374V50.2842V5.48759ZM51.9836 92.9971H51.9996L52.0156 92.9967C65.6136 92.7065 76.2953 85.9886 81.5481 76.8679C86.816 67.7208 86.5532 56.2428 78.4179 46.8101L51.7915 12.9596L50.6319 11.4854L49.4486 12.9407L20.3569 48.722L20.3268 48.759L20.2991 48.7978C14.9381 56.3217 14.0855 65.0658 17.0108 72.7804C19.9307 80.4806 26.5735 87.0644 36.0389 90.4458L36.0412 90.4467C40.6131 92.0716 45.7309 92.9971 51.0298 92.9971H51.0316H51.0333H51.035H51.0368H51.0386H51.0403H51.0421H51.0438H51.0456H51.0473H51.0491H51.0509H51.0526H51.0544H51.0562H51.0579H51.0597H51.0615H51.0632H51.065H51.0668H51.0686H51.0703H51.0721H51.0739H51.0757H51.0774H51.0792H51.081H51.0828H51.0846H51.0864H51.0882H51.0899H51.0917H51.0935H51.0953H51.0971H51.0989H51.1007H51.1025H51.1043H51.1061H51.1079H51.1097H51.1115H51.1133H51.1151H51.1169H51.1187H51.1205H51.1223H51.1242H51.126H51.1278H51.1296H51.1314H51.1332H51.135H51.1369H51.1387H51.1405H51.1423H51.1441H51.146H51.1478H51.1496H51.1514H51.1533H51.1551H51.1569H51.1588H51.1606H51.1624H51.1643H51.1661H51.1679H51.1698H51.1716H51.1734H51.1753H51.1771H51.179H51.1808H51.1826H51.1845H51.1863H51.1882H51.19H51.1919H51.1937H51.1956H51.1974H51.1993H51.2011H51.203H51.2048H51.2067H51.2085H51.2104H51.2122H51.2141H51.216H51.2178H51.2197H51.2215H51.2234H51.2253H51.2271H51.229H51.2309H51.2327H51.2346H51.2365H51.2383H51.2402H51.2421H51.2439H51.2458H51.2477H51.2495H51.2514H51.2533H51.2552H51.257H51.2589H51.2608H51.2627H51.2645H51.2664H51.2683H51.2702H51.2721H51.2739H51.2758H51.2777H51.2796H51.2815H51.2834H51.2853H51.2871H51.289H51.2909H51.2928H51.2947H51.2966H51.2985H51.3004H51.3022H51.3041H51.306H51.3079H51.3098H51.3117H51.3136H51.3155H51.3174H51.3193H51.3212H51.3231H51.325H51.3269H51.3288H51.3307H51.3326H51.3345H51.3364H51.3383H51.3402H51.3421H51.344H51.3459H51.3478H51.3497H51.3516H51.3535H51.3554H51.3573H51.3592H51.3611H51.363H51.3649H51.3668H51.3687H51.3706H51.3725H51.3745H51.3764H51.3783H51.3802H51.3821H51.384H51.3859H51.3878H51.3897H51.3916H51.3936H51.3955H51.3974H51.3993H51.4012H51.4031H51.405H51.4069H51.4089H51.4108H51.4127H51.4146H51.4165H51.4184H51.4203H51.4223H51.4242H51.4261H51.428H51.4299H51.4318H51.4338H51.4357H51.4376H51.4395H51.4414H51.4434H51.4453H51.4472H51.4491H51.451H51.4529H51.4549H51.4568H51.4587H51.4606H51.4625H51.4645H51.4664H51.4683H51.4702H51.4721H51.4741H51.476H51.4779H51.4798H51.4817H51.4837H51.4856H51.4875H51.4894H51.4913H51.4933H51.4952H51.4971H51.499H51.501H51.5029H51.5048H51.5067H51.5086H51.5106H51.5125H51.5144H51.5163H51.5182H51.5202H51.5221H51.524H51.5259H51.5279H51.5298H51.5317H51.5336H51.5355H51.5375H51.5394H51.5413H51.5432H51.5451H51.5471H51.549H51.5509H51.5528H51.5547H51.5567H51.5586H51.5605H51.5624H51.5643H51.5662H51.5682H51.5701H51.572H51.5739H51.5758H51.5778H51.5797H51.5816H51.5835H51.5854H51.5873H51.5893H51.5912H51.5931H51.595H51.5969H51.5988H51.6007H51.6027H51.6046H51.6065H51.6084H51.6103H51.6122H51.6141H51.6161H51.618H51.6199H51.6218H51.6237H51.6256H51.6275H51.6294H51.6313H51.6333H51.6352H51.6371H51.639H51.6409H51.6428H51.6447H51.6466H51.6485H51.6504H51.6523H51.6542H51.6561H51.6581H51.66H51.6619H51.6638H51.6657H51.6676H51.6695H51.6714H51.6733H51.6752H51.6771H51.679H51.6809H51.6828H51.6847H51.6866H51.6885H51.6904H51.6923H51.6942H51.696H51.6979H51.6998H51.7017H51.7036H51.7055H51.7074H51.7093H51.7112H51.7131H51.715H51.7169H51.7188H51.7206H51.7225H51.7244H51.7263H51.7282H51.7301H51.732H51.7338H51.7357H51.7376H51.7395H51.7414H51.7432H51.7451H51.747H51.7489H51.7508H51.7526H51.7545H51.7564H51.7583H51.7601H51.762H51.7639H51.7658H51.7676H51.7695H51.7714H51.7732H51.7751H51.777H51.7788H51.7807H51.7826H51.7844H51.7863H51.7882H51.79H51.7919H51.7938H51.7956H51.7975H51.7993H51.8012H51.803H51.8049H51.8068H51.8086H51.8105H51.8123H51.8142H51.816H51.8179H51.8197H51.8216H51.8234H51.8253H51.8271H51.8289H51.8308H51.8326H51.8345H51.8363H51.8382H51.84H51.8418H51.8437H51.8455H51.8473H51.8492H51.851H51.8528H51.8547H51.8565H51.8583H51.8602H51.862H51.8638H51.8656H51.8675H51.8693H51.8711H51.8729H51.8748H51.8766H51.8784H51.8802H51.882H51.8838H51.8857H51.8875H51.8893H51.8911H51.8929H51.8947H51.8965H51.8983H51.9001H51.9019H51.9037H51.9055H51.9073H51.9091H51.9109H51.9127H51.9145H51.9163H51.9181H51.9199H51.9217H51.9235H51.9253H51.9271H51.9289H51.9306H51.9324H51.9342H51.936H51.9378H51.9396H51.9413H51.9431H51.9449H51.9467H51.9484H51.9502H51.952H51.9537H51.9555H51.9573H51.959H51.9608H51.9626H51.9643H51.9661H51.9679H51.9696H51.9714H51.9731H51.9749H51.9766H51.9784H51.9801H51.9819H51.9836Z" stroke="#E1ECEF" stroke-width="3"/>
<path d="M50.9862 93.4152C45.7547 93.4408 40.8093 92.536 36.296 90.8429C17.8795 84.0725 10.7346 64.3116 20.9057 49.1826L50.1473 11.1628L77.2797 46.9055C92.9939 65.6953 78.4483 92.6375 51.9304 93.3391C51.6401 93.412 51.2768 93.4138 50.9862 93.4152Z" fill="#E1ECEF"/>
</svg>
