<svg width="72" height="72" viewBox="0 0 72 72" fill="none" xmlns="http://www.w3.org/2000/svg">
<circle cx="36.025" cy="36.1857" r="35" transform="rotate(0.340149 36.025 36.1857)" fill="#E9F1F4"/>
<path d="M40.4701 30.9918L30.7448 57.9805L27.866 56.9432L36.5683 32.7933L34.4492 32.0296L35.4722 29.1908L40.4701 30.9918Z" fill="#3C0803"/>
<path d="M25.6261 42.7094C25.1499 44.0308 24.3557 44.9339 23.2436 45.4186C22.1523 45.8934 20.8629 45.9062 19.3755 45.457L18.8605 46.8861L18.2151 46.6535L18.7301 45.2245C17.2199 44.6456 16.1709 43.7988 15.5829 42.6841C15.0104 41.575 14.9656 40.3262 15.4485 38.9377L17.1542 39.5524C16.5807 41.4811 17.2942 42.8494 19.2949 43.6571L21.554 37.3878C21.0784 36.9733 20.7167 36.652 20.4691 36.4239C20.2423 36.1859 19.9559 35.8483 19.61 35.4112C19.264 34.974 19.0229 34.5833 18.8865 34.239C18.7711 33.8849 18.6987 33.4595 18.6693 32.9628C18.6609 32.4563 18.7535 31.9341 18.9473 31.3963C19.3737 30.2131 20.0775 29.4163 21.0587 29.006C22.0608 28.5858 23.2364 28.5754 24.5856 28.9748L25.1836 27.3153L25.829 27.5478L25.231 29.2074C26.5359 29.7297 27.466 30.4728 28.0214 31.4369C28.5768 32.4009 28.6213 33.5541 28.155 34.8965L26.4493 34.2819C26.9385 32.6352 26.3442 31.4662 24.6662 30.7747L22.7559 36.076C23.191 36.4585 23.4666 36.7054 23.5828 36.8167C23.6989 36.928 23.941 37.1715 24.3091 37.5472C24.6772 37.9229 24.9209 38.2104 25.0401 38.4096C25.1648 38.5934 25.331 38.879 25.5386 39.2663C25.7463 39.6537 25.8645 40.0001 25.8933 40.3056C25.9221 40.6111 25.9211 40.9753 25.8902 41.3983C25.8747 41.8267 25.7867 42.2637 25.6261 42.7094ZM20.7009 31.9501C20.4629 32.6108 20.4793 33.2157 20.7502 33.7647C21.0365 34.3193 21.5231 34.92 22.2102 35.5669L24.0125 30.5652C22.3087 30.0901 21.2048 30.5517 20.7009 31.9501ZM19.9486 43.8667C20.9541 44.1596 21.7809 44.1537 22.4289 43.849C23.0978 43.5344 23.5735 42.9853 23.8559 42.2017C24.1549 41.3719 24.1339 40.6352 23.7929 39.9915C23.4729 39.3379 22.9112 38.6321 22.108 37.8739L19.9486 43.8667Z" fill="#3C0803"/>
<path d="M25.7586 9.64685C27.1304 9.00987 28.5795 8.96637 30.1058 9.51636C31.632 10.0663 32.7203 11.0241 33.3705 12.3898C34.0242 13.7457 34.0708 15.2014 33.5103 16.7568C32.9498 18.3122 31.9836 19.4084 30.6118 20.0454C29.2434 20.6727 27.7961 20.7113 26.2699 20.1613C24.7436 19.6113 23.6536 18.6584 22.9999 17.3025C22.3497 15.9368 22.3048 14.4763 22.8653 12.9209C23.4258 11.3655 24.3903 10.2741 25.7586 9.64685ZM31.8046 13.0776C31.3798 12.1228 30.6279 11.4509 29.5488 11.0621C28.4697 10.6732 27.462 10.711 26.5258 11.1755C25.5896 11.6399 24.9236 12.4214 24.5277 13.5199C24.1319 14.6184 24.1463 15.6451 24.5711 16.6C24.9959 17.5549 25.7478 18.2268 26.8269 18.6156C27.906 19.0045 28.9136 18.9667 29.8498 18.5022C30.7861 18.0378 31.4521 17.2563 31.8479 16.1578C32.2438 15.0592 32.2293 14.0325 31.8046 13.0776ZM46.1957 15.5615L42.5174 25.769L40.928 25.1962L38.6599 15.7621L38.6307 15.7516L35.8826 23.3781L34.366 22.8316L38.0443 12.6241L39.6337 13.1969L41.9018 22.6309L41.931 22.6414L44.6792 15.015L46.1957 15.5615ZM50.9235 17.2651L47.7707 26.0144L52.2037 27.6118L51.6782 29.07L45.7287 26.9261L49.407 16.7186L50.9235 17.2651ZM63.3522 21.7437L57.957 26.7029L56.4804 30.8005L54.9493 30.2487L56.4206 26.1657L55.4341 18.8905L57.1985 19.5263L57.7475 24.8151L57.7913 24.8309L61.5877 21.1079L63.3522 21.7437Z" fill="#3C0803"/>
</svg>
