<svg width="54" height="91" viewBox="0 0 54 91" fill="none" xmlns="http://www.w3.org/2000/svg">
<path d="M48.9369 59.4152C45.5819 55.4206 42.3957 54.4648 42.3957 54.4648L36.8442 52.7493C36.8442 52.7493 39.6199 43.8042 39.8613 39.9566C40.1027 36.109 40.2475 30.1048 40.2475 30.1048C40.2475 30.1048 42.275 29.198 42.5164 27.6786C42.7578 26.1592 42.8302 26.6248 42.5164 25.2524C42.1785 23.8555 40.2717 23.5124 39.4993 21.1107C38.751 18.709 37.0855 15.6701 33.0546 10.5482C29.0237 5.4262 26.9961 3 26.9961 3C26.9961 3 24.9686 5.4262 20.9377 10.5482C16.9067 15.6701 15.2413 18.709 14.493 21.1107C13.7447 23.5124 11.8138 23.8555 11.4758 25.2524C11.162 26.6248 11.2345 26.1592 11.4758 27.6786C11.7172 29.198 13.7447 30.1048 13.7447 30.1048C13.7447 30.1048 13.8654 36.109 14.1309 39.9566C14.3723 43.8042 17.1481 52.7493 17.1481 52.7493L11.5965 54.4648C11.5965 54.4648 8.41039 55.3961 5.05531 59.4152C3.46224 61.3268 1.41057 65.1008 2.15883 69.7817C2.81054 73.7518 6.57596 90 6.57596 90C6.57596 90 8.79659 78.9718 9.59312 76.4231C10.631 73.0902 11.9586 71.2276 13.7447 70.0268C16.3757 68.2868 18.7894 67.478 20.7928 67.38C22.8204 67.282 22.048 67.9927 22.4342 69.267C22.8204 70.5414 22.9169 70.2963 22.9169 71.9628C22.9169 73.6293 22.6997 74.0704 22.6997 74.0704H27.0203H31.2926C31.2926 74.0704 31.0753 73.6538 31.0753 71.9628C31.0753 70.2718 31.1719 70.5414 31.5581 69.267C31.9443 67.9927 31.1719 67.282 33.1994 67.38C35.227 67.478 37.6407 68.2868 40.2475 70.0268C42.0337 71.2276 43.3612 73.0902 44.3991 76.4231C45.1957 78.9718 47.4163 90 47.4163 90C47.4163 90 51.1817 73.7518 51.8334 69.7817C52.6058 65.1008 50.53 61.3023 48.9369 59.4152Z" stroke="#E1ECEF" stroke-width="3"/>
</svg>
