<svg width="1081" height="209" viewBox="0 0 1081 209" fill="none" xmlns="http://www.w3.org/2000/svg">
<path d="M1058 1H0C14.6667 37.6667 50.4 121.4 76 163C101.6 204.6 152 209.667 174 207C402 208.333 868.8 210.2 912 207C955.2 203.8 978 167 984 149L1058 1Z" fill="#D1D1D1"/>
<path d="M1081 0H390C399.579 36.7078 422.917 120.535 439.637 162.182C456.357 203.828 489.274 208.901 503.643 206.231C652.554 207.566 957.43 209.435 985.645 206.231C1013.86 203.028 1028.75 166.186 1032.67 148.166L1081 0Z" fill="#DEE8EC"/>
</svg>
