<svg width="1090" height="209" viewBox="0 0 1090 209" fill="none" xmlns="http://www.w3.org/2000/svg">
<path d="M1090 1H382C396.667 37.6667 432.4 121.4 458 163C483.6 204.6 534 209.667 556 207C784 208.333 900.8 210.2 944 207C987.2 203.8 1010 167 1016 149L1090 1Z" fill="#CDCDCD"/>
<path d="M708 0H0C14.6667 36.6667 50.4 120.4 76 162C101.6 203.6 152 208.667 174 206C402 207.333 518.8 209.2 562 206C605.2 202.8 628 166 634 148L708 0Z" fill="#CDCDCD"/>
<path d="M539 0H1C15.6667 36.6667 51.4 120.4 77 162C102.6 203.6 150.5 206.86 174.5 207C402.5 208.333 348.5 207 392 207C435.318 207 459 166 465 148L539 0Z" fill="#DEE8EC"/>
</svg>
