<svg width="55" height="51" viewBox="0 0 55 51" fill="none" xmlns="http://www.w3.org/2000/svg">
<path d="M53.8573 39.0248L34.4284 3.88091C31.3068 -1.2902 23.6974 -1.29707 20.5716 3.88091L1.14371 39.0248C-2.04737 44.3088 1.81606 51 8.07049 51H46.9289C53.178 51 57.0483 44.3142 53.8573 39.0248ZM27.5 44.6578C25.7235 44.6578 24.2773 43.2348 24.2773 41.4867C24.2773 39.7386 25.7235 38.3156 27.5 38.3156C29.2765 38.3156 30.7227 39.7386 30.7227 41.4867C30.7227 43.2348 29.2765 44.6578 27.5 44.6578ZM30.7227 31.9734C30.7227 33.7215 29.2765 35.1445 27.5 35.1445C25.7235 35.1445 24.2773 33.7215 24.2773 31.9734V16.1179C24.2773 14.3698 25.7235 12.9468 27.5 12.9468C29.2765 12.9468 30.7227 14.3698 30.7227 16.1179V31.9734Z" fill="#FFD600"/>
</svg>
