<svg width="55" height="55" viewBox="0 0 55 55" fill="none" xmlns="http://www.w3.org/2000/svg">
<path d="M27.5 0C12.3359 0 0 12.3359 0 27.5C0 42.6641 12.3359 55 27.5 55C42.6641 55 55 42.6641 55 27.5C55 12.3359 42.6641 0 27.5 0ZM37.627 34.3863C38.5229 35.2826 38.5229 36.7307 37.627 37.627C37.1801 38.0739 36.5935 38.2984 36.0065 38.2984C35.4198 38.2984 34.8332 38.0739 34.3863 37.627L27.5 30.7403L20.6137 37.627C20.1668 38.0739 19.5802 38.2984 18.9935 38.2984C18.4065 38.2984 17.8199 38.0739 17.373 37.627C16.4771 36.7307 16.4771 35.2826 17.373 34.3863L24.2597 27.5L17.373 20.6137C16.4771 19.7174 16.4771 18.2693 17.373 17.373C18.2693 16.4771 19.7174 16.4771 20.6137 17.373L27.5 24.2597L34.3863 17.373C35.2826 16.4771 36.7307 16.4771 37.627 17.373C38.5229 18.2693 38.5229 19.7174 37.627 20.6137L30.7403 27.5L37.627 34.3863Z" fill="#FF001F"/>
</svg>
