<svg width="400" height="109" viewBox="0 0 400 109" fill="none" xmlns="http://www.w3.org/2000/svg">
<path d="M2.32576 76.7179C3.21585 76.1664 4.2216 75.8286 5.26415 75.7309C6.3067 75.6333 7.35769 75.7785 8.33471 76.1552C8.54805 76.2379 8.782 76.2514 9.00343 76.1938C9.22487 76.1361 9.42257 76.0103 9.56855 75.8341C9.71452 75.6579 9.80138 75.4403 9.81681 75.212C9.83224 74.9837 9.77548 74.7564 9.65454 74.5621C9.10249 73.6725 8.764 72.667 8.6656 71.6246C8.56721 70.5822 8.71159 69.5312 9.08742 68.554C9.17027 68.3406 9.18387 68.1066 9.12629 67.8851C9.06871 67.6636 8.94287 67.4659 8.76662 67.3199C8.59036 67.1739 8.37263 67.0871 8.14428 67.0718C7.91593 67.0565 7.68856 67.1134 7.49438 67.2345C6.60407 67.7859 5.59815 68.1236 4.55548 68.2211C3.51281 68.3186 2.46173 68.1732 1.48463 67.7965C1.27129 67.7136 1.03729 67.7 0.815792 67.7576C0.594293 67.8152 0.396537 67.941 0.250553 68.1173C0.10457 68.2935 0.0177661 68.5113 0.0024458 68.7396C-0.0128745 68.968 0.0440659 69.1953 0.165196 69.3895C0.717257 70.2793 1.05575 71.2848 1.15414 72.3272C1.25254 73.3697 1.10816 74.4208 0.732319 75.3981C0.649749 75.6114 0.636351 75.8453 0.694022 76.0666C0.751692 76.288 0.877511 76.4856 1.05367 76.6315C1.22984 76.7774 1.44742 76.8642 1.67564 76.8796C1.90386 76.8951 2.13115 76.8384 2.32536 76.7175L2.32576 76.7179Z" fill="#0AE2FF"/>
<path d="M125.934 67.3354C124.898 67.4827 123.841 67.3879 122.847 67.0584C121.853 66.7289 120.949 66.1736 120.206 65.4361C120.044 65.2743 119.835 65.1678 119.609 65.1315C119.383 65.0952 119.151 65.131 118.946 65.2338C118.742 65.3366 118.575 65.5012 118.469 65.7043C118.363 65.9074 118.324 66.1386 118.357 66.3652C118.505 67.4017 118.411 68.4585 118.082 69.4526C117.753 70.4467 117.199 71.3511 116.462 72.095C116.301 72.2571 116.194 72.4659 116.158 72.6918C116.122 72.9177 116.158 73.1492 116.261 73.3536C116.363 73.558 116.528 73.725 116.731 73.8308C116.933 73.9366 117.164 73.976 117.391 73.9433C118.427 73.7961 119.484 73.8911 120.478 74.2207C121.472 74.5503 122.376 75.1055 123.119 75.843C123.281 76.0045 123.49 76.111 123.716 76.1472C123.942 76.1834 124.174 76.1476 124.379 76.0448C124.583 75.942 124.75 75.7775 124.856 75.5745C124.962 75.3715 125.001 75.1404 124.968 74.9139C124.82 73.8773 124.914 72.8206 125.243 71.8266C125.572 70.8325 126.126 69.928 126.863 69.1841C127.024 69.022 127.131 68.8131 127.167 68.5871C127.203 68.3612 127.167 68.1296 127.065 67.9251C126.962 67.7206 126.798 67.5536 126.595 67.4477C126.392 67.3419 126.161 67.3026 125.934 67.3354Z" fill="#0AE2FF"/>
<path d="M115.442 83.644C115.03 83.8507 114.689 84.175 114.461 84.5757C114.234 84.9764 114.13 85.4357 114.163 85.8953C114.197 86.355 114.365 86.7944 114.649 87.1581C114.932 87.5218 115.316 87.7933 115.754 87.9384C116.191 88.0835 116.662 88.0956 117.106 87.9732C117.55 87.8508 117.948 87.5994 118.25 87.2508C118.551 86.9022 118.743 86.472 118.8 86.0147C118.857 85.5574 118.777 85.0934 118.57 84.6815C118.292 84.1294 117.807 83.7101 117.221 83.5155C116.634 83.321 115.994 83.3672 115.442 83.644Z" fill="#0AE2FF"/>
<path d="M7.32274 53.9003C6.96779 53.6066 6.53373 53.4248 6.07543 53.3778C5.61714 53.3308 5.1552 53.4207 4.74802 53.6362C4.34085 53.8517 4.00672 54.1832 3.78789 54.5886C3.56906 54.994 3.47536 55.4552 3.51863 55.9138C3.5619 56.3725 3.7402 56.808 4.03099 57.1653C4.32178 57.5227 4.71199 57.7857 5.15229 57.9213C5.59259 58.0569 6.0632 58.0588 6.50461 57.927C6.94603 57.7951 7.33843 57.5353 7.63219 57.1804C8.02607 56.7044 8.21475 56.0914 8.15672 55.4763C8.09869 54.8611 7.7987 54.2943 7.32274 53.9003Z" fill="#0AE2FF"/>
<path d="M56.9679 9.20163L56.0686 9.65366L52.906 3.36114C52.7961 3.1429 52.7913 3.16958 51.4289 1.884C50.3935 0.911066 49.0847 0.279073 47.6789 0.0732627C46.2731 -0.132548 44.838 0.0977262 43.5672 0.733024L40.8989 2.07476C40.0735 2.49148 39.364 3.10593 38.8336 3.86335C38.3033 4.62078 37.9686 5.49764 37.8593 6.4158L32.2702 9.22075C30.1109 10.3089 28.4715 12.209 27.7113 14.5043C26.9512 16.7996 27.1325 19.3027 28.2155 21.4645L33.6107 32.2004C33.67 32.3185 33.752 32.4238 33.852 32.5102C33.9521 32.5967 34.0681 32.6625 34.1936 32.7041C34.3191 32.7457 34.4516 32.7621 34.5834 32.7525C34.7152 32.7429 34.8439 32.7074 34.962 32.648L38.843 30.6965C36.71 28.0158 36.4137 27.6459 36.4113 27.6403C36.1659 27.3217 36.242 27.5105 35.7549 22.9703C35.7409 22.8389 35.7528 22.706 35.7901 22.5793C35.8274 22.4525 35.8892 22.3343 35.9722 22.2315C36.0551 22.1286 36.1575 22.0431 36.2735 21.9799C36.3895 21.9166 36.5169 21.8768 36.6482 21.8627C36.7796 21.8487 36.9125 21.8606 37.0392 21.8979C37.166 21.9352 37.2842 21.997 37.387 22.08C37.4899 22.1629 37.5754 22.2653 37.6386 22.3813C37.7019 22.4973 37.7417 22.6246 37.7558 22.756L38.1704 26.6191L40.6794 29.7734L43.0538 28.5786C43.28 28.4654 43.4552 28.2713 43.5447 28.0348C43.6342 27.7983 43.6314 27.5367 43.5368 27.3022C43.4423 27.0677 43.2629 26.8773 43.0343 26.7691C42.8058 26.6608 42.5449 26.6425 42.3035 26.7179L41.1669 23.208C42.6908 22.6693 44.1117 21.8747 45.3685 20.8583L45.903 21.9221L46.5589 25.3821C46.5876 25.5356 46.6516 25.6803 46.7459 25.8047C46.8401 25.9292 46.962 26.0301 47.1019 26.0993C47.2418 26.1686 47.3959 26.2044 47.552 26.2038C47.7082 26.2033 47.862 26.1665 48.0014 26.0962L49.8 25.1926C49.9819 25.0926 50.1326 24.9441 50.2352 24.7636C50.3379 24.5831 50.3885 24.3777 50.3814 24.1702L50.2859 21.6771L51.1465 23.3897C51.2663 23.6278 51.4757 23.8087 51.7288 23.8926C51.9819 23.9764 52.2579 23.9564 52.4962 23.8369L55.1936 22.4828C55.3453 22.4065 55.4751 22.2931 55.5712 22.1531C55.6672 22.0132 55.7263 21.8512 55.743 21.6822C55.7596 21.5133 55.7333 21.3429 55.6664 21.1869C55.5995 21.0308 55.4943 20.8943 55.3605 20.7898L53.9196 19.6667L52.8841 17.6093C53.4184 18.1894 54.1444 18.557 54.9282 18.6442C55.7121 18.7314 56.5011 18.5325 57.1498 18.0841C57.7986 17.6356 58.2636 16.9678 58.459 16.2037C58.6544 15.4396 58.5671 14.6306 58.2132 13.9258L56.9707 11.453L57.8699 11.0014C58.1075 10.881 58.2876 10.6714 58.3709 10.4184C58.4542 10.1654 58.4339 9.88978 58.3143 9.65181C58.1947 9.41384 57.9857 9.23297 57.7331 9.14881C57.4804 9.06465 57.2047 9.08408 56.9663 9.20283L56.9679 9.20163ZM56.4163 14.8283C56.5658 15.1262 56.591 15.4713 56.4865 15.7878C56.382 16.1043 56.1562 16.3665 55.8587 16.5169C54.8137 17.0422 53.769 15.8777 54.2816 15.62L54.5066 15.5073C54.7442 15.3869 54.9243 15.1773 55.0076 14.9243C55.0909 14.6714 55.0706 14.3957 54.951 14.1577C54.8314 13.9198 54.6224 13.7389 54.3697 13.6547C54.1171 13.5706 53.8413 13.59 53.603 13.7087L53.378 13.8218C52.9584 14.0337 52.6149 14.3706 52.395 14.786C52.1751 15.2014 52.0895 15.6748 52.1501 16.1409L51.3807 14.6092L52.8144 12.5108C53.5888 12.5257 54.3613 12.4279 55.1076 12.2204L56.4163 14.8283Z" fill="#0AE2FF"/>
<path d="M52.1218 106.829C59.5455 108.996 67.4109 109.157 74.917 107.295C82.423 105.433 89.3016 101.616 94.8524 96.231C80.4903 94.3257 58.484 103.705 57.4494 104.152L52.1218 106.829Z" fill="#0AE2FF"/>
<path d="M96.8525 61.353C77.6316 70.6519 68.3446 80.1282 63.9374 86.4633C63.3663 87.4617 59.7955 92.5523 42.2064 102.547C44.053 103.631 45.9766 104.579 47.9616 105.383L56.0702 101.308C56.0953 101.295 56.1192 101.283 56.1455 101.272C57.2323 100.794 81.9328 90.0986 97.4474 93.4778C99.7677 90.7925 101.751 87.834 103.355 84.6679C93.0933 84.3346 88.3803 82.7822 87.7646 79.6196C87.2532 76.995 89.1545 72.965 108.097 64.9429C108.103 61.9914 107.808 59.047 107.217 56.1553L96.8525 61.353Z" fill="#0AE2FF"/>
<path d="M107.949 68.4452C105.143 69.6587 102.79 70.7579 100.829 71.7428C90.6101 76.878 90.8614 78.9911 90.8658 79.0166C90.8702 79.0421 91.4687 81.2469 104.789 81.544C106.51 77.3662 107.576 72.948 107.949 68.4452Z" fill="#0AE2FF"/>
<path d="M88.4894 56.722C81.3004 60.5079 68.0714 68.5129 60.4351 79.4894C59.8258 80.5563 55.8356 86.2275 35.2651 97.4883C36.5161 98.6043 37.8307 99.647 39.2023 100.611C58.1539 90.0146 61.1711 84.9376 61.2002 84.8846C61.2249 84.8424 61.2687 84.7671 61.2974 84.7253C65.9012 78.0779 75.5551 68.1342 95.4788 58.5046L96.267 58.1195L106.45 53.0027C106.015 51.4673 105.497 49.9568 104.897 48.478L88.4894 56.722Z" fill="#0AE2FF"/>
<path d="M47.404 66.5638C47.0177 65.596 41.4556 64.1579 20.8337 68.6531C21.304 74.0745 22.7858 79.3599 25.2022 84.2358C48.475 70.127 47.4582 66.706 47.404 66.5638Z" fill="#0AE2FF"/>
<path d="M98.4932 37.5465C70.1096 51.6768 61.4769 51.4641 60.0719 51.2901C43.7293 50.7723 25.7789 59.6977 20.7433 62.3976C20.6843 63.4131 20.6615 64.4321 20.6748 65.4546C48.0022 59.5476 49.6936 63.7735 50.34 65.3921C51.5101 68.3205 49.5522 73.1948 26.7036 87.0224C28.434 89.9783 30.5069 92.7199 32.8795 95.1903C54.3421 83.5372 57.6648 77.9711 57.697 77.9154C57.7201 77.8736 57.7655 77.7959 57.7926 77.7561C65.8028 66.1926 79.5572 57.8542 87.0437 53.9138L103.599 45.5961C103.544 45.4842 103.491 45.3715 103.435 45.26C102.061 42.5235 100.405 39.9383 98.4932 37.5465Z" fill="#0AE2FF"/>
<path d="M56.7576 41.1636C56.8326 41.1666 56.9074 41.1744 56.9814 41.1871C57.0137 41.1899 64.3018 41.9227 90.0318 29.4858C84.6393 25.5795 78.4254 22.957 71.8647 21.8183C65.3041 20.6797 58.5699 21.0551 52.1765 22.9159C45.783 24.7766 39.8991 28.0736 34.9741 32.555C30.0491 37.0365 26.2131 42.5839 23.7589 48.7739C32.0185 45.1761 44.7453 40.7586 56.7576 41.1636Z" fill="#0AE2FF"/>
<path d="M22.3662 52.8652C21.8243 54.7578 21.4104 56.6846 21.1273 58.6328L21.4666 58.4612C28.6126 54.8708 45.0372 47.6201 60.2615 48.1335C60.3374 48.1363 60.413 48.1446 60.4877 48.1582C60.5244 48.161 68.3334 48.9463 96.3606 35.0765C95.2374 33.8694 94.0461 32.7274 92.7926 31.6562C66.1542 44.6881 57.9265 44.485 56.57 44.3173C43.8098 43.9111 30.0511 49.2817 22.3662 52.8652Z" fill="#0AE2FF"/>
<path d="M142.346 61.2446V32.6945C142.345 32.6183 142.36 32.5427 142.389 32.4722C142.418 32.4016 142.461 32.3376 142.515 32.2836C142.569 32.2297 142.633 32.187 142.704 32.1579C142.774 32.1288 142.85 32.114 142.926 32.1143H160.384C160.538 32.1143 160.685 32.1754 160.794 32.2842C160.903 32.393 160.964 32.5406 160.964 32.6945V38.6222C160.964 38.7761 160.903 38.9237 160.794 39.0325C160.685 39.1414 160.538 39.2025 160.384 39.2025H150.684V43.4268H159.06C159.214 43.4268 159.362 43.488 159.471 43.5968C159.579 43.7056 159.641 43.8532 159.641 44.0071V49.9348C159.641 50.011 159.626 50.0865 159.597 50.1569C159.567 50.2274 159.525 50.2913 159.471 50.3452C159.417 50.3991 159.353 50.4419 159.282 50.471C159.212 50.5002 159.137 50.5151 159.06 50.5151H150.684V54.7418H160.384C160.538 54.7418 160.685 54.803 160.794 54.9118C160.903 55.0206 160.964 55.1682 160.964 55.3221V61.2466C160.964 61.4005 160.903 61.5481 160.794 61.6569C160.685 61.7657 160.538 61.8269 160.384 61.8269H142.926C142.85 61.8269 142.774 61.8118 142.703 61.7825C142.633 61.7532 142.569 61.7103 142.515 61.6562C142.461 61.6021 142.418 61.5379 142.389 61.4673C142.36 61.3967 142.345 61.321 142.346 61.2446Z" fill="white"/>
<path d="M184.935 61.8249H168.356C168.202 61.8249 168.054 61.7637 167.945 61.6549C167.837 61.5461 167.775 61.3985 167.775 61.2446V32.6945C167.775 32.6183 167.79 32.5427 167.819 32.4722C167.848 32.4016 167.891 32.3376 167.945 32.2836C167.999 32.2297 168.063 32.187 168.133 32.1579C168.204 32.1288 168.279 32.114 168.356 32.1143H175.534C175.687 32.1143 175.835 32.1754 175.944 32.2842C176.053 32.393 176.114 32.5406 176.114 32.6945V54.9011H184.931C185.085 54.9011 185.233 54.9623 185.342 55.0711C185.45 55.1799 185.512 55.3275 185.512 55.4814V61.2434C185.512 61.3195 185.497 61.3949 185.469 61.4653C185.44 61.5357 185.398 61.5998 185.344 61.6538C185.291 61.7078 185.227 61.7507 185.157 61.7801C185.087 61.8094 185.011 61.8247 184.935 61.8249Z" fill="white"/>
<path d="M192.316 61.2446V32.6945C192.316 32.6183 192.331 32.5427 192.36 32.4722C192.389 32.4016 192.432 32.3376 192.486 32.2836C192.54 32.2297 192.604 32.187 192.674 32.1579C192.745 32.1288 192.82 32.114 192.896 32.1143H210.354C210.508 32.1143 210.656 32.1754 210.765 32.2842C210.873 32.393 210.934 32.5406 210.934 32.6945V38.6222C210.934 38.7761 210.873 38.9237 210.765 39.0325C210.656 39.1414 210.508 39.2025 210.354 39.2025H200.655V43.4268H209.031C209.185 43.4268 209.333 43.488 209.442 43.5968C209.55 43.7056 209.611 43.8532 209.611 44.0071V49.9348C209.611 50.0887 209.55 50.2363 209.442 50.3451C209.333 50.4539 209.185 50.5151 209.031 50.5151H200.655V54.7418H210.354C210.508 54.7418 210.656 54.803 210.765 54.9118C210.873 55.0206 210.934 55.1682 210.934 55.3221V61.2466C210.934 61.4005 210.873 61.5481 210.765 61.6569C210.656 61.7657 210.508 61.8269 210.354 61.8269H192.896C192.82 61.8269 192.744 61.8118 192.674 61.7825C192.603 61.7532 192.539 61.7103 192.485 61.6562C192.432 61.6021 192.389 61.5379 192.36 61.4673C192.331 61.3967 192.316 61.321 192.316 61.2446Z" fill="white"/>
<path d="M217.747 32.6945C217.747 32.6183 217.762 32.5427 217.791 32.4722C217.82 32.4016 217.863 32.3376 217.917 32.2836C217.97 32.2297 218.035 32.187 218.105 32.1579C218.176 32.1288 218.251 32.114 218.327 32.1143H232.436C237.302 32.1143 241.247 35.5293 241.247 42.7538C241.247 49.9782 237.304 53.3933 232.439 53.3933H226.091V61.2446C226.091 61.3985 226.03 61.5461 225.921 61.6549C225.812 61.7637 225.664 61.8249 225.51 61.8249H218.327C218.174 61.8249 218.026 61.7637 217.917 61.6549C217.808 61.5461 217.747 61.3985 217.747 61.2446V32.6945ZM232.828 42.7542C232.828 40.4506 231.459 39.0579 229.767 39.0579H226.376C226.299 39.0581 226.225 39.0887 226.171 39.1431C226.117 39.1974 226.086 39.271 226.086 39.3479V46.1605C226.086 46.2374 226.116 46.3111 226.171 46.3654C226.225 46.4198 226.299 46.4503 226.376 46.4504H229.767C231.459 46.45 232.828 45.0577 232.828 42.7542Z" fill="white"/>
<path d="M267.336 32.1143H274.52C274.674 32.1143 274.821 32.1754 274.93 32.2842C275.039 32.393 275.1 32.5406 275.1 32.6945V61.2446C275.1 61.3985 275.039 61.5461 274.93 61.6549C274.821 61.7637 274.674 61.8249 274.52 61.8249H267.339C267.185 61.8249 267.037 61.7637 266.929 61.6549C266.82 61.5461 266.759 61.3985 266.759 61.2446V50.5119H256.392V61.2446C256.392 61.3985 256.331 61.5461 256.222 61.6549C256.113 61.7637 255.966 61.8249 255.812 61.8249H248.631C248.477 61.8249 248.329 61.7637 248.22 61.6549C248.112 61.5461 248.05 61.3985 248.05 61.2446V32.6945C248.05 32.6183 248.065 32.5427 248.094 32.4722C248.123 32.4017 248.166 32.3377 248.22 32.2837C248.274 32.2298 248.338 32.1871 248.408 32.158C248.479 32.1289 248.554 32.114 248.631 32.1143H255.809C255.963 32.1143 256.11 32.1754 256.219 32.2842C256.328 32.393 256.389 32.5406 256.389 32.6945V43.4268H266.756V32.6945C266.756 32.5406 266.817 32.393 266.926 32.2842C267.035 32.1754 267.182 32.1143 267.336 32.1143Z" fill="white"/>
<path d="M300.87 32.4915L311.388 60.8616C311.411 60.9254 311.423 60.9928 311.423 61.0607V61.2467C311.422 61.3999 311.36 61.5465 311.251 61.6546C311.143 61.7627 310.996 61.8235 310.842 61.8238H303.548C303.43 61.8235 303.315 61.7873 303.218 61.7199C303.121 61.6525 303.047 61.5572 303.006 61.4466L301.428 57.1789H291.936L290.338 61.4494C290.296 61.5601 290.222 61.6556 290.125 61.7231C290.028 61.7905 289.913 61.8268 289.795 61.827H282.497C282.343 61.8269 282.196 61.7657 282.087 61.6569C281.978 61.5481 281.917 61.4006 281.917 61.2467V61.0607C281.917 60.9915 281.929 60.9228 281.952 60.8576L292.466 32.4903C292.507 32.3797 292.581 32.2843 292.678 32.2169C292.775 32.1495 292.891 32.1133 293.009 32.1132H300.326C300.445 32.1131 300.56 32.1494 300.658 32.217C300.755 32.2846 300.829 32.3804 300.87 32.4915ZM298.723 49.8855L296.669 44.3991L294.635 49.8855H298.723Z" fill="white"/>
<path d="M336.654 32.1143H343.838C343.991 32.1143 344.139 32.1754 344.248 32.2842C344.357 32.393 344.418 32.5406 344.418 32.6945V61.2418C344.418 61.3957 344.357 61.5433 344.248 61.6521C344.139 61.761 343.991 61.8221 343.838 61.8221H336.416C336.313 61.8226 336.212 61.7958 336.124 61.7442C336.035 61.6927 335.961 61.6184 335.911 61.529L326.595 45.0693V61.2446C326.595 61.3985 326.534 61.5461 326.425 61.6549C326.316 61.7637 326.168 61.8249 326.015 61.8249H318.834C318.68 61.8249 318.532 61.7637 318.423 61.6549C318.314 61.5461 318.253 61.3985 318.253 61.2446V32.6945C318.253 32.6183 318.268 32.5427 318.297 32.4722C318.326 32.4016 318.369 32.3376 318.423 32.2836C318.477 32.2297 318.541 32.187 318.611 32.1579C318.682 32.1288 318.757 32.114 318.834 32.1143H326.273C326.371 32.1139 326.468 32.1388 326.554 32.1866C326.639 32.2345 326.712 32.3037 326.763 32.3875L336.076 47.3875V32.6945C336.076 32.6185 336.091 32.5431 336.119 32.4727C336.148 32.4024 336.191 32.3384 336.244 32.2845C336.298 32.2306 336.362 32.1878 336.432 32.1586C336.502 32.1294 336.578 32.1143 336.654 32.1143Z" fill="white"/>
<path d="M373.771 38.6123C373.771 38.7662 373.71 38.9138 373.601 39.0226C373.492 39.1314 373.344 39.1925 373.191 39.1925H366.671V61.243C366.671 61.3969 366.61 61.5445 366.501 61.6533C366.392 61.7621 366.245 61.8233 366.091 61.8233H358.91C358.756 61.8233 358.609 61.7621 358.5 61.6533C358.391 61.5445 358.33 61.3969 358.33 61.243V39.1913H351.81C351.734 39.1913 351.659 39.1763 351.588 39.1471C351.518 39.118 351.454 39.0752 351.4 39.0213C351.346 38.9673 351.303 38.9033 351.274 38.8329C351.245 38.7624 351.23 38.6869 351.23 38.6107V32.6945C351.23 32.6183 351.245 32.5427 351.274 32.4722C351.303 32.4017 351.346 32.3377 351.4 32.2837C351.453 32.2298 351.518 32.1871 351.588 32.158C351.658 32.1289 351.734 32.114 351.81 32.1143H373.193C373.347 32.1148 373.494 32.1762 373.602 32.285C373.71 32.3938 373.771 32.541 373.771 32.6945V38.6123Z" fill="white"/>
<path d="M398.112 38.9067C398.105 38.9879 398.081 39.0667 398.041 39.1378C398.001 39.2088 397.946 39.2706 397.881 39.3189C397.815 39.3672 397.74 39.401 397.66 39.4179C397.58 39.4349 397.498 39.4347 397.418 39.4173C395.634 39.0297 393.818 38.8031 391.993 38.7402C389.051 38.6908 388.665 40.5722 388.665 41.1019C388.665 41.6316 389.002 43.609 392.524 44.476C394.689 44.9961 396.611 46.2413 397.97 48.0046C399.33 49.768 400.045 51.9435 399.998 54.1696C399.998 59.813 396.772 62.6968 388.665 62.6968C386.564 62.7009 384.464 62.578 382.378 62.3288C382.228 62.3101 382.092 62.2337 381.998 62.116C381.905 61.9982 381.861 61.8485 381.876 61.6987L382.433 55.9136C382.441 55.8321 382.466 55.7532 382.506 55.6821C382.547 55.6109 382.602 55.5492 382.668 55.5009C382.734 55.4526 382.809 55.419 382.89 55.4021C382.97 55.3852 383.052 55.3855 383.132 55.403C384.857 55.7923 386.614 56.0166 388.381 56.0729C391.323 56.1227 391.709 54.2409 391.709 53.7112C391.709 53.1815 391.372 51.2046 387.85 50.3368C385.686 49.8154 383.765 48.57 382.405 46.807C381.046 45.044 380.33 42.8693 380.376 40.6435C380.376 35.003 384.763 32.116 391.709 32.116C394.248 32.116 396.998 32.3744 398.159 32.4963C398.31 32.5137 398.448 32.5898 398.543 32.7081C398.639 32.8264 398.684 32.9774 398.669 33.1287L398.112 38.9067Z" fill="white"/>
<path d="M173.814 83.6089C173.814 92.1739 166.769 99.1196 158.08 99.1196C149.39 99.1196 142.346 92.1767 142.346 83.6089C142.346 75.0411 149.39 68.0951 158.08 68.0951C166.769 68.0951 173.814 75.0439 173.814 83.6089ZM165.281 83.6089C165.301 82.1802 164.896 80.7778 164.117 79.58C163.338 78.3822 162.221 77.4431 160.906 76.8823C159.592 76.3215 158.141 76.1643 156.737 76.4307C155.333 76.697 154.04 77.3749 153.023 78.3781C152.006 79.3813 151.31 80.6645 151.023 82.0644C150.737 83.4643 150.874 84.9177 151.416 86.2397C151.959 87.5616 152.882 88.6924 154.068 89.4882C155.255 90.284 156.652 90.7089 158.081 90.7087C159.977 90.7218 161.801 89.9811 163.151 88.6497C164.501 87.3183 165.267 85.5052 165.281 83.6089Z" fill="white"/>
<path d="M199.041 68.5387H206.225C206.379 68.5387 206.527 68.5998 206.635 68.7087C206.744 68.8175 206.805 68.9651 206.805 69.119V97.6663C206.805 97.8202 206.744 97.9677 206.635 98.0766C206.527 98.1854 206.379 98.2465 206.225 98.2465H198.803C198.701 98.2471 198.6 98.2202 198.511 98.1687C198.422 98.1171 198.349 98.0428 198.299 97.9534L188.982 81.4937V97.669C188.982 97.8229 188.921 97.9705 188.812 98.0794C188.703 98.1882 188.556 98.2493 188.402 98.2493H181.22C181.066 98.2493 180.918 98.1882 180.809 98.0794C180.7 97.9705 180.639 97.8229 180.639 97.669V69.119C180.639 69.0427 180.654 68.9672 180.683 68.8967C180.712 68.8262 180.755 68.7621 180.809 68.7082C180.863 68.6543 180.927 68.6115 180.997 68.5824C181.068 68.5534 181.143 68.5385 181.22 68.5387H188.659C188.757 68.5383 188.854 68.5633 188.94 68.6111C189.026 68.659 189.098 68.7281 189.149 68.8119L198.464 83.812V69.119C198.464 69.0429 198.479 68.9676 198.507 68.8973C198.536 68.8269 198.579 68.763 198.632 68.7091C198.686 68.6552 198.75 68.6124 198.82 68.5831C198.89 68.5539 198.965 68.5388 199.041 68.5387Z" fill="white"/>
<path d="M253.795 68.5387H261.327C261.481 68.5388 261.628 68.6 261.737 68.7088C261.846 68.8176 261.907 68.9651 261.907 69.119V97.669C261.907 97.8229 261.846 97.9705 261.737 98.0794C261.628 98.1882 261.481 98.2493 261.327 98.2493H254.146C253.992 98.2493 253.845 98.1882 253.736 98.0794C253.627 97.9705 253.566 97.8229 253.566 97.669V83.2317L251.361 92.545C251.331 92.6719 251.259 92.7851 251.157 92.8662C251.055 92.9473 250.929 92.9917 250.798 92.9923H243.295C243.165 92.9919 243.038 92.9475 242.936 92.8664C242.834 92.7852 242.762 92.672 242.732 92.545L240.527 83.2317V97.669C240.527 97.7453 240.512 97.8208 240.483 97.8912C240.454 97.9616 240.411 98.0256 240.357 98.0795C240.303 98.1334 240.239 98.1761 240.169 98.2053C240.098 98.2344 240.023 98.2494 239.947 98.2493H232.766C232.612 98.2493 232.464 98.1882 232.356 98.0794C232.247 97.9705 232.186 97.8229 232.186 97.669V69.119C232.185 69.0427 232.2 68.9671 232.229 68.8966C232.258 68.8261 232.301 68.762 232.355 68.7081C232.409 68.6541 232.473 68.6114 232.544 68.5823C232.614 68.5533 232.69 68.5384 232.766 68.5387H240.293C240.441 68.5382 240.584 68.5953 240.691 68.698C243.413 71.4062 247.042 81.3854 247.042 81.3854C247.042 81.3854 250.672 71.4074 253.393 68.698C253.446 68.646 253.509 68.6052 253.578 68.5778C253.647 68.5505 253.721 68.5372 253.795 68.5387Z" fill="#0AE2FF"/>
<path d="M287.68 68.916L298.197 97.286C298.221 97.3498 298.233 97.4173 298.232 97.4852V97.6712C298.231 97.8244 298.17 97.9711 298.061 98.0792C297.952 98.1873 297.805 98.248 297.652 98.2482H290.358C290.24 98.248 290.125 98.2117 290.028 98.1443C289.931 98.0768 289.856 97.9814 289.815 97.8707L288.237 93.6033H278.746L277.148 97.8735C277.107 97.9842 277.033 98.0797 276.936 98.1471C276.839 98.2146 276.723 98.2509 276.605 98.251H269.308C269.154 98.251 269.007 98.1899 268.898 98.0811C268.789 97.9723 268.728 97.8247 268.728 97.6708V97.4848C268.728 97.4156 268.74 97.3469 268.763 97.2817L279.277 68.9144C279.319 68.8037 279.393 68.7084 279.49 68.641C279.587 68.5736 279.702 68.5374 279.82 68.5372H287.137C287.256 68.5376 287.371 68.574 287.468 68.6417C287.565 68.7094 287.639 68.8051 287.68 68.916ZM285.533 86.31L283.479 80.8236L281.445 86.31H285.533Z" fill="#0AE2FF"/>
<path d="M328.712 98.0956C328.713 98.1729 328.699 98.2497 328.67 98.3215C328.641 98.3933 328.598 98.4586 328.544 98.5137C328.49 98.5688 328.425 98.6125 328.353 98.6423C328.282 98.6721 328.206 98.6875 328.128 98.6874H320.422C320.271 98.686 320.126 98.6259 320.019 98.5198C319.911 98.4136 319.849 98.2698 319.845 98.1187C319.671 93.2599 317.237 90.7509 313.404 90.5028V98.1095C313.404 98.2634 313.343 98.411 313.234 98.5198C313.125 98.6287 312.978 98.6898 312.824 98.6898H305.643C305.567 98.6898 305.491 98.6749 305.421 98.6457C305.35 98.6166 305.286 98.5739 305.232 98.52C305.178 98.4661 305.136 98.4021 305.106 98.3317C305.077 98.2613 305.062 98.1858 305.062 98.1095V69.119C305.062 69.0427 305.077 68.9671 305.106 68.8966C305.135 68.826 305.178 68.762 305.232 68.708C305.286 68.6541 305.35 68.6114 305.42 68.5823C305.491 68.5533 305.567 68.5384 305.643 68.5387H319.749C324.615 68.5387 328.558 71.9538 328.561 79.1782C328.561 83.4289 327.185 86.3509 325.07 88.0451C327.238 90.5143 328.593 93.8712 328.712 98.0956ZM313.401 82.6033C313.402 82.6401 313.411 82.6762 313.426 82.7097C313.441 82.7433 313.463 82.7734 313.49 82.7985C313.517 82.8235 313.548 82.843 313.583 82.8558C313.617 82.8686 313.654 82.8744 313.691 82.8729H317.083C318.774 82.8729 320.144 81.5789 320.144 79.4407C320.144 77.3024 318.774 76.0089 317.083 76.0089H313.691C313.617 76.0066 313.545 76.0336 313.49 76.0841C313.436 76.1346 313.404 76.2044 313.401 76.2785V82.6033Z" fill="#0AE2FF"/>
<path d="M353.28 75.3319C353.273 75.4131 353.249 75.4918 353.209 75.5629C353.169 75.6339 353.115 75.6957 353.049 75.744C352.983 75.7923 352.908 75.826 352.829 75.843C352.749 75.86 352.666 75.8599 352.587 75.8425C350.802 75.455 348.986 75.2284 347.161 75.1655C344.219 75.1161 343.833 76.9975 343.833 77.5272C343.833 78.0568 344.17 80.0342 347.692 80.9012C349.857 81.4214 351.779 82.6666 353.139 84.43C354.498 86.1933 355.214 88.3688 355.166 90.5949C355.166 96.2382 351.94 99.122 343.833 99.122C341.732 99.1263 339.632 99.0033 337.546 98.7536C337.396 98.735 337.26 98.6588 337.167 98.5411C337.073 98.4234 337.029 98.2737 337.044 98.124L337.602 92.3389C337.609 92.2574 337.634 92.1785 337.675 92.1074C337.715 92.0363 337.77 91.9746 337.836 91.9263C337.902 91.8781 337.978 91.8444 338.058 91.8275C338.138 91.8106 338.221 91.8109 338.3 91.8283C340.025 92.2172 341.783 92.4411 343.55 92.497C346.493 92.5463 346.879 90.665 346.879 90.1353C346.879 89.6056 346.542 87.6286 343.019 86.7608C340.855 86.2395 338.934 84.9939 337.574 83.2306C336.215 81.4673 335.499 79.2924 335.545 77.0664C335.545 71.4258 339.932 68.5388 346.878 68.5388C349.417 68.5388 352.167 68.7973 353.328 68.9192C353.479 68.9366 353.617 69.0127 353.712 69.1309C353.808 69.2492 353.853 69.4003 353.838 69.5516L353.28 75.3319Z" fill="#0AE2FF"/>
</svg>
