<svg width="30" height="33" viewBox="0 0 30 33" fill="none" xmlns="http://www.w3.org/2000/svg">
<path d="M15.84 10.6817C15.84 10.6817 15.2285 2.47761 18.4864 0.504998C19.6498 -0.200094 21.1374 0.870394 20.7964 1.81799C20.4554 2.76558 17.2116 7.91341 17.1625 11.3186L15.84 10.6817Z" fill="#9C503C"/>
<path d="M17.1498 8.20139C12.0016 6.73256 8.40299 3.23181 2.83671 8.71703C-3.08607 14.5541 2.67757 27.4712 4.74507 29.2995C6.81257 31.1278 9.03889 29.1588 11.1064 30.706C13.1739 32.2533 15.2414 34.3633 22.5572 28.4557C29.873 22.548 30.0849 13.2665 27.5403 10.8738C24.9957 8.48112 22.0798 9.60664 17.1498 8.20139Z" fill="#D14241"/>
<path d="M17.9275 5.3955C17.9275 5.3955 22.2157 -0.535179 28.2222 4.212C28.2222 4.212 23.2183 11.3143 17.9275 5.3955Z" fill="#80B373"/>
<path d="M25.6401 3.75142C25.6365 3.74614 25.6336 3.74054 25.6303 3.73527C25.5708 3.66535 25.4867 3.621 25.3954 3.61143C25.3041 3.60186 25.2127 3.6278 25.14 3.68387L24.7871 3.901C24.2217 4.01764 23.6555 4.13405 23.0883 4.25025L23.4089 3.97052C23.598 3.80578 23.8069 3.60809 23.7664 3.33363C23.7626 3.30667 23.7518 3.28119 23.7348 3.25987C23.7179 3.23854 23.6956 3.22214 23.6702 3.21238C23.5459 3.19124 23.4182 3.20298 23.2998 3.24645C23.1814 3.28991 23.0765 3.36359 22.9954 3.46015L22.2537 4.10759C22.2044 4.1482 22.1689 4.20302 22.1519 4.26458C22.1349 4.32613 22.1373 4.39143 22.1588 4.45157C21.7615 4.5369 21.3621 4.61631 20.9674 4.70955C20.9426 4.71163 20.9183 4.71787 20.8956 4.728C20.4633 4.83113 20.0324 4.93755 19.6063 5.05749C19.5469 5.06906 19.4942 5.10299 19.4591 5.15227C19.424 5.20155 19.4091 5.26243 19.4176 5.32235C19.4261 5.38228 19.4572 5.43667 19.5046 5.47432C19.5519 5.51196 19.6119 5.52999 19.6722 5.52469C20.1595 5.50196 20.6482 5.45879 21.1368 5.40014C21.6771 5.77674 22.2218 6.14115 22.7806 6.49337C22.8653 6.55054 22.9686 6.57352 23.0696 6.55769C23.1707 6.54186 23.262 6.4884 23.3252 6.40803C23.3464 6.382 23.3626 6.35229 23.373 6.32039C23.4036 6.24023 23.4073 6.1523 23.3835 6.06986C23.3597 5.98742 23.3098 5.91496 23.2412 5.8634C22.8695 5.65495 22.4961 5.45209 22.1209 5.25484C22.8458 5.14018 23.568 4.99653 24.285 4.84299C24.3468 4.87501 24.4067 4.91077 24.4642 4.95007C24.6128 5.06045 24.7159 5.23705 24.8883 5.30493C24.9017 5.30992 24.9161 5.31137 24.9302 5.30914C24.9444 5.3069 24.9577 5.30107 24.9689 5.29219C24.9801 5.28331 24.9888 5.27168 24.9942 5.25845C24.9996 5.24521 25.0014 5.2308 24.9996 5.21662C24.9705 5.11991 24.9219 5.03022 24.8566 4.95313C24.7914 4.87605 24.711 4.81321 24.6204 4.76853C24.9545 4.69472 25.2912 4.62422 25.621 4.54613C25.7112 4.52729 25.7923 4.47853 25.8512 4.40777C25.9101 4.33701 25.9434 4.2484 25.9456 4.15635C25.9478 4.06429 25.9189 3.97419 25.8634 3.90068C25.808 3.82717 25.7293 3.77457 25.6401 3.75142Z" fill="#396C55"/>
<path d="M5.02035 21.3583C4.42622 19.3756 4.08579 17.3256 4.00719 15.2573C4.00161 15.0867 3.9358 14.9236 3.82143 14.797C3.70705 14.6704 3.55152 14.5883 3.38241 14.5655C3.21331 14.5426 3.04157 14.5804 2.89767 14.6721C2.75378 14.7638 2.64702 14.9035 2.59635 15.0665C1.87346 17.0562 1.96638 19.2694 2.4181 21.3161C2.76834 22.9032 3.08958 25.2745 4.86747 25.7757C5.00711 25.812 5.15477 25.8023 5.28843 25.7479C5.42208 25.6935 5.53458 25.5974 5.60913 25.4738C6.41505 24.0854 5.45823 22.7576 5.02035 21.3583Z" fill="#BB2B29"/>
<path d="M8.05326 27.0641C7.89257 26.8083 7.66551 26.601 7.39628 26.4641L6.82924 26.0743C6.11689 25.5847 5.22334 26.7218 5.8968 27.2832L6.42397 27.7234C6.62818 27.9472 6.88876 28.1121 7.17849 28.2008C7.32597 28.2362 7.48057 28.2282 7.62359 28.1777C7.76661 28.1272 7.89195 28.0363 7.98446 27.9161C8.07697 27.7959 8.13269 27.6515 8.1449 27.5003C8.15711 27.3491 8.12528 27.1976 8.05326 27.0641Z" fill="#BB2B29"/>
<path d="M26.3713 12.2233C26.029 11.4984 25.0978 12.0645 25.1898 12.7215C25.3693 14.0091 25.7519 15.3672 25.7064 16.67C25.6665 17.8169 24.8573 18.7286 24.4636 19.7763C23.9651 21.1035 25.8596 21.6267 26.5762 20.6659C28.6431 17.8996 27.7456 15.1296 26.3713 12.2233Z" fill="#EB5C5C"/>
<path d="M24.425 22.9563C24.375 22.7846 24.26 22.6391 24.1045 22.5508C23.949 22.4625 23.7652 22.4382 23.5921 22.4831C23.4214 22.5347 23.2771 22.6501 23.189 22.8052C23.101 22.9603 23.0761 23.1434 23.1193 23.3164C23.1084 23.2436 23.1018 23.3072 23.1012 23.3388C23.0976 23.3506 23.0943 23.3612 23.0923 23.3681C23.0903 23.375 23.0794 23.3905 23.0656 23.4172C23.1714 23.2894 22.8458 23.7137 22.9272 23.5905C22.9081 23.6192 22.8574 23.7223 22.8284 23.7786C22.6455 24.1704 22.858 24.7984 23.3855 24.7424C23.5903 24.7318 23.7877 24.6628 23.9545 24.5436C24.1213 24.4243 24.2505 24.2599 24.3269 24.0696C24.4883 23.7213 24.523 23.3275 24.425 22.9563Z" fill="#EB5C5C"/>
</svg>
