<svg width="23" height="26" viewBox="0 0 23 26" fill="none" xmlns="http://www.w3.org/2000/svg">
<path d="M12.5681 9.06765C12.5681 9.06765 12.0934 2.69942 14.6223 1.16823C15.5253 0.620924 16.6801 1.45186 16.4154 2.18741C16.1507 2.92295 13.6328 6.91882 13.5947 9.56202L12.5681 9.06765Z" fill="#9C503C"/>
<path d="M13.5848 7.14195C9.58864 6.00181 6.79532 3.28445 2.47464 7.54221C-2.12276 12.0731 2.35111 22.0996 3.95596 23.5188C5.5608 24.9379 7.28892 23.4096 8.89376 24.6106C10.4986 25.8116 12.1035 27.4494 17.7822 22.8638C23.4609 18.2782 23.6253 11.0736 21.6502 9.21636C19.675 7.35909 17.4116 8.23274 13.5848 7.14195Z" fill="#D14241"/>
<path d="M14.1885 4.96384C14.1885 4.96384 17.5171 0.360306 22.1794 4.04518C22.1794 4.04518 18.2953 9.55817 14.1885 4.96384Z" fill="#80B373"/>
<path d="M20.1751 3.68795C20.1723 3.68386 20.17 3.67951 20.1675 3.67542C20.1213 3.62114 20.056 3.58672 19.9852 3.57929C19.9143 3.57186 19.8433 3.592 19.7869 3.63552L19.513 3.80406C19.0741 3.8946 18.6346 3.98496 18.1943 4.07516L18.4432 3.85803C18.59 3.73015 18.7521 3.5767 18.7207 3.36366C18.7178 3.34273 18.7093 3.32295 18.6962 3.3064C18.6831 3.28985 18.6657 3.27712 18.646 3.26954C18.5495 3.25313 18.4504 3.26224 18.3585 3.29598C18.2666 3.32972 18.1852 3.38691 18.1222 3.46187L17.5465 3.96442C17.5083 3.99594 17.4807 4.03849 17.4675 4.08628C17.4543 4.13406 17.4562 4.18475 17.4729 4.23142C17.1644 4.29766 16.8545 4.3593 16.5481 4.43168C16.5288 4.43329 16.51 4.43814 16.4923 4.446C16.1568 4.52605 15.8222 4.60866 15.4916 4.70175C15.4455 4.71074 15.4046 4.73707 15.3773 4.77533C15.35 4.81358 15.3385 4.86084 15.3451 4.90735C15.3516 4.95386 15.3758 4.99608 15.4126 5.02531C15.4493 5.05453 15.4959 5.06853 15.5427 5.06441C15.921 5.04676 16.3002 5.01326 16.6795 4.96773C17.099 5.26006 17.5217 5.54292 17.9555 5.81632C18.0213 5.8607 18.1014 5.87854 18.1799 5.86625C18.2583 5.85396 18.3292 5.81246 18.3782 5.75008C18.3947 5.72987 18.4072 5.70681 18.4153 5.68205C18.4391 5.61983 18.4419 5.55157 18.4235 5.48758C18.405 5.42359 18.3662 5.36734 18.313 5.32732C18.0245 5.16552 17.7347 5.00806 17.4435 4.85495C18.0061 4.76595 18.5667 4.65444 19.1232 4.53526C19.1713 4.56011 19.2177 4.58787 19.2624 4.61838C19.3777 4.70405 19.4578 4.84114 19.5915 4.89382C19.6019 4.8977 19.6131 4.89882 19.6241 4.89709C19.6351 4.89536 19.6454 4.89083 19.6541 4.88393C19.6628 4.87704 19.6695 4.86802 19.6737 4.85774C19.6779 4.84747 19.6794 4.83629 19.678 4.82528C19.6554 4.75021 19.6176 4.68059 19.567 4.62075C19.5163 4.56092 19.4539 4.51214 19.3836 4.47746C19.6429 4.42017 19.9043 4.36544 20.1603 4.30483C20.2303 4.2902 20.2932 4.25235 20.339 4.19743C20.3847 4.1425 20.4105 4.07373 20.4123 4.00227C20.414 3.93081 20.3915 3.86087 20.3485 3.80381C20.3054 3.74675 20.2443 3.70592 20.1751 3.68795Z" fill="#396C55"/>
<path d="M4.16957 17.3552C3.7084 15.8162 3.44414 14.2249 3.38314 12.6194C3.37881 12.487 3.32772 12.3605 3.23894 12.2622C3.15016 12.1639 3.02943 12.1002 2.89817 12.0824C2.76691 12.0647 2.6336 12.094 2.5219 12.1652C2.41021 12.2364 2.32734 12.3449 2.28801 12.4714C1.72689 14.0158 1.79901 15.7337 2.14965 17.3225C2.42151 18.5544 2.67087 20.3951 4.05091 20.7841C4.1593 20.8123 4.27391 20.8048 4.37766 20.7625C4.48141 20.7203 4.56873 20.6457 4.6266 20.5498C5.25217 19.4721 4.50947 18.4414 4.16957 17.3552Z" fill="#BB2B29"/>
<path d="M6.5239 21.784C6.39916 21.5855 6.22292 21.4245 6.01393 21.3183L5.57378 21.0157C5.02084 20.6357 4.32724 21.5183 4.85 21.9541L5.2592 22.2958C5.41771 22.4695 5.61998 22.5975 5.84487 22.6663C5.95936 22.6939 6.07936 22.6876 6.19038 22.6484C6.30139 22.6092 6.39868 22.5387 6.47049 22.4454C6.5423 22.352 6.58555 22.2399 6.59503 22.1226C6.60451 22.0052 6.5798 21.8876 6.5239 21.784Z" fill="#BB2B29"/>
<path d="M20.7428 10.2642C20.4771 9.70159 19.7543 10.141 19.8257 10.6509C19.9651 11.6504 20.262 12.7046 20.2267 13.7159C20.1958 14.6061 19.5676 15.3138 19.262 16.1271C18.8751 17.1573 20.3456 17.5634 20.9019 16.8176C22.5062 14.6703 21.8096 12.5202 20.7428 10.2642Z" fill="#EB5C5C"/>
<path d="M19.232 18.595C19.1932 18.4617 19.1039 18.3488 18.9832 18.2802C18.8625 18.2117 18.7199 18.1928 18.5855 18.2277C18.453 18.2678 18.3409 18.3573 18.2726 18.4777C18.2043 18.5981 18.1849 18.7402 18.2185 18.8745C18.2101 18.818 18.2049 18.8673 18.2044 18.8919C18.2016 18.9011 18.1991 18.9093 18.1975 18.9146C18.196 18.92 18.1875 18.932 18.1768 18.9528C18.2589 18.8535 18.0062 19.1829 18.0694 19.0873C18.0546 19.1095 18.0152 19.1896 17.9927 19.2333C17.8507 19.5374 18.0157 20.0249 18.4251 19.9814C18.5841 19.9732 18.7373 19.9196 18.8668 19.8271C18.9963 19.7345 19.0966 19.6069 19.1558 19.4591C19.2812 19.1888 19.3081 18.8831 19.232 18.595Z" fill="#EB5C5C"/>
</svg>
