<svg width="27" height="28" viewBox="0 0 27 28" fill="none" xmlns="http://www.w3.org/2000/svg">
<path d="M9.84567 9.89945C6.47871 12.9747 2.10947 11.209 2.35766 9.65418C2.60585 8.09935 5.84722 8.163 5.84722 8.163C5.84722 8.163 0.433689 4.93024 3.277 1.90607C6.12032 -1.1181 8.22033 6.41423 8.22033 6.41423C8.22033 6.41423 6.95434 1.51395 9.95516 1.99343C12.956 2.47291 12.4892 7.48549 9.84567 9.89945Z" fill="#017C53"/>
<path d="M6.18142 14.4744C4.37637 11.2101 11.5176 6.54783 14.4702 7.97121C17.4228 9.3946 24.6216 23.3543 22.1145 26.2281C19.6074 29.1019 8.27941 18.2686 6.18142 14.4744Z" fill="#FFA556"/>
<path d="M15.3177 10.946C13.1251 10.7616 10.1092 12.8789 9.23112 14.8205C9.20894 14.8682 9.20446 14.9222 9.21844 14.9729C9.23243 15.0236 9.26398 15.0677 9.30753 15.0975C9.35108 15.1272 9.40382 15.1407 9.4564 15.1355C9.50898 15.1303 9.55803 15.1068 9.59486 15.0691C10.4798 14.2989 11.2118 13.457 12.2373 12.85C13.2911 12.2265 14.2718 11.9816 15.4691 11.8203C15.5104 11.8168 15.5503 11.8041 15.586 11.7833C15.6217 11.7624 15.6523 11.7339 15.6755 11.6999C15.6987 11.6658 15.714 11.627 15.7203 11.5863C15.7266 11.5456 15.7236 11.504 15.7117 11.4646C15.6954 11.3934 15.6791 11.3222 15.6629 11.251C15.6392 11.1735 15.5943 11.104 15.5334 11.0502C15.4725 10.9964 15.3979 10.9603 15.3177 10.946Z" fill="#ED8E48"/>
<path d="M17.966 15.6577C17.1159 15.633 16.072 16.2477 15.3638 16.6949C14.584 17.179 13.9332 17.8432 13.4667 18.6309C13.2848 18.9388 13.763 19.1564 13.9539 18.8756C14.5048 18.0693 15.2768 17.5231 16.1423 17.0874C16.8072 16.7527 17.621 16.5951 18.1851 16.1105C18.3851 15.9394 18.1738 15.6637 17.966 15.6577Z" fill="#ED8E48"/>
<path d="M20.3447 20.5423C19.3996 20.4198 18.3414 21.1826 17.6622 21.7594C17.3613 22.0152 17.7864 22.4875 18.1049 22.2778C18.4733 22.0313 18.8706 21.8305 19.288 21.6798C19.6848 21.5397 20.1204 21.4973 20.487 21.2858C20.7872 21.113 20.6985 20.5882 20.3447 20.5423Z" fill="#ED8E48"/>
<path d="M7.16389 12.9117C6.97709 12.756 6.64749 12.7777 6.6093 13.0833C6.49621 13.986 7.24507 14.9601 7.73531 15.6721C8.14214 16.263 8.8676 17.528 9.70683 17.3813C9.7711 17.3756 9.83191 17.3499 9.88055 17.3078C9.92918 17.2656 9.96313 17.2092 9.97752 17.1467C10.1065 16.3784 9.17674 15.7456 8.75277 15.1867C8.23428 14.5013 7.87599 13.3891 7.17652 12.8984L7.16389 12.9117Z" fill="#F7D5A9"/>
<path d="M10.3966 18.1402C10.7122 18.3872 10.8627 18.6789 11.0963 18.9914C11.1649 19.09 11.2666 19.1611 11.3831 19.1918C11.4997 19.2226 11.6234 19.2111 11.7322 19.1594C11.841 19.1077 11.9276 19.0191 11.9767 18.9096C12.0258 18.8 12.034 18.6767 11.9999 18.5617C11.8506 18.0386 11.3839 17.6379 10.945 17.3467C10.4889 17.044 9.96586 17.8035 10.3966 18.1402Z" fill="#F7D5A9"/>
<path d="M3.64148 9.78953C3.297 9.6846 3.09011 10.264 3.432 10.3917C3.58853 10.4437 3.72375 10.545 3.81708 10.6803C4.06787 11.0489 4.66253 10.6539 4.39483 10.3084C4.20704 10.0587 3.9426 9.87654 3.64148 9.78953Z" fill="#18C989"/>
<path d="M3.48136 3.22064C3.40293 3.30112 3.34344 3.39791 3.30718 3.50403C3.27092 3.61014 3.25879 3.72293 3.27168 3.83427C3.28046 4.02172 3.29852 4.21341 3.32151 4.39937C3.37162 4.80554 3.53127 5.21413 3.97444 5.31408C4.06941 5.33089 4.16728 5.31734 4.25402 5.27535C4.34075 5.23337 4.41187 5.16513 4.45716 5.08043C4.50178 4.9945 4.51638 4.89626 4.49867 4.80118C4.48096 4.70609 4.43194 4.61956 4.35934 4.55523L4.31213 4.52232C4.30221 4.50783 4.29216 4.49329 4.28083 4.47978C4.26942 4.4199 4.24591 4.36388 4.23647 4.30272C4.17539 3.91111 4.2251 3.45474 3.86669 3.20164C3.81215 3.15533 3.74186 3.1315 3.67023 3.13503C3.5986 3.13856 3.53103 3.16919 3.48136 3.22064Z" fill="#18C989"/>
<path d="M4.24094 5.98935C4.34056 6.13041 4.4582 6.25798 4.5909 6.36887C4.8931 6.59981 5.33721 6.27144 5.11635 5.92465C5.01944 5.78186 4.90397 5.65244 4.77295 5.53975C4.48889 5.27505 3.99095 5.67045 4.24094 5.98935Z" fill="#18C989"/>
<path d="M9.14251 2.74603C9.04236 2.76617 8.95271 2.82118 8.8897 2.90118C8.82669 2.98118 8.79445 3.08091 8.79878 3.18244C8.78121 3.35118 8.7962 3.5217 8.84295 3.68485C8.87597 3.77776 8.93803 3.85772 9.02005 3.91301C9.10207 3.9683 9.19973 3.99603 9.29874 3.99212C9.39779 3.98565 9.49196 3.94703 9.56679 3.88217C9.64162 3.81731 9.69297 3.72981 9.71295 3.63311C9.72384 3.42653 9.69378 3.21984 9.62445 3.02481C9.59199 2.92798 9.52513 2.84625 9.43641 2.79493C9.34769 2.74361 9.2432 2.72622 9.14251 2.74603Z" fill="#18C989"/>
<path d="M9.08523 6.58178C9.00319 6.9094 8.89816 7.2309 8.77091 7.54391C8.63003 7.36525 8.4848 7.19045 8.32867 7.02285C8.06131 6.73574 7.82978 6.44667 7.4045 6.45225C6.99575 6.45752 6.785 7.03515 7.10733 7.29406C7.12863 7.31108 7.20552 7.52054 7.23353 7.57526C7.3108 7.72654 7.38656 7.88017 7.47005 8.02816C7.4904 8.06468 7.5154 8.09995 7.53709 8.13625C7.2093 8.20437 6.88397 8.28297 6.56361 8.38084C6.4581 8.41609 6.36907 8.48827 6.31307 8.58393C6.25708 8.67959 6.23793 8.79223 6.25921 8.90088C6.28207 9.00851 6.34233 9.10469 6.4294 9.17253C6.51648 9.24037 6.6248 9.27554 6.73535 9.27185C7.24476 9.30819 7.7563 9.30327 8.26491 9.25714C8.38962 9.24441 8.50821 9.19707 8.60716 9.12053C8.73139 9.10634 8.85064 9.06384 8.95566 8.99634C9.06068 8.92883 9.14863 8.83815 9.21267 8.73134L9.21294 8.73047C9.67746 8.16499 10.0219 7.51173 10.2254 6.81014C10.4277 6.09795 9.26785 5.85543 9.08523 6.58178Z" fill="#03603E"/>
</svg>
