<svg width="35" height="36" viewBox="0 0 35 36" fill="none" xmlns="http://www.w3.org/2000/svg">
<path d="M12.9724 12.7541C8.63479 16.7158 3.00594 14.4411 3.32568 12.4381C3.64542 10.435 7.82124 10.517 7.82124 10.517C7.82124 10.517 0.847054 6.35229 4.51006 2.45629C8.17307 -1.43971 10.8785 8.2641 10.8785 8.2641C10.8785 8.2641 9.24753 1.95112 13.1134 2.56884C16.9794 3.18655 16.378 9.64419 12.9724 12.7541Z" fill="#017C53"/>
<path d="M8.25173 18.6483C5.92631 14.4428 15.1262 8.43651 18.93 10.2702C22.7339 12.104 32.0079 30.0881 28.7781 33.7904C25.5482 37.4926 10.9545 23.5362 8.25173 18.6483Z" fill="#FFA556"/>
<path d="M20.022 14.1022C17.1973 13.8646 13.312 16.5924 12.1807 19.0937C12.1522 19.1552 12.1464 19.2247 12.1644 19.29C12.1824 19.3553 12.2231 19.4121 12.2792 19.4505C12.3353 19.4888 12.4032 19.5062 12.471 19.4995C12.5387 19.4928 12.6019 19.4625 12.6493 19.414C13.7894 18.4217 14.7324 17.3372 16.0536 16.5551C17.4112 15.7519 18.6746 15.4364 20.2171 15.2286C20.2702 15.224 20.3216 15.2077 20.3676 15.1809C20.4136 15.154 20.453 15.1173 20.483 15.0734C20.5129 15.0295 20.5326 14.9795 20.5407 14.9271C20.5487 14.8747 20.5449 14.8211 20.5296 14.7704C20.5086 14.6785 20.4876 14.5868 20.4668 14.4952C20.4361 14.3953 20.3784 14.3058 20.2999 14.2365C20.2215 14.1671 20.1253 14.1207 20.022 14.1022Z" fill="#ED8E48"/>
<path d="M23.4336 20.173C22.3385 20.1412 20.9937 20.9331 20.0813 21.5092C19.0767 22.1329 18.2383 22.9885 17.6373 24.0034C17.403 24.4 18.019 24.6803 18.265 24.3186C18.9747 23.2799 19.9693 22.5762 21.0843 22.0149C21.9408 21.5838 22.9893 21.3807 23.716 20.7564C23.9736 20.5359 23.7014 20.1807 23.4336 20.173Z" fill="#ED8E48"/>
<path d="M26.4982 26.4658C25.2807 26.3079 23.9174 27.2907 23.0423 28.0338C22.6547 28.3633 23.2025 28.9718 23.6127 28.7016C24.0874 28.3841 24.5992 28.1253 25.1369 27.9312C25.648 27.7507 26.2093 27.6961 26.6815 27.4236C27.0682 27.201 26.954 26.5249 26.4982 26.4658Z" fill="#ED8E48"/>
<path d="M9.51752 16.6349C9.27686 16.4343 8.85224 16.4622 8.80305 16.8559C8.65735 18.0189 9.6221 19.2739 10.2537 20.1911C10.7778 20.9523 11.7124 22.582 12.7936 22.393C12.8763 22.3857 12.9547 22.3526 13.0174 22.2983C13.08 22.244 13.1237 22.1713 13.1423 22.0907C13.3085 21.101 12.1106 20.2857 11.5645 19.5657C10.8965 18.6828 10.4349 17.25 9.53378 16.6178L9.51752 16.6349Z" fill="#F7D5A9"/>
<path d="M13.6821 23.3709C14.0886 23.6891 14.2825 24.0649 14.5835 24.4675C14.6719 24.5945 14.8029 24.686 14.953 24.7257C15.1031 24.7653 15.2625 24.7505 15.4027 24.6839C15.5428 24.6172 15.6545 24.5031 15.7177 24.362C15.7809 24.2209 15.7915 24.062 15.7476 23.9138C15.5552 23.2399 14.954 22.7238 14.3885 22.3485C13.8009 21.9586 13.1271 22.9371 13.6821 23.3709Z" fill="#F7D5A9"/>
<path d="M4.97965 12.6121C4.53586 12.4769 4.26933 13.2234 4.70978 13.3879C4.91144 13.4548 5.08564 13.5853 5.20588 13.7597C5.52896 14.2346 6.29506 13.7257 5.95018 13.2806C5.70826 12.9588 5.36757 12.7242 4.97965 12.6121Z" fill="#18C989"/>
<path d="M4.77331 4.14948C4.67227 4.25316 4.59563 4.37785 4.54892 4.51456C4.5022 4.65126 4.48658 4.79658 4.50318 4.94001C4.5145 5.1815 4.53777 5.42845 4.56738 5.66802C4.63194 6.19129 4.83761 6.71766 5.40854 6.84643C5.53088 6.86809 5.65698 6.85062 5.76872 6.79654C5.88045 6.74246 5.97208 6.65454 6.03042 6.54542C6.0879 6.43473 6.10671 6.30816 6.0839 6.18567C6.06108 6.06317 5.99793 5.95169 5.9044 5.86882L5.84358 5.82641C5.83081 5.80774 5.81785 5.78902 5.80326 5.77162C5.78856 5.69447 5.75827 5.6223 5.74611 5.5435C5.66742 5.039 5.73146 4.45106 5.26973 4.125C5.19946 4.06534 5.10892 4.03463 5.01663 4.03919C4.92435 4.04374 4.8373 4.08319 4.77331 4.14948Z" fill="#18C989"/>
<path d="M5.75174 7.71704C5.88008 7.89876 6.03164 8.06311 6.20259 8.20597C6.59191 8.50349 7.16406 8.08045 6.87953 7.63369C6.75467 7.44973 6.60591 7.283 6.43712 7.13782C6.07117 6.79681 5.42968 7.30621 5.75174 7.71704Z" fill="#18C989"/>
<path d="M12.0664 3.53889C11.9374 3.56483 11.8219 3.63571 11.7407 3.73877C11.6595 3.84183 11.618 3.97031 11.6236 4.10111C11.601 4.31849 11.6203 4.53818 11.6805 4.74836C11.723 4.86805 11.803 4.97106 11.9086 5.0423C12.0143 5.11353 12.1401 5.14925 12.2677 5.14421C12.3953 5.13588 12.5166 5.08612 12.613 5.00256C12.7094 4.919 12.7756 4.80627 12.8013 4.6817C12.8153 4.41557 12.7766 4.1493 12.6873 3.89804C12.6455 3.77329 12.5593 3.668 12.445 3.60189C12.3307 3.53577 12.1961 3.51337 12.0664 3.53889Z" fill="#18C989"/>
<path d="M11.9927 8.47984C11.887 8.90191 11.7517 9.31609 11.5877 9.71934C11.4062 9.48917 11.2191 9.26398 11.018 9.04806C10.6736 8.67818 10.3753 8.30578 9.82741 8.31296C9.30082 8.31975 9.0293 9.0639 9.44456 9.39746C9.472 9.41938 9.57106 9.68923 9.60715 9.75973C9.7067 9.95461 9.80429 10.1525 9.91186 10.3432C9.93807 10.3902 9.97028 10.4357 9.99821 10.4824C9.57593 10.5702 9.15681 10.6715 8.74409 10.7975C8.60817 10.843 8.49347 10.9359 8.42133 11.0592C8.34919 11.1824 8.32453 11.3275 8.35194 11.4675C8.38139 11.6062 8.45902 11.7301 8.5712 11.8175C8.68337 11.9049 8.82292 11.9502 8.96534 11.9454C9.62161 11.9922 10.2806 11.9859 10.9359 11.9265C11.0965 11.9101 11.2493 11.8491 11.3768 11.7505C11.5368 11.7322 11.6905 11.6774 11.8258 11.5905C11.961 11.5035 12.0743 11.3867 12.1568 11.2491L12.1572 11.248C12.7556 10.5195 13.1993 9.67788 13.4615 8.77403C13.7221 7.85652 12.2279 7.54409 11.9927 8.47984Z" fill="#03603E"/>
</svg>
