<svg width="30" height="30" viewBox="0 0 30 30" fill="none" xmlns="http://www.w3.org/2000/svg">
<path d="M12.9469 16.702L7.15894 13.0531L7.78806 10.2849L14.331 8.52339L19.2382 5.1261L21.7547 9.40417L18.6091 14.9405L12.9469 16.702Z" fill="#888888"/>
<path d="M7.15885 13.0523L2 14.4364L7.28467 7.0127L7.9138 10.41L7.15885 13.0523Z" fill="#9A9A9A"/>
<path d="M3.63573 19.3441L2 14.4369L7.15885 13.0529L13.0726 16.7018L9.67536 20.7282L7.03302 21.2315L3.63573 19.3441Z" fill="#838383"/>
<path d="M14.2051 8.6481L7.9138 10.4097L7.28467 7.01237L9.927 6.13159L14.2051 8.6481Z" fill="#828282"/>
<path d="M13.199 6.636L9.92749 6.1327L14.2056 8.64921L19.2386 5.1261L13.199 6.636Z" fill="#818181"/>
<path d="M28.4234 17.3309L21.6288 9.52972L19.2381 5.12583L26.0327 10.2847L28.4234 17.3309Z" fill="#434343"/>
<path d="M26.662 21.6093L28.4235 17.3312L21.6289 9.53003L18.6091 14.9405L20.9998 24L26.662 21.6093Z" fill="#363636"/>
<path d="M10.6817 23.9988L9.67512 20.7273L7.03279 21.2306L3.6355 19.3433L5.52288 22.4889L10.6817 23.9988Z" fill="#5C5C5C"/>
<path d="M18.6089 14.9393L12.9468 16.7009L9.67529 20.7273L10.6819 23.9988H20.9996L18.6089 14.9393Z" fill="#424242"/>
</svg>
