<svg width="18" height="25" viewBox="0 0 18 25" fill="none" xmlns="http://www.w3.org/2000/svg">
<path fill-rule="evenodd" clip-rule="evenodd" d="M14.9381 8.35926C15.0088 8.35949 15.0778 8.38067 15.1364 8.42012C15.195 8.45957 15.2406 8.51551 15.2674 8.58088C15.2942 8.64625 15.301 8.71811 15.287 8.78735C15.2729 8.8566 15.2387 8.92012 15.1885 8.96989C15.1384 9.01966 15.0746 9.05344 15.0052 9.06694C14.9359 9.08045 14.8641 9.07308 14.7989 9.04578C14.7338 9.01847 14.6782 8.97244 14.6392 8.91353C14.6002 8.85462 14.5795 8.78546 14.5798 8.7148C14.5799 8.66789 14.5892 8.62145 14.6072 8.57815C14.6253 8.53484 14.6517 8.49554 14.685 8.4625C14.7183 8.42945 14.7578 8.40332 14.8012 8.3856C14.8447 8.36788 14.8912 8.35893 14.9381 8.35926Z" fill="#DEEAAB"/>
<path fill-rule="evenodd" clip-rule="evenodd" d="M14.815 8.47022C14.8442 8.47013 14.8727 8.47869 14.897 8.49483C14.9213 8.51097 14.9402 8.53395 14.9514 8.56086C14.9626 8.58778 14.9656 8.61742 14.96 8.64602C14.9543 8.67462 14.9403 8.70091 14.9197 8.72154C14.8991 8.74217 14.8728 8.75623 14.8442 8.76192C14.8156 8.76761 14.786 8.76469 14.7591 8.75352C14.7321 8.74235 14.7091 8.72344 14.693 8.69919C14.6768 8.67493 14.6682 8.64641 14.6682 8.61726C14.6685 8.57837 14.684 8.54114 14.7115 8.51363C14.7389 8.48611 14.7761 8.47051 14.815 8.47022Z" fill="#FBEAB5"/>
<path fill-rule="evenodd" clip-rule="evenodd" d="M16.6293 11.4393C16.6995 11.4399 16.7679 11.4613 16.826 11.5007C16.8841 11.5401 16.9292 11.5959 16.9556 11.6609C16.9821 11.7259 16.9887 11.7973 16.9746 11.8661C16.9606 11.9349 16.9264 11.998 16.8766 12.0474C16.8267 12.0968 16.7633 12.1304 16.6944 12.1438C16.6255 12.1573 16.5542 12.15 16.4894 12.123C16.4246 12.096 16.3693 12.0504 16.3304 11.9919C16.2915 11.9335 16.2707 11.8649 16.2708 11.7947C16.2708 11.7477 16.2801 11.7013 16.2982 11.658C16.3162 11.6147 16.3427 11.5754 16.376 11.5423C16.4093 11.5093 16.4489 11.4832 16.4923 11.4655C16.5358 11.4479 16.5823 11.439 16.6293 11.4393Z" fill="#D14241"/>
<path fill-rule="evenodd" clip-rule="evenodd" d="M16.5064 11.5462C16.536 11.5458 16.5649 11.5543 16.5896 11.5705C16.6143 11.5867 16.6336 11.6099 16.645 11.6372C16.6565 11.6644 16.6596 11.6944 16.6539 11.7234C16.6482 11.7524 16.634 11.779 16.6131 11.7999C16.5922 11.8208 16.5656 11.8349 16.5366 11.8406C16.5076 11.8463 16.4776 11.8432 16.4504 11.8318C16.4232 11.8203 16.4 11.8011 16.3838 11.7764C16.3676 11.7517 16.3591 11.7227 16.3594 11.6932C16.36 11.6544 16.3757 11.6174 16.4032 11.5899C16.4306 11.5625 16.4676 11.5468 16.5064 11.5462Z" fill="#FBEAB5"/>
<path fill-rule="evenodd" clip-rule="evenodd" d="M2.75252 8.52185C2.82322 8.52158 2.89242 8.54232 2.95132 8.58143C3.01022 8.62055 3.05618 8.67627 3.08336 8.74155C3.11055 8.80682 3.11773 8.87869 3.104 8.94805C3.09027 9.01741 3.05625 9.08113 3.00626 9.13113C2.95626 9.18112 2.89254 9.21515 2.82318 9.22887C2.75382 9.2426 2.68194 9.23542 2.61667 9.20824C2.5514 9.18105 2.49567 9.13509 2.45656 9.07619C2.41745 9.01729 2.39671 8.9481 2.39698 8.87739C2.39704 8.78312 2.43451 8.69272 2.50118 8.62605C2.56784 8.55939 2.65824 8.52191 2.75252 8.52185Z" fill="#DEEAAB"/>
<path fill-rule="evenodd" clip-rule="evenodd" d="M2.63315 8.62867C2.66254 8.62836 2.69137 8.63677 2.71598 8.65284C2.7406 8.66891 2.7599 8.69192 2.77144 8.71895C2.78297 8.74599 2.78624 8.77584 2.78081 8.80473C2.77539 8.83363 2.76152 8.86026 2.74095 8.88127C2.72039 8.90228 2.69406 8.91671 2.66529 8.92276C2.63652 8.9288 2.6066 8.92618 2.57933 8.91522C2.55205 8.90427 2.52864 8.88547 2.51204 8.8612C2.49545 8.83694 2.48642 8.8083 2.48611 8.7789C2.48577 8.75935 2.48933 8.73993 2.49656 8.72176C2.50379 8.70359 2.51456 8.68704 2.52824 8.67306C2.54191 8.65909 2.55823 8.64797 2.57624 8.64035C2.59425 8.63273 2.61359 8.62876 2.63315 8.62867Z" fill="white"/>
<path fill-rule="evenodd" clip-rule="evenodd" d="M1.41952 11.9772C1.48986 11.9771 1.55863 11.9979 1.61714 12.037C1.67564 12.076 1.72125 12.1316 1.74819 12.1966C1.77512 12.2615 1.78218 12.333 1.76847 12.402C1.75476 12.471 1.72089 12.5344 1.67116 12.5841C1.62142 12.6339 1.55805 12.6677 1.48906 12.6814C1.42007 12.6951 1.34856 12.6881 1.28358 12.6611C1.21861 12.6342 1.16308 12.5886 1.12403 12.5301C1.08498 12.4716 1.06416 12.4028 1.06421 12.3325C1.06445 12.2383 1.10196 12.1481 1.16854 12.0815C1.23513 12.0149 1.32536 11.9774 1.41952 11.9772Z" fill="#D14241"/>
<path fill-rule="evenodd" clip-rule="evenodd" d="M1.30038 12.0851C1.32978 12.0848 1.35862 12.0932 1.38324 12.1093C1.40786 12.1254 1.42716 12.1484 1.4387 12.1754C1.45023 12.2025 1.45348 12.2323 1.44803 12.2612C1.44259 12.2901 1.4287 12.3168 1.40811 12.3378C1.38753 12.3588 1.36117 12.3732 1.33239 12.3792C1.3036 12.3852 1.27368 12.3826 1.24641 12.3716C1.21913 12.3606 1.19573 12.3418 1.17916 12.3175C1.1626 12.2932 1.15361 12.2645 1.15334 12.2351C1.15304 12.2156 1.15662 12.1962 1.16386 12.178C1.17111 12.1599 1.18188 12.1434 1.19555 12.1294C1.20923 12.1155 1.22554 12.1044 1.24353 12.0967C1.26152 12.0891 1.28084 12.0852 1.30038 12.0851Z" fill="#F69798"/>
<path fill-rule="evenodd" clip-rule="evenodd" d="M14.8487 21.8959C14.5127 22.7964 13.6587 23.481 12.6112 23.8989C11.6051 24.2989 10.3577 24.4452 9.01798 24.4373C7.67821 24.4293 6.43108 24.2727 5.42637 23.8671C4.38274 23.4453 3.53713 22.7604 3.20935 21.864C2.76443 20.6426 2.31876 19.4217 1.87232 18.2012C1.42588 16.9807 0.979674 15.7591 0.533691 14.5365H17.5876C17.1306 15.7643 16.6735 16.9913 16.2165 18.2176C15.7594 19.4438 15.3035 20.6699 14.8487 21.8959Z" fill="#A55D32"/>
<path fill-rule="evenodd" clip-rule="evenodd" d="M9.04194 18.3856C9.48033 18.3879 9.81812 18.8222 9.79308 19.3489C9.75408 20.1964 9.71615 21.0435 9.67927 21.8903C9.6424 22.737 9.60378 23.5835 9.56341 24.4296C9.38132 24.436 9.20173 24.4369 9.01713 24.436C8.83253 24.4351 8.65043 24.4328 8.47084 24.4232C8.44011 23.5769 8.40597 22.7304 8.37524 21.8839C8.34451 21.0374 8.31128 20.1922 8.27986 19.3457C8.26006 18.8181 8.60536 18.3856 9.04194 18.3856Z" fill="#8F5029"/>
<path fill-rule="evenodd" clip-rule="evenodd" d="M11.445 18.1329C11.8884 18.1456 12.1734 18.5936 12.0844 19.1292C11.9406 19.9879 11.7964 20.8463 11.6519 21.7045C11.5075 22.5626 11.3633 23.42 11.2195 24.2766C10.8489 24.3416 10.4748 24.3845 10.0991 24.4049C10.1759 23.5172 10.2518 22.6295 10.3267 21.7418C10.4025 20.8541 10.4811 19.965 10.5569 19.0771C10.6017 18.5465 11.0014 18.1222 11.445 18.1329Z" fill="#8F5029"/>
<path fill-rule="evenodd" clip-rule="evenodd" d="M13.9602 17.6739C14.4123 17.6931 14.6469 18.1601 14.4856 18.7105C14.2411 19.545 14.0021 20.3783 13.759 21.2116C13.5159 22.0449 13.273 22.8769 13.0327 23.7104C12.6336 23.9068 12.2136 24.0575 11.7808 24.1597C11.9735 23.2368 12.1662 22.3143 12.3589 21.3921C12.5508 20.4693 12.7438 19.5484 12.9353 18.6245C13.0475 18.0841 13.5102 17.6571 13.9602 17.6739Z" fill="#8F5029"/>
<path fill-rule="evenodd" clip-rule="evenodd" d="M13.7368 23.2808C14.0507 22.3271 14.3687 21.3749 14.6833 20.4219C14.9978 19.4688 15.3126 18.5156 15.6281 17.5621C15.8123 17.0053 16.3513 16.5626 16.827 16.5742C16.4978 17.461 16.1682 18.3478 15.838 19.2346C15.5078 20.1214 15.178 21.0082 14.8487 21.895C14.6212 22.4555 14.2347 22.9372 13.7368 23.2808Z" fill="#8F5029"/>
<path fill-rule="evenodd" clip-rule="evenodd" d="M1.27563 16.5663C1.74795 16.5544 2.2824 16.9962 2.46268 17.5507C2.77178 18.5011 3.07929 19.4502 3.38521 20.398C3.69113 21.3458 3.99865 22.2949 4.30776 23.2453C3.81421 22.9018 3.43233 22.421 3.20949 21.8625C2.88718 20.9789 2.56488 20.096 2.24257 19.2139L1.27563 16.5663Z" fill="#8F5029"/>
<path fill-rule="evenodd" clip-rule="evenodd" d="M4.13026 17.6628C4.58231 17.6458 5.03846 18.0739 5.14658 18.6122C5.33186 19.5332 5.51661 20.4532 5.70083 21.3724C5.88505 22.2915 6.0698 23.2112 6.25508 24.1316C5.82374 24.0274 5.40559 23.8747 5.00864 23.6763C4.77328 22.8469 4.53808 22.0171 4.30302 21.1869C4.06797 20.3566 3.83276 19.5265 3.5974 18.6965C3.44102 18.1472 3.67843 17.6808 4.13026 17.6628Z" fill="#8F5029"/>
<path fill-rule="evenodd" clip-rule="evenodd" d="M6.6423 18.1263C7.08753 18.1179 7.48085 18.5406 7.52228 19.0696C7.59163 19.9573 7.66098 20.845 7.73032 21.7327C7.79922 22.6173 7.86804 23.5037 7.93678 24.392C7.56124 24.3705 7.18751 24.3244 6.81803 24.2539C6.67979 23.398 6.54223 22.5424 6.40535 21.687C6.26848 20.8316 6.13092 19.9757 5.99268 19.1192C5.90687 18.5852 6.20072 18.1391 6.6423 18.1263Z" fill="#8F5029"/>
<path fill-rule="evenodd" clip-rule="evenodd" d="M9.06055 17.5744C13.757 17.5744 17.5876 16.2087 17.5876 14.5347C17.5876 12.8608 13.757 11.4951 9.06055 11.4951C4.36407 11.4951 0.533691 12.8608 0.533691 14.5347C0.533691 16.2087 4.36407 17.5744 9.06055 17.5744Z" fill="#C0A1CC"/>
<path fill-rule="evenodd" clip-rule="evenodd" d="M9.0606 6.16016C13.3312 6.16016 16.7931 9.14812 16.7931 12.834C16.7931 18.0981 1.32837 18.2231 1.32837 12.834C1.32837 9.14812 4.79023 6.16016 9.0606 6.16016Z" fill="#CEAFD3"/>
<path fill-rule="evenodd" clip-rule="evenodd" d="M4.83208 5.81073C3.66394 6.72485 3.63367 8.60726 6.16389 9.20658C8.69411 9.80591 12.5559 9.4729 13.2552 7.84087C13.9544 6.20884 7.56648 3.67088 4.83208 5.81073Z" fill="#9C503C"/>
<path fill-rule="evenodd" clip-rule="evenodd" d="M6.22034 4.60766C5.76215 5.21382 6.17117 6.1598 6.82968 6.47688C7.72854 6.90935 10.2255 7.24259 11.3575 8.44123C12.4894 9.63988 14.0541 9.60642 14.0541 7.77522C14.0541 6.72817 13.5886 5.10592 11.4271 3.99901C10.022 3.27928 7.27741 3.20963 6.22034 4.60766Z" fill="#9C503C"/>
<path fill-rule="evenodd" clip-rule="evenodd" d="M7.76182 0.849977C8.72738 2.18155 6.62987 2.84734 7.02957 4.11245C7.42927 5.37756 9.99249 5.71056 10.8581 4.37876C11.7238 3.04696 9.8261 0.816744 7.76182 0.849977Z" fill="#9C503C"/>
<path fill-rule="evenodd" clip-rule="evenodd" d="M8.26108 1.48303C8.38945 1.94328 8.05622 2.15132 7.98589 2.37302C7.78353 3.00876 8.63187 3.31491 8.74932 2.48387C8.80805 2.0671 8.65235 1.5017 8.26108 1.48303Z" fill="#A65E4D"/>
<path fill-rule="evenodd" clip-rule="evenodd" d="M6.50461 4.84103C6.06735 6.73323 9.86269 6.41798 11.0547 7.62163C11.2823 7.85084 11.5113 8.07391 11.3763 7.49621C10.9487 5.66319 7.32655 6.04377 6.79414 4.85582C6.69308 4.62912 6.59316 4.45703 6.50461 4.84103Z" fill="#A65E4D"/>
<path fill-rule="evenodd" clip-rule="evenodd" d="M4.82002 6.23908C3.70856 8.80959 7.70533 9.16058 8.36929 9.12461C8.83933 9.09889 8.86369 8.88402 8.46603 8.84692C7.05343 8.71421 4.91813 7.71587 5.04946 6.26321C5.07883 5.93043 4.9286 5.98824 4.82002 6.23908Z" fill="#A65E4D"/>
<path fill-rule="evenodd" clip-rule="evenodd" d="M7.00879 4.04028C7.01471 4.06418 7.02153 4.08853 7.02927 4.11266C7.42875 5.37777 9.9922 5.71078 10.8578 4.37898C10.9615 4.21462 11.0299 4.03054 11.0588 3.83838C10.0618 5.6434 7.53072 4.99218 7.00879 4.04028Z" fill="#803B2A"/>
<path fill-rule="evenodd" clip-rule="evenodd" d="M6.02515 5.21204C6.03472 5.47537 6.11429 5.73139 6.25568 5.95375C6.39706 6.17611 6.59515 6.35677 6.82955 6.47714C7.72842 6.90962 10.2254 7.24286 11.3574 8.4415C11.5424 8.63974 11.7529 8.81263 11.9833 8.95569C10.9504 7.65553 10.6039 7.40583 8.57085 6.86774C6.53775 6.32965 6.43782 5.95066 6.02515 5.21204Z" fill="#803B2A"/>
<path fill-rule="evenodd" clip-rule="evenodd" d="M4.13501 7.7124C4.32894 8.34018 4.95307 8.92106 6.16401 9.20786C7.91896 9.6235 10.3144 9.59049 11.8509 8.98684C10.2573 9.26818 5.6373 9.7999 4.13501 7.7124Z" fill="#803B2A"/>
<path fill-rule="evenodd" clip-rule="evenodd" d="M12.7226 3.32784C13.232 3.66017 13.8752 3.81768 13.9271 4.7186C13.979 5.61952 12.9957 7.60709 10.7694 6.28121C8.54301 4.95532 9.70865 2.83846 10.8936 2.56418C12.0946 2.28648 12.3579 3.09066 12.7226 3.32784Z" fill="#BB2B29"/>
<path fill-rule="evenodd" clip-rule="evenodd" d="M12.4993 3.37327C12.9641 3.67646 13.5511 3.82032 13.5985 4.64248C13.6458 5.46464 12.8669 7.08097 10.835 5.87163C8.80299 4.66228 9.74852 2.92737 10.8299 2.67698C11.9262 2.42251 12.1663 3.15612 12.4993 3.37327Z" fill="#D14241"/>
<path fill-rule="evenodd" clip-rule="evenodd" d="M12.685 3.35426C12.8113 3.45623 12.8634 3.601 12.8015 3.67748C12.7396 3.75396 12.5869 3.73347 12.4601 3.63195C12.3333 3.53044 12.2816 3.38521 12.3435 3.30873C12.4054 3.23225 12.5586 3.25228 12.685 3.35426Z" fill="#C9203E"/>
<path fill-rule="evenodd" clip-rule="evenodd" d="M11.1206 3.22255C11.4194 3.08598 12.1068 3.04046 12.2384 3.43674C12.37 3.83303 12.8229 3.83872 12.9809 4.18789C13.1389 4.53706 12.9436 4.51703 12.7194 4.30033C12.4952 4.08364 12.2216 4.1954 11.9682 3.80617C11.7149 3.41694 10.8677 3.43287 11.1206 3.22255Z" fill="#EB5C5C"/>
<path d="M12.633 3.54362C12.626 3.55271 12.6172 3.56022 12.6071 3.56562C12.597 3.57103 12.5858 3.57422 12.5744 3.57497C12.5629 3.57572 12.5515 3.57403 12.5407 3.57C12.53 3.56596 12.5202 3.55969 12.5121 3.55158C12.4985 3.53185 12.4927 3.50771 12.496 3.48394C12.4993 3.46017 12.5114 3.4385 12.5299 3.42321C13.5455 2.34611 14.5059 1.05596 16.0682 1.77524C16.1075 1.79335 16.1379 1.82631 16.1529 1.86686C16.1678 1.90741 16.166 1.95224 16.1479 1.99148C16.1298 2.03072 16.0968 2.06116 16.0563 2.0761C16.0157 2.09104 15.9709 2.08926 15.9317 2.07115C14.7528 1.37076 13.8173 2.26804 12.633 3.54362Z" fill="#80B373"/>
<path fill-rule="evenodd" clip-rule="evenodd" d="M2.48389 10.7852C0.145784 15.8879 8.55336 16.1845 9.94981 16.0502C10.9386 15.9551 10.9898 15.5354 10.1528 15.5012C7.18173 15.3797 2.68988 13.6457 2.96599 10.81C3.03017 10.1594 2.71151 10.2867 2.48389 10.7852Z" fill="#D9C1DE"/>
<path fill-rule="evenodd" clip-rule="evenodd" d="M16.1889 11.2672C17.546 14.0917 12.9165 15.5025 12.1057 15.5066C11.5318 15.5096 11.502 15.269 11.9878 15.1998C13.5848 14.9587 15.5965 12.9536 15.9087 11.3098C15.98 10.9347 16.0565 10.9916 16.1889 11.2672Z" fill="#C0A1CC"/>
<path fill-rule="evenodd" clip-rule="evenodd" d="M15.1168 9.56763C15.1871 9.56758 15.2559 9.5884 15.3144 9.62744C15.3729 9.66648 15.4185 9.72199 15.4454 9.78695C15.4724 9.85191 15.4794 9.92341 15.4658 9.99239C15.4521 10.0614 15.4182 10.1247 15.3685 10.1745C15.3188 10.2242 15.2554 10.2581 15.1865 10.2719C15.1175 10.2856 15.046 10.2786 14.981 10.2517C14.916 10.2248 14.8605 10.1792 14.8214 10.1207C14.7823 10.0622 14.7615 9.9935 14.7615 9.92317C14.7617 9.82899 14.7992 9.73873 14.8658 9.67211C14.9324 9.60549 15.0226 9.56793 15.1168 9.56763Z" fill="#FFD74A"/>
<path fill-rule="evenodd" clip-rule="evenodd" d="M14.9964 9.67396C15.0259 9.67364 15.0549 9.68213 15.0796 9.69834C15.1043 9.71455 15.1236 9.73775 15.135 9.76497C15.1465 9.7922 15.1495 9.82221 15.1439 9.85119C15.1382 9.88017 15.124 9.9068 15.1031 9.92769C15.0822 9.94857 15.0556 9.96276 15.0266 9.96844C14.9976 9.97413 14.9676 9.97105 14.9404 9.9596C14.9132 9.94815 14.89 9.92886 14.8738 9.90417C14.8575 9.87949 14.8491 9.85053 14.8494 9.821C14.8493 9.80168 14.8531 9.78255 14.8605 9.76469C14.8679 9.74684 14.8787 9.73062 14.8924 9.71696C14.906 9.7033 14.9223 9.69247 14.9401 9.68509C14.958 9.67771 14.9771 9.67393 14.9964 9.67396Z" fill="#FBEAB5"/>
<path fill-rule="evenodd" clip-rule="evenodd" d="M13.2555 13.2334C13.326 13.2331 13.3951 13.2537 13.454 13.2927C13.5129 13.3316 13.5589 13.3872 13.5862 13.4523C13.6135 13.5174 13.6209 13.5891 13.6074 13.6584C13.5939 13.7277 13.5602 13.7914 13.5105 13.8415C13.4609 13.8917 13.3974 13.926 13.3282 13.94C13.2591 13.9541 13.1873 13.9474 13.1219 13.9207C13.0566 13.8939 13.0007 13.8484 12.9612 13.7899C12.9217 13.7314 12.9005 13.6625 12.9001 13.5919C12.8998 13.4973 12.937 13.4063 13.0036 13.3391C13.0702 13.2719 13.1608 13.2339 13.2555 13.2334Z" fill="#DEEAAB"/>
<path fill-rule="evenodd" clip-rule="evenodd" d="M13.1366 13.3434C13.1657 13.3434 13.1942 13.352 13.2185 13.3681C13.2427 13.3843 13.2616 13.4073 13.2728 13.4342C13.284 13.4611 13.2869 13.4908 13.2812 13.5193C13.2756 13.5479 13.2615 13.5742 13.2409 13.5948C13.2203 13.6154 13.194 13.6294 13.1655 13.6351C13.1369 13.6408 13.1072 13.6379 13.0803 13.6267C13.0534 13.6155 13.0304 13.5966 13.0142 13.5723C12.9981 13.5481 12.9895 13.5196 12.9895 13.4904C12.9893 13.4711 12.9929 13.4518 13.0002 13.4339C13.0075 13.4159 13.0183 13.3996 13.032 13.3859C13.0457 13.3722 13.062 13.3614 13.08 13.3541C13.0979 13.3468 13.1172 13.3432 13.1366 13.3434Z" fill="white"/>
<path fill-rule="evenodd" clip-rule="evenodd" d="M13.5313 11.1061C13.6019 11.1059 13.6709 11.1266 13.7297 11.1656C13.7885 11.2046 13.8345 11.2601 13.8617 11.3253C13.8889 11.3904 13.8963 11.4621 13.8828 11.5313C13.8692 11.6006 13.8355 11.6643 13.7858 11.7144C13.7361 11.7645 13.6726 11.7987 13.6035 11.8128C13.5343 11.8268 13.4625 11.82 13.3972 11.7933C13.3319 11.7666 13.276 11.7211 13.2365 11.6625C13.1971 11.604 13.1759 11.5352 13.1755 11.4646C13.1753 11.4177 13.1843 11.3712 13.2021 11.3277C13.2199 11.2843 13.246 11.2448 13.279 11.2115C13.3121 11.1782 13.3514 11.1518 13.3947 11.1337C13.438 11.1156 13.4844 11.1062 13.5313 11.1061Z" fill="#B6DAE7"/>
<path fill-rule="evenodd" clip-rule="evenodd" d="M13.4117 11.2162C13.4408 11.2162 13.4693 11.2248 13.4936 11.2409C13.5178 11.2571 13.5367 11.28 13.5479 11.307C13.5591 11.3339 13.5621 11.3635 13.5564 11.3921C13.5507 11.4206 13.5367 11.4469 13.5162 11.4675C13.4956 11.4881 13.4693 11.5022 13.4407 11.5079C13.4122 11.5136 13.3825 11.5107 13.3556 11.4995C13.3287 11.4884 13.3057 11.4695 13.2895 11.4453C13.2733 11.4211 13.2647 11.3926 13.2647 11.3635C13.2644 11.3441 13.268 11.3248 13.2753 11.3068C13.2826 11.2889 13.2934 11.2725 13.3071 11.2588C13.3208 11.2451 13.3371 11.2342 13.3551 11.2269C13.3731 11.2196 13.3923 11.216 13.4117 11.2162Z" fill="#DFF2F9"/>
<path fill-rule="evenodd" clip-rule="evenodd" d="M10.076 14.527C10.1463 14.527 10.215 14.5479 10.2735 14.587C10.3319 14.6261 10.3774 14.6816 10.4043 14.7466C10.4312 14.8116 10.4382 14.8831 10.4244 14.952C10.4107 15.021 10.3768 15.0843 10.3271 15.134C10.2773 15.1837 10.214 15.2175 10.145 15.2312C10.0761 15.2449 10.0046 15.2379 9.93964 15.211C9.87469 15.1841 9.81918 15.1385 9.78012 15.08C9.74106 15.0216 9.72021 14.9528 9.72021 14.8825C9.72028 14.7882 9.75779 14.6978 9.8245 14.6311C9.89121 14.5644 9.98166 14.527 10.076 14.527Z" fill="#B6DAE7"/>
<path fill-rule="evenodd" clip-rule="evenodd" d="M9.95663 14.6348C9.98608 14.635 10.0148 14.644 10.0391 14.6606C10.0635 14.6772 10.0823 14.7007 10.0933 14.728C10.1043 14.7553 10.107 14.7853 10.101 14.8141C10.0949 14.8429 10.0805 14.8693 10.0595 14.8899C10.0384 14.9105 10.0118 14.9245 9.98282 14.9299C9.95387 14.9354 9.92397 14.9321 9.89687 14.9206C9.86978 14.909 9.84672 14.8897 9.83062 14.865C9.81452 14.8404 9.80609 14.8115 9.8064 14.782C9.80694 14.7426 9.82303 14.705 9.85117 14.6775C9.87932 14.6499 9.91722 14.6345 9.95663 14.6348Z" fill="#DFF2F9"/>
<path fill-rule="evenodd" clip-rule="evenodd" d="M8.6527 12.8875C8.72348 12.8871 8.7928 12.9077 8.85183 12.9468C8.91086 12.9858 8.95696 13.0416 8.98426 13.1069C9.01155 13.1722 9.01882 13.2441 9.00514 13.3136C8.99147 13.383 8.95746 13.4469 8.90744 13.497C8.85741 13.547 8.79363 13.5811 8.72419 13.5949C8.65475 13.6087 8.58279 13.6015 8.51744 13.5743C8.45209 13.5471 8.3963 13.501 8.35716 13.4421C8.31802 13.3831 8.2973 13.3138 8.29761 13.243C8.29785 13.1489 8.33532 13.0586 8.40185 12.992C8.46838 12.9254 8.55855 12.8878 8.6527 12.8875Z" fill="#FFD74A"/>
<path fill-rule="evenodd" clip-rule="evenodd" d="M8.53304 12.9965C8.56212 12.9965 8.59055 13.0051 8.61474 13.0213C8.63892 13.0374 8.65776 13.0604 8.66889 13.0872C8.68002 13.1141 8.68293 13.1437 8.67726 13.1722C8.67159 13.2007 8.65758 13.2269 8.63702 13.2475C8.61646 13.2681 8.59025 13.2821 8.56173 13.2877C8.5332 13.2934 8.50364 13.2905 8.47677 13.2794C8.4499 13.2682 8.42694 13.2494 8.41078 13.2252C8.39463 13.201 8.386 13.1726 8.386 13.1435C8.38575 13.1241 8.38939 13.1049 8.3967 13.087C8.404 13.069 8.41482 13.0527 8.42852 13.039C8.44223 13.0253 8.45853 13.0145 8.47648 13.0072C8.49443 12.9999 8.51366 12.9962 8.53304 12.9965Z" fill="#FBEAB5"/>
<path fill-rule="evenodd" clip-rule="evenodd" d="M10.8602 10.5492C10.9308 10.5489 11 10.5695 11.0589 10.6085C11.1178 10.6475 11.1638 10.7031 11.1911 10.7682C11.2184 10.8334 11.2258 10.9052 11.2123 10.9745C11.1989 11.0439 11.1651 11.1077 11.1154 11.1578C11.0656 11.208 11.0021 11.2423 10.9329 11.2563C10.8636 11.2704 10.7918 11.2636 10.7264 11.2368C10.661 11.21 10.6051 11.1645 10.5656 11.1059C10.5261 11.0473 10.5049 10.9783 10.5046 10.9077C10.5044 10.8608 10.5134 10.8143 10.5312 10.7709C10.5489 10.7275 10.575 10.688 10.6081 10.6547C10.6411 10.6214 10.6804 10.595 10.7236 10.5768C10.7669 10.5587 10.8133 10.5493 10.8602 10.5492Z" fill="#FFD74A"/>
<path fill-rule="evenodd" clip-rule="evenodd" d="M10.7406 10.6598C10.7697 10.6598 10.7982 10.6684 10.8224 10.6845C10.8467 10.7007 10.8656 10.7237 10.8768 10.7506C10.888 10.7775 10.8909 10.8071 10.8853 10.8357C10.8796 10.8642 10.8656 10.8905 10.845 10.9111C10.8244 10.9317 10.7982 10.9458 10.7696 10.9515C10.741 10.9572 10.7114 10.9543 10.6845 10.9432C10.6576 10.932 10.6345 10.9131 10.6184 10.8889C10.6022 10.8647 10.5935 10.8362 10.5935 10.8071C10.5932 10.7877 10.5968 10.7684 10.6041 10.7504C10.6114 10.7324 10.6222 10.7161 10.6359 10.7023C10.6496 10.6886 10.6659 10.6778 10.6839 10.6705C10.7019 10.6632 10.7212 10.6595 10.7406 10.6598Z" fill="#FBEAB5"/>
<path fill-rule="evenodd" clip-rule="evenodd" d="M3.74226 8.34119C3.81284 8.34092 3.88191 8.36158 3.94075 8.40057C3.99959 8.43955 4.04555 8.4951 4.07281 8.5602C4.10008 8.6253 4.10744 8.69702 4.09395 8.7663C4.08046 8.83558 4.04674 8.8993 3.99704 8.94942C3.94734 8.99953 3.88389 9.03378 3.81473 9.04785C3.74556 9.06191 3.67378 9.05515 3.60846 9.02842C3.54314 9.00169 3.48721 8.95619 3.44774 8.89768C3.40827 8.83917 3.38703 8.77027 3.38672 8.69969C3.38683 8.60516 3.42424 8.51448 3.4908 8.44736C3.55737 8.38024 3.64773 8.34209 3.74226 8.34119Z" fill="#FFD74A"/>
<path fill-rule="evenodd" clip-rule="evenodd" d="M3.62238 8.45119C3.65145 8.45123 3.67986 8.45989 3.70401 8.47608C3.72816 8.49226 3.74697 8.51524 3.75806 8.54212C3.76916 8.56899 3.77204 8.59855 3.76634 8.62706C3.76064 8.65556 3.74662 8.68174 3.72605 8.70228C3.70547 8.72282 3.67927 8.73681 3.65076 8.74246C3.62224 8.74812 3.59268 8.74519 3.56583 8.73406C3.53897 8.72292 3.51602 8.70407 3.49987 8.6799C3.48373 8.65572 3.47511 8.6273 3.47511 8.59823C3.47486 8.57883 3.4785 8.55958 3.48582 8.54162C3.49314 8.52365 3.50398 8.50733 3.51771 8.49363C3.53144 8.47992 3.54778 8.4691 3.56575 8.46181C3.58373 8.45453 3.60298 8.45091 3.62238 8.45119Z" fill="#FBEAB5"/>
<path fill-rule="evenodd" clip-rule="evenodd" d="M4.19563 10.8016C4.26594 10.8016 4.33468 10.8225 4.39315 10.8616C4.45162 10.9006 4.4972 10.9562 4.52411 11.0211C4.55102 11.0861 4.55805 11.1576 4.54433 11.2265C4.53062 11.2955 4.49675 11.3589 4.44703 11.4086C4.39731 11.4583 4.33396 11.4922 4.26499 11.5059C4.19602 11.5196 4.12453 11.5126 4.05957 11.4857C3.9946 11.4587 3.93907 11.4132 3.90001 11.3547C3.86094 11.2962 3.84009 11.2275 3.84009 11.1572C3.84027 11.0629 3.87778 10.9726 3.94442 10.906C4.01106 10.8393 4.10139 10.8018 4.19563 10.8016Z" fill="#B6DAE7"/>
<path fill-rule="evenodd" clip-rule="evenodd" d="M4.07748 10.9089C4.10688 10.9086 4.1357 10.917 4.16032 10.9331C4.18493 10.9492 4.20423 10.9722 4.21577 10.9992C4.22731 11.0263 4.23057 11.0561 4.22515 11.085C4.21972 11.1139 4.20585 11.1405 4.18529 11.1615C4.16473 11.1825 4.13839 11.197 4.10962 11.203C4.08085 11.2091 4.05094 11.2065 4.02366 11.1955C3.99638 11.1845 3.97297 11.1657 3.95638 11.1415C3.93979 11.1172 3.93076 11.0886 3.93044 11.0592C3.93011 11.0396 3.93366 11.0202 3.9409 11.002C3.94813 10.9839 3.95889 10.9673 3.97257 10.9533C3.98625 10.9394 4.00257 10.9282 4.02058 10.9206C4.03859 10.913 4.05793 10.909 4.07748 10.9089Z" fill="#DFF2F9"/>
<path fill-rule="evenodd" clip-rule="evenodd" d="M7.62558 10.5668C7.69623 10.5664 7.76539 10.587 7.82433 10.626C7.88326 10.6649 7.92932 10.7205 7.95668 10.7856C7.98403 10.8507 7.99146 10.9225 7.97801 10.9919C7.96456 11.0612 7.93086 11.125 7.88114 11.1752C7.83143 11.2254 7.76794 11.2597 7.69872 11.2738C7.6295 11.288 7.55765 11.2812 7.49226 11.2545C7.42687 11.2278 7.37088 11.1822 7.33136 11.1237C7.29185 11.0651 7.27059 10.9961 7.27027 10.9255C7.27 10.8786 7.27898 10.8321 7.2967 10.7887C7.31442 10.7453 7.34053 10.7058 7.37353 10.6725C7.40654 10.6391 7.44578 10.6126 7.48903 10.5945C7.53228 10.5764 7.57869 10.567 7.62558 10.5668Z" fill="#D14241"/>
<path fill-rule="evenodd" clip-rule="evenodd" d="M7.50642 10.6773C7.53555 10.6773 7.56404 10.6859 7.58826 10.7021C7.61248 10.7183 7.63136 10.7413 7.6425 10.7682C7.65364 10.7952 7.65654 10.8248 7.65084 10.8533C7.64514 10.8819 7.63108 10.9082 7.61047 10.9288C7.58985 10.9493 7.56359 10.9633 7.53501 10.969C7.50642 10.9747 7.47681 10.9717 7.4499 10.9605C7.42299 10.9493 7.40001 10.9304 7.38385 10.9062C7.3677 10.8819 7.3591 10.8534 7.35915 10.8243C7.35887 10.8049 7.36249 10.7856 7.36979 10.7677C7.3771 10.7497 7.38794 10.7333 7.40168 10.7196C7.41541 10.7059 7.43176 10.6951 7.44975 10.6878C7.46774 10.6806 7.48701 10.677 7.50642 10.6773Z" fill="#F69798"/>
<path fill-rule="evenodd" clip-rule="evenodd" d="M5.78891 12.8184C5.85925 12.8183 5.92802 12.8391 5.98653 12.8782C6.04503 12.9172 6.09063 12.9728 6.11757 13.0377C6.14451 13.1027 6.15157 13.1742 6.13786 13.2432C6.12415 13.3122 6.09028 13.3756 6.04054 13.4253C5.99081 13.475 5.92743 13.5089 5.85844 13.5226C5.78945 13.5363 5.71795 13.5293 5.65297 13.5023C5.588 13.4754 5.53247 13.4298 5.49342 13.3713C5.45437 13.3128 5.43355 13.244 5.43359 13.1737C5.43365 13.0795 5.47111 12.9891 5.53773 12.9225C5.60436 12.8559 5.69469 12.8184 5.78891 12.8184Z" fill="#DEEAAB"/>
<path fill-rule="evenodd" clip-rule="evenodd" d="M5.67048 12.9231C5.70001 12.9228 5.72895 12.9313 5.75363 12.9475C5.77831 12.9637 5.79761 12.9869 5.80907 13.0141C5.82052 13.0413 5.82361 13.0713 5.81794 13.1003C5.81228 13.1292 5.79811 13.1559 5.77725 13.1768C5.75639 13.1976 5.72979 13.2118 5.70082 13.2176C5.67185 13.2233 5.64184 13.2202 5.61462 13.2088C5.58739 13.1974 5.56417 13.1781 5.54794 13.1535C5.5317 13.1288 5.52317 13.0999 5.52344 13.0704C5.52341 13.051 5.5272 13.0319 5.53457 13.014C5.54195 12.9962 5.55277 12.9799 5.56643 12.9663C5.58009 12.9526 5.59631 12.9417 5.61416 12.9343C5.63202 12.9269 5.65116 12.9231 5.67048 12.9231Z" fill="white"/>
<path fill-rule="evenodd" clip-rule="evenodd" d="M13.1393 15.2013C13.21 15.2009 13.2792 15.2216 13.3382 15.2607C13.3972 15.2997 13.4432 15.3554 13.4705 15.4207C13.4977 15.486 13.5049 15.5579 13.4912 15.6273C13.4775 15.6967 13.4435 15.7605 13.3935 15.8105C13.3435 15.8605 13.2798 15.8946 13.2104 15.9083C13.141 15.922 13.0691 15.9149 13.0038 15.8877C12.9385 15.8605 12.8828 15.8145 12.8437 15.7555C12.8046 15.6966 12.7839 15.6273 12.7842 15.5566C12.7845 15.4625 12.822 15.3723 12.8885 15.3058C12.955 15.2392 13.0452 15.2017 13.1393 15.2013Z" fill="#D14241"/>
<path fill-rule="evenodd" clip-rule="evenodd" d="M13.0201 15.3081C13.0495 15.3078 13.0783 15.3162 13.1029 15.3323C13.1276 15.3484 13.1469 15.3714 13.1584 15.3984C13.1699 15.4254 13.1732 15.4553 13.1678 15.4842C13.1623 15.5131 13.1485 15.5397 13.1279 15.5607C13.1074 15.5817 13.081 15.5962 13.0523 15.6022C13.0235 15.6082 12.9936 15.6056 12.9663 15.5947C12.939 15.5837 12.9156 15.5649 12.899 15.5406C12.8824 15.5164 12.8734 15.4877 12.8731 15.4583C12.8728 15.4388 12.8763 15.4194 12.8836 15.4012C12.8908 15.3831 12.9016 15.3665 12.9153 15.3526C12.9289 15.3386 12.9452 15.3275 12.9632 15.3199C12.9812 15.3122 13.0006 15.3082 13.0201 15.3081Z" fill="#F69798"/>
<path fill-rule="evenodd" clip-rule="evenodd" d="M2.96395 14.3127C3.03472 14.3124 3.10398 14.3332 3.16295 14.3723C3.22193 14.4114 3.26795 14.4672 3.29518 14.5325C3.32241 14.5978 3.32961 14.6697 3.31589 14.7392C3.30216 14.8086 3.26811 14.8724 3.21807 14.9224C3.16802 14.9725 3.10424 15.0065 3.03481 15.0202C2.96539 15.034 2.89345 15.0268 2.82813 14.9995C2.76281 14.9723 2.70705 14.9263 2.66793 14.8673C2.6288 14.8083 2.60809 14.7391 2.6084 14.6683C2.60846 14.574 2.64594 14.4836 2.7126 14.4169C2.77927 14.3503 2.86967 14.3128 2.96395 14.3127Z" fill="#FFD74A"/>
<path fill-rule="evenodd" clip-rule="evenodd" d="M2.84468 14.4202C2.8841 14.4202 2.92191 14.4358 2.94978 14.4637C2.97766 14.4916 2.99332 14.5294 2.99332 14.5688C2.99332 14.6082 2.97766 14.646 2.94978 14.6739C2.92191 14.7018 2.8841 14.7174 2.84468 14.7174C2.80526 14.7174 2.76745 14.7018 2.73958 14.6739C2.7117 14.646 2.69604 14.6082 2.69604 14.5688C2.69604 14.5294 2.7117 14.4916 2.73958 14.4637C2.76745 14.4358 2.80526 14.4202 2.84468 14.4202Z" fill="#FBEAB5"/>
<path fill-rule="evenodd" clip-rule="evenodd" d="M14.9381 8.35926C15.0088 8.35949 15.0778 8.38067 15.1364 8.42012C15.195 8.45957 15.2406 8.51551 15.2674 8.58088C15.2942 8.64625 15.301 8.71811 15.287 8.78735C15.2729 8.8566 15.2387 8.92012 15.1885 8.96989C15.1384 9.01966 15.0746 9.05344 15.0052 9.06694C14.9359 9.08045 14.8641 9.07308 14.7989 9.04578C14.7338 9.01847 14.6782 8.97244 14.6392 8.91353C14.6002 8.85462 14.5795 8.78546 14.5798 8.7148C14.5799 8.66789 14.5892 8.62145 14.6072 8.57815C14.6253 8.53484 14.6517 8.49554 14.685 8.4625C14.7183 8.42945 14.7578 8.40332 14.8012 8.3856C14.8447 8.36788 14.8912 8.35893 14.9381 8.35926Z" fill="#DEEAAB"/>
<path fill-rule="evenodd" clip-rule="evenodd" d="M14.815 8.47022C14.8442 8.47013 14.8727 8.47869 14.897 8.49483C14.9213 8.51097 14.9402 8.53395 14.9514 8.56086C14.9626 8.58778 14.9656 8.61742 14.96 8.64602C14.9543 8.67462 14.9403 8.70091 14.9197 8.72154C14.8991 8.74217 14.8728 8.75623 14.8442 8.76192C14.8156 8.76761 14.786 8.76469 14.7591 8.75352C14.7321 8.74235 14.7091 8.72344 14.693 8.69919C14.6768 8.67493 14.6682 8.64641 14.6682 8.61726C14.6685 8.57837 14.684 8.54114 14.7115 8.51363C14.7389 8.48611 14.7761 8.47051 14.815 8.47022Z" fill="#FBEAB5"/>
<path fill-rule="evenodd" clip-rule="evenodd" d="M16.6293 11.4393C16.6995 11.4399 16.7679 11.4613 16.826 11.5007C16.8841 11.5401 16.9292 11.5959 16.9556 11.6609C16.9821 11.7259 16.9887 11.7973 16.9746 11.8661C16.9606 11.9349 16.9264 11.998 16.8766 12.0474C16.8267 12.0968 16.7633 12.1304 16.6944 12.1438C16.6255 12.1573 16.5542 12.15 16.4894 12.123C16.4246 12.096 16.3693 12.0504 16.3304 11.9919C16.2915 11.9335 16.2707 11.8649 16.2708 11.7947C16.2708 11.7477 16.2801 11.7013 16.2982 11.658C16.3162 11.6147 16.3427 11.5754 16.376 11.5423C16.4093 11.5093 16.4489 11.4832 16.4923 11.4655C16.5358 11.4479 16.5823 11.439 16.6293 11.4393Z" fill="#D14241"/>
<path fill-rule="evenodd" clip-rule="evenodd" d="M16.5064 11.5462C16.536 11.5458 16.5649 11.5543 16.5896 11.5705C16.6143 11.5867 16.6336 11.6099 16.645 11.6372C16.6565 11.6644 16.6596 11.6944 16.6539 11.7234C16.6482 11.7524 16.634 11.779 16.6131 11.7999C16.5922 11.8208 16.5656 11.8349 16.5366 11.8406C16.5076 11.8463 16.4776 11.8432 16.4504 11.8318C16.4232 11.8203 16.4 11.8011 16.3838 11.7764C16.3676 11.7517 16.3591 11.7227 16.3594 11.6932C16.36 11.6544 16.3757 11.6174 16.4032 11.5899C16.4306 11.5625 16.4676 11.5468 16.5064 11.5462Z" fill="#FBEAB5"/>
<path fill-rule="evenodd" clip-rule="evenodd" d="M2.75252 8.52185C2.82322 8.52158 2.89242 8.54232 2.95132 8.58143C3.01022 8.62055 3.05618 8.67627 3.08336 8.74155C3.11055 8.80682 3.11773 8.87869 3.104 8.94805C3.09027 9.01741 3.05625 9.08113 3.00626 9.13113C2.95626 9.18112 2.89254 9.21515 2.82318 9.22887C2.75382 9.2426 2.68194 9.23542 2.61667 9.20824C2.5514 9.18105 2.49567 9.13509 2.45656 9.07619C2.41745 9.01729 2.39671 8.9481 2.39698 8.87739C2.39704 8.78312 2.43451 8.69272 2.50118 8.62605C2.56784 8.55939 2.65824 8.52191 2.75252 8.52185Z" fill="#DEEAAB"/>
<path fill-rule="evenodd" clip-rule="evenodd" d="M2.63315 8.62867C2.66254 8.62836 2.69137 8.63677 2.71598 8.65284C2.7406 8.66891 2.7599 8.69192 2.77144 8.71895C2.78297 8.74599 2.78624 8.77584 2.78081 8.80473C2.77539 8.83363 2.76152 8.86026 2.74095 8.88127C2.72039 8.90228 2.69406 8.91671 2.66529 8.92276C2.63652 8.9288 2.6066 8.92618 2.57933 8.91522C2.55205 8.90427 2.52864 8.88547 2.51204 8.8612C2.49545 8.83694 2.48642 8.8083 2.48611 8.7789C2.48577 8.75935 2.48933 8.73993 2.49656 8.72176C2.50379 8.70359 2.51456 8.68704 2.52824 8.67306C2.54191 8.65909 2.55823 8.64797 2.57624 8.64035C2.59425 8.63273 2.61359 8.62876 2.63315 8.62867Z" fill="white"/>
<path fill-rule="evenodd" clip-rule="evenodd" d="M1.41952 11.9772C1.48986 11.9771 1.55863 11.9979 1.61714 12.037C1.67564 12.076 1.72125 12.1316 1.74819 12.1966C1.77512 12.2615 1.78218 12.333 1.76847 12.402C1.75476 12.471 1.72089 12.5344 1.67116 12.5841C1.62142 12.6339 1.55805 12.6677 1.48906 12.6814C1.42007 12.6951 1.34856 12.6881 1.28358 12.6611C1.21861 12.6342 1.16308 12.5886 1.12403 12.5301C1.08498 12.4716 1.06416 12.4028 1.06421 12.3325C1.06445 12.2383 1.10196 12.1481 1.16854 12.0815C1.23513 12.0149 1.32536 11.9774 1.41952 11.9772Z" fill="#D14241"/>
<path fill-rule="evenodd" clip-rule="evenodd" d="M1.30038 12.0851C1.32978 12.0848 1.35862 12.0932 1.38324 12.1093C1.40786 12.1254 1.42716 12.1484 1.4387 12.1754C1.45023 12.2025 1.45348 12.2323 1.44803 12.2612C1.44259 12.2901 1.4287 12.3168 1.40811 12.3378C1.38753 12.3588 1.36117 12.3732 1.33239 12.3792C1.3036 12.3852 1.27368 12.3826 1.24641 12.3716C1.21913 12.3606 1.19573 12.3418 1.17916 12.3175C1.1626 12.2932 1.15361 12.2645 1.15334 12.2351C1.15304 12.2156 1.15662 12.1962 1.16386 12.178C1.17111 12.1599 1.18188 12.1434 1.19555 12.1294C1.20923 12.1155 1.22554 12.1044 1.24353 12.0967C1.26152 12.0891 1.28084 12.0852 1.30038 12.0851Z" fill="#F69798"/>
<path fill-rule="evenodd" clip-rule="evenodd" d="M14.8487 21.8959C14.5127 22.7964 13.6587 23.481 12.6112 23.8989C11.6051 24.2989 10.3577 24.4452 9.01798 24.4373C7.67821 24.4293 6.43108 24.2727 5.42637 23.8671C4.38274 23.4453 3.53713 22.7604 3.20935 21.864C2.76443 20.6426 2.31876 19.4217 1.87232 18.2012C1.42588 16.9807 0.979674 15.7591 0.533691 14.5365H17.5876C17.1306 15.7643 16.6735 16.9913 16.2165 18.2176C15.7594 19.4438 15.3035 20.6699 14.8487 21.8959Z" fill="#F2D0BC"/>
<path fill-rule="evenodd" clip-rule="evenodd" d="M9.04194 18.3856C9.48033 18.3879 9.81812 18.8222 9.79308 19.3489C9.75408 20.1964 9.71615 21.0435 9.67927 21.8903C9.6424 22.737 9.60378 23.5835 9.56341 24.4296C9.38132 24.436 9.20173 24.4369 9.01713 24.436C8.83253 24.4351 8.65043 24.4328 8.47084 24.4232C8.44011 23.5769 8.40597 22.7304 8.37524 21.8839C8.34451 21.0374 8.31128 20.1922 8.27986 19.3457C8.26006 18.8181 8.60536 18.3856 9.04194 18.3856Z" fill="#EDAA80"/>
<path fill-rule="evenodd" clip-rule="evenodd" d="M11.445 18.1329C11.8884 18.1456 12.1734 18.5936 12.0844 19.1292C11.9406 19.9879 11.7964 20.8463 11.6519 21.7045C11.5075 22.5626 11.3633 23.42 11.2195 24.2766C10.8489 24.3416 10.4748 24.3845 10.0991 24.4049C10.1759 23.5172 10.2518 22.6295 10.3267 21.7418C10.4025 20.8541 10.4811 19.965 10.5569 19.0771C10.6017 18.5465 11.0014 18.1222 11.445 18.1329Z" fill="#EDAA80"/>
<path fill-rule="evenodd" clip-rule="evenodd" d="M13.9602 17.6739C14.4123 17.6931 14.6469 18.1601 14.4856 18.7105C14.2411 19.545 14.0021 20.3783 13.759 21.2116C13.5159 22.0449 13.273 22.8769 13.0327 23.7104C12.6336 23.9068 12.2136 24.0575 11.7808 24.1597C11.9735 23.2368 12.1662 22.3143 12.3589 21.3921C12.5508 20.4693 12.7438 19.5484 12.9353 18.6245C13.0475 18.0841 13.5102 17.6571 13.9602 17.6739Z" fill="#EDAA80"/>
<path fill-rule="evenodd" clip-rule="evenodd" d="M13.7368 23.2808C14.0507 22.3271 14.3687 21.3749 14.6833 20.4219C14.9978 19.4688 15.3126 18.5156 15.6281 17.5621C15.8123 17.0053 16.3513 16.5626 16.827 16.5742C16.4978 17.461 16.1682 18.3478 15.838 19.2346C15.5078 20.1214 15.178 21.0082 14.8487 21.895C14.6212 22.4555 14.2347 22.9372 13.7368 23.2808Z" fill="#EDAA80"/>
<path fill-rule="evenodd" clip-rule="evenodd" d="M1.27563 16.5663C1.74795 16.5544 2.2824 16.9962 2.46268 17.5507C2.77178 18.5011 3.07929 19.4502 3.38521 20.398C3.69113 21.3458 3.99865 22.2949 4.30776 23.2453C3.81421 22.9018 3.43233 22.421 3.20949 21.8625C2.88718 20.9789 2.56488 20.096 2.24257 19.2139L1.27563 16.5663Z" fill="#EDAA80"/>
<path fill-rule="evenodd" clip-rule="evenodd" d="M4.13026 17.6628C4.58231 17.6458 5.03846 18.0739 5.14658 18.6122C5.33186 19.5332 5.51661 20.4532 5.70083 21.3724C5.88505 22.2915 6.0698 23.2112 6.25508 24.1316C5.82374 24.0274 5.40559 23.8747 5.00864 23.6763C4.77328 22.8469 4.53808 22.0171 4.30302 21.1869C4.06797 20.3566 3.83276 19.5265 3.5974 18.6965C3.44102 18.1472 3.67843 17.6808 4.13026 17.6628Z" fill="#EDAA80"/>
<path fill-rule="evenodd" clip-rule="evenodd" d="M6.6423 18.1263C7.08753 18.1179 7.48085 18.5406 7.52228 19.0696C7.59163 19.9573 7.66098 20.845 7.73032 21.7327C7.79922 22.6173 7.86804 23.5037 7.93678 24.392C7.56124 24.3705 7.18751 24.3244 6.81803 24.2539C6.67979 23.398 6.54223 22.5424 6.40535 21.687C6.26848 20.8316 6.13092 19.9757 5.99268 19.1192C5.90687 18.5852 6.20072 18.1391 6.6423 18.1263Z" fill="#EDAA80"/>
<path fill-rule="evenodd" clip-rule="evenodd" d="M9.06055 17.5744C13.757 17.5744 17.5876 16.2087 17.5876 14.5347C17.5876 12.8608 13.757 11.4951 9.06055 11.4951C4.36407 11.4951 0.533691 12.8608 0.533691 14.5347C0.533691 16.2087 4.36407 17.5744 9.06055 17.5744Z" fill="#FF5B59"/>
<path fill-rule="evenodd" clip-rule="evenodd" d="M9.0606 6.16016C13.3312 6.16016 16.7931 9.14812 16.7931 12.834C16.7931 18.0981 1.32837 18.2231 1.32837 12.834C1.32837 9.14812 4.79023 6.16016 9.0606 6.16016Z" fill="#F6908F"/>
<path fill-rule="evenodd" clip-rule="evenodd" d="M4.83208 5.81073C3.66394 6.72485 3.63367 8.60726 6.16389 9.20658C8.69411 9.80591 12.5559 9.4729 13.2552 7.84087C13.9544 6.20884 7.56648 3.67088 4.83208 5.81073Z" fill="#9C503C"/>
<path fill-rule="evenodd" clip-rule="evenodd" d="M6.22034 4.60766C5.76215 5.21382 6.17117 6.1598 6.82968 6.47688C7.72854 6.90935 10.2255 7.24259 11.3575 8.44123C12.4894 9.63988 14.0541 9.60642 14.0541 7.77522C14.0541 6.72817 13.5886 5.10592 11.4271 3.99901C10.022 3.27928 7.27741 3.20963 6.22034 4.60766Z" fill="#9C503C"/>
<path fill-rule="evenodd" clip-rule="evenodd" d="M7.76182 0.849977C8.72738 2.18155 6.62987 2.84734 7.02957 4.11245C7.42927 5.37756 9.99249 5.71056 10.8581 4.37876C11.7238 3.04696 9.8261 0.816744 7.76182 0.849977Z" fill="#9C503C"/>
<path fill-rule="evenodd" clip-rule="evenodd" d="M8.26108 1.48303C8.38945 1.94328 8.05622 2.15132 7.98589 2.37302C7.78353 3.00876 8.63187 3.31491 8.74932 2.48387C8.80805 2.0671 8.65235 1.5017 8.26108 1.48303Z" fill="#A65E4D"/>
<path fill-rule="evenodd" clip-rule="evenodd" d="M6.50461 4.84103C6.06735 6.73323 9.86269 6.41798 11.0547 7.62163C11.2823 7.85084 11.5113 8.07391 11.3763 7.49621C10.9487 5.66319 7.32655 6.04377 6.79414 4.85582C6.69308 4.62912 6.59316 4.45703 6.50461 4.84103Z" fill="#A65E4D"/>
<path fill-rule="evenodd" clip-rule="evenodd" d="M4.82002 6.23908C3.70856 8.80959 7.70533 9.16058 8.36929 9.12461C8.83933 9.09889 8.86369 8.88402 8.46603 8.84692C7.05343 8.71421 4.91813 7.71587 5.04946 6.26321C5.07883 5.93043 4.9286 5.98824 4.82002 6.23908Z" fill="#A65E4D"/>
<path fill-rule="evenodd" clip-rule="evenodd" d="M7.00879 4.04028C7.01471 4.06418 7.02153 4.08853 7.02927 4.11266C7.42875 5.37777 9.9922 5.71078 10.8578 4.37898C10.9615 4.21462 11.0299 4.03054 11.0588 3.83838C10.0618 5.6434 7.53072 4.99218 7.00879 4.04028Z" fill="#803B2A"/>
<path fill-rule="evenodd" clip-rule="evenodd" d="M6.02515 5.21204C6.03472 5.47537 6.11429 5.73139 6.25568 5.95375C6.39706 6.17611 6.59515 6.35677 6.82955 6.47714C7.72842 6.90962 10.2254 7.24286 11.3574 8.4415C11.5424 8.63974 11.7529 8.81263 11.9833 8.95569C10.9504 7.65553 10.6039 7.40583 8.57085 6.86774C6.53775 6.32965 6.43782 5.95066 6.02515 5.21204Z" fill="#803B2A"/>
<path fill-rule="evenodd" clip-rule="evenodd" d="M4.13501 7.7124C4.32894 8.34018 4.95307 8.92106 6.16401 9.20786C7.91896 9.6235 10.3144 9.59049 11.8509 8.98684C10.2573 9.26818 5.6373 9.7999 4.13501 7.7124Z" fill="#803B2A"/>
<path fill-rule="evenodd" clip-rule="evenodd" d="M12.7226 3.32784C13.232 3.66017 13.8752 3.81768 13.9271 4.7186C13.979 5.61952 12.9957 7.60709 10.7694 6.28121C8.54301 4.95532 9.70865 2.83846 10.8936 2.56418C12.0946 2.28648 12.3579 3.09066 12.7226 3.32784Z" fill="#BB2B29"/>
<path fill-rule="evenodd" clip-rule="evenodd" d="M12.4993 3.37327C12.9641 3.67646 13.5511 3.82032 13.5985 4.64248C13.6458 5.46464 12.8669 7.08097 10.835 5.87163C8.80299 4.66228 9.74852 2.92737 10.8299 2.67698C11.9262 2.42251 12.1663 3.15612 12.4993 3.37327Z" fill="#D14241"/>
<path fill-rule="evenodd" clip-rule="evenodd" d="M12.685 3.35426C12.8113 3.45623 12.8634 3.601 12.8015 3.67748C12.7396 3.75396 12.5869 3.73347 12.4601 3.63195C12.3333 3.53044 12.2816 3.38521 12.3435 3.30873C12.4054 3.23225 12.5586 3.25228 12.685 3.35426Z" fill="#C9203E"/>
<path fill-rule="evenodd" clip-rule="evenodd" d="M11.1206 3.22255C11.4194 3.08598 12.1068 3.04046 12.2384 3.43674C12.37 3.83303 12.8229 3.83872 12.9809 4.18789C13.1389 4.53706 12.9436 4.51703 12.7194 4.30033C12.4952 4.08364 12.2216 4.1954 11.9682 3.80617C11.7149 3.41694 10.8677 3.43287 11.1206 3.22255Z" fill="#EB5C5C"/>
<path d="M12.633 3.54362C12.626 3.55271 12.6172 3.56022 12.6071 3.56562C12.597 3.57103 12.5858 3.57422 12.5744 3.57497C12.5629 3.57572 12.5515 3.57403 12.5407 3.57C12.53 3.56596 12.5202 3.55969 12.5121 3.55158C12.4985 3.53185 12.4927 3.50771 12.496 3.48394C12.4993 3.46017 12.5114 3.4385 12.5299 3.42321C13.5455 2.34611 14.5059 1.05596 16.0682 1.77524C16.1075 1.79335 16.1379 1.82631 16.1529 1.86686C16.1678 1.90741 16.166 1.95224 16.1479 1.99148C16.1298 2.03072 16.0968 2.06116 16.0563 2.0761C16.0157 2.09104 15.9709 2.08926 15.9317 2.07115C14.7528 1.37076 13.8173 2.26804 12.633 3.54362Z" fill="#80B373"/>
<path fill-rule="evenodd" clip-rule="evenodd" d="M2.48389 10.7852C0.145784 15.8879 8.55336 16.1845 9.94981 16.0502C10.9386 15.9551 10.9898 15.5354 10.1528 15.5012C7.18173 15.3797 2.68988 13.6457 2.96599 10.81C3.03017 10.1594 2.71151 10.2867 2.48389 10.7852Z" fill="#FFB3B3"/>
<path fill-rule="evenodd" clip-rule="evenodd" d="M16.1889 11.2672C17.546 14.0917 12.9165 15.5025 12.1057 15.5066C11.5318 15.5096 11.502 15.269 11.9878 15.1998C13.5848 14.9587 15.5965 12.9536 15.9087 11.3098C15.98 10.9347 16.0565 10.9916 16.1889 11.2672Z" fill="#FF5B59"/>
<path fill-rule="evenodd" clip-rule="evenodd" d="M15.1168 9.56763C15.1871 9.56758 15.2559 9.5884 15.3144 9.62744C15.3729 9.66648 15.4185 9.72199 15.4454 9.78695C15.4724 9.85191 15.4794 9.92341 15.4658 9.99239C15.4521 10.0614 15.4182 10.1247 15.3685 10.1745C15.3188 10.2242 15.2554 10.2581 15.1865 10.2719C15.1175 10.2856 15.046 10.2786 14.981 10.2517C14.916 10.2248 14.8605 10.1792 14.8214 10.1207C14.7823 10.0622 14.7615 9.9935 14.7615 9.92317C14.7617 9.82899 14.7992 9.73873 14.8658 9.67211C14.9324 9.60549 15.0226 9.56793 15.1168 9.56763Z" fill="#FFD74A"/>
<path fill-rule="evenodd" clip-rule="evenodd" d="M14.9964 9.67396C15.0259 9.67364 15.0549 9.68213 15.0796 9.69834C15.1043 9.71455 15.1236 9.73775 15.135 9.76497C15.1465 9.7922 15.1495 9.82221 15.1439 9.85119C15.1382 9.88017 15.124 9.9068 15.1031 9.92769C15.0822 9.94857 15.0556 9.96276 15.0266 9.96844C14.9976 9.97413 14.9676 9.97105 14.9404 9.9596C14.9132 9.94815 14.89 9.92886 14.8738 9.90417C14.8575 9.87949 14.8491 9.85053 14.8494 9.821C14.8493 9.80168 14.8531 9.78255 14.8605 9.76469C14.8679 9.74684 14.8787 9.73062 14.8924 9.71696C14.906 9.7033 14.9223 9.69247 14.9401 9.68509C14.958 9.67771 14.9771 9.67393 14.9964 9.67396Z" fill="#FBEAB5"/>
<path fill-rule="evenodd" clip-rule="evenodd" d="M13.2555 13.2334C13.326 13.2331 13.3951 13.2537 13.454 13.2927C13.5129 13.3316 13.5589 13.3872 13.5862 13.4523C13.6135 13.5174 13.6209 13.5891 13.6074 13.6584C13.5939 13.7277 13.5602 13.7914 13.5105 13.8415C13.4609 13.8917 13.3974 13.926 13.3282 13.94C13.2591 13.9541 13.1873 13.9474 13.1219 13.9207C13.0566 13.8939 13.0007 13.8484 12.9612 13.7899C12.9217 13.7314 12.9005 13.6625 12.9001 13.5919C12.8998 13.4973 12.937 13.4063 13.0036 13.3391C13.0702 13.2719 13.1608 13.2339 13.2555 13.2334Z" fill="#DEEAAB"/>
<path fill-rule="evenodd" clip-rule="evenodd" d="M13.1366 13.3434C13.1657 13.3434 13.1942 13.352 13.2185 13.3681C13.2427 13.3843 13.2616 13.4073 13.2728 13.4342C13.284 13.4611 13.2869 13.4908 13.2812 13.5193C13.2756 13.5479 13.2615 13.5742 13.2409 13.5948C13.2203 13.6154 13.194 13.6294 13.1655 13.6351C13.1369 13.6408 13.1072 13.6379 13.0803 13.6267C13.0534 13.6155 13.0304 13.5966 13.0142 13.5723C12.9981 13.5481 12.9895 13.5196 12.9895 13.4904C12.9893 13.4711 12.9929 13.4518 13.0002 13.4339C13.0075 13.4159 13.0183 13.3996 13.032 13.3859C13.0457 13.3722 13.062 13.3614 13.08 13.3541C13.0979 13.3468 13.1172 13.3432 13.1366 13.3434Z" fill="white"/>
<path fill-rule="evenodd" clip-rule="evenodd" d="M13.5313 11.1061C13.6019 11.1059 13.6709 11.1266 13.7297 11.1656C13.7885 11.2046 13.8345 11.2601 13.8617 11.3253C13.8889 11.3904 13.8963 11.4621 13.8828 11.5313C13.8692 11.6006 13.8355 11.6643 13.7858 11.7144C13.7361 11.7645 13.6726 11.7987 13.6035 11.8128C13.5343 11.8268 13.4625 11.82 13.3972 11.7933C13.3319 11.7666 13.276 11.7211 13.2365 11.6625C13.1971 11.604 13.1759 11.5352 13.1755 11.4646C13.1753 11.4177 13.1843 11.3712 13.2021 11.3277C13.2199 11.2843 13.246 11.2448 13.279 11.2115C13.3121 11.1782 13.3514 11.1518 13.3947 11.1337C13.438 11.1156 13.4844 11.1062 13.5313 11.1061Z" fill="#B6DAE7"/>
<path fill-rule="evenodd" clip-rule="evenodd" d="M13.4117 11.2162C13.4408 11.2162 13.4693 11.2248 13.4936 11.2409C13.5178 11.2571 13.5367 11.28 13.5479 11.307C13.5591 11.3339 13.5621 11.3635 13.5564 11.3921C13.5507 11.4206 13.5367 11.4469 13.5162 11.4675C13.4956 11.4881 13.4693 11.5022 13.4407 11.5079C13.4122 11.5136 13.3825 11.5107 13.3556 11.4995C13.3287 11.4884 13.3057 11.4695 13.2895 11.4453C13.2733 11.4211 13.2647 11.3926 13.2647 11.3635C13.2644 11.3441 13.268 11.3248 13.2753 11.3068C13.2826 11.2889 13.2934 11.2725 13.3071 11.2588C13.3208 11.2451 13.3371 11.2342 13.3551 11.2269C13.3731 11.2196 13.3923 11.216 13.4117 11.2162Z" fill="#DFF2F9"/>
<path fill-rule="evenodd" clip-rule="evenodd" d="M10.076 14.527C10.1463 14.527 10.215 14.5479 10.2735 14.587C10.3319 14.6261 10.3774 14.6816 10.4043 14.7466C10.4312 14.8116 10.4382 14.8831 10.4244 14.952C10.4107 15.021 10.3768 15.0843 10.3271 15.134C10.2773 15.1837 10.214 15.2175 10.145 15.2312C10.0761 15.2449 10.0046 15.2379 9.93964 15.211C9.87469 15.1841 9.81918 15.1385 9.78012 15.08C9.74106 15.0216 9.72021 14.9528 9.72021 14.8825C9.72028 14.7882 9.75779 14.6978 9.8245 14.6311C9.89121 14.5644 9.98166 14.527 10.076 14.527Z" fill="#B6DAE7"/>
<path fill-rule="evenodd" clip-rule="evenodd" d="M9.95663 14.6348C9.98608 14.635 10.0148 14.644 10.0391 14.6606C10.0635 14.6772 10.0823 14.7007 10.0933 14.728C10.1043 14.7553 10.107 14.7853 10.101 14.8141C10.0949 14.8429 10.0805 14.8693 10.0595 14.8899C10.0384 14.9105 10.0118 14.9245 9.98282 14.9299C9.95387 14.9354 9.92397 14.9321 9.89687 14.9206C9.86978 14.909 9.84672 14.8897 9.83062 14.865C9.81452 14.8404 9.80609 14.8115 9.8064 14.782C9.80694 14.7426 9.82303 14.705 9.85117 14.6775C9.87932 14.6499 9.91722 14.6345 9.95663 14.6348Z" fill="#DFF2F9"/>
<path fill-rule="evenodd" clip-rule="evenodd" d="M8.6527 12.8875C8.72348 12.8871 8.7928 12.9077 8.85183 12.9468C8.91086 12.9858 8.95696 13.0416 8.98426 13.1069C9.01155 13.1722 9.01882 13.2441 9.00514 13.3136C8.99147 13.383 8.95746 13.4469 8.90744 13.497C8.85741 13.547 8.79363 13.5811 8.72419 13.5949C8.65475 13.6087 8.58279 13.6015 8.51744 13.5743C8.45209 13.5471 8.3963 13.501 8.35716 13.4421C8.31802 13.3831 8.2973 13.3138 8.29761 13.243C8.29785 13.1489 8.33532 13.0586 8.40185 12.992C8.46838 12.9254 8.55855 12.8878 8.6527 12.8875Z" fill="#FFD74A"/>
<path fill-rule="evenodd" clip-rule="evenodd" d="M8.53304 12.9965C8.56212 12.9965 8.59055 13.0051 8.61474 13.0213C8.63892 13.0374 8.65776 13.0604 8.66889 13.0872C8.68002 13.1141 8.68293 13.1437 8.67726 13.1722C8.67159 13.2007 8.65758 13.2269 8.63702 13.2475C8.61646 13.2681 8.59025 13.2821 8.56173 13.2877C8.5332 13.2934 8.50364 13.2905 8.47677 13.2794C8.4499 13.2682 8.42694 13.2494 8.41078 13.2252C8.39463 13.201 8.386 13.1726 8.386 13.1435C8.38575 13.1241 8.38939 13.1049 8.3967 13.087C8.404 13.069 8.41482 13.0527 8.42852 13.039C8.44223 13.0253 8.45853 13.0145 8.47648 13.0072C8.49443 12.9999 8.51366 12.9962 8.53304 12.9965Z" fill="#FBEAB5"/>
<path fill-rule="evenodd" clip-rule="evenodd" d="M10.8602 10.5492C10.9308 10.5489 11 10.5695 11.0589 10.6085C11.1178 10.6475 11.1638 10.7031 11.1911 10.7682C11.2184 10.8334 11.2258 10.9052 11.2123 10.9745C11.1989 11.0439 11.1651 11.1077 11.1154 11.1578C11.0656 11.208 11.0021 11.2423 10.9329 11.2563C10.8636 11.2704 10.7918 11.2636 10.7264 11.2368C10.661 11.21 10.6051 11.1645 10.5656 11.1059C10.5261 11.0473 10.5049 10.9783 10.5046 10.9077C10.5044 10.8608 10.5134 10.8143 10.5312 10.7709C10.5489 10.7275 10.575 10.688 10.6081 10.6547C10.6411 10.6214 10.6804 10.595 10.7236 10.5768C10.7669 10.5587 10.8133 10.5493 10.8602 10.5492Z" fill="#FFD74A"/>
<path fill-rule="evenodd" clip-rule="evenodd" d="M10.7406 10.6598C10.7697 10.6598 10.7982 10.6684 10.8224 10.6845C10.8467 10.7007 10.8656 10.7237 10.8768 10.7506C10.888 10.7775 10.8909 10.8071 10.8853 10.8357C10.8796 10.8642 10.8656 10.8905 10.845 10.9111C10.8244 10.9317 10.7982 10.9458 10.7696 10.9515C10.741 10.9572 10.7114 10.9543 10.6845 10.9432C10.6576 10.932 10.6345 10.9131 10.6184 10.8889C10.6022 10.8647 10.5935 10.8362 10.5935 10.8071C10.5932 10.7877 10.5968 10.7684 10.6041 10.7504C10.6114 10.7324 10.6222 10.7161 10.6359 10.7023C10.6496 10.6886 10.6659 10.6778 10.6839 10.6705C10.7019 10.6632 10.7212 10.6595 10.7406 10.6598Z" fill="#FBEAB5"/>
<path fill-rule="evenodd" clip-rule="evenodd" d="M3.74226 8.34119C3.81284 8.34092 3.88191 8.36158 3.94075 8.40057C3.99959 8.43955 4.04555 8.4951 4.07281 8.5602C4.10008 8.6253 4.10744 8.69702 4.09395 8.7663C4.08046 8.83558 4.04674 8.8993 3.99704 8.94942C3.94734 8.99953 3.88389 9.03378 3.81473 9.04785C3.74556 9.06191 3.67378 9.05515 3.60846 9.02842C3.54314 9.00169 3.48721 8.95619 3.44774 8.89768C3.40827 8.83917 3.38703 8.77027 3.38672 8.69969C3.38683 8.60516 3.42424 8.51448 3.4908 8.44736C3.55737 8.38024 3.64773 8.34209 3.74226 8.34119Z" fill="#FFD74A"/>
<path fill-rule="evenodd" clip-rule="evenodd" d="M3.62238 8.45119C3.65145 8.45123 3.67986 8.45989 3.70401 8.47608C3.72816 8.49226 3.74697 8.51524 3.75806 8.54212C3.76916 8.56899 3.77204 8.59855 3.76634 8.62706C3.76064 8.65556 3.74662 8.68174 3.72605 8.70228C3.70547 8.72282 3.67927 8.73681 3.65076 8.74246C3.62224 8.74812 3.59268 8.74519 3.56583 8.73406C3.53897 8.72292 3.51602 8.70407 3.49987 8.6799C3.48373 8.65572 3.47511 8.6273 3.47511 8.59823C3.47486 8.57883 3.4785 8.55958 3.48582 8.54162C3.49314 8.52365 3.50398 8.50733 3.51771 8.49363C3.53144 8.47992 3.54778 8.4691 3.56575 8.46181C3.58373 8.45453 3.60298 8.45091 3.62238 8.45119Z" fill="#FBEAB5"/>
<path fill-rule="evenodd" clip-rule="evenodd" d="M4.19563 10.8016C4.26594 10.8016 4.33468 10.8225 4.39315 10.8616C4.45162 10.9006 4.4972 10.9562 4.52411 11.0211C4.55102 11.0861 4.55805 11.1576 4.54433 11.2265C4.53062 11.2955 4.49675 11.3589 4.44703 11.4086C4.39731 11.4583 4.33396 11.4922 4.26499 11.5059C4.19602 11.5196 4.12453 11.5126 4.05957 11.4857C3.9946 11.4587 3.93907 11.4132 3.90001 11.3547C3.86094 11.2962 3.84009 11.2275 3.84009 11.1572C3.84027 11.0629 3.87778 10.9726 3.94442 10.906C4.01106 10.8393 4.10139 10.8018 4.19563 10.8016Z" fill="#B6DAE7"/>
<path fill-rule="evenodd" clip-rule="evenodd" d="M4.07748 10.9089C4.10688 10.9086 4.1357 10.917 4.16032 10.9331C4.18493 10.9492 4.20423 10.9722 4.21577 10.9992C4.22731 11.0263 4.23057 11.0561 4.22515 11.085C4.21972 11.1139 4.20585 11.1405 4.18529 11.1615C4.16473 11.1825 4.13839 11.197 4.10962 11.203C4.08085 11.2091 4.05094 11.2065 4.02366 11.1955C3.99638 11.1845 3.97297 11.1657 3.95638 11.1415C3.93979 11.1172 3.93076 11.0886 3.93044 11.0592C3.93011 11.0396 3.93366 11.0202 3.9409 11.002C3.94813 10.9839 3.95889 10.9673 3.97257 10.9533C3.98625 10.9394 4.00257 10.9282 4.02058 10.9206C4.03859 10.913 4.05793 10.909 4.07748 10.9089Z" fill="#DFF2F9"/>
<path fill-rule="evenodd" clip-rule="evenodd" d="M7.62558 10.5668C7.69623 10.5664 7.76539 10.587 7.82433 10.626C7.88326 10.6649 7.92932 10.7205 7.95668 10.7856C7.98403 10.8507 7.99146 10.9225 7.97801 10.9919C7.96456 11.0612 7.93086 11.125 7.88114 11.1752C7.83143 11.2254 7.76794 11.2597 7.69872 11.2738C7.6295 11.288 7.55765 11.2812 7.49226 11.2545C7.42687 11.2278 7.37088 11.1822 7.33136 11.1237C7.29185 11.0651 7.27059 10.9961 7.27027 10.9255C7.27 10.8786 7.27898 10.8321 7.2967 10.7887C7.31442 10.7453 7.34053 10.7058 7.37353 10.6725C7.40654 10.6391 7.44578 10.6126 7.48903 10.5945C7.53228 10.5764 7.57869 10.567 7.62558 10.5668Z" fill="#D14241"/>
<path fill-rule="evenodd" clip-rule="evenodd" d="M7.50642 10.6773C7.53555 10.6773 7.56404 10.6859 7.58826 10.7021C7.61248 10.7183 7.63136 10.7413 7.6425 10.7682C7.65364 10.7952 7.65654 10.8248 7.65084 10.8533C7.64514 10.8819 7.63108 10.9082 7.61047 10.9288C7.58985 10.9493 7.56359 10.9633 7.53501 10.969C7.50642 10.9747 7.47681 10.9717 7.4499 10.9605C7.42299 10.9493 7.40001 10.9304 7.38385 10.9062C7.3677 10.8819 7.3591 10.8534 7.35915 10.8243C7.35887 10.8049 7.36249 10.7856 7.36979 10.7677C7.3771 10.7497 7.38794 10.7333 7.40168 10.7196C7.41541 10.7059 7.43176 10.6951 7.44975 10.6878C7.46774 10.6806 7.48701 10.677 7.50642 10.6773Z" fill="#F69798"/>
<path fill-rule="evenodd" clip-rule="evenodd" d="M5.78891 12.8184C5.85925 12.8183 5.92802 12.8391 5.98653 12.8782C6.04503 12.9172 6.09063 12.9728 6.11757 13.0377C6.14451 13.1027 6.15157 13.1742 6.13786 13.2432C6.12415 13.3122 6.09028 13.3756 6.04054 13.4253C5.99081 13.475 5.92743 13.5089 5.85844 13.5226C5.78945 13.5363 5.71795 13.5293 5.65297 13.5023C5.588 13.4754 5.53247 13.4298 5.49342 13.3713C5.45437 13.3128 5.43355 13.244 5.43359 13.1737C5.43365 13.0795 5.47111 12.9891 5.53773 12.9225C5.60436 12.8559 5.69469 12.8184 5.78891 12.8184Z" fill="#DEEAAB"/>
<path fill-rule="evenodd" clip-rule="evenodd" d="M5.67048 12.9231C5.70001 12.9228 5.72895 12.9313 5.75363 12.9475C5.77831 12.9637 5.79761 12.9869 5.80907 13.0141C5.82052 13.0413 5.82361 13.0713 5.81794 13.1003C5.81228 13.1292 5.79811 13.1559 5.77725 13.1768C5.75639 13.1976 5.72979 13.2118 5.70082 13.2176C5.67185 13.2233 5.64184 13.2202 5.61462 13.2088C5.58739 13.1974 5.56417 13.1781 5.54794 13.1535C5.5317 13.1288 5.52317 13.0999 5.52344 13.0704C5.52341 13.051 5.5272 13.0319 5.53457 13.014C5.54195 12.9962 5.55277 12.9799 5.56643 12.9663C5.58009 12.9526 5.59631 12.9417 5.61416 12.9343C5.63202 12.9269 5.65116 12.9231 5.67048 12.9231Z" fill="white"/>
<path fill-rule="evenodd" clip-rule="evenodd" d="M13.1393 15.2013C13.21 15.2009 13.2792 15.2216 13.3382 15.2607C13.3972 15.2997 13.4432 15.3554 13.4705 15.4207C13.4977 15.486 13.5049 15.5579 13.4912 15.6273C13.4775 15.6967 13.4435 15.7605 13.3935 15.8105C13.3435 15.8605 13.2798 15.8946 13.2104 15.9083C13.141 15.922 13.0691 15.9149 13.0038 15.8877C12.9385 15.8605 12.8828 15.8145 12.8437 15.7555C12.8046 15.6966 12.7839 15.6273 12.7842 15.5566C12.7845 15.4625 12.822 15.3723 12.8885 15.3058C12.955 15.2392 13.0452 15.2017 13.1393 15.2013Z" fill="#D14241"/>
<path fill-rule="evenodd" clip-rule="evenodd" d="M13.0201 15.3081C13.0495 15.3078 13.0783 15.3162 13.1029 15.3323C13.1276 15.3484 13.1469 15.3714 13.1584 15.3984C13.1699 15.4254 13.1732 15.4553 13.1678 15.4842C13.1623 15.5131 13.1485 15.5397 13.1279 15.5607C13.1074 15.5817 13.081 15.5962 13.0523 15.6022C13.0235 15.6082 12.9936 15.6056 12.9663 15.5947C12.939 15.5837 12.9156 15.5649 12.899 15.5406C12.8824 15.5164 12.8734 15.4877 12.8731 15.4583C12.8728 15.4388 12.8763 15.4194 12.8836 15.4012C12.8908 15.3831 12.9016 15.3665 12.9153 15.3526C12.9289 15.3386 12.9452 15.3275 12.9632 15.3199C12.9812 15.3122 13.0006 15.3082 13.0201 15.3081Z" fill="#F69798"/>
<path fill-rule="evenodd" clip-rule="evenodd" d="M2.96395 14.3127C3.03472 14.3124 3.10398 14.3332 3.16295 14.3723C3.22193 14.4114 3.26795 14.4672 3.29518 14.5325C3.32241 14.5978 3.32961 14.6697 3.31589 14.7392C3.30216 14.8086 3.26811 14.8724 3.21807 14.9224C3.16802 14.9725 3.10424 15.0065 3.03481 15.0202C2.96539 15.034 2.89345 15.0268 2.82813 14.9995C2.76281 14.9723 2.70705 14.9263 2.66793 14.8673C2.6288 14.8083 2.60809 14.7391 2.6084 14.6683C2.60846 14.574 2.64594 14.4836 2.7126 14.4169C2.77927 14.3503 2.86967 14.3128 2.96395 14.3127Z" fill="#FFD74A"/>
<path fill-rule="evenodd" clip-rule="evenodd" d="M2.84468 14.4202C2.8841 14.4202 2.92191 14.4358 2.94978 14.4637C2.97766 14.4916 2.99332 14.5294 2.99332 14.5688C2.99332 14.6082 2.97766 14.646 2.94978 14.6739C2.92191 14.7018 2.8841 14.7174 2.84468 14.7174C2.80526 14.7174 2.76745 14.7018 2.73958 14.6739C2.7117 14.646 2.69604 14.6082 2.69604 14.5688C2.69604 14.5294 2.7117 14.4916 2.73958 14.4637C2.76745 14.4358 2.80526 14.4202 2.84468 14.4202Z" fill="#FBEAB5"/>
</svg>
