<svg width="23" height="31" viewBox="0 0 23 31" fill="none" xmlns="http://www.w3.org/2000/svg">
<path fill-rule="evenodd" clip-rule="evenodd" d="M19.3639 10.0578C19.4549 10.058 19.5438 10.0853 19.6193 10.1361C19.6948 10.187 19.7536 10.259 19.7881 10.3433C19.8227 10.4275 19.8314 10.52 19.8134 10.6093C19.7953 10.6985 19.7511 10.7803 19.6865 10.8444C19.6219 10.9085 19.5397 10.952 19.4504 10.9694C19.361 10.9868 19.2685 10.9774 19.1846 10.9422C19.1006 10.907 19.029 10.8477 18.9788 10.7718C18.9285 10.6959 18.9019 10.6068 18.9023 10.5158C18.9024 10.4554 18.9144 10.3955 18.9376 10.3397C18.9609 10.284 18.9949 10.2333 19.0378 10.1907C19.0807 10.1482 19.1316 10.1145 19.1876 10.0917C19.2435 10.0689 19.3035 10.0573 19.3639 10.0578Z" fill="#DEEAAB"/>
<path fill-rule="evenodd" clip-rule="evenodd" d="M19.2053 10.2012C19.2428 10.2011 19.2796 10.2121 19.3108 10.2329C19.3421 10.2537 19.3665 10.2833 19.381 10.318C19.3954 10.3526 19.3992 10.3908 19.392 10.4277C19.3847 10.4645 19.3666 10.4984 19.3401 10.525C19.3136 10.5515 19.2797 10.5696 19.2429 10.577C19.206 10.5843 19.1679 10.5805 19.1332 10.5662C19.0985 10.5518 19.0688 10.5274 19.048 10.4962C19.0272 10.4649 19.0161 10.4282 19.0161 10.3906C19.0164 10.3405 19.0364 10.2926 19.0718 10.2571C19.1072 10.2216 19.1552 10.2016 19.2053 10.2012Z" fill="#FBEAB5"/>
<path fill-rule="evenodd" clip-rule="evenodd" d="M21.5427 14.0258C21.6331 14.0265 21.7213 14.054 21.7961 14.1048C21.8709 14.1556 21.9291 14.2274 21.9631 14.3112C21.9972 14.395 22.0057 14.487 21.9876 14.5756C21.9695 14.6642 21.9255 14.7455 21.8613 14.8091C21.797 14.8728 21.7154 14.916 21.6266 14.9333C21.5379 14.9507 21.446 14.9413 21.3625 14.9065C21.279 14.8717 21.2077 14.8129 21.1576 14.7377C21.1075 14.6624 21.0808 14.574 21.0808 14.4835C21.0808 14.4231 21.0928 14.3632 21.1161 14.3074C21.1394 14.2516 21.1735 14.201 21.2164 14.1585C21.2594 14.1159 21.3103 14.0823 21.3663 14.0595C21.4223 14.0367 21.4822 14.0253 21.5427 14.0258Z" fill="#D14241"/>
<path fill-rule="evenodd" clip-rule="evenodd" d="M21.3843 14.1629C21.4223 14.1624 21.4596 14.1734 21.4914 14.1943C21.5232 14.2152 21.5481 14.245 21.5628 14.2801C21.5776 14.3152 21.5815 14.3539 21.5742 14.3912C21.5669 14.4285 21.5486 14.4628 21.5217 14.4897C21.4948 14.5166 21.4605 14.5349 21.4232 14.5422C21.3858 14.5496 21.3472 14.5456 21.3121 14.5308C21.277 14.5161 21.2471 14.4912 21.2262 14.4594C21.2054 14.4276 21.1944 14.3903 21.1948 14.3523C21.1957 14.3023 21.2159 14.2546 21.2512 14.2193C21.2866 14.1839 21.3343 14.1637 21.3843 14.1629Z" fill="#FBEAB5"/>
<path fill-rule="evenodd" clip-rule="evenodd" d="M3.66532 10.2665C3.75641 10.2661 3.84555 10.2928 3.92143 10.3432C3.99732 10.3936 4.05652 10.4654 4.09154 10.5495C4.12656 10.6336 4.13582 10.7262 4.11813 10.8156C4.10045 10.9049 4.05662 10.987 3.99221 11.0514C3.9278 11.1158 3.84571 11.1596 3.75635 11.1773C3.667 11.195 3.5744 11.1858 3.49031 11.1507C3.40622 11.1157 3.33443 11.0565 3.28404 10.9806C3.23365 10.9047 3.20693 10.8156 3.20728 10.7245C3.20736 10.6031 3.25564 10.4866 3.34152 10.4007C3.4274 10.3148 3.54387 10.2666 3.66532 10.2665Z" fill="#DEEAAB"/>
<path fill-rule="evenodd" clip-rule="evenodd" d="M3.51148 10.4049C3.54935 10.4045 3.58649 10.4153 3.6182 10.4361C3.64991 10.4568 3.67477 10.4864 3.68964 10.5212C3.7045 10.5561 3.70871 10.5945 3.70172 10.6317C3.69473 10.669 3.67686 10.7033 3.65037 10.7303C3.62388 10.7574 3.58995 10.776 3.55289 10.7838C3.51583 10.7916 3.47729 10.7882 3.44214 10.7741C3.407 10.76 3.37684 10.7357 3.35546 10.7045C3.33409 10.6732 3.32246 10.6363 3.32205 10.5985C3.32162 10.5733 3.3262 10.5482 3.33552 10.5248C3.34483 10.5014 3.3587 10.4801 3.37632 10.4621C3.39395 10.4441 3.41497 10.4298 3.43817 10.42C3.46137 10.4101 3.48629 10.405 3.51148 10.4049Z" fill="white"/>
<path fill-rule="evenodd" clip-rule="evenodd" d="M1.94823 14.7189C2.03884 14.7188 2.12744 14.7456 2.20281 14.7959C2.27818 14.8463 2.33693 14.9178 2.37164 15.0015C2.40634 15.0852 2.41543 15.1773 2.39777 15.2662C2.3801 15.3551 2.33648 15.4367 2.2724 15.5008C2.20833 15.5649 2.12668 15.6085 2.03781 15.6262C1.94893 15.6438 1.8568 15.6347 1.7731 15.6C1.68939 15.5653 1.61785 15.5066 1.56755 15.4312C1.51724 15.3558 1.49042 15.2672 1.49048 15.1766C1.49079 15.0553 1.53911 14.9391 1.62489 14.8533C1.71067 14.7675 1.82692 14.7192 1.94823 14.7189Z" fill="#D14241"/>
<path fill-rule="evenodd" clip-rule="evenodd" d="M1.79468 14.8573C1.83256 14.8569 1.86971 14.8677 1.90143 14.8885C1.93315 14.9092 1.95801 14.9388 1.97287 14.9737C1.98773 15.0085 1.99191 15.047 1.9849 15.0842C1.97788 15.1215 1.95999 15.1558 1.93347 15.1828C1.90695 15.2099 1.873 15.2285 1.83592 15.2362C1.79883 15.244 1.76028 15.2405 1.72515 15.2264C1.69001 15.2122 1.65986 15.188 1.63852 15.1567C1.61718 15.1254 1.6056 15.0884 1.60525 15.0506C1.60486 15.0254 1.60947 15.0004 1.6188 14.977C1.62814 14.9537 1.64201 14.9324 1.65963 14.9144C1.67725 14.8964 1.69826 14.8821 1.72144 14.8723C1.74462 14.8625 1.76951 14.8574 1.79468 14.8573Z" fill="#F69798"/>
<path fill-rule="evenodd" clip-rule="evenodd" d="M19.2487 27.4962C18.8159 28.6562 17.7157 29.5383 16.3662 30.0767C15.07 30.5919 13.4631 30.7804 11.7371 30.7702C10.0111 30.7599 8.40443 30.5582 7.11007 30.0356C5.76556 29.4922 4.67617 28.6099 4.25391 27.4551C3.68072 25.8816 3.10656 24.3086 2.53142 22.7363C1.95628 21.1639 1.38144 19.5902 0.806885 18.0151H22.7773C22.1884 19.5969 21.5996 21.1776 21.0108 22.7574C20.422 24.3372 19.8346 25.9168 19.2487 27.4962Z" fill="#A55D32"/>
<path fill-rule="evenodd" clip-rule="evenodd" d="M11.768 22.9745C12.3328 22.9774 12.7679 23.5369 12.7357 24.2155C12.6854 25.3073 12.6365 26.3986 12.589 27.4895C12.5415 28.5803 12.4918 29.6708 12.4398 30.7609C12.2052 30.7691 11.9738 30.7703 11.736 30.7691C11.4982 30.7679 11.2636 30.765 11.0322 30.7527C10.9926 29.6624 10.9487 28.5718 10.9091 27.4813C10.8695 26.3907 10.8267 25.3019 10.7862 24.2114C10.7607 23.5316 11.2055 22.9745 11.768 22.9745Z" fill="#8F5029"/>
<path fill-rule="evenodd" clip-rule="evenodd" d="M14.8638 22.6489C15.435 22.6654 15.8022 23.2425 15.6875 23.9324C15.5022 25.0387 15.3165 26.1446 15.1304 27.2502C14.9443 28.3557 14.7585 29.4602 14.5732 30.5638C14.0958 30.6475 13.6139 30.7028 13.1299 30.7292C13.2288 29.5855 13.3265 28.4419 13.4231 27.2983C13.5208 26.1546 13.6219 25.0092 13.7196 23.8653C13.7774 23.1818 14.2923 22.6352 14.8638 22.6489Z" fill="#8F5029"/>
<path fill-rule="evenodd" clip-rule="evenodd" d="M18.1042 22.058C18.6865 22.0826 18.9889 22.6844 18.781 23.3934C18.466 24.4684 18.1581 25.542 17.8449 26.6155C17.5317 27.6891 17.2189 28.7609 16.9092 29.8347C16.3951 30.0876 15.854 30.2818 15.2964 30.4136C15.5447 29.2246 15.7929 28.0361 16.0412 26.8481C16.2884 25.6593 16.5371 24.4728 16.7837 23.2826C16.9283 22.5864 17.5244 22.0363 18.1042 22.058Z" fill="#8F5029"/>
<path fill-rule="evenodd" clip-rule="evenodd" d="M17.8164 29.281C18.2208 28.0524 18.6304 26.8258 19.0357 25.598C19.441 24.3702 19.8465 23.1421 20.2529 21.9137C20.4902 21.1964 21.1846 20.6261 21.7974 20.641C21.3734 21.7835 20.9487 22.926 20.5233 24.0684C20.0979 25.2109 19.6731 26.3533 19.2489 27.4958C18.9558 28.2179 18.4578 28.8385 17.8164 29.281Z" fill="#8F5029"/>
<path fill-rule="evenodd" clip-rule="evenodd" d="M1.7627 20.631C2.37117 20.6158 3.0597 21.185 3.29195 21.8993C3.69017 23.1237 4.08633 24.3464 4.48044 25.5674C4.87455 26.7885 5.27072 28.0112 5.66894 29.2356C5.03311 28.7931 4.54114 28.1736 4.25406 27.4541C3.83883 26.3158 3.42361 25.1784 3.00838 24.042L1.7627 20.631Z" fill="#8F5029"/>
<path fill-rule="evenodd" clip-rule="evenodd" d="M5.44031 22.0429C6.02269 22.0209 6.61034 22.5725 6.74963 23.266C6.98832 24.4524 7.22633 25.6377 7.46366 26.8218C7.70099 28.0059 7.939 29.1908 8.1777 30.3764C7.62201 30.2422 7.08331 30.0455 6.57192 29.79C6.26871 28.7214 5.9657 27.6523 5.66288 26.5828C5.36006 25.5133 5.05705 24.4438 4.75384 23.3745C4.55238 22.6669 4.85823 22.066 5.44031 22.0429Z" fill="#8F5029"/>
<path fill-rule="evenodd" clip-rule="evenodd" d="M8.67665 22.6401C9.25023 22.6292 9.75694 23.1737 9.81031 23.8552C9.89965 24.9989 9.98899 26.1425 10.0783 27.2861C10.1671 28.4257 10.2557 29.5676 10.3443 30.7121C9.8605 30.6844 9.37904 30.6249 8.90303 30.5341C8.72494 29.4315 8.54773 28.3292 8.37139 27.2272C8.19506 26.1252 8.01785 25.0225 7.83975 23.9192C7.7292 23.2312 8.10777 22.6565 8.67665 22.6401Z" fill="#8F5029"/>
<path fill-rule="evenodd" clip-rule="evenodd" d="M11.7919 21.9293C17.8423 21.9293 22.7773 20.1698 22.7773 18.0133C22.7773 15.8568 17.8423 14.0974 11.7919 14.0974C5.74152 14.0974 0.806885 15.8568 0.806885 18.0133C0.806885 20.1698 5.74152 21.9293 11.7919 21.9293Z" fill="#C0A1CC"/>
<path fill-rule="evenodd" clip-rule="evenodd" d="M11.7919 7.22449C17.2937 7.22449 21.7535 11.0738 21.7535 15.8223C21.7535 22.604 1.83057 22.765 1.83057 15.8223C1.83057 11.0738 6.29045 7.22449 11.7919 7.22449Z" fill="#CEAFD3"/>
<path fill-rule="evenodd" clip-rule="evenodd" d="M6.34436 6.774C4.83945 7.95165 4.80046 10.3767 8.06011 11.1488C11.3198 11.9209 16.2949 11.4919 17.1957 9.38941C18.0965 7.28688 9.86704 4.01726 6.34436 6.774Z" fill="#9C503C"/>
<path fill-rule="evenodd" clip-rule="evenodd" d="M8.13299 5.22438C7.5427 6.00528 8.06964 7.22398 8.91799 7.63246C10.076 8.18962 13.2928 8.61892 14.7511 10.1631C16.2094 11.7073 18.2251 11.6642 18.2251 9.3051C18.2251 7.9562 17.6254 5.86628 14.8408 4.44026C13.0307 3.51304 9.4948 3.4233 8.13299 5.22438Z" fill="#9C503C"/>
<path fill-rule="evenodd" clip-rule="evenodd" d="M10.1188 0.383408C11.3627 2.09886 8.66053 2.95658 9.17546 4.58641C9.69039 6.21623 12.9926 6.64524 14.1078 4.9295C15.2229 3.21375 12.7782 0.340595 10.1188 0.383408Z" fill="#9C503C"/>
<path fill-rule="evenodd" clip-rule="evenodd" d="M10.762 1.19946C10.9273 1.79239 10.498 2.06041 10.4074 2.34603C10.1467 3.16505 11.2397 3.55945 11.391 2.48884C11.4666 1.95191 11.266 1.22351 10.762 1.19946Z" fill="#A65E4D"/>
<path fill-rule="evenodd" clip-rule="evenodd" d="M8.49904 5.52506C7.93573 7.96276 12.8252 7.55662 14.3609 9.10727C14.6541 9.40256 14.9491 9.68994 14.7752 8.9457C14.2242 6.58424 9.55793 7.07454 8.87205 5.54412C8.74185 5.25205 8.61311 5.03036 8.49904 5.52506Z" fill="#A65E4D"/>
<path fill-rule="evenodd" clip-rule="evenodd" d="M6.32885 7.32633C4.89696 10.6379 10.0459 11.0901 10.9013 11.0437C11.5069 11.0106 11.5382 10.7338 11.026 10.686C9.20611 10.515 6.45523 9.22887 6.62443 7.35742C6.66226 6.9287 6.46872 7.00318 6.32885 7.32633Z" fill="#A65E4D"/>
<path fill-rule="evenodd" clip-rule="evenodd" d="M9.14868 4.49277C9.15631 4.52356 9.1651 4.55494 9.17507 4.58602C9.68971 6.21585 12.9922 6.64485 14.1074 4.92911C14.2409 4.71737 14.3291 4.48023 14.3663 4.23267C13.0819 6.55805 9.82108 5.7191 9.14868 4.49277Z" fill="#803B2A"/>
<path fill-rule="evenodd" clip-rule="evenodd" d="M7.88159 6.00281C7.89392 6.34205 7.99644 6.67188 8.17858 6.95835C8.36073 7.24481 8.61592 7.47756 8.9179 7.63263C10.0759 8.18979 13.2927 8.61909 14.751 10.1633C14.9894 10.4187 15.2606 10.6414 15.5574 10.8257C14.2267 9.15073 13.7804 8.82905 11.1612 8.13583C8.54197 7.44261 8.41324 6.95437 7.88159 6.00281Z" fill="#803B2A"/>
<path fill-rule="evenodd" clip-rule="evenodd" d="M5.44653 9.22485C5.69637 10.0336 6.50044 10.782 8.06047 11.1514C10.3213 11.6869 13.4074 11.6444 15.3868 10.8667C13.3338 11.2291 7.38191 11.9142 5.44653 9.22485Z" fill="#803B2A"/>
<path fill-rule="evenodd" clip-rule="evenodd" d="M16.5096 3.57595C17.1658 4.00408 17.9945 4.207 18.0614 5.36765C18.1283 6.52829 16.8615 9.08885 13.9933 7.38073C11.1251 5.67261 12.6268 2.94549 14.1534 2.59213C15.7005 2.23438 16.0398 3.2704 16.5096 3.57595Z" fill="#BB2B29"/>
<path fill-rule="evenodd" clip-rule="evenodd" d="M16.222 3.6342C16.8208 4.02479 17.577 4.21012 17.638 5.2693C17.699 6.32848 16.6956 8.41077 14.0778 6.85279C11.4601 5.29481 12.6782 3.05974 14.0713 2.73717C15.4836 2.40933 15.793 3.35445 16.222 3.6342Z" fill="#D14241"/>
<path fill-rule="evenodd" clip-rule="evenodd" d="M16.4613 3.61013C16.6241 3.7415 16.6912 3.928 16.6115 4.02653C16.5317 4.12506 16.335 4.09867 16.1716 3.96788C16.0083 3.8371 15.9417 3.65001 16.0215 3.55148C16.1012 3.45295 16.2986 3.47876 16.4613 3.61013Z" fill="#C9203E"/>
<path fill-rule="evenodd" clip-rule="evenodd" d="M14.4458 3.44048C14.8308 3.26454 15.7164 3.20589 15.8859 3.71642C16.0554 4.22695 16.6389 4.23428 16.8424 4.68411C17.0459 5.13394 16.7943 5.10813 16.5055 4.82897C16.2166 4.54981 15.8642 4.69379 15.5378 4.19235C15.2114 3.69091 14.12 3.71143 14.4458 3.44048Z" fill="#EB5C5C"/>
<path d="M16.3942 3.85405C16.3852 3.86577 16.3738 3.87543 16.3608 3.8824C16.3477 3.88936 16.3334 3.89347 16.3187 3.89444C16.3039 3.89541 16.2891 3.89323 16.2753 3.88803C16.2615 3.88283 16.2489 3.87475 16.2385 3.86431C16.2209 3.83889 16.2135 3.80779 16.2177 3.77717C16.222 3.74654 16.2375 3.71862 16.2614 3.69893C17.5698 2.31132 18.807 0.649234 20.8198 1.57587C20.8703 1.5992 20.9095 1.64166 20.9288 1.6939C20.948 1.74615 20.9457 1.8039 20.9224 1.85445C20.8991 1.905 20.8566 1.94421 20.8044 1.96346C20.7521 1.98271 20.6944 1.98041 20.6438 1.95708C19.1251 1.05478 17.9199 2.21074 16.3942 3.85405Z" fill="#80B373"/>
<path fill-rule="evenodd" clip-rule="evenodd" d="M3.31935 13.1833C0.30719 19.7571 11.1386 20.1392 12.9376 19.9662C14.2114 19.8436 14.2774 19.3029 13.1992 19.2589C9.37151 19.1023 3.58472 16.8684 3.94042 13.2152C4.02312 12.3772 3.61259 12.5411 3.31935 13.1833Z" fill="#D9C1DE"/>
<path fill-rule="evenodd" clip-rule="evenodd" d="M20.9755 13.8045C22.7238 17.4433 16.7596 19.2608 15.7151 19.2661C14.9758 19.2699 14.9374 18.9599 15.5632 18.8708C17.6206 18.5602 20.2122 15.9771 20.6145 13.8593C20.7063 13.376 20.8048 13.4494 20.9755 13.8045Z" fill="#C0A1CC"/>
<path fill-rule="evenodd" clip-rule="evenodd" d="M19.5942 11.614C19.6848 11.614 19.7734 11.6408 19.8488 11.6911C19.9241 11.7414 19.9829 11.8129 20.0176 11.8966C20.0523 11.9803 20.0614 12.0724 20.0438 12.1612C20.0262 12.2501 19.9826 12.3317 19.9185 12.3958C19.8545 12.4599 19.7728 12.5036 19.684 12.5213C19.5951 12.539 19.503 12.5299 19.4193 12.4953C19.3356 12.4606 19.264 12.4019 19.2137 12.3266C19.1633 12.2512 19.1365 12.1627 19.1365 12.0721C19.1368 11.9507 19.1851 11.8344 19.2709 11.7486C19.3566 11.6628 19.4729 11.6144 19.5942 11.614Z" fill="#FFD74A"/>
<path fill-rule="evenodd" clip-rule="evenodd" d="M19.439 11.7511C19.477 11.7507 19.5143 11.7616 19.5461 11.7825C19.5779 11.8034 19.6028 11.8333 19.6175 11.8684C19.6323 11.9034 19.6362 11.9421 19.6289 11.9794C19.6216 12.0168 19.6033 12.0511 19.5764 12.078C19.5495 12.1049 19.5152 12.1232 19.4779 12.1305C19.4405 12.1378 19.4018 12.1338 19.3668 12.1191C19.3317 12.1044 19.3018 12.0795 19.2809 12.0477C19.26 12.0159 19.2491 11.9786 19.2495 11.9405C19.2495 11.9157 19.2544 11.891 19.2639 11.868C19.2734 11.845 19.2873 11.8241 19.3049 11.8065C19.3225 11.7889 19.3434 11.775 19.3664 11.7655C19.3894 11.7559 19.4141 11.7511 19.439 11.7511Z" fill="#FBEAB5"/>
<path fill-rule="evenodd" clip-rule="evenodd" d="M17.1963 16.3368C17.2872 16.3364 17.3762 16.363 17.4521 16.4131C17.5279 16.4633 17.5872 16.5349 17.6223 16.6187C17.6575 16.7026 17.667 16.795 17.6497 16.8843C17.6323 16.9736 17.5889 17.0557 17.5249 17.1203C17.4609 17.1849 17.3791 17.229 17.29 17.2472C17.2009 17.2653 17.1084 17.2566 17.0243 17.2222C16.9401 17.1878 16.868 17.1291 16.8172 17.0538C16.7663 16.9784 16.7389 16.8896 16.7385 16.7986C16.7381 16.6767 16.786 16.5596 16.8718 16.473C16.9577 16.3864 17.0743 16.3374 17.1963 16.3368Z" fill="#DEEAAB"/>
<path fill-rule="evenodd" clip-rule="evenodd" d="M17.043 16.479C17.0805 16.479 17.1172 16.49 17.1485 16.5109C17.1797 16.5317 17.2041 16.5613 17.2185 16.596C17.2329 16.6307 17.2367 16.6689 17.2294 16.7057C17.222 16.7425 17.204 16.7763 17.1774 16.8029C17.1509 16.8295 17.117 16.8475 17.0802 16.8548C17.0434 16.8622 17.0052 16.8584 16.9705 16.844C16.9358 16.8296 16.9062 16.8052 16.8854 16.774C16.8645 16.7427 16.8535 16.706 16.8535 16.6685C16.8532 16.6435 16.8579 16.6187 16.8673 16.5956C16.8767 16.5725 16.8906 16.5515 16.9083 16.5338C16.926 16.5161 16.947 16.5022 16.9701 16.4928C16.9932 16.4834 17.018 16.4787 17.043 16.479Z" fill="white"/>
<path fill-rule="evenodd" clip-rule="evenodd" d="M17.5516 13.5967C17.6425 13.5964 17.7315 13.6231 17.8072 13.6733C17.883 13.7236 17.9422 13.7952 17.9772 13.879C18.0123 13.9629 18.0218 14.0553 18.0044 14.1445C17.987 14.2338 17.9435 14.3158 17.8794 14.3804C17.8154 14.4449 17.7337 14.489 17.6446 14.5071C17.5555 14.5252 17.463 14.5164 17.3789 14.482C17.2947 14.4476 17.2227 14.3889 17.1719 14.3136C17.121 14.2382 17.0937 14.1494 17.0933 14.0585C17.093 13.9981 17.1046 13.9382 17.1275 13.8822C17.1504 13.8263 17.184 13.7754 17.2266 13.7325C17.2692 13.6896 17.3198 13.6555 17.3756 13.6322C17.4313 13.6089 17.4912 13.5968 17.5516 13.5967Z" fill="#B6DAE7"/>
<path fill-rule="evenodd" clip-rule="evenodd" d="M17.3975 13.7377C17.435 13.7376 17.4717 13.7487 17.5029 13.7695C17.5342 13.7903 17.5585 13.8199 17.5729 13.8546C17.5874 13.8893 17.5912 13.9274 17.5839 13.9642C17.5766 14.0011 17.5585 14.0349 17.532 14.0615C17.5055 14.088 17.4717 14.1061 17.4349 14.1135C17.3981 14.1208 17.3599 14.1171 17.3252 14.1027C17.2905 14.0884 17.2609 14.0641 17.24 14.0328C17.2191 14.0016 17.208 13.9649 17.208 13.9274C17.2077 13.9024 17.2123 13.8776 17.2217 13.8545C17.2311 13.8313 17.245 13.8103 17.2627 13.7926C17.2804 13.7749 17.3014 13.7609 17.3245 13.7515C17.3477 13.7421 17.3725 13.7374 17.3975 13.7377Z" fill="#DFF2F9"/>
<path fill-rule="evenodd" clip-rule="evenodd" d="M13.1002 18.0038C13.1908 18.0038 13.2793 18.0308 13.3546 18.0811C13.4299 18.1315 13.4885 18.203 13.5231 18.2867C13.5578 18.3704 13.5668 18.4625 13.5491 18.5514C13.5314 18.6402 13.4877 18.7218 13.4237 18.7858C13.3596 18.8498 13.278 18.8934 13.1891 18.9111C13.1003 18.9287 13.0082 18.9196 12.9245 18.885C12.8409 18.8503 12.7693 18.7916 12.719 18.7163C12.6687 18.641 12.6418 18.5524 12.6418 18.4618C12.6419 18.3403 12.6903 18.2238 12.7762 18.1379C12.8621 18.052 12.9787 18.0038 13.1002 18.0038Z" fill="#B6DAE7"/>
<path fill-rule="evenodd" clip-rule="evenodd" d="M12.9465 18.1422C12.9844 18.1426 13.0214 18.1542 13.0527 18.1755C13.0841 18.1969 13.1084 18.2271 13.1226 18.2623C13.1368 18.2975 13.1402 18.3361 13.1324 18.3732C13.1247 18.4104 13.1061 18.4444 13.079 18.4709C13.0519 18.4975 13.0175 18.5154 12.9802 18.5225C12.9429 18.5295 12.9044 18.5253 12.8695 18.5104C12.8346 18.4955 12.8049 18.4706 12.7841 18.4389C12.7634 18.4071 12.7525 18.3699 12.7529 18.3319C12.7536 18.2812 12.7744 18.2328 12.8106 18.1972C12.8469 18.1617 12.8957 18.1419 12.9465 18.1422Z" fill="#DFF2F9"/>
<path fill-rule="evenodd" clip-rule="evenodd" d="M11.2665 15.8915C11.3577 15.891 11.447 15.9176 11.5231 15.9679C11.5991 16.0182 11.6585 16.09 11.6937 16.1741C11.7288 16.2583 11.7382 16.351 11.7206 16.4405C11.703 16.5299 11.6592 16.6122 11.5947 16.6767C11.5303 16.7412 11.4481 16.7851 11.3586 16.8029C11.2692 16.8206 11.1765 16.8114 11.0923 16.7763C11.0081 16.7412 10.9362 16.682 10.8858 16.606C10.8354 16.53 10.8087 16.4407 10.8091 16.3495C10.8094 16.2282 10.8577 16.112 10.9434 16.0262C11.0291 15.9404 11.1453 15.892 11.2665 15.8915Z" fill="#FFD74A"/>
<path fill-rule="evenodd" clip-rule="evenodd" d="M11.1123 16.0311C11.1498 16.0311 11.1864 16.0423 11.2175 16.0631C11.2487 16.0839 11.273 16.1135 11.2873 16.1481C11.3017 16.1827 11.3054 16.2208 11.2981 16.2575C11.2908 16.2943 11.2727 16.328 11.2463 16.3545C11.2198 16.381 11.186 16.3991 11.1493 16.4064C11.1125 16.4137 11.0744 16.4099 11.0398 16.3956C11.0052 16.3813 10.9756 16.357 10.9548 16.3258C10.934 16.2947 10.9229 16.258 10.9229 16.2206C10.9226 16.1956 10.9272 16.1708 10.9366 16.1477C10.9461 16.1246 10.96 16.1036 10.9777 16.0859C10.9953 16.0683 11.0163 16.0543 11.0394 16.0449C11.0626 16.0355 11.0873 16.0308 11.1123 16.0311Z" fill="#FBEAB5"/>
<path fill-rule="evenodd" clip-rule="evenodd" d="M14.1104 12.8783C14.2014 12.8779 14.2905 12.9045 14.3664 12.9547C14.4423 13.005 14.5016 13.0766 14.5367 13.1605C14.5719 13.2444 14.5814 13.3369 14.5641 13.4262C14.5467 13.5156 14.5032 13.5978 14.4391 13.6624C14.375 13.727 14.2932 13.7712 14.204 13.7893C14.1148 13.8074 14.0223 13.7987 13.9381 13.7642C13.8538 13.7297 13.7817 13.671 13.7309 13.5955C13.68 13.52 13.6527 13.4312 13.6523 13.3402C13.652 13.2797 13.6637 13.2198 13.6865 13.1639C13.7094 13.108 13.743 13.0571 13.7856 13.0142C13.8281 12.9713 13.8787 12.9372 13.9345 12.9139C13.9902 12.8906 14.05 12.8785 14.1104 12.8783Z" fill="#FFD74A"/>
<path fill-rule="evenodd" clip-rule="evenodd" d="M13.9563 13.0217C13.9938 13.0217 14.0305 13.0328 14.0618 13.0536C14.093 13.0744 14.1174 13.104 14.1318 13.1387C14.1462 13.1733 14.15 13.2115 14.1427 13.2483C14.1354 13.2851 14.1174 13.319 14.0908 13.3455C14.0643 13.3721 14.0305 13.3902 13.9937 13.3975C13.9569 13.4049 13.9187 13.4011 13.884 13.3868C13.8494 13.3724 13.8197 13.3481 13.7989 13.3169C13.778 13.2857 13.7669 13.249 13.7669 13.2115C13.7665 13.1865 13.7711 13.1616 13.7805 13.1385C13.7898 13.1153 13.8038 13.0942 13.8214 13.0765C13.8391 13.0588 13.8601 13.0449 13.8833 13.0355C13.9065 13.0261 13.9313 13.0214 13.9563 13.0217Z" fill="#FBEAB5"/>
<path fill-rule="evenodd" clip-rule="evenodd" d="M4.94046 10.0338C5.03138 10.0335 5.12037 10.0601 5.19617 10.1103C5.27197 10.1605 5.33118 10.2321 5.36631 10.316C5.40144 10.3998 5.41092 10.4922 5.39354 10.5815C5.37617 10.6707 5.33271 10.7528 5.26869 10.8174C5.20466 10.882 5.12292 10.9261 5.03382 10.9442C4.94472 10.9623 4.85225 10.9536 4.76809 10.9192C4.68394 10.8847 4.61188 10.8261 4.56103 10.7507C4.51018 10.6754 4.48283 10.5866 4.48242 10.4957C4.48257 10.3739 4.53075 10.2571 4.61651 10.1706C4.70227 10.0841 4.81868 10.035 4.94046 10.0338Z" fill="#FFD74A"/>
<path fill-rule="evenodd" clip-rule="evenodd" d="M4.78593 10.1759C4.82339 10.176 4.85998 10.1871 4.89109 10.208C4.92221 10.2288 4.94644 10.2584 4.96073 10.2931C4.97503 10.3277 4.97873 10.3658 4.97139 10.4025C4.96405 10.4392 4.94599 10.4729 4.91949 10.4994C4.89298 10.5259 4.85923 10.5439 4.82249 10.5512C4.78575 10.5585 4.74768 10.5547 4.71308 10.5403C4.67848 10.526 4.64891 10.5017 4.62811 10.4706C4.60731 10.4394 4.59621 10.4028 4.59621 10.3654C4.59589 10.3404 4.60058 10.3156 4.61001 10.2924C4.61943 10.2693 4.63341 10.2483 4.65109 10.2306C4.66878 10.2129 4.68982 10.199 4.71298 10.1896C4.73614 10.1802 4.76094 10.1756 4.78593 10.1759Z" fill="#FBEAB5"/>
<path fill-rule="evenodd" clip-rule="evenodd" d="M5.52444 13.2042C5.61503 13.2042 5.70359 13.2311 5.77891 13.2814C5.85424 13.3317 5.91295 13.4033 5.94762 13.487C5.98229 13.5707 5.99135 13.6628 5.97368 13.7516C5.95601 13.8405 5.91238 13.9221 5.84832 13.9861C5.78426 14.0502 5.70266 14.0938 5.61381 14.1115C5.52495 14.1292 5.43285 14.1201 5.34916 14.0854C5.26546 14.0508 5.19393 13.9921 5.1436 13.9167C5.09327 13.8414 5.06641 13.7529 5.06641 13.6623C5.06664 13.5409 5.11497 13.4245 5.20082 13.3386C5.28667 13.2528 5.40303 13.2045 5.52444 13.2042Z" fill="#B6DAE7"/>
<path fill-rule="evenodd" clip-rule="evenodd" d="M5.37232 13.3425C5.41019 13.3421 5.44732 13.353 5.47904 13.3737C5.51075 13.3944 5.53561 13.424 5.55048 13.4588C5.56534 13.4937 5.56955 13.5321 5.56256 13.5694C5.55557 13.6066 5.5377 13.6409 5.51121 13.668C5.48472 13.695 5.45079 13.7136 5.41373 13.7214C5.37666 13.7292 5.33813 13.7258 5.30298 13.7117C5.26784 13.6976 5.23768 13.6734 5.2163 13.6421C5.19493 13.6108 5.1833 13.5739 5.18289 13.5361C5.18246 13.5109 5.18704 13.4859 5.19636 13.4625C5.20567 13.4391 5.21954 13.4177 5.23716 13.3997C5.25479 13.3817 5.27581 13.3674 5.29901 13.3576C5.32221 13.3478 5.34713 13.3427 5.37232 13.3425Z" fill="#DFF2F9"/>
<path fill-rule="evenodd" clip-rule="evenodd" d="M9.94335 12.901C10.0344 12.9005 10.1235 12.9271 10.1994 12.9773C10.2753 13.0274 10.3347 13.099 10.3699 13.1829C10.4051 13.2668 10.4147 13.3593 10.3974 13.4487C10.3801 13.538 10.3366 13.6202 10.2726 13.6849C10.2085 13.7495 10.1268 13.7937 10.0376 13.8119C9.9484 13.8301 9.85584 13.8214 9.77159 13.787C9.68735 13.7525 9.61522 13.6939 9.56431 13.6184C9.5134 13.543 9.48601 13.4542 9.4856 13.3632C9.48526 13.3027 9.49683 13.2428 9.51965 13.1869C9.54248 13.131 9.57612 13.0801 9.61864 13.0371C9.66116 12.9942 9.71171 12.9601 9.76743 12.9367C9.82315 12.9134 9.88293 12.9012 9.94335 12.901Z" fill="#D14241"/>
<path fill-rule="evenodd" clip-rule="evenodd" d="M9.78984 13.0445C9.82738 13.0445 9.86407 13.0556 9.89528 13.0765C9.92649 13.0973 9.9508 13.127 9.96515 13.1616C9.9795 13.1963 9.98325 13.2345 9.9759 13.2713C9.96856 13.3081 9.95045 13.3419 9.92389 13.3684C9.89733 13.395 9.8635 13.413 9.82668 13.4203C9.78985 13.4276 9.7517 13.4238 9.71703 13.4094C9.68237 13.395 9.65276 13.3706 9.63195 13.3394C9.61114 13.3081 9.60006 13.2714 9.60012 13.2339C9.59976 13.2089 9.60442 13.1841 9.61384 13.1609C9.62325 13.1377 9.63722 13.1167 9.65491 13.099C9.6726 13.0814 9.69366 13.0674 9.71684 13.0581C9.74002 13.0487 9.76484 13.0441 9.78984 13.0445Z" fill="#F69798"/>
<path fill-rule="evenodd" clip-rule="evenodd" d="M7.57713 15.8021C7.66775 15.8021 7.75635 15.8289 7.83172 15.8792C7.90709 15.9295 7.96584 16.001 8.00054 16.0847C8.03525 16.1685 8.04435 16.2606 8.02668 16.3495C8.00902 16.4383 7.96538 16.52 7.90131 16.584C7.83723 16.6481 7.75559 16.6918 7.66671 16.7094C7.57783 16.7271 7.48572 16.718 7.40201 16.6833C7.3183 16.6486 7.24677 16.5898 7.19646 16.5145C7.14615 16.4391 7.11933 16.3505 7.11938 16.2599C7.11946 16.1385 7.16772 16.0221 7.25355 15.9363C7.33938 15.8505 7.45575 15.8022 7.57713 15.8021Z" fill="#DEEAAB"/>
<path fill-rule="evenodd" clip-rule="evenodd" d="M7.42455 15.9368C7.46258 15.9364 7.49987 15.9473 7.53167 15.9682C7.56346 15.989 7.58832 16.0189 7.60308 16.054C7.61783 16.089 7.62181 16.1277 7.61452 16.165C7.60722 16.2023 7.58897 16.2366 7.56209 16.2635C7.53522 16.2905 7.50094 16.3088 7.46363 16.3161C7.42631 16.3235 7.38765 16.3196 7.35257 16.3049C7.31749 16.2902 7.28759 16.2653 7.26667 16.2336C7.24575 16.2018 7.23477 16.1645 7.23512 16.1265C7.23508 16.1016 7.23995 16.0769 7.24945 16.0539C7.25895 16.0309 7.2729 16.01 7.29049 15.9924C7.30809 15.9747 7.32899 15.9608 7.35199 15.9512C7.37499 15.9417 7.39965 15.9368 7.42455 15.9368Z" fill="white"/>
<path fill-rule="evenodd" clip-rule="evenodd" d="M17.0466 18.872C17.1377 18.8715 17.2269 18.8981 17.3029 18.9484C17.3788 18.9988 17.4381 19.0705 17.4732 19.1546C17.5083 19.2387 17.5177 19.3314 17.5 19.4208C17.4824 19.5102 17.4386 19.5923 17.3741 19.6568C17.3097 19.7212 17.2276 19.7651 17.1382 19.7828C17.0488 19.8005 16.9562 19.7912 16.8721 19.7562C16.788 19.7211 16.7162 19.6619 16.6658 19.586C16.6154 19.51 16.5887 19.4208 16.5891 19.3297C16.5895 19.2085 16.6378 19.0923 16.7235 19.0066C16.8092 18.9208 16.9253 18.8724 17.0466 18.872Z" fill="#D14241"/>
<path fill-rule="evenodd" clip-rule="evenodd" d="M16.8931 19.0103C16.9309 19.0099 16.9681 19.0207 16.9998 19.0414C17.0315 19.0621 17.0564 19.0917 17.0712 19.1266C17.0861 19.1614 17.0903 19.1999 17.0833 19.2371C17.0763 19.2743 17.0584 19.3086 17.032 19.3357C17.0055 19.3627 16.9715 19.3813 16.9345 19.3891C16.8974 19.3969 16.8589 19.3935 16.8237 19.3794C16.7886 19.3653 16.7584 19.3411 16.7371 19.3098C16.7157 19.2786 16.704 19.2417 16.7036 19.2038C16.7032 19.1786 16.7079 19.1536 16.7172 19.1302C16.7265 19.1068 16.7404 19.0855 16.758 19.0675C16.7756 19.0495 16.7966 19.0352 16.8198 19.0254C16.843 19.0156 16.8679 19.0104 16.8931 19.0103Z" fill="#F69798"/>
<path fill-rule="evenodd" clip-rule="evenodd" d="M3.93778 17.7271C4.02896 17.7266 4.11819 17.7533 4.19416 17.8037C4.27014 17.8541 4.32943 17.926 4.36451 18.0101C4.39958 18.0943 4.40887 18.187 4.39118 18.2764C4.3735 18.3658 4.32963 18.448 4.26516 18.5125C4.2007 18.5769 4.11852 18.6208 4.02908 18.6385C3.93964 18.6562 3.84697 18.6469 3.76281 18.6118C3.67866 18.5767 3.60682 18.5175 3.55642 18.4415C3.50603 18.3655 3.47934 18.2763 3.47974 18.1851C3.47982 18.0636 3.5281 17.9472 3.61398 17.8613C3.69987 17.7754 3.81633 17.7271 3.93778 17.7271Z" fill="#FFD74A"/>
<path fill-rule="evenodd" clip-rule="evenodd" d="M3.78401 17.8655C3.8348 17.8655 3.88351 17.8857 3.91942 17.9216C3.95533 17.9575 3.9755 18.0062 3.9755 18.057C3.9755 18.1077 3.95533 18.1565 3.91942 18.1924C3.88351 18.2283 3.8348 18.2484 3.78401 18.2484C3.73323 18.2484 3.68452 18.2283 3.64861 18.1924C3.6127 18.1565 3.59253 18.1077 3.59253 18.057C3.59253 18.0062 3.6127 17.9575 3.64861 17.9216C3.68452 17.8857 3.73323 17.8655 3.78401 17.8655Z" fill="#FBEAB5"/>
<path fill-rule="evenodd" clip-rule="evenodd" d="M19.3639 10.0578C19.4549 10.058 19.5438 10.0853 19.6193 10.1361C19.6948 10.187 19.7536 10.259 19.7881 10.3433C19.8227 10.4275 19.8314 10.52 19.8134 10.6093C19.7953 10.6985 19.7511 10.7803 19.6865 10.8444C19.6219 10.9085 19.5397 10.952 19.4504 10.9694C19.361 10.9868 19.2685 10.9774 19.1846 10.9422C19.1006 10.907 19.029 10.8477 18.9788 10.7718C18.9285 10.6959 18.9019 10.6068 18.9023 10.5158C18.9024 10.4554 18.9144 10.3955 18.9376 10.3397C18.9609 10.284 18.9949 10.2333 19.0378 10.1907C19.0807 10.1482 19.1316 10.1145 19.1876 10.0917C19.2435 10.0689 19.3035 10.0573 19.3639 10.0578Z" fill="#DEEAAB"/>
<path fill-rule="evenodd" clip-rule="evenodd" d="M19.2053 10.2012C19.2428 10.2011 19.2796 10.2121 19.3108 10.2329C19.3421 10.2537 19.3665 10.2833 19.381 10.318C19.3954 10.3526 19.3992 10.3908 19.392 10.4277C19.3847 10.4645 19.3666 10.4984 19.3401 10.525C19.3136 10.5515 19.2797 10.5696 19.2429 10.577C19.206 10.5843 19.1679 10.5805 19.1332 10.5662C19.0985 10.5518 19.0688 10.5274 19.048 10.4962C19.0272 10.4649 19.0161 10.4282 19.0161 10.3906C19.0164 10.3405 19.0364 10.2926 19.0718 10.2571C19.1072 10.2216 19.1552 10.2016 19.2053 10.2012Z" fill="#FBEAB5"/>
<path fill-rule="evenodd" clip-rule="evenodd" d="M21.5427 14.0258C21.6331 14.0265 21.7213 14.054 21.7961 14.1048C21.8709 14.1556 21.9291 14.2274 21.9631 14.3112C21.9972 14.395 22.0057 14.487 21.9876 14.5756C21.9695 14.6642 21.9255 14.7455 21.8613 14.8091C21.797 14.8728 21.7154 14.916 21.6266 14.9333C21.5379 14.9507 21.446 14.9413 21.3625 14.9065C21.279 14.8717 21.2077 14.8129 21.1576 14.7377C21.1075 14.6624 21.0808 14.574 21.0808 14.4835C21.0808 14.4231 21.0928 14.3632 21.1161 14.3074C21.1394 14.2516 21.1735 14.201 21.2164 14.1585C21.2594 14.1159 21.3103 14.0823 21.3663 14.0595C21.4223 14.0367 21.4822 14.0253 21.5427 14.0258Z" fill="#D14241"/>
<path fill-rule="evenodd" clip-rule="evenodd" d="M21.3843 14.1629C21.4223 14.1624 21.4596 14.1734 21.4914 14.1943C21.5232 14.2152 21.5481 14.245 21.5628 14.2801C21.5776 14.3152 21.5815 14.3539 21.5742 14.3912C21.5669 14.4285 21.5486 14.4628 21.5217 14.4897C21.4948 14.5166 21.4605 14.5349 21.4232 14.5422C21.3858 14.5496 21.3472 14.5456 21.3121 14.5308C21.277 14.5161 21.2471 14.4912 21.2262 14.4594C21.2054 14.4276 21.1944 14.3903 21.1948 14.3523C21.1957 14.3023 21.2159 14.2546 21.2512 14.2193C21.2866 14.1839 21.3343 14.1637 21.3843 14.1629Z" fill="#FBEAB5"/>
<path fill-rule="evenodd" clip-rule="evenodd" d="M3.66532 10.2665C3.75641 10.2661 3.84555 10.2928 3.92143 10.3432C3.99732 10.3936 4.05652 10.4654 4.09154 10.5495C4.12656 10.6336 4.13582 10.7262 4.11813 10.8156C4.10045 10.9049 4.05662 10.987 3.99221 11.0514C3.9278 11.1158 3.84571 11.1596 3.75635 11.1773C3.667 11.195 3.5744 11.1858 3.49031 11.1507C3.40622 11.1157 3.33443 11.0565 3.28404 10.9806C3.23365 10.9047 3.20693 10.8156 3.20728 10.7245C3.20736 10.6031 3.25564 10.4866 3.34152 10.4007C3.4274 10.3148 3.54387 10.2666 3.66532 10.2665Z" fill="#DEEAAB"/>
<path fill-rule="evenodd" clip-rule="evenodd" d="M3.51148 10.4049C3.54935 10.4045 3.58649 10.4153 3.6182 10.4361C3.64991 10.4568 3.67477 10.4864 3.68964 10.5212C3.7045 10.5561 3.70871 10.5945 3.70172 10.6317C3.69473 10.669 3.67686 10.7033 3.65037 10.7303C3.62388 10.7574 3.58995 10.776 3.55289 10.7838C3.51583 10.7916 3.47729 10.7882 3.44214 10.7741C3.407 10.76 3.37684 10.7357 3.35546 10.7045C3.33409 10.6732 3.32246 10.6363 3.32205 10.5985C3.32162 10.5733 3.3262 10.5482 3.33552 10.5248C3.34483 10.5014 3.3587 10.4801 3.37632 10.4621C3.39395 10.4441 3.41497 10.4298 3.43817 10.42C3.46137 10.4101 3.48629 10.405 3.51148 10.4049Z" fill="white"/>
<path fill-rule="evenodd" clip-rule="evenodd" d="M1.94823 14.7189C2.03884 14.7188 2.12744 14.7456 2.20281 14.7959C2.27818 14.8463 2.33693 14.9178 2.37164 15.0015C2.40634 15.0852 2.41543 15.1773 2.39777 15.2662C2.3801 15.3551 2.33648 15.4367 2.2724 15.5008C2.20833 15.5649 2.12668 15.6085 2.03781 15.6262C1.94893 15.6438 1.8568 15.6347 1.7731 15.6C1.68939 15.5653 1.61785 15.5066 1.56755 15.4312C1.51724 15.3558 1.49042 15.2672 1.49048 15.1766C1.49079 15.0553 1.53911 14.9391 1.62489 14.8533C1.71067 14.7675 1.82692 14.7192 1.94823 14.7189Z" fill="#D14241"/>
<path fill-rule="evenodd" clip-rule="evenodd" d="M1.79468 14.8573C1.83256 14.8569 1.86971 14.8677 1.90143 14.8885C1.93315 14.9092 1.95801 14.9388 1.97287 14.9737C1.98773 15.0085 1.99191 15.047 1.9849 15.0842C1.97788 15.1215 1.95999 15.1558 1.93347 15.1828C1.90695 15.2099 1.873 15.2285 1.83592 15.2362C1.79883 15.244 1.76028 15.2405 1.72515 15.2264C1.69001 15.2122 1.65986 15.188 1.63852 15.1567C1.61718 15.1254 1.6056 15.0884 1.60525 15.0506C1.60486 15.0254 1.60947 15.0004 1.6188 14.977C1.62814 14.9537 1.64201 14.9324 1.65963 14.9144C1.67725 14.8964 1.69826 14.8821 1.72144 14.8723C1.74462 14.8625 1.76951 14.8574 1.79468 14.8573Z" fill="#F69798"/>
<path fill-rule="evenodd" clip-rule="evenodd" d="M19.2487 27.4962C18.8159 28.6562 17.7157 29.5383 16.3662 30.0767C15.07 30.5919 13.4631 30.7804 11.7371 30.7702C10.0111 30.7599 8.40443 30.5582 7.11007 30.0356C5.76556 29.4922 4.67617 28.6099 4.25391 27.4551C3.68072 25.8816 3.10656 24.3086 2.53142 22.7363C1.95628 21.1639 1.38144 19.5902 0.806885 18.0151H22.7773C22.1884 19.5969 21.5996 21.1776 21.0108 22.7574C20.422 24.3372 19.8346 25.9168 19.2487 27.4962Z" fill="#F2D0BC"/>
<path fill-rule="evenodd" clip-rule="evenodd" d="M11.768 22.9745C12.3328 22.9774 12.7679 23.5369 12.7357 24.2155C12.6854 25.3073 12.6365 26.3986 12.589 27.4895C12.5415 28.5803 12.4918 29.6708 12.4398 30.7609C12.2052 30.7691 11.9738 30.7703 11.736 30.7691C11.4982 30.7679 11.2636 30.765 11.0322 30.7527C10.9926 29.6624 10.9487 28.5718 10.9091 27.4813C10.8695 26.3907 10.8267 25.3019 10.7862 24.2114C10.7607 23.5316 11.2055 22.9745 11.768 22.9745Z" fill="#EDAA80"/>
<path fill-rule="evenodd" clip-rule="evenodd" d="M14.8638 22.6489C15.435 22.6654 15.8022 23.2425 15.6875 23.9324C15.5022 25.0387 15.3165 26.1446 15.1304 27.2502C14.9443 28.3557 14.7585 29.4602 14.5732 30.5638C14.0958 30.6475 13.6139 30.7028 13.1299 30.7292C13.2288 29.5855 13.3265 28.4419 13.4231 27.2983C13.5208 26.1546 13.6219 25.0092 13.7196 23.8653C13.7774 23.1818 14.2923 22.6352 14.8638 22.6489Z" fill="#EDAA80"/>
<path fill-rule="evenodd" clip-rule="evenodd" d="M18.1042 22.058C18.6865 22.0826 18.9889 22.6844 18.781 23.3934C18.466 24.4684 18.1581 25.542 17.8449 26.6155C17.5317 27.6891 17.2189 28.7609 16.9092 29.8347C16.3951 30.0876 15.854 30.2818 15.2964 30.4136C15.5447 29.2246 15.7929 28.0361 16.0412 26.8481C16.2884 25.6593 16.5371 24.4728 16.7837 23.2826C16.9283 22.5864 17.5244 22.0363 18.1042 22.058Z" fill="#EDAA80"/>
<path fill-rule="evenodd" clip-rule="evenodd" d="M17.8164 29.281C18.2208 28.0524 18.6304 26.8258 19.0357 25.598C19.441 24.3702 19.8465 23.1421 20.2529 21.9137C20.4902 21.1964 21.1846 20.6261 21.7974 20.641C21.3734 21.7835 20.9487 22.926 20.5233 24.0684C20.0979 25.2109 19.6731 26.3533 19.2489 27.4958C18.9558 28.2179 18.4578 28.8385 17.8164 29.281Z" fill="#EDAA80"/>
<path fill-rule="evenodd" clip-rule="evenodd" d="M1.7627 20.631C2.37117 20.6158 3.0597 21.185 3.29195 21.8993C3.69017 23.1237 4.08633 24.3464 4.48044 25.5674C4.87455 26.7885 5.27072 28.0112 5.66894 29.2356C5.03311 28.7931 4.54114 28.1736 4.25406 27.4541C3.83883 26.3158 3.42361 25.1784 3.00838 24.042L1.7627 20.631Z" fill="#EDAA80"/>
<path fill-rule="evenodd" clip-rule="evenodd" d="M5.44031 22.0429C6.02269 22.0209 6.61034 22.5725 6.74963 23.266C6.98832 24.4524 7.22633 25.6377 7.46366 26.8218C7.70099 28.0059 7.939 29.1908 8.1777 30.3764C7.62201 30.2422 7.08331 30.0455 6.57192 29.79C6.26871 28.7214 5.9657 27.6523 5.66288 26.5828C5.36006 25.5133 5.05705 24.4438 4.75384 23.3745C4.55238 22.6669 4.85823 22.066 5.44031 22.0429Z" fill="#EDAA80"/>
<path fill-rule="evenodd" clip-rule="evenodd" d="M8.67665 22.6401C9.25023 22.6292 9.75694 23.1737 9.81031 23.8552C9.89965 24.9989 9.98899 26.1425 10.0783 27.2861C10.1671 28.4257 10.2557 29.5676 10.3443 30.7121C9.8605 30.6844 9.37904 30.6249 8.90303 30.5341C8.72494 29.4315 8.54773 28.3292 8.37139 27.2272C8.19506 26.1252 8.01785 25.0225 7.83975 23.9192C7.7292 23.2312 8.10777 22.6565 8.67665 22.6401Z" fill="#EDAA80"/>
<path fill-rule="evenodd" clip-rule="evenodd" d="M11.7919 21.9293C17.8423 21.9293 22.7773 20.1698 22.7773 18.0133C22.7773 15.8568 17.8423 14.0974 11.7919 14.0974C5.74152 14.0974 0.806885 15.8568 0.806885 18.0133C0.806885 20.1698 5.74152 21.9293 11.7919 21.9293Z" fill="#FF5B59"/>
<path fill-rule="evenodd" clip-rule="evenodd" d="M11.7919 7.22449C17.2937 7.22449 21.7535 11.0738 21.7535 15.8223C21.7535 22.604 1.83057 22.765 1.83057 15.8223C1.83057 11.0738 6.29045 7.22449 11.7919 7.22449Z" fill="#F6908F"/>
<path fill-rule="evenodd" clip-rule="evenodd" d="M6.34436 6.774C4.83945 7.95165 4.80046 10.3767 8.06011 11.1488C11.3198 11.9209 16.2949 11.4919 17.1957 9.38941C18.0965 7.28688 9.86704 4.01726 6.34436 6.774Z" fill="#9C503C"/>
<path fill-rule="evenodd" clip-rule="evenodd" d="M8.13299 5.22438C7.5427 6.00528 8.06964 7.22398 8.91799 7.63246C10.076 8.18962 13.2928 8.61892 14.7511 10.1631C16.2094 11.7073 18.2251 11.6642 18.2251 9.3051C18.2251 7.9562 17.6254 5.86628 14.8408 4.44026C13.0307 3.51304 9.4948 3.4233 8.13299 5.22438Z" fill="#9C503C"/>
<path fill-rule="evenodd" clip-rule="evenodd" d="M10.1188 0.383408C11.3627 2.09886 8.66053 2.95658 9.17546 4.58641C9.69039 6.21623 12.9926 6.64524 14.1078 4.9295C15.2229 3.21375 12.7782 0.340595 10.1188 0.383408Z" fill="#9C503C"/>
<path fill-rule="evenodd" clip-rule="evenodd" d="M10.762 1.19946C10.9273 1.79239 10.498 2.06041 10.4074 2.34603C10.1467 3.16505 11.2397 3.55945 11.391 2.48884C11.4666 1.95191 11.266 1.22351 10.762 1.19946Z" fill="#A65E4D"/>
<path fill-rule="evenodd" clip-rule="evenodd" d="M8.49904 5.52506C7.93573 7.96276 12.8252 7.55662 14.3609 9.10727C14.6541 9.40256 14.9491 9.68994 14.7752 8.9457C14.2242 6.58424 9.55793 7.07454 8.87205 5.54412C8.74185 5.25205 8.61311 5.03036 8.49904 5.52506Z" fill="#A65E4D"/>
<path fill-rule="evenodd" clip-rule="evenodd" d="M6.32885 7.32633C4.89696 10.6379 10.0459 11.0901 10.9013 11.0437C11.5069 11.0106 11.5382 10.7338 11.026 10.686C9.20611 10.515 6.45523 9.22887 6.62443 7.35742C6.66226 6.9287 6.46872 7.00318 6.32885 7.32633Z" fill="#A65E4D"/>
<path fill-rule="evenodd" clip-rule="evenodd" d="M9.14868 4.49277C9.15631 4.52356 9.1651 4.55494 9.17507 4.58602C9.68971 6.21585 12.9922 6.64485 14.1074 4.92911C14.2409 4.71737 14.3291 4.48023 14.3663 4.23267C13.0819 6.55805 9.82108 5.7191 9.14868 4.49277Z" fill="#803B2A"/>
<path fill-rule="evenodd" clip-rule="evenodd" d="M7.88159 6.00281C7.89392 6.34205 7.99644 6.67188 8.17858 6.95835C8.36073 7.24481 8.61592 7.47756 8.9179 7.63263C10.0759 8.18979 13.2927 8.61909 14.751 10.1633C14.9894 10.4187 15.2606 10.6414 15.5574 10.8257C14.2267 9.15073 13.7804 8.82905 11.1612 8.13583C8.54197 7.44261 8.41324 6.95437 7.88159 6.00281Z" fill="#803B2A"/>
<path fill-rule="evenodd" clip-rule="evenodd" d="M5.44653 9.22485C5.69637 10.0336 6.50044 10.782 8.06047 11.1514C10.3213 11.6869 13.4074 11.6444 15.3868 10.8667C13.3338 11.2291 7.38191 11.9142 5.44653 9.22485Z" fill="#803B2A"/>
<path fill-rule="evenodd" clip-rule="evenodd" d="M16.5096 3.57595C17.1658 4.00408 17.9945 4.207 18.0614 5.36765C18.1283 6.52829 16.8615 9.08885 13.9933 7.38073C11.1251 5.67261 12.6268 2.94549 14.1534 2.59213C15.7005 2.23438 16.0398 3.2704 16.5096 3.57595Z" fill="#BB2B29"/>
<path fill-rule="evenodd" clip-rule="evenodd" d="M16.222 3.6342C16.8208 4.02479 17.577 4.21012 17.638 5.2693C17.699 6.32848 16.6956 8.41077 14.0778 6.85279C11.4601 5.29481 12.6782 3.05974 14.0713 2.73717C15.4836 2.40933 15.793 3.35445 16.222 3.6342Z" fill="#D14241"/>
<path fill-rule="evenodd" clip-rule="evenodd" d="M16.4613 3.61013C16.6241 3.7415 16.6912 3.928 16.6115 4.02653C16.5317 4.12506 16.335 4.09867 16.1716 3.96788C16.0083 3.8371 15.9417 3.65001 16.0215 3.55148C16.1012 3.45295 16.2986 3.47876 16.4613 3.61013Z" fill="#C9203E"/>
<path fill-rule="evenodd" clip-rule="evenodd" d="M14.4458 3.44048C14.8308 3.26454 15.7164 3.20589 15.8859 3.71642C16.0554 4.22695 16.6389 4.23428 16.8424 4.68411C17.0459 5.13394 16.7943 5.10813 16.5055 4.82897C16.2166 4.54981 15.8642 4.69379 15.5378 4.19235C15.2114 3.69091 14.12 3.71143 14.4458 3.44048Z" fill="#EB5C5C"/>
<path d="M16.3942 3.85405C16.3852 3.86577 16.3738 3.87543 16.3608 3.8824C16.3477 3.88936 16.3334 3.89347 16.3187 3.89444C16.3039 3.89541 16.2891 3.89323 16.2753 3.88803C16.2615 3.88283 16.2489 3.87475 16.2385 3.86431C16.2209 3.83889 16.2135 3.80779 16.2177 3.77717C16.222 3.74654 16.2375 3.71862 16.2614 3.69893C17.5698 2.31132 18.807 0.649234 20.8198 1.57587C20.8703 1.5992 20.9095 1.64166 20.9288 1.6939C20.948 1.74615 20.9457 1.8039 20.9224 1.85445C20.8991 1.905 20.8566 1.94421 20.8044 1.96346C20.7521 1.98271 20.6944 1.98041 20.6438 1.95708C19.1251 1.05478 17.9199 2.21074 16.3942 3.85405Z" fill="#80B373"/>
<path fill-rule="evenodd" clip-rule="evenodd" d="M3.31935 13.1833C0.30719 19.7571 11.1386 20.1392 12.9376 19.9662C14.2114 19.8436 14.2774 19.3029 13.1992 19.2589C9.37151 19.1023 3.58472 16.8684 3.94042 13.2152C4.02312 12.3772 3.61259 12.5411 3.31935 13.1833Z" fill="#FFB3B3"/>
<path fill-rule="evenodd" clip-rule="evenodd" d="M20.9755 13.8045C22.7238 17.4433 16.7596 19.2608 15.7151 19.2661C14.9758 19.2699 14.9374 18.9599 15.5632 18.8708C17.6206 18.5602 20.2122 15.9771 20.6145 13.8593C20.7063 13.376 20.8048 13.4494 20.9755 13.8045Z" fill="#FF5B59"/>
<path fill-rule="evenodd" clip-rule="evenodd" d="M19.5942 11.614C19.6848 11.614 19.7734 11.6408 19.8488 11.6911C19.9241 11.7414 19.9829 11.8129 20.0176 11.8966C20.0523 11.9803 20.0614 12.0724 20.0438 12.1612C20.0262 12.2501 19.9826 12.3317 19.9185 12.3958C19.8545 12.4599 19.7728 12.5036 19.684 12.5213C19.5951 12.539 19.503 12.5299 19.4193 12.4953C19.3356 12.4606 19.264 12.4019 19.2137 12.3266C19.1633 12.2512 19.1365 12.1627 19.1365 12.0721C19.1368 11.9507 19.1851 11.8344 19.2709 11.7486C19.3566 11.6628 19.4729 11.6144 19.5942 11.614Z" fill="#FFD74A"/>
<path fill-rule="evenodd" clip-rule="evenodd" d="M19.439 11.7511C19.477 11.7507 19.5143 11.7616 19.5461 11.7825C19.5779 11.8034 19.6028 11.8333 19.6175 11.8684C19.6323 11.9034 19.6362 11.9421 19.6289 11.9794C19.6216 12.0168 19.6033 12.0511 19.5764 12.078C19.5495 12.1049 19.5152 12.1232 19.4779 12.1305C19.4405 12.1378 19.4018 12.1338 19.3668 12.1191C19.3317 12.1044 19.3018 12.0795 19.2809 12.0477C19.26 12.0159 19.2491 11.9786 19.2495 11.9405C19.2495 11.9157 19.2544 11.891 19.2639 11.868C19.2734 11.845 19.2873 11.8241 19.3049 11.8065C19.3225 11.7889 19.3434 11.775 19.3664 11.7655C19.3894 11.7559 19.4141 11.7511 19.439 11.7511Z" fill="#FBEAB5"/>
<path fill-rule="evenodd" clip-rule="evenodd" d="M17.1963 16.3368C17.2872 16.3364 17.3762 16.363 17.4521 16.4131C17.5279 16.4633 17.5872 16.5349 17.6223 16.6187C17.6575 16.7026 17.667 16.795 17.6497 16.8843C17.6323 16.9736 17.5889 17.0557 17.5249 17.1203C17.4609 17.1849 17.3791 17.229 17.29 17.2472C17.2009 17.2653 17.1084 17.2566 17.0243 17.2222C16.9401 17.1878 16.868 17.1291 16.8172 17.0538C16.7663 16.9784 16.7389 16.8896 16.7385 16.7986C16.7381 16.6767 16.786 16.5596 16.8718 16.473C16.9577 16.3864 17.0743 16.3374 17.1963 16.3368Z" fill="#DEEAAB"/>
<path fill-rule="evenodd" clip-rule="evenodd" d="M17.043 16.479C17.0805 16.479 17.1172 16.49 17.1485 16.5109C17.1797 16.5317 17.2041 16.5613 17.2185 16.596C17.2329 16.6307 17.2367 16.6689 17.2294 16.7057C17.222 16.7425 17.204 16.7763 17.1774 16.8029C17.1509 16.8295 17.117 16.8475 17.0802 16.8548C17.0434 16.8622 17.0052 16.8584 16.9705 16.844C16.9358 16.8296 16.9062 16.8052 16.8854 16.774C16.8645 16.7427 16.8535 16.706 16.8535 16.6685C16.8532 16.6435 16.8579 16.6187 16.8673 16.5956C16.8767 16.5725 16.8906 16.5515 16.9083 16.5338C16.926 16.5161 16.947 16.5022 16.9701 16.4928C16.9932 16.4834 17.018 16.4787 17.043 16.479Z" fill="white"/>
<path fill-rule="evenodd" clip-rule="evenodd" d="M17.5516 13.5967C17.6425 13.5964 17.7315 13.6231 17.8072 13.6733C17.883 13.7236 17.9422 13.7952 17.9772 13.879C18.0123 13.9629 18.0218 14.0553 18.0044 14.1445C17.987 14.2338 17.9435 14.3158 17.8794 14.3804C17.8154 14.4449 17.7337 14.489 17.6446 14.5071C17.5555 14.5252 17.463 14.5164 17.3789 14.482C17.2947 14.4476 17.2227 14.3889 17.1719 14.3136C17.121 14.2382 17.0937 14.1494 17.0933 14.0585C17.093 13.9981 17.1046 13.9382 17.1275 13.8822C17.1504 13.8263 17.184 13.7754 17.2266 13.7325C17.2692 13.6896 17.3198 13.6555 17.3756 13.6322C17.4313 13.6089 17.4912 13.5968 17.5516 13.5967Z" fill="#B6DAE7"/>
<path fill-rule="evenodd" clip-rule="evenodd" d="M17.3975 13.7377C17.435 13.7376 17.4717 13.7487 17.5029 13.7695C17.5342 13.7903 17.5585 13.8199 17.5729 13.8546C17.5874 13.8893 17.5912 13.9274 17.5839 13.9642C17.5766 14.0011 17.5585 14.0349 17.532 14.0615C17.5055 14.088 17.4717 14.1061 17.4349 14.1135C17.3981 14.1208 17.3599 14.1171 17.3252 14.1027C17.2905 14.0884 17.2609 14.0641 17.24 14.0328C17.2191 14.0016 17.208 13.9649 17.208 13.9274C17.2077 13.9024 17.2123 13.8776 17.2217 13.8545C17.2311 13.8313 17.245 13.8103 17.2627 13.7926C17.2804 13.7749 17.3014 13.7609 17.3245 13.7515C17.3477 13.7421 17.3725 13.7374 17.3975 13.7377Z" fill="#DFF2F9"/>
<path fill-rule="evenodd" clip-rule="evenodd" d="M13.1002 18.0038C13.1908 18.0038 13.2793 18.0308 13.3546 18.0811C13.4299 18.1315 13.4885 18.203 13.5231 18.2867C13.5578 18.3704 13.5668 18.4625 13.5491 18.5514C13.5314 18.6402 13.4877 18.7218 13.4237 18.7858C13.3596 18.8498 13.278 18.8934 13.1891 18.9111C13.1003 18.9287 13.0082 18.9196 12.9245 18.885C12.8409 18.8503 12.7693 18.7916 12.719 18.7163C12.6687 18.641 12.6418 18.5524 12.6418 18.4618C12.6419 18.3403 12.6903 18.2238 12.7762 18.1379C12.8621 18.052 12.9787 18.0038 13.1002 18.0038Z" fill="#B6DAE7"/>
<path fill-rule="evenodd" clip-rule="evenodd" d="M12.9465 18.1422C12.9844 18.1426 13.0214 18.1542 13.0527 18.1755C13.0841 18.1969 13.1084 18.2271 13.1226 18.2623C13.1368 18.2975 13.1402 18.3361 13.1324 18.3732C13.1247 18.4104 13.1061 18.4444 13.079 18.4709C13.0519 18.4975 13.0175 18.5154 12.9802 18.5225C12.9429 18.5295 12.9044 18.5253 12.8695 18.5104C12.8346 18.4955 12.8049 18.4706 12.7841 18.4389C12.7634 18.4071 12.7525 18.3699 12.7529 18.3319C12.7536 18.2812 12.7744 18.2328 12.8106 18.1972C12.8469 18.1617 12.8957 18.1419 12.9465 18.1422Z" fill="#DFF2F9"/>
<path fill-rule="evenodd" clip-rule="evenodd" d="M11.2665 15.8915C11.3577 15.891 11.447 15.9176 11.5231 15.9679C11.5991 16.0182 11.6585 16.09 11.6937 16.1741C11.7288 16.2583 11.7382 16.351 11.7206 16.4405C11.703 16.5299 11.6592 16.6122 11.5947 16.6767C11.5303 16.7412 11.4481 16.7851 11.3586 16.8029C11.2692 16.8206 11.1765 16.8114 11.0923 16.7763C11.0081 16.7412 10.9362 16.682 10.8858 16.606C10.8354 16.53 10.8087 16.4407 10.8091 16.3495C10.8094 16.2282 10.8577 16.112 10.9434 16.0262C11.0291 15.9404 11.1453 15.892 11.2665 15.8915Z" fill="#FFD74A"/>
<path fill-rule="evenodd" clip-rule="evenodd" d="M11.1123 16.0311C11.1498 16.0311 11.1864 16.0423 11.2175 16.0631C11.2487 16.0839 11.273 16.1135 11.2873 16.1481C11.3017 16.1827 11.3054 16.2208 11.2981 16.2575C11.2908 16.2943 11.2727 16.328 11.2463 16.3545C11.2198 16.381 11.186 16.3991 11.1493 16.4064C11.1125 16.4137 11.0744 16.4099 11.0398 16.3956C11.0052 16.3813 10.9756 16.357 10.9548 16.3258C10.934 16.2947 10.9229 16.258 10.9229 16.2206C10.9226 16.1956 10.9272 16.1708 10.9366 16.1477C10.9461 16.1246 10.96 16.1036 10.9777 16.0859C10.9953 16.0683 11.0163 16.0543 11.0394 16.0449C11.0626 16.0355 11.0873 16.0308 11.1123 16.0311Z" fill="#FBEAB5"/>
<path fill-rule="evenodd" clip-rule="evenodd" d="M14.1104 12.8783C14.2014 12.8779 14.2905 12.9045 14.3664 12.9547C14.4423 13.005 14.5016 13.0766 14.5367 13.1605C14.5719 13.2444 14.5814 13.3369 14.5641 13.4262C14.5467 13.5156 14.5032 13.5978 14.4391 13.6624C14.375 13.727 14.2932 13.7712 14.204 13.7893C14.1148 13.8074 14.0223 13.7987 13.9381 13.7642C13.8538 13.7297 13.7817 13.671 13.7309 13.5955C13.68 13.52 13.6527 13.4312 13.6523 13.3402C13.652 13.2797 13.6637 13.2198 13.6865 13.1639C13.7094 13.108 13.743 13.0571 13.7856 13.0142C13.8281 12.9713 13.8787 12.9372 13.9345 12.9139C13.9902 12.8906 14.05 12.8785 14.1104 12.8783Z" fill="#FFD74A"/>
<path fill-rule="evenodd" clip-rule="evenodd" d="M13.9563 13.0217C13.9938 13.0217 14.0305 13.0328 14.0618 13.0536C14.093 13.0744 14.1174 13.104 14.1318 13.1387C14.1462 13.1733 14.15 13.2115 14.1427 13.2483C14.1354 13.2851 14.1174 13.319 14.0908 13.3455C14.0643 13.3721 14.0305 13.3902 13.9937 13.3975C13.9569 13.4049 13.9187 13.4011 13.884 13.3868C13.8494 13.3724 13.8197 13.3481 13.7989 13.3169C13.778 13.2857 13.7669 13.249 13.7669 13.2115C13.7665 13.1865 13.7711 13.1616 13.7805 13.1385C13.7898 13.1153 13.8038 13.0942 13.8214 13.0765C13.8391 13.0588 13.8601 13.0449 13.8833 13.0355C13.9065 13.0261 13.9313 13.0214 13.9563 13.0217Z" fill="#FBEAB5"/>
<path fill-rule="evenodd" clip-rule="evenodd" d="M4.94046 10.0338C5.03138 10.0335 5.12037 10.0601 5.19617 10.1103C5.27197 10.1605 5.33118 10.2321 5.36631 10.316C5.40144 10.3998 5.41092 10.4922 5.39354 10.5815C5.37617 10.6707 5.33271 10.7528 5.26869 10.8174C5.20466 10.882 5.12292 10.9261 5.03382 10.9442C4.94472 10.9623 4.85225 10.9536 4.76809 10.9192C4.68394 10.8847 4.61188 10.8261 4.56103 10.7507C4.51018 10.6754 4.48283 10.5866 4.48242 10.4957C4.48257 10.3739 4.53075 10.2571 4.61651 10.1706C4.70227 10.0841 4.81868 10.035 4.94046 10.0338Z" fill="#FFD74A"/>
<path fill-rule="evenodd" clip-rule="evenodd" d="M4.78593 10.1759C4.82339 10.176 4.85998 10.1871 4.89109 10.208C4.92221 10.2288 4.94644 10.2584 4.96073 10.2931C4.97503 10.3277 4.97873 10.3658 4.97139 10.4025C4.96405 10.4392 4.94599 10.4729 4.91949 10.4994C4.89298 10.5259 4.85923 10.5439 4.82249 10.5512C4.78575 10.5585 4.74768 10.5547 4.71308 10.5403C4.67848 10.526 4.64891 10.5017 4.62811 10.4706C4.60731 10.4394 4.59621 10.4028 4.59621 10.3654C4.59589 10.3404 4.60058 10.3156 4.61001 10.2924C4.61943 10.2693 4.63341 10.2483 4.65109 10.2306C4.66878 10.2129 4.68982 10.199 4.71298 10.1896C4.73614 10.1802 4.76094 10.1756 4.78593 10.1759Z" fill="#FBEAB5"/>
<path fill-rule="evenodd" clip-rule="evenodd" d="M5.52444 13.2042C5.61503 13.2042 5.70359 13.2311 5.77891 13.2814C5.85424 13.3317 5.91295 13.4033 5.94762 13.487C5.98229 13.5707 5.99135 13.6628 5.97368 13.7516C5.95601 13.8405 5.91238 13.9221 5.84832 13.9861C5.78426 14.0502 5.70266 14.0938 5.61381 14.1115C5.52495 14.1292 5.43285 14.1201 5.34916 14.0854C5.26546 14.0508 5.19393 13.9921 5.1436 13.9167C5.09327 13.8414 5.06641 13.7529 5.06641 13.6623C5.06664 13.5409 5.11497 13.4245 5.20082 13.3386C5.28667 13.2528 5.40303 13.2045 5.52444 13.2042Z" fill="#B6DAE7"/>
<path fill-rule="evenodd" clip-rule="evenodd" d="M5.37232 13.3425C5.41019 13.3421 5.44732 13.353 5.47904 13.3737C5.51075 13.3944 5.53561 13.424 5.55048 13.4588C5.56534 13.4937 5.56955 13.5321 5.56256 13.5694C5.55557 13.6066 5.5377 13.6409 5.51121 13.668C5.48472 13.695 5.45079 13.7136 5.41373 13.7214C5.37666 13.7292 5.33813 13.7258 5.30298 13.7117C5.26784 13.6976 5.23768 13.6734 5.2163 13.6421C5.19493 13.6108 5.1833 13.5739 5.18289 13.5361C5.18246 13.5109 5.18704 13.4859 5.19636 13.4625C5.20567 13.4391 5.21954 13.4177 5.23716 13.3997C5.25479 13.3817 5.27581 13.3674 5.29901 13.3576C5.32221 13.3478 5.34713 13.3427 5.37232 13.3425Z" fill="#DFF2F9"/>
<path fill-rule="evenodd" clip-rule="evenodd" d="M9.94335 12.901C10.0344 12.9005 10.1235 12.9271 10.1994 12.9773C10.2753 13.0274 10.3347 13.099 10.3699 13.1829C10.4051 13.2668 10.4147 13.3593 10.3974 13.4487C10.3801 13.538 10.3366 13.6202 10.2726 13.6849C10.2085 13.7495 10.1268 13.7937 10.0376 13.8119C9.9484 13.8301 9.85584 13.8214 9.77159 13.787C9.68735 13.7525 9.61522 13.6939 9.56431 13.6184C9.5134 13.543 9.48601 13.4542 9.4856 13.3632C9.48526 13.3027 9.49683 13.2428 9.51965 13.1869C9.54248 13.131 9.57612 13.0801 9.61864 13.0371C9.66116 12.9942 9.71171 12.9601 9.76743 12.9367C9.82315 12.9134 9.88293 12.9012 9.94335 12.901Z" fill="#D14241"/>
<path fill-rule="evenodd" clip-rule="evenodd" d="M9.78984 13.0445C9.82738 13.0445 9.86407 13.0556 9.89528 13.0765C9.92649 13.0973 9.9508 13.127 9.96515 13.1616C9.9795 13.1963 9.98325 13.2345 9.9759 13.2713C9.96856 13.3081 9.95045 13.3419 9.92389 13.3684C9.89733 13.395 9.8635 13.413 9.82668 13.4203C9.78985 13.4276 9.7517 13.4238 9.71703 13.4094C9.68237 13.395 9.65276 13.3706 9.63195 13.3394C9.61114 13.3081 9.60006 13.2714 9.60012 13.2339C9.59976 13.2089 9.60442 13.1841 9.61384 13.1609C9.62325 13.1377 9.63722 13.1167 9.65491 13.099C9.6726 13.0814 9.69366 13.0674 9.71684 13.0581C9.74002 13.0487 9.76484 13.0441 9.78984 13.0445Z" fill="#F69798"/>
<path fill-rule="evenodd" clip-rule="evenodd" d="M7.57713 15.8021C7.66775 15.8021 7.75635 15.8289 7.83172 15.8792C7.90709 15.9295 7.96584 16.001 8.00054 16.0847C8.03525 16.1685 8.04435 16.2606 8.02668 16.3495C8.00902 16.4383 7.96538 16.52 7.90131 16.584C7.83723 16.6481 7.75559 16.6918 7.66671 16.7094C7.57783 16.7271 7.48572 16.718 7.40201 16.6833C7.3183 16.6486 7.24677 16.5898 7.19646 16.5145C7.14615 16.4391 7.11933 16.3505 7.11938 16.2599C7.11946 16.1385 7.16772 16.0221 7.25355 15.9363C7.33938 15.8505 7.45575 15.8022 7.57713 15.8021Z" fill="#DEEAAB"/>
<path fill-rule="evenodd" clip-rule="evenodd" d="M7.42455 15.9368C7.46258 15.9364 7.49987 15.9473 7.53167 15.9682C7.56346 15.989 7.58832 16.0189 7.60308 16.054C7.61783 16.089 7.62181 16.1277 7.61452 16.165C7.60722 16.2023 7.58897 16.2366 7.56209 16.2635C7.53522 16.2905 7.50094 16.3088 7.46363 16.3161C7.42631 16.3235 7.38765 16.3196 7.35257 16.3049C7.31749 16.2902 7.28759 16.2653 7.26667 16.2336C7.24575 16.2018 7.23477 16.1645 7.23512 16.1265C7.23508 16.1016 7.23995 16.0769 7.24945 16.0539C7.25895 16.0309 7.2729 16.01 7.29049 15.9924C7.30809 15.9747 7.32899 15.9608 7.35199 15.9512C7.37499 15.9417 7.39965 15.9368 7.42455 15.9368Z" fill="white"/>
<path fill-rule="evenodd" clip-rule="evenodd" d="M17.0466 18.872C17.1377 18.8715 17.2269 18.8981 17.3029 18.9484C17.3788 18.9988 17.4381 19.0705 17.4732 19.1546C17.5083 19.2387 17.5177 19.3314 17.5 19.4208C17.4824 19.5102 17.4386 19.5923 17.3741 19.6568C17.3097 19.7212 17.2276 19.7651 17.1382 19.7828C17.0488 19.8005 16.9562 19.7912 16.8721 19.7562C16.788 19.7211 16.7162 19.6619 16.6658 19.586C16.6154 19.51 16.5887 19.4208 16.5891 19.3297C16.5895 19.2085 16.6378 19.0923 16.7235 19.0066C16.8092 18.9208 16.9253 18.8724 17.0466 18.872Z" fill="#D14241"/>
<path fill-rule="evenodd" clip-rule="evenodd" d="M16.8931 19.0103C16.9309 19.0099 16.9681 19.0207 16.9998 19.0414C17.0315 19.0621 17.0564 19.0917 17.0712 19.1266C17.0861 19.1614 17.0903 19.1999 17.0833 19.2371C17.0763 19.2743 17.0584 19.3086 17.032 19.3357C17.0055 19.3627 16.9715 19.3813 16.9345 19.3891C16.8974 19.3969 16.8589 19.3935 16.8237 19.3794C16.7886 19.3653 16.7584 19.3411 16.7371 19.3098C16.7157 19.2786 16.704 19.2417 16.7036 19.2038C16.7032 19.1786 16.7079 19.1536 16.7172 19.1302C16.7265 19.1068 16.7404 19.0855 16.758 19.0675C16.7756 19.0495 16.7966 19.0352 16.8198 19.0254C16.843 19.0156 16.8679 19.0104 16.8931 19.0103Z" fill="#F69798"/>
<path fill-rule="evenodd" clip-rule="evenodd" d="M3.93778 17.7271C4.02896 17.7266 4.11819 17.7533 4.19416 17.8037C4.27014 17.8541 4.32943 17.926 4.36451 18.0101C4.39958 18.0943 4.40887 18.187 4.39118 18.2764C4.3735 18.3658 4.32963 18.448 4.26516 18.5125C4.2007 18.5769 4.11852 18.6208 4.02908 18.6385C3.93964 18.6562 3.84697 18.6469 3.76281 18.6118C3.67866 18.5767 3.60682 18.5175 3.55642 18.4415C3.50603 18.3655 3.47934 18.2763 3.47974 18.1851C3.47982 18.0636 3.5281 17.9472 3.61398 17.8613C3.69987 17.7754 3.81633 17.7271 3.93778 17.7271Z" fill="#FFD74A"/>
<path fill-rule="evenodd" clip-rule="evenodd" d="M3.78401 17.8655C3.8348 17.8655 3.88351 17.8857 3.91942 17.9216C3.95533 17.9575 3.9755 18.0062 3.9755 18.057C3.9755 18.1077 3.95533 18.1565 3.91942 18.1924C3.88351 18.2283 3.8348 18.2484 3.78401 18.2484C3.73323 18.2484 3.68452 18.2283 3.64861 18.1924C3.6127 18.1565 3.59253 18.1077 3.59253 18.057C3.59253 18.0062 3.6127 17.9575 3.64861 17.9216C3.68452 17.8857 3.73323 17.8655 3.78401 17.8655Z" fill="#FBEAB5"/>
</svg>
