<svg width="30" height="30" viewBox="0 0 30 30" fill="none" xmlns="http://www.w3.org/2000/svg">
<path d="M2.50137 13.5624L14.0025 6.9314L25.5036 13.5624L25.5115 13.5578V22.4175L14.0025 29.0623L2.49341 22.4175V13.5578L2.50137 13.5624Z" fill="#ED7064"/>
<path d="M2.49341 22.4178L14.0025 29.0626V20.2029L2.49341 13.5581V22.4178Z" fill="#C40041"/>
<path d="M14.0024 20.2029L25.5115 13.5581V22.4178L14.0024 29.0626V20.2029Z" fill="#F43834"/>
<path d="M1.88335 10.1505L14.0025 3.16309L26.1216 10.1505L26.13 10.1456V13.2109L14.0025 20.2127L1.875 13.2109V10.1456L1.88335 10.1505Z" fill="#FF8A5C"/>
<path d="M1.875 13.2112L14.0025 20.213V17.1477L1.875 10.1459V13.2112Z" fill="#F43834"/>
<path d="M14.0024 17.1477L26.1299 10.1459V13.2112L14.0024 20.213V17.1477Z" fill="#FF5331"/>
<path d="M9.12324 26.2458L6.11035 24.5063V12.5819L18.2154 5.59302L21.2268 7.3293L9.12324 14.3173V26.2458Z" fill="#A7B3D1"/>
<path d="M18.9424 26.2092L21.9553 24.4697V12.5452L9.85033 5.5564L6.83887 7.29268L18.9424 14.2806V26.2092Z" fill="#DFE8F5"/>
<path d="M18.9419 14.2811L21.9548 12.5457L9.84984 5.55688L6.83838 7.29317L18.9419 14.2811Z" fill="white"/>
<path d="M9.123 14.3168L6.11011 12.5814L18.2151 5.59253L21.2265 7.32881L9.123 14.3168Z" fill="#FFD800"/>
<path d="M26.5258 12.1964L25.8268 10.4808L28.7738 9.54393L15.0181 7.06311L12.7717 9.71587L26.5258 12.1964Z" fill="#E9F3FE"/>
<path d="M13.8868 21.079L12.458 19.8999L10.6843 22.433L12.4218 8.56373L15.6241 7.21143L13.8868 21.079Z" fill="#E9F3FE"/>
<path d="M15.0406 8.33217C14.8313 8.07322 14.7688 7.72638 14.8736 7.41036C15.3971 5.83162 16.8798 1.78914 19.3503 1.04032C21.6589 0.340596 24.5645 3.33921 22.7234 6.18648C21.2574 8.45368 17.7813 9.12197 16.4258 9.30017C16.0878 9.34461 15.7515 9.21157 15.5372 8.94647L15.0406 8.33217Z" fill="white"/>
<path d="M21.0861 4.29149C22.174 3.69619 22.7473 4.37487 22.3758 5.4729C22.0042 6.57099 20.1031 7.61765 18.9741 8.16999C17.8451 8.72233 16.2949 8.92173 16.2949 8.92173C16.2949 8.92173 19.9981 4.88678 21.0861 4.29149Z" fill="#A7B3D1"/>
<path d="M11.3453 8.17668C11.7215 7.87955 12.151 7.72151 12.5813 7.68762C13.1544 7.64241 13.6636 7.34853 13.9893 6.8748C14.2339 6.51895 14.5856 6.226 15.0311 6.04873C15.9728 5.67405 17.077 5.99067 17.6804 6.80498C18.5047 7.91746 18.1598 9.46312 16.996 10.135C16.6818 10.3165 16.3424 10.4139 16.0034 10.4346C15.4526 10.4684 14.9619 10.7517 14.6572 11.2119C14.4698 11.495 14.2157 11.7402 13.9015 11.9216C12.7376 12.5936 11.2265 12.1193 10.6753 10.8491C10.2719 9.91933 10.5499 8.80482 11.3453 8.17668Z" fill="#DFE8F5"/>
<path d="M12.2035 9.5179C12.0268 9.23571 11.7191 9.06378 11.3861 9.06004C9.72297 9.04137 5.41803 9.12816 3.90615 11.2207C2.49341 13.176 4.3835 16.8991 7.67485 16.0845C10.2956 15.4359 12.0586 12.3664 12.6681 11.1426C12.8201 10.8375 12.8037 10.4762 12.6227 10.1873L12.2035 9.5179Z" fill="white"/>
<path d="M6.4163 13.9206C5.49944 14.7556 5.95466 15.5186 7.11383 15.5245C8.27305 15.5305 9.88134 14.0733 10.771 13.1854C11.6606 12.2975 12.3535 10.8966 12.3535 10.8966C12.3535 10.8966 7.33322 13.0855 6.4163 13.9206Z" fill="#A7B3D1"/>
</svg>
