<svg width="30" height="30" viewBox="0 0 30 30" fill="none" xmlns="http://www.w3.org/2000/svg">
<path d="M2.62613 13.6259L14.1279 6.99451L25.6297 13.6259L25.6376 13.6213V22.4815L14.1279 29.1267L2.61816 22.4815V13.6213L2.62613 13.6259Z" fill="#ED7064"/>
<path d="M2.61816 22.4821L14.1279 29.1272V20.267L2.61816 13.6218V22.4821Z" fill="#A7B3D1"/>
<path d="M14.1284 20.267L25.6382 13.6218V22.4821L14.1284 29.1272V20.267Z" fill="#D8E6FA"/>
<path d="M2.00835 10.2146L14.1282 3.22681L26.2481 10.2146L26.2564 10.2097V13.2752L14.1282 20.2775L2 13.2752V10.2097L2.00835 10.2146Z" fill="white"/>
<path d="M2 13.2747L14.1282 20.2769V17.2115L2 10.2092V13.2747Z" fill="#D8E6FA"/>
<path d="M14.1284 17.2115L26.2566 10.2092V13.2747L14.1284 20.2769V17.2115Z" fill="#E9F3FE"/>
<path d="M9.24842 26.3093L6.23535 24.5696V12.6445L18.3411 5.65527L21.3527 7.39166L9.24842 14.38V26.3093Z" fill="#C40041"/>
<path d="M19.0681 26.2742L22.0812 24.5346V12.6095L9.97551 5.62024L6.96387 7.35662L19.0681 14.345V26.2742Z" fill="#F43834"/>
<path d="M19.0684 14.3452L22.0814 12.6097L9.97575 5.62048L6.96411 7.35687L19.0684 14.3452Z" fill="#FF8A5C"/>
<path d="M9.24867 14.3828L6.2356 12.6473L18.3413 5.65808L21.3529 7.39446L9.24867 14.3828Z" fill="#FF8A5C"/>
<path d="M26.6519 12.2601L25.9529 10.5443L28.9 9.60743L15.1434 7.12646L12.897 9.77938L26.6519 12.2601Z" fill="#F43834"/>
<path d="M14.012 21.1446L12.5831 19.9654L10.8093 22.4986L12.5469 8.62851L15.7493 7.27612L14.012 21.1446Z" fill="#F43834"/>
<path d="M15.1666 8.3951C14.9573 8.13614 14.8948 7.78928 14.9996 7.47324C15.5231 5.89441 17.0059 1.85169 19.4766 1.10282C21.7853 0.403061 24.6911 3.40185 22.8499 6.24929C21.3838 8.51662 17.9075 9.18496 16.5519 9.36316C16.2138 9.40761 15.8776 9.27455 15.6632 9.00944L15.1666 8.3951Z" fill="#F43834"/>
<path d="M21.2121 4.35424C22.3001 3.75891 22.8734 4.43763 22.5019 5.53573C22.1303 6.63388 20.2291 7.68061 19.1 8.23298C17.9709 8.78535 16.4207 8.98476 16.4207 8.98476C16.4207 8.98476 20.1241 4.94957 21.2121 4.35424Z" fill="#C40041"/>
<path d="M11.4708 8.24005C11.8471 7.9429 12.2765 7.78485 12.707 7.75096C13.2801 7.70575 13.7893 7.41185 14.115 6.93809C14.3596 6.58222 14.7113 6.28925 15.1569 6.11198C16.0986 5.73727 17.2029 6.05391 17.8063 6.86827C18.6306 7.98081 18.2858 9.52657 17.1219 10.1985C16.8076 10.38 16.4682 10.4774 16.1292 10.4981C15.5783 10.5319 15.0876 10.8152 14.7829 11.2754C14.5955 11.5586 14.3414 11.8038 14.0271 11.9852C12.8632 12.6572 11.352 12.1829 10.8008 10.9126C10.3974 9.9828 10.6754 8.86823 11.4708 8.24005Z" fill="#FF5331"/>
<path d="M12.329 9.58055C12.1523 9.29835 11.8446 9.1264 11.5116 9.12266C9.84834 9.10399 5.54315 9.19078 4.03117 11.2834C2.61836 13.2388 4.50856 16.9622 7.80009 16.1476C10.421 15.4989 12.1841 12.4292 12.7936 11.2054C12.9456 10.9002 12.9292 10.5389 12.7482 10.25L12.329 9.58055Z" fill="#F43834"/>
<path d="M6.54158 13.9835C5.62466 14.8186 6.0799 15.5816 7.23914 15.5876C8.39843 15.5935 10.0068 14.1362 10.8965 13.2483C11.7862 12.3604 12.4791 10.9594 12.4791 10.9594C12.4791 10.9594 7.45855 13.1484 6.54158 13.9835Z" fill="#C40041"/>
</svg>
