<svg width="30" height="30" viewBox="0 0 30 30" fill="none" xmlns="http://www.w3.org/2000/svg">
<path d="M2.50089 13.5561L14.002 6.92505L25.5031 13.5561L25.5111 13.5515V22.4112L14.002 29.0559L2.49292 22.4112V13.5515L2.50089 13.5561Z" fill="#ED7064"/>
<path d="M2.49292 22.4178L14.002 29.0626V20.2029L2.49292 13.5581V22.4178Z" fill="#A7B3D1"/>
<path d="M14.0027 20.2029L25.5118 13.5581V22.4178L14.0027 29.0626V20.2029Z" fill="#D8E6FA"/>
<path d="M1.88335 10.1496L14.0025 3.16223L26.1216 10.1496L26.13 10.1448V13.2101L14.0025 20.2119L1.875 13.2101V10.1448L1.88335 10.1496Z" fill="white"/>
<path d="M1.875 13.2176L14.0025 20.2195V17.1542L1.875 10.1523V13.2176Z" fill="#D8E6FA"/>
<path d="M14.0027 17.1542L26.1302 10.1523V13.2176L14.0027 20.2195V17.1542Z" fill="#E9F3FE"/>
<path d="M9.12349 26.2458L6.1106 24.5063V12.5819L18.2156 5.59302L21.227 7.3293L9.12349 14.3173V26.2458Z" fill="#1F8B3E"/>
<path d="M18.9422 26.2045L21.9551 24.465V12.5406L9.85009 5.55176L6.83862 7.28804L18.9422 14.276V26.2045Z" fill="#4BC44B"/>
<path d="M18.9422 14.2897L21.9551 12.5543L9.85009 5.56543L6.83862 7.30171L18.9422 14.2897Z" fill="#1FE26D"/>
<path d="M9.12276 14.3309L6.10986 12.5955L18.2149 5.60669L21.2263 7.34297L9.12276 14.3309Z" fill="#1FE26D"/>
<path d="M26.5251 12.1956L25.8261 10.4799L28.773 9.54308L15.0173 7.06226L12.771 9.71502L26.5251 12.1956Z" fill="#4BC44B"/>
<path d="M13.8861 21.081L12.4573 19.9019L10.6836 22.435L12.421 8.56569L15.6233 7.21338L13.8861 21.081Z" fill="#4BC44B"/>
<path d="M15.0401 8.33217C14.8308 8.07322 14.7683 7.72638 14.8731 7.41036C15.3966 5.83162 16.8793 1.78914 19.3499 1.04032C21.6584 0.340596 24.564 3.33921 22.7229 6.18648C21.2569 8.45368 17.7808 9.12198 16.4253 9.30018C16.0873 9.34461 15.7511 9.21157 15.5367 8.94647L15.0401 8.33217Z" fill="#4BC44B"/>
<path d="M21.0866 4.28966C22.1745 3.69436 22.7478 4.37304 22.3763 5.47107C22.0047 6.56916 20.1036 7.61582 18.9746 8.16816C17.8456 8.7205 16.2954 8.9199 16.2954 8.9199C16.2954 8.9199 19.9986 4.88495 21.0866 4.28966Z" fill="#1F8B3E"/>
<path d="M11.345 8.17936C11.7213 7.88224 12.1507 7.7242 12.5811 7.69031C13.1542 7.6451 13.6634 7.35121 13.9891 6.87748C14.2337 6.52164 14.5853 6.22869 15.0309 6.05142C15.9726 5.67673 17.0768 5.99336 17.6801 6.80766C18.5044 7.92014 18.1596 9.46581 16.9958 10.1377C16.6815 10.3192 16.3422 10.4166 16.0032 10.4373C15.4523 10.4711 14.9616 10.7543 14.657 11.2146C14.4695 11.4977 14.2155 11.7429 13.9012 11.9243C12.7374 12.5963 11.2263 12.122 10.6751 10.8518C10.2717 9.92202 10.5497 8.80751 11.345 8.17936Z" fill="#21B35B"/>
<path d="M12.203 9.51338C12.0263 9.2312 11.7186 9.05926 11.3857 9.05553C9.72249 9.03685 5.41754 9.12364 3.90566 11.2162C2.49293 13.1714 4.38301 16.8946 7.67436 16.08C10.2951 15.4314 12.0581 12.3619 12.6676 11.1381C12.8196 10.833 12.8032 10.4717 12.6222 10.1828L12.203 9.51338Z" fill="#4BC44B"/>
<path d="M6.41582 13.9178C5.49895 14.7528 5.95417 15.5158 7.11334 15.5217C8.27256 15.5277 9.88085 14.0705 10.7705 13.1826C11.6601 12.2947 12.353 10.8938 12.353 10.8938C12.353 10.8938 7.33274 13.0827 6.41582 13.9178Z" fill="#1F8B3E"/>
</svg>
