<svg width="30" height="30" viewBox="0 0 30 30" fill="none" xmlns="http://www.w3.org/2000/svg">
<path d="M2.50137 13.5624L14.0024 6.9314L25.5035 13.5624L25.5115 13.5578V22.4175L14.0024 29.0622L2.49341 22.4175V13.5578L2.50137 13.5624Z" fill="#ED7064"/>
<path d="M2.49341 22.4178L14.0024 29.0625V20.2029L2.49341 13.5581V22.4178Z" fill="#C40041"/>
<path d="M14.0024 20.2029L25.5115 13.5581V22.4178L14.0024 29.0625V20.2029Z" fill="#F43834"/>
<path d="M1.88335 10.1514L14.0024 3.16406L26.1215 10.1514L26.1299 10.1466V13.2119L14.0024 20.2136L1.875 13.2119V10.1466L1.88335 10.1514Z" fill="#FF8A5C"/>
<path d="M1.875 13.2112L14.0024 20.213V17.1477L1.875 10.1459V13.2112Z" fill="#F43834"/>
<path d="M14.0024 17.1477L26.1299 10.1459V13.2112L14.0024 20.213V17.1477Z" fill="#FF5331"/>
<path d="M9.12323 26.2457L6.11035 24.5062V12.5818L18.2153 5.59302L21.2267 7.32929L9.12323 14.3172V26.2457Z" fill="#CDB225"/>
<path d="M18.9424 26.21L21.9552 24.4704V12.5461L9.85032 5.55725L6.83887 7.29353L18.9424 14.2815V26.21Z" fill="#FCC433"/>
<path d="M18.9419 14.282L21.9548 12.5466L9.84983 5.55774L6.83838 7.29401L18.9419 14.282Z" fill="#FFE27C"/>
<path d="M9.12299 14.3177L6.11011 12.5823L18.2151 5.59351L21.2265 7.32978L9.12299 14.3177Z" fill="#FFD800"/>
<path d="M26.525 12.1955L25.8261 10.4799L28.773 9.54307L15.0173 7.06226L12.771 9.71501L26.525 12.1955Z" fill="#FCC433"/>
<path d="M13.8863 21.0781L12.4575 19.899L10.6838 22.4321L12.4213 8.56288L15.6236 7.21057L13.8863 21.0781Z" fill="#FCC433"/>
<path d="M15.0406 8.33214C14.8313 8.07319 14.7688 7.72636 14.8736 7.41034C15.3971 5.83161 16.8798 1.78914 19.3503 1.04032C21.6589 0.340598 24.5645 3.3392 22.7234 6.18646C21.2574 8.45365 17.7813 9.12195 16.4258 9.30015C16.0878 9.34458 15.7515 9.21154 15.5372 8.94644L15.0406 8.33214Z" fill="#FFE27C"/>
<path d="M21.086 4.29149C22.174 3.69619 22.7473 4.37487 22.3758 5.4729C22.0042 6.57098 20.1031 7.61764 18.9741 8.16998C17.8451 8.72231 16.2949 8.92172 16.2949 8.92172C16.2949 8.92172 19.9981 4.88678 21.086 4.29149Z" fill="#CDB225"/>
<path d="M11.3453 8.17667C11.7215 7.87955 12.1509 7.72151 12.5813 7.68762C13.1544 7.64241 13.6636 7.34852 13.9893 6.87479C14.2339 6.51895 14.5856 6.226 15.0311 6.04873C15.9728 5.67405 17.077 5.99067 17.6803 6.80498C18.5047 7.91745 18.1598 9.46311 16.996 10.135C16.6818 10.3165 16.3424 10.4139 16.0034 10.4346C15.4525 10.4684 14.9618 10.7516 14.6572 11.2119C14.4698 11.495 14.2157 11.7402 13.9014 11.9216C12.7376 12.5935 11.2265 12.1193 10.6753 10.8491C10.2719 9.91932 10.5499 8.80481 11.3453 8.17667Z" fill="#F0B51E"/>
<path d="M12.2034 9.51875C12.0267 9.23657 11.7191 9.06463 11.3861 9.0609C9.72295 9.04222 5.41802 9.12901 3.90615 11.2215C2.49342 13.1768 4.3835 16.9 7.67483 16.0854C10.2956 15.4367 12.0585 12.3672 12.668 11.1435C12.82 10.8383 12.8036 10.4771 12.6227 10.1881L12.2034 9.51875Z" fill="#FFE27C"/>
<path d="M6.4163 13.9206C5.49944 14.7556 5.95466 15.5186 7.11382 15.5245C8.27304 15.5305 9.88133 14.0733 10.7709 13.1854C11.6606 12.2975 12.3535 10.8966 12.3535 10.8966C12.3535 10.8966 7.33322 13.0855 6.4163 13.9206Z" fill="#CDB225"/>
</svg>
