<svg width="196" height="176" viewBox="0 0 196 176" fill="none" xmlns="http://www.w3.org/2000/svg">
<path d="M41.3657 154.029C41.3657 165.667 32.2723 175.05 21.021 175.05C9.38324 175.05 0 165.667 0 154.029C0 142.445 9.38324 133.008 21.021 133.008C26.8399 133.008 32.1006 135.38 35.8796 139.17L32.6588 142.391C29.6635 139.449 25.5409 137.592 21.021 137.592C11.9277 137.592 4.57353 144.935 4.57353 154.04C4.57353 163.133 11.9169 170.487 21.021 170.487C29.6635 170.487 36.6741 163.251 36.7922 154.265H20.3447V150.862H41.1402C41.312 151.882 41.3657 152.955 41.3657 154.029ZM9.83415 154.029C9.83415 160.191 14.8586 165.216 21.021 165.216C25.3691 165.216 29.1589 162.392 30.7371 158.323H20.3339V154.931H36.0407C35.6434 163.24 29.0301 169.789 21.0103 169.789C12.3034 169.789 5.24989 162.725 5.24989 154.018C5.24989 145.311 12.3142 138.247 21.0103 138.247C25.3584 138.247 29.3199 139.997 32.1435 142.885L28.9227 146.106C26.8936 144.077 24.1237 142.831 21.0103 142.831C14.8586 142.842 9.83415 147.866 9.83415 154.029Z" fill="#86D8FE"/>
<path d="M79.5641 174.374H40.2383L59.9066 132.332L79.5641 174.374ZM46.8409 170.648H72.9508L59.8958 142.735L46.8409 170.648ZM71.8772 169.972H47.9145L59.8958 144.313L71.8772 169.972ZM54.5279 166.236H65.2638L59.8958 154.77L54.5279 166.236Z" fill="#86D8FE"/>
<path d="M120.705 132.332V174.374H115.616V142.563L102.389 154.823L89.1623 142.563V174.374H84.0735V132.332L102.378 149.284L120.705 132.332ZM102.4 155.725L114.95 144.141V174.374H109.861V154.372L102.4 161.319L94.9383 154.372V174.374H89.8494V144.141L102.4 155.725Z" fill="#86D8FE"/>
<path d="M132.568 170.304H158.001V174.373H127.49V133.684H149.864V137.753H132.568V170.304ZM138.333 142.498V149.616H153.932V153.685H133.255V138.429H149.864V142.498H138.333ZM158.001 165.559V169.628H133.255V154.372H153.932V158.441H138.333V165.559H158.001Z" fill="#86D8FE"/>
<path d="M195.974 162.167C195.974 170.476 189.758 175.05 178.679 175.05C167.546 175.05 161.383 170.186 161.383 161.49H166.472C166.472 167.481 170.82 170.809 178.679 170.809C186.537 170.809 190.885 167.706 190.885 162.167C190.885 149.284 167.492 158.098 167.492 145.891C167.492 140.748 171.507 137.925 178.679 137.925C185.85 137.925 189.866 141.038 189.866 146.567H184.777C184.777 143.744 182.576 142.155 178.679 142.155C174.782 142.155 172.581 143.508 172.581 145.88C172.581 154.029 195.974 145.558 195.974 162.167ZM161.727 145.891C161.727 137.646 167.771 133.008 178.679 133.008C189.586 133.008 195.631 137.871 195.631 146.567H190.542C190.542 140.577 186.301 137.249 178.679 137.249C171.056 137.249 166.815 140.351 166.815 145.891C166.815 158.774 190.209 149.96 190.209 162.167C190.209 167.309 186.087 170.133 178.679 170.133C171.271 170.133 167.148 167.019 167.148 161.49H172.237C172.237 164.314 174.556 165.903 178.679 165.903C182.801 165.903 185.12 164.55 185.12 162.177C185.12 154.029 161.727 162.51 161.727 145.891Z" fill="#86D8FE"/>
<path d="M26.6573 127.79H22.9105L15.041 115.755C20.8492 115.454 22.8353 113.801 22.8353 109.646C22.8353 105.04 20.3661 103.494 12.9368 103.494H6.19458V127.779H2.82349V100.789H12.9475C22.6528 100.789 26.2172 103.151 26.2172 109.635C26.2172 114.134 24.4887 116.678 20.1406 117.773L26.6573 127.79ZM12.9368 115.347H6.64549V103.945H12.9368C20.0225 103.945 22.3844 105.373 22.3844 109.646C22.3844 113.919 20.0225 115.347 12.9368 115.347ZM14.515 115.755L22.3522 127.79H18.6054L12.5717 118.492H10.0273V127.79H6.65623V115.798H12.9475C13.5058 115.798 14.0318 115.798 14.515 115.755ZM10.0166 112.641H12.9368C17.5854 112.641 19.0133 111.933 19.0133 109.646C19.0133 107.359 17.5854 106.651 12.9368 106.651H10.0166V112.641Z" fill="#86D8FE"/>
<path d="M33.3352 125.084H50.2014V127.779H29.9534V100.789H44.7905V103.483H33.3352V125.084ZM37.1572 106.651V111.374H47.5067V114.069H33.7754V103.945H44.7905V106.64H37.1572V106.651ZM50.2014 121.939V124.633H33.7754V114.509H47.4959V117.204H37.1465V121.928H50.2014V121.939Z" fill="#86D8FE"/>
<path d="M65.0384 100.799V103.494H52.4451V100.799H65.0384ZM58.5216 124.633H52.4451V121.938H55.1398V106.65H52.4451V103.956H58.5216V124.633ZM52.4451 125.084H65.0384V127.779H52.4451V125.084ZM58.9725 103.945H65.0491V106.64H62.3436V121.928H65.0384V124.622H58.9618V103.945H58.9725Z" fill="#86D8FE"/>
<path d="M87.4553 120.854L72.1672 106.683V127.779H68.7854V99.8976L84.0734 114.069V100.799H87.4445V120.854H87.4553ZM91.2773 100.799V128.681L75.9892 114.509V127.779H72.6181V107.724L87.9062 121.896V100.799H91.2773Z" fill="#86D8FE"/>
<path d="M119.835 114.294C119.835 122.722 114.778 127.789 106.34 127.789H95.7649V100.799H106.34C114.778 100.799 119.835 105.856 119.835 114.294ZM116.464 114.294C116.464 107.359 112.824 103.505 106.34 103.505H99.1467V125.095H106.34C112.824 125.084 116.464 121.23 116.464 114.294ZM116.013 114.294C116.013 120.929 112.567 124.644 106.34 124.644H99.5976V103.945H106.34C112.567 103.945 116.013 107.659 116.013 114.294ZM112.642 114.294C112.642 109.388 110.398 106.65 106.351 106.65H102.979V121.938H106.351C110.398 121.938 112.642 119.201 112.642 114.294Z" fill="#86D8FE"/>
<path d="M126.212 125.084H143.078V127.779H122.841V100.789H137.678V103.483H126.212V125.084ZM130.034 106.651V111.374H140.383V114.069H126.663V103.945H137.678V106.64H130.034V106.651ZM143.078 121.939V124.633H126.663V114.509H140.383V117.204H130.034V121.928H143.078V121.939Z" fill="#86D8FE"/>
<path d="M149.455 125.084H166.322V127.779H146.084V100.789H160.921V103.483H149.455V125.084ZM153.277 106.651V111.374H163.627V114.069H149.906V103.945H160.921V106.64H153.277V106.651ZM166.322 121.939V124.633H149.906V114.509H163.627V117.204H153.277V121.928H166.322V121.939Z" fill="#86D8FE"/>
<path d="M193.151 127.79H189.404L181.534 115.755C187.343 115.454 189.329 113.801 189.329 109.646C189.329 105.04 186.859 103.494 179.43 103.494H172.688V127.779H169.317V100.789H179.441C189.146 100.789 192.711 103.151 192.711 109.635C192.711 114.134 190.982 116.678 186.634 117.773L193.151 127.79ZM179.441 115.347H173.139V103.945H179.43C186.516 103.945 188.878 105.373 188.878 109.646C188.878 113.919 186.516 115.347 179.441 115.347ZM181.008 115.755L188.846 127.79H185.099L179.065 118.492H176.521V127.79H173.139V115.798H179.43C179.999 115.798 180.525 115.798 181.008 115.755ZM176.51 112.641H179.43C184.079 112.641 185.507 111.933 185.507 109.646C185.507 107.359 184.079 106.651 179.43 106.651H176.51V112.641Z" fill="#86D8FE"/>
<path d="M55.9666 78.4477L56.192 83.5472L60.9266 80.1117C60.9266 80.1117 66.7884 77.2667 66.9817 77.0842C67.1856 76.9017 75.0229 70.5674 75.0229 70.5674L77.1594 69.6978L80.0688 70.5782L85.5442 70.4493L90.3646 68.3129L97.5577 65.4356L100.982 65.6933L111.386 67.9371L117.409 67.4111L125.149 68.4202L131.988 68.3236L133.373 70.138L127.737 73.4017L125.106 73.756L122.744 74.4968L118.471 75.0014L117.355 79.6179L122.637 77.5888L126.094 76.8802L133.813 74.4431L137.979 69.7408L136.808 66.7991C136.808 66.7991 132.75 64.1366 132.525 64.1688C132.299 64.201 126.062 61.56 126.062 61.56L126.502 59.853L130.259 56.0846L132.46 48.1937L131.644 39.7445L126.878 31.0376L128.628 28.5146L128.756 25.1436L125.622 26.9472L124.215 27.6236L120.865 27.892L117.859 26.3245L115.476 25.4334L116.367 29.1159L118.257 30.2324L115.637 32.9701L115.422 34.6341L116.936 36.8243L115.637 39.358L115.197 42.6217L116.142 43.9637L118.364 43.706L121.499 41.3656L123.464 38.7353L123.388 43.5021L120.028 48.9989L114.091 51.4037L106.844 51.801L99.9196 49.1062L93.6713 48.0219L87.8202 50.3087L84.0411 53.3792L80.4231 52.8316L78.5658 50.8562L79.1562 55.054L80.7559 57.3085L83.3862 56.2134L82.1086 61.0017L80.1762 62.7731L77.1486 62.1397L74.0137 63.3958L72.1886 67.0246L67.3467 73.0797L62.3008 76.3756L60.5508 76.5152L59.5631 77.5888L55.9666 78.4477Z" fill="#86D8FE"/>
<path d="M125.45 27.8276L127.264 25.047L132.375 21.1177L134.06 20.7956L136.712 20.4628L139.417 17.6177L139.6 15.9429L138.58 14.0963L138.698 16.4368L136.282 18.949L133.77 19.2603L136.068 14.9767L138.43 12.1102L139.986 9.94151L138.258 6.48453L138.312 10.2743L136.239 11.7344L136.669 8.44921L137.292 4.99223L137.313 2.69473L135.091 0.171775C135.091 0.171775 136.401 3.12417 136.218 3.22079C136.025 3.31741 135.67 5.23915 135.67 5.23915L134.21 2.73767L130.968 0.794464L133.523 3.70391L133.513 5.06738L129.68 2.93092L126.362 0L128.864 4.48764L134.275 7.53665L134.586 11.2084L133.437 10.4461L131.44 8.52436L130.603 6.506L130.893 10.5427L132.793 12.2605L134.017 14.0749L131.945 18.9705L126.695 23.4152L124.602 26.2387L123.958 28.5577L125.45 27.8276Z" fill="#86D8FE"/>
<path d="M120.028 28.0634L118.171 25.4009L113.06 21.7292L111.407 21.4608L108.809 21.2246L106.082 18.5298L105.857 16.898L106.801 15.0621L106.748 17.3489L109.174 19.7215L111.633 19.947L109.26 15.8351L106.877 13.1189L105.288 11.0469L106.877 7.61135L106.941 11.3045L109.013 12.668L108.498 9.46868L107.789 6.10832L107.703 3.87524L109.797 1.34155C109.797 1.34155 108.594 4.26173 108.788 4.35836C108.981 4.45498 109.378 6.3123 109.378 6.3123L110.731 3.83229L113.844 1.8354L111.439 4.75558L111.493 6.08685L115.165 3.87524L118.321 0.912109L116.013 5.36753L110.827 8.51317L110.634 12.1097L111.729 11.3367L113.629 9.40426L114.392 7.40737L114.22 11.3582L112.416 13.0974L111.278 14.9118L113.447 19.6249L118.697 23.8012L120.823 26.4852L121.52 28.729L120.028 28.0634Z" fill="#86D8FE"/>
</svg>
