<svg width="194" height="177" viewBox="0 0 194 177" fill="none" xmlns="http://www.w3.org/2000/svg">
<g filter="url(#filter0_d)">
<path d="M48.3052 144.186C48.3052 154.4 40.3243 162.635 30.4494 162.635C20.2353 162.635 12 154.4 12 144.186C12 134.019 20.2353 125.736 30.4494 125.736C35.5565 125.736 40.1736 127.819 43.4903 131.145L40.6635 133.972C38.0346 131.39 34.4163 129.76 30.4494 129.76C22.4685 129.76 16.014 136.205 16.014 144.195C16.014 152.176 22.4591 158.631 30.4494 158.631C38.0346 158.631 44.1876 152.28 44.2912 144.393H29.8558V141.406H48.1074C48.2581 142.301 48.3052 143.244 48.3052 144.186ZM20.6311 144.186C20.6311 149.594 25.0409 154.004 30.4494 154.004C34.2656 154.004 37.5918 151.526 38.9769 147.955H29.8464V144.977H43.6316C43.283 152.27 37.4787 158.018 30.44 158.018C22.7983 158.018 16.6076 151.818 16.6076 144.176C16.6076 136.535 22.8077 130.335 30.44 130.335C34.2562 130.335 37.7331 131.87 40.2112 134.405L37.3845 137.232C35.6036 135.451 33.1726 134.358 30.44 134.358C25.0409 134.367 20.6311 138.777 20.6311 144.186Z" fill="#86D8FE"/>
<path d="M81.8309 162.041H47.3159L64.5781 125.143L81.8309 162.041ZM53.1108 158.772H76.0266L64.5687 134.273L53.1108 158.772ZM75.0843 158.178H54.0531L64.5687 135.658L75.0843 158.178ZM59.8574 154.899H69.28L64.5687 144.836L59.8574 154.899Z" fill="#86D8FE"/>
<path d="M117.938 125.143V162.041H113.472V134.122L101.863 144.883L90.2546 134.122V162.041H85.7883V125.143L101.854 140.021L117.938 125.143ZM101.873 145.674L112.888 135.507V162.041H108.421V144.487L101.873 150.584L95.324 144.487V162.041H90.8577V135.507L101.873 145.674Z" fill="#86D8FE"/>
<path d="M128.35 158.47H150.672V162.041H123.893V126.33H143.53V129.901H128.35V158.47ZM133.41 134.066V140.313H147.101V143.884H128.953V130.494H143.53V134.066H133.41ZM150.672 154.305V157.876H128.953V144.487H147.101V148.058H133.41V154.305H150.672Z" fill="#86D8FE"/>
<path d="M184 151.328C184 158.621 178.544 162.635 168.82 162.635C159.049 162.635 153.64 158.367 153.64 150.734H158.107C158.107 155.992 161.923 158.913 168.82 158.913C175.717 158.913 179.534 156.19 179.534 151.328C179.534 140.021 159.002 147.757 159.002 137.043C159.002 132.53 162.526 130.052 168.82 130.052C175.114 130.052 178.638 132.784 178.638 137.637H174.172C174.172 135.159 172.24 133.764 168.82 133.764C165.4 133.764 163.468 134.952 163.468 137.034C163.468 144.186 184 136.751 184 151.328ZM153.942 137.043C153.942 129.807 159.247 125.736 168.82 125.736C178.393 125.736 183.698 130.005 183.698 137.637H179.232C179.232 132.379 175.51 129.458 168.82 129.458C162.13 129.458 158.408 132.181 158.408 137.043C158.408 148.351 178.94 140.615 178.94 151.328C178.94 155.842 175.322 158.32 168.82 158.32C162.318 158.32 158.7 155.587 158.7 150.734H163.167C163.167 153.213 165.202 154.607 168.82 154.607C172.438 154.607 174.474 153.42 174.474 151.338C174.474 144.186 153.942 151.63 153.942 137.043Z" fill="#86D8FE"/>
<path d="M35.3962 121.157H32.1077L25.2009 110.595C30.2986 110.331 32.0417 108.88 32.0417 105.233C32.0417 101.191 29.8745 99.834 23.3541 99.834H17.4367V121.148H14.478V97.4595H23.3635C31.8816 97.4595 35.0099 99.5324 35.0099 105.224C35.0099 109.172 33.4928 111.405 29.6767 112.366L35.3962 121.157ZM23.3541 110.237H17.8325V100.23H23.3541C29.573 100.23 31.646 101.483 31.646 105.233C31.646 108.983 29.573 110.237 23.3541 110.237ZM24.7392 110.595L31.6177 121.157H28.3292L23.0337 112.997H20.8006V121.157H17.8419V110.632H23.3635C23.8535 110.632 24.3152 110.632 24.7392 110.595ZM20.7912 107.862H23.3541C27.4341 107.862 28.6873 107.24 28.6873 105.233C28.6873 103.226 27.4341 102.604 23.3541 102.604H20.7912V107.862Z" fill="#86D8FE"/>
<path d="M41.2571 118.783H56.0599V121.148H38.2889V97.4595H51.311V99.8245H41.2571V118.783ZM44.6115 102.604V106.75H53.6949V109.115H41.6434V100.23H51.311V102.595H44.6115V102.604ZM56.0599 116.022V118.387H41.6434V109.502H53.6855V111.867H44.6021V116.013H56.0599V116.022Z" fill="#86D8FE"/>
<path d="M69.0821 97.4688V99.8338H58.0294V97.4688H69.0821ZM63.3626 118.387H58.0294V116.022H60.3945V102.604H58.0294V100.239H63.3626V118.387ZM58.0294 118.783H69.0821V121.148H58.0294V118.783ZM63.7584 100.23H69.0915V102.595H66.717V116.012H69.0821V118.377H63.7489V100.23H63.7584Z" fill="#86D8FE"/>
<path d="M88.7562 115.07L75.3385 102.632V121.148H72.3704V96.6772L85.7881 109.115V97.4687H88.7468V115.07H88.7562ZM92.1107 97.4687V121.939L78.6929 109.501V121.148H75.7342V103.546L89.152 115.984V97.4687H92.1107Z" fill="#86D8FE"/>
<path d="M117.175 109.313C117.175 116.71 112.737 121.157 105.33 121.157H96.0492V97.4688H105.33C112.737 97.4688 117.175 101.907 117.175 109.313ZM114.216 109.313C114.216 103.226 111.022 99.8432 105.33 99.8432H99.0173V118.792H105.33C111.022 118.783 114.216 115.4 114.216 109.313ZM113.82 109.313C113.82 115.136 110.796 118.396 105.33 118.396H99.4131V100.23H105.33C110.796 100.23 113.82 103.49 113.82 109.313ZM110.862 109.313C110.862 105.007 108.892 102.604 105.34 102.604H102.381V116.022H105.34C108.892 116.022 110.862 113.619 110.862 109.313Z" fill="#86D8FE"/>
<path d="M122.772 118.783H137.575V121.148H119.813V97.4595H132.835V99.8245H122.772V118.783ZM126.126 102.604V106.75H135.21V109.115H123.168V100.23H132.835V102.595H126.126V102.604ZM137.575 116.022V118.387H123.168V109.502H135.21V111.867H126.126V116.013H137.575V116.022Z" fill="#86D8FE"/>
<path d="M143.172 118.783H157.975V121.148H140.213V97.4595H153.235V99.8245H143.172V118.783ZM146.526 102.604V106.75H155.61V109.115H143.567V100.23H153.235V102.595H146.526V102.604ZM157.975 116.022V118.387H143.567V109.502H155.61V111.867H146.526V116.013H157.975V116.022Z" fill="#86D8FE"/>
<path d="M181.522 121.157H178.233L171.327 110.595C176.424 110.331 178.167 108.88 178.167 105.233C178.167 101.191 176 99.834 169.48 99.834H163.562V121.148H160.604V97.4595H169.489C178.007 97.4595 181.135 99.5324 181.135 105.224C181.135 109.172 179.618 111.405 175.802 112.366L181.522 121.157ZM169.489 110.237H163.958V100.23H169.48C175.699 100.23 177.772 101.483 177.772 105.233C177.772 108.983 175.699 110.237 169.489 110.237ZM170.865 110.595L177.743 121.157H174.455L169.159 112.997H166.926V121.157H163.958V110.632H169.48C169.979 110.632 170.441 110.632 170.865 110.595ZM166.917 107.862H169.48C173.56 107.862 174.813 107.24 174.813 105.233C174.813 103.226 173.56 102.604 169.48 102.604H166.917V107.862Z" fill="#86D8FE"/>
<path d="M61.1201 77.851L61.318 82.3268L65.4734 79.3115C65.4734 79.3115 70.6181 76.8145 70.7877 76.6544C70.9667 76.4942 77.8452 70.9349 77.8452 70.9349L79.7203 70.1716L82.2738 70.9443L87.0794 70.8312L91.3101 68.9561L97.6232 66.4309L100.629 66.657L109.76 68.6263L115.046 68.1646L121.839 69.0503L127.841 68.9655L129.057 70.5579L124.11 73.4224L121.802 73.7334L119.729 74.3835L115.978 74.8264L114.998 78.8781L119.634 77.0972L122.668 76.4753L129.443 74.3364L133.099 70.2093L132.072 67.6275C132.072 67.6275 128.51 65.2907 128.313 65.319C128.115 65.3473 122.64 63.0293 122.64 63.0293L123.027 61.5311L126.324 58.2238L128.256 51.2982L127.54 43.8826L123.356 36.2409L124.892 34.0266L125.005 31.0679L122.254 32.6509L121.02 33.2445L118.08 33.4801L115.441 32.1044L113.35 31.3223L114.132 34.5542L115.79 35.5342L113.491 37.9369L113.302 39.3974L114.631 41.3196L113.491 43.5434L113.105 46.4078L113.934 47.5857L115.884 47.3595L118.636 45.3054L120.36 42.9969L120.294 47.1805L117.345 52.0049L112.134 54.1155L105.774 54.4642L99.6962 52.0991L94.2123 51.1474L89.0769 53.1544L85.7602 55.8493L82.5848 55.3687L80.9547 53.635L81.4729 57.3192L82.8769 59.298L85.1854 58.3368L84.0641 62.5393L82.3681 64.094L79.7109 63.5381L76.9595 64.6406L75.3577 67.8254L71.1081 73.1397L66.6794 76.0325L65.1436 76.155L64.2767 77.0972L61.1201 77.851Z" fill="#86D8FE"/>
<path d="M122.103 33.4234L123.696 30.9829L128.181 27.5342L129.66 27.2516L131.988 26.9595L134.362 24.4625L134.522 22.9926L133.627 21.3719L133.731 23.426L131.611 25.6309L129.406 25.9041L131.422 22.1445L133.495 19.6287L134.861 17.7253L133.344 14.6912L133.391 18.0174L131.573 19.2989L131.95 16.4156L132.496 13.3815L132.515 11.3651L130.565 9.15076C130.565 9.15076 131.714 11.742 131.554 11.8268C131.384 11.9116 131.074 13.5982 131.074 13.5982L129.792 11.4028L126.946 9.69727L129.189 12.2508L129.18 13.4475L125.816 11.5724L122.904 9L125.1 12.9386L129.849 15.6147L130.122 18.8372L129.114 18.1682L127.361 16.4815L126.626 14.7101L126.88 18.253L128.548 19.7606L129.622 21.353L127.804 25.6497L123.196 29.5507L121.359 32.0288L120.793 34.0641L122.103 33.4234Z" fill="#86D8FE"/>
<path d="M117.345 33.6305L115.715 31.2937L111.229 28.0712L109.778 27.8356L107.498 27.6283L105.105 25.2633L104.907 23.831L105.736 22.2198L105.689 24.2268L107.818 26.3092L109.976 26.507L107.894 22.8982L105.802 20.5143L104.407 18.6957L105.802 15.6805L105.859 18.9218L107.677 20.1185L107.225 17.3106L106.603 14.3613L106.528 12.4014L108.365 10.1777C108.365 10.1777 107.31 12.7406 107.479 12.8254C107.649 12.9102 107.997 14.5403 107.997 14.5403L109.185 12.3637L111.917 10.6111L109.807 13.1741L109.854 14.3425L113.076 12.4014L115.846 9.80078L113.821 13.7112L109.27 16.472L109.1 19.6285L110.061 18.9501L111.729 17.2541L112.398 15.5014L112.247 18.969L110.664 20.4954L109.665 22.0878L111.569 26.2244L116.176 29.8897L118.042 32.2454L118.654 34.2147L117.345 33.6305Z" fill="#86D8FE"/>
<path d="M42.8439 129.498L43.1969 129.145L42.8444 128.792C39.4378 125.376 34.6949 123.236 29.4494 123.236C18.9584 123.236 10.5 131.743 10.5 142.186C10.5 152.676 18.9592 161.135 29.4494 161.135C39.6156 161.135 47.8052 152.661 47.8052 142.186C47.8052 141.229 47.7576 140.256 47.6004 139.323L47.5302 138.906H47.1074H28.8558H28.3558V139.406V142.393V142.477H28.3464V142.977V145.955V146.455H28.8464H37.2155C35.7605 149.478 32.7954 151.504 29.4494 151.504C24.317 151.504 20.1311 147.318 20.1311 142.186C20.1311 137.053 24.317 132.867 29.4403 132.858C32.0347 132.858 34.34 133.895 36.0309 135.585L36.3845 135.939L36.738 135.585L39.5648 132.759L39.6572 132.666L39.6667 132.676L40.0171 132.325L42.8439 129.498Z" fill="white" stroke="#86D8FE"/>
<path d="M80.8309 160.541H81.6166L81.2838 159.83L64.031 122.931L63.5782 121.962L63.1252 122.931L45.863 159.83L45.53 160.541H46.3159H80.8309ZM59.6435 152.399L63.5687 144.015L67.4938 152.399H59.6435Z" fill="white" stroke="#86D8FE"/>
<path d="M117.438 123.143V121.999L116.599 122.776L100.854 137.34L85.1281 122.776L84.2883 121.998V123.143V160.041V160.541H84.7883H89.2546H89.3577H89.7546H89.8577H94.324H94.824V160.041V143.636L100.532 148.95L100.873 149.267L101.213 148.95L106.921 143.636V160.041V160.541H107.421H111.888H111.972H112.388H112.472H116.938H117.438V160.041V123.143Z" fill="white" stroke="#86D8FE"/>
<path d="M150.172 156.47V156.376V155.97V155.876V152.305V151.805H149.672H132.91V146.558H146.101H146.601V146.058V142.487V142.384V141.987V141.884V138.313V137.813H146.101H132.91V132.566H142.53H143.03V132.066V128.494V128.401V127.994V127.901V124.33V123.83H142.53H122.893H122.393V124.33V160.041V160.541H122.893H149.672H150.172V160.041V156.47Z" fill="white" stroke="#86D8FE"/>
<path d="M152.64 148.234H152.14V148.734C152.14 152.68 153.545 155.81 156.257 157.94C158.951 160.056 162.871 161.135 167.82 161.135C172.74 161.135 176.656 160.121 179.355 158.118C182.075 156.098 183.5 153.114 183.5 149.328C183.5 145.546 182.158 143.123 180.095 141.553C178.066 140.01 175.395 139.334 172.816 138.904C171.904 138.751 170.987 138.627 170.108 138.508C169.743 138.459 169.384 138.41 169.034 138.361C167.833 138.191 166.738 138.012 165.81 137.753C164.877 137.493 164.163 137.166 163.686 136.733C163.231 136.32 162.968 135.789 162.968 135.034C162.968 134.178 163.35 133.517 164.122 133.045C164.922 132.555 166.155 132.264 167.82 132.264C169.473 132.264 170.693 132.603 171.486 133.177C172.256 133.734 172.672 134.545 172.672 135.637V136.137H173.172H177.638H177.732H178.138H178.232H182.698H183.198V135.637C183.198 131.695 181.822 128.566 179.162 126.434C176.519 124.317 172.672 123.236 167.82 123.236C162.973 123.236 159.13 124.265 156.488 126.278C153.825 128.307 152.442 131.29 152.442 135.043C152.442 138.827 153.784 141.252 155.847 142.823C157.875 144.366 160.547 145.041 163.125 145.472C164.039 145.624 164.956 145.748 165.836 145.866C166.201 145.916 166.559 145.964 166.907 146.013C168.109 146.182 169.203 146.361 170.131 146.62C171.065 146.88 171.779 147.206 172.255 147.639C172.711 148.052 172.974 148.583 172.974 149.338C172.974 150.18 172.578 150.843 171.753 151.321C170.9 151.815 169.587 152.107 167.82 152.107C166.064 152.107 164.764 151.767 163.919 151.188C163.099 150.626 162.667 149.815 162.667 148.734V148.234H162.167H157.7H157.607H157.2H157.107H152.64Z" fill="white" stroke="#86D8FE"/>
<path d="M34.3962 119.657H35.318L34.8153 118.885L29.4665 110.663C31.1099 110.149 32.3417 109.355 33.178 108.21C34.1201 106.921 34.5099 105.256 34.5099 103.224C34.5099 100.282 33.6942 98.1469 31.6581 96.7912C29.6786 95.4732 26.6346 94.9595 22.3635 94.9595H13.478H12.978V95.4595V119.148V119.648H13.478H16.3419V119.657H16.8419H19.8006H20.3006V119.157V111.497H21.7622L26.9098 119.429L27.0577 119.657H27.3292H30.6177H30.8372H31.1077H31.54H34.3962ZM22.3541 105.362H20.2912V101.104H22.3541C24.4006 101.104 25.6232 101.266 26.3294 101.614C26.6621 101.779 26.8616 101.976 26.9863 102.211C27.1158 102.454 27.1873 102.779 27.1873 103.233C27.1873 103.687 27.1158 104.012 26.9863 104.256C26.8616 104.49 26.6621 104.688 26.3294 104.852C25.6232 105.2 24.4006 105.362 22.3541 105.362Z" fill="white" stroke="#86D8FE"/>
<path d="M50.811 97.7297V95.4595V94.9595H50.311H37.2889H36.7889V95.4595V119.148V119.648H37.2889H55.0599H55.5599V119.148V116.887V116.783V116.387V116.283V114.022V114.013V113.513H55.0599H44.1021V110.367H52.6855H53.1855V109.867V107.615H53.1949V107.115V104.75V104.25H52.6949H44.1115V101.095H50.311H50.811V100.595V98.3245V98.2297V97.8245V97.7297Z" fill="white" stroke="#86D8FE"/>
<path d="M68.5821 95.4688V94.9688H68.0821H57.0294H56.5294V95.4688V97.739V97.8338V98.239V98.3338V100.604V101.104H57.0294H58.8945V113.522H57.0294H56.5294V114.022V116.283V116.387V116.783V116.887V119.148V119.648H57.0294H68.0821H68.5821V119.148V116.877V116.783V116.377V116.283V114.012V113.512H68.0821H66.217V101.095H68.0915H68.5915V100.595V98.2296V97.7296H68.5821V95.4688Z" fill="white" stroke="#86D8FE"/>
<path d="M87.652 94.9687H84.7881H84.2881V95.4687V105.97L71.7103 94.3106L70.8704 93.532V94.6772V119.148V119.648H71.3704H74.2342H74.3385H74.7342H74.8385H77.6929H78.1929V119.148V108.647L90.7708 120.306L91.6107 121.084V119.939V95.4687V94.9687H91.1107H88.2468H88.152H87.7468H87.652Z" fill="white" stroke="#86D8FE"/>
<path d="M94.5492 119.157V119.657H95.0492H104.33C108.134 119.657 111.234 118.513 113.384 116.362C115.533 114.211 116.675 111.112 116.675 107.313C116.675 103.51 115.533 100.41 113.383 98.26C111.234 96.1102 108.134 94.9688 104.33 94.9688H95.0492H94.5492V95.4688V119.157ZM104.34 101.104C105.995 101.104 107.222 101.658 108.047 102.661C108.884 103.679 109.362 105.227 109.362 107.313C109.362 109.398 108.884 110.946 108.047 111.965C107.222 112.968 105.995 113.522 104.34 113.522H101.881V101.104H104.34Z" fill="white" stroke="#86D8FE"/>
<path d="M132.335 97.7297V95.4595V94.9595H131.835H118.813H118.313V95.4595V119.148V119.648H118.813H136.575H137.075V119.148V116.887V116.783V116.387V116.283V114.022V114.013V113.513H136.575H125.626V110.367H134.21H134.71V109.867V107.615V107.502V107.115V107.002V104.75V104.25H134.21H125.626V101.095H131.835H132.335V100.595V98.3245V98.2297V97.8245V97.7297Z" fill="white" stroke="#86D8FE"/>
<path d="M152.735 97.7297V95.4595V94.9595H152.235H139.213H138.713V95.4595V119.148V119.648H139.213H156.975H157.475V119.148V116.887V116.783V116.387V116.283V114.022V114.013V113.513H156.975H146.026V110.367H154.61H155.11V109.867V107.615V107.502V107.115V107.002V104.75V104.25H154.61H146.026V101.095H152.235H152.735V100.595V98.3245V98.2297V97.8245V97.7297Z" fill="white" stroke="#86D8FE"/>
<path d="M180.522 119.657H181.444L180.941 118.885L175.592 110.663C177.236 110.149 178.467 109.355 179.304 108.21C180.246 106.921 180.635 105.256 180.635 103.224C180.635 100.282 179.82 98.1469 177.784 96.7912C175.804 95.4732 172.76 94.9595 168.489 94.9595H159.604H159.104V95.4595V119.148V119.648H159.604H162.458V119.657H162.958H165.926H166.426V119.157V111.497H167.888L173.035 119.429L173.183 119.657H173.455H176.743H176.963H177.233H177.666H180.522ZM168.48 105.362H166.417V101.104H168.48C170.526 101.104 171.749 101.266 172.455 101.614C172.788 101.779 172.987 101.976 173.112 102.211C173.241 102.454 173.313 102.779 173.313 103.233C173.313 103.687 173.241 104.012 173.112 104.256C172.987 104.49 172.788 104.688 172.455 104.852C171.749 105.2 170.526 105.362 168.48 105.362Z" fill="white" stroke="#86D8FE"/>
<path d="M69.7877 74.6544L70.1211 75.027C70.1189 75.029 70.1239 75.0245 70.1437 75.008L70.214 74.9499C70.2735 74.9011 70.3559 74.8336 70.4583 74.7501C70.6631 74.5832 70.9461 74.3532 71.281 74.0814C71.9508 73.5379 72.8272 72.8281 73.6981 72.1232C74.5691 71.4183 75.4344 70.7185 76.082 70.1948L76.8636 69.5629L77.0822 69.3862L77.1021 69.3701L78.7449 68.7015L81.129 69.4229L81.2056 69.446L81.2856 69.4441L86.0911 69.3311L86.1908 69.3287L86.282 69.2883L90.5043 67.4169L96.7013 64.9381L99.5572 65.153L108.654 67.1151L108.728 67.131L108.803 67.1244L114.035 66.6674L120.775 67.5461L120.81 67.5508L120.846 67.5503L126.597 67.469L127.315 68.4099L122.945 70.9401L120.735 71.2378L120.693 71.2435L120.652 71.2563L118.624 71.8925L114.92 72.3298L114.574 72.3706L114.492 72.7088L113.513 76.7606L113.289 77.6864L114.178 77.3448L118.775 75.5788L121.769 74.9651L121.794 74.9599L121.819 74.9521L128.594 72.8132L128.726 72.7715L128.818 72.668L132.474 68.5409L132.678 68.3105L132.564 68.0245L131.537 65.4427L131.478 65.296L131.347 65.2095L131.072 65.6275L131.346 65.2094L131.346 65.2093L131.346 65.209L131.344 65.2077L131.336 65.2026L131.306 65.1829L131.192 65.1085C131.147 65.0792 131.094 65.0443 131.033 65.0045C130.96 64.9571 130.877 64.9029 130.785 64.8434C130.447 64.6242 129.994 64.332 129.535 64.0405C129.076 63.7495 128.607 63.4569 128.239 63.238C128.056 63.1291 127.892 63.0349 127.764 62.9676C127.701 62.9345 127.638 62.9032 127.581 62.8794C127.554 62.8679 127.518 62.8538 127.478 62.8425L127.477 62.8419C127.463 62.8378 127.422 62.8262 127.367 62.8212C127.365 62.8206 127.363 62.82 127.361 62.8194C127.322 62.8077 127.263 62.7876 127.181 62.7582C127.02 62.7002 126.795 62.6141 126.526 62.508C125.989 62.2962 125.289 62.0104 124.593 61.7227C123.898 61.4352 123.208 61.1467 122.692 60.93C122.516 60.8562 122.361 60.7907 122.232 60.7364L122.477 59.7878L125.679 56.5768L125.771 56.4842L125.806 56.3581L127.738 49.4325L127.763 49.3428L127.754 49.2501L127.038 41.8345L127.028 41.7324L126.979 41.6425L122.943 34.2719L124.303 32.3115L124.386 32.1916L124.392 32.0457L124.505 29.087L124.539 28.1837L123.756 28.6345L121.021 30.2083L119.887 30.7535L117.183 30.9702L114.673 29.661L114.645 29.6468L114.616 29.636L112.525 28.8539L111.642 28.5239L111.864 29.4399L112.646 32.6718L112.695 32.8772L112.877 32.9847L113.993 33.644L112.13 35.5913L112.016 35.71L111.995 35.873L111.807 37.3335L111.782 37.5238L111.891 37.6817L113.05 39.3578L112.046 41.3153L112.007 41.3916L111.995 41.4765L111.609 44.341L111.583 44.5353L111.696 44.6957L112.525 45.8735L112.696 46.1166L112.991 46.0823L114.942 45.8562L115.075 45.8407L115.183 45.7602L117.935 43.7061L117.993 43.6627L118.036 43.6046L118.836 42.5343L118.796 45.0362L116.004 49.6034L111.024 51.6208L104.854 51.959L98.8775 49.6331L98.831 49.615L98.7817 49.6065L93.2978 48.6548L93.1602 48.6309L93.0303 48.6817L87.8949 50.6887L87.8222 50.7171L87.7617 50.7664L84.6165 53.3218L81.8306 52.9002L80.319 51.2925L79.2402 50.1451L79.4596 51.7046L79.9778 55.3889L79.9947 55.5093L80.0651 55.6085L81.4691 57.5873L81.7003 57.9131L82.0691 57.7595L83.4407 57.1885L82.6187 60.2694L81.2193 61.5521L78.8133 61.0487L78.6653 61.0178L78.5249 61.074L75.7735 62.1764L75.5978 62.2468L75.5128 62.4159L73.9345 65.554L69.7676 70.7649L65.5127 73.5442L64.1038 73.6566L63.9084 73.6721L63.7756 73.8164L63.0121 74.6464L60.004 75.3647L59.6024 75.4606L59.6206 75.8731L59.8185 80.3489L59.8595 81.2772L60.6116 80.7315L64.7314 77.7421L64.7497 77.7332L64.9135 77.6536C65.0546 77.5849 65.2564 77.4866 65.4991 77.3683C65.9844 77.1315 66.6334 76.814 67.2879 76.4915C67.9421 76.1692 68.6031 75.841 69.1119 75.5831C69.3659 75.4543 69.5843 75.3418 69.7458 75.2558C69.8261 75.213 69.8957 75.175 69.9497 75.1438C69.9765 75.1284 70.0032 75.1125 70.0272 75.0971L70.0284 75.0963C70.0436 75.0867 70.0889 75.0576 70.131 75.0179L69.7877 74.6544ZM69.7877 74.6544C69.6181 74.8145 64.4734 77.3115 64.4734 77.3115L76.8452 68.9349C76.8452 68.9349 69.9667 74.4942 69.7877 74.6544Z" fill="white" stroke="#86D8FE"/>
<path d="M121.323 31.8725L121.447 31.812L121.522 31.6966L123.068 29.3274L127.391 26.003L128.738 25.7457L131.05 25.4556L131.227 25.4333L131.35 25.304L133.724 22.807L133.841 22.6846L133.859 22.5166L134.019 21.0467L134.036 20.8894L133.96 20.7508L133.065 19.1301L132.128 19.3971L132.22 21.2353L130.373 23.1565L129.303 23.2891L130.839 20.4244L132.881 17.9466L132.892 17.9338L132.901 17.9203L134.268 16.0169L134.444 15.7717L134.309 15.5017L132.792 12.4676L131.844 12.6983L131.888 15.7607L131.216 16.2338L131.444 14.4923L131.988 11.4701L131.996 11.4285L131.996 11.3862L132.015 9.36975L132.017 9.17827L131.89 9.03458L129.94 6.82027L129.108 7.35352L129.565 7.15076L129.108 7.35352L129.108 7.35358L129.108 7.35388L129.108 7.35517L129.111 7.36049L129.12 7.38167L129.156 7.46295C129.187 7.53319 129.23 7.6338 129.283 7.75486C129.387 7.99729 129.524 8.32033 129.656 8.64509C129.789 8.97204 129.913 9.29206 129.993 9.53148C130.014 9.59479 130.031 9.64807 130.043 9.69144C130.038 9.7013 130.034 9.71079 130.03 9.71977C129.992 9.80204 129.959 9.89787 129.93 9.99056C129.906 10.0673 129.882 10.1514 129.859 10.2391L129.224 9.15071L129.159 9.03987L129.049 8.97389L126.203 7.2684L125.571 8.02721L127.688 10.4375L127.686 10.6L125.106 9.16192L122.235 6.62529L121.467 7.24344L123.663 11.1821L123.731 11.3051L123.854 11.3742L125.945 12.5523L125.127 12.7459L125.382 16.2888L125.396 16.4892L125.545 16.6239L127.168 18.0907L128.056 19.4078L126.39 23.3451L121.873 27.1691L121.829 27.2064L121.795 27.2529L119.957 29.731L119.902 29.8056L119.877 29.895L119.312 31.9303L119.014 33.002L120.013 32.5132L121.323 31.8725ZM126.15 12.6679L128.373 13.9204L128.536 15.8485L128.428 15.7766L126.783 14.1936L126.15 12.6679Z" fill="white" stroke="#86D8FE"/>
<path d="M115.935 31.9166L116.014 32.0305L116.141 32.0872L117.451 32.6713L118.46 33.1215L118.132 32.0662L117.519 30.0969L117.492 30.008L117.434 29.935L115.568 27.5793L115.533 27.5342L115.488 27.4985L110.973 23.9072L109.233 20.1245L110.055 18.8129L111.594 17.3289L111.738 17.1902L111.747 16.9907L111.897 13.5232L111.077 13.3535L113.08 12.1386L113.2 12.0658L113.265 11.9412L115.29 8.03078L114.504 7.43624L111.773 10.0005L109.319 11.4783L109.314 11.3446L111.303 8.92898L110.647 8.19025L107.915 9.94285L107.807 10.0119L107.746 10.1243L107.172 11.1768C107.15 11.103 107.127 11.0322 107.105 10.9669C107.074 10.8768 107.038 10.7838 106.999 10.7038C106.994 10.6936 106.989 10.6827 106.983 10.6714C106.993 10.63 107.007 10.5792 107.025 10.5186C107.095 10.2831 107.207 9.96752 107.327 9.6443C107.447 9.32343 107.572 9.00421 107.667 8.76458C107.715 8.64493 107.755 8.5455 107.783 8.4761L107.816 8.39581L107.824 8.3749L107.827 8.36967L107.827 8.3684L107.827 8.36811L107.827 8.36806L106.98 7.8592L105.142 10.0829L105.021 10.23L105.028 10.4206L105.103 12.3805L105.105 12.4229L105.114 12.4645L105.733 15.402L106.003 17.0762L105.354 16.6492L105.302 13.6718L104.348 13.4706L102.954 16.4858L102.827 16.7601L103.011 17L104.405 18.8185L104.415 18.8316L104.426 18.844L106.485 21.1908L108.061 23.921L107.041 23.8275L105.194 22.0212L105.236 20.2315L104.291 19.991L103.462 21.6022L103.39 21.7428L103.412 21.8994L103.609 23.3317L103.633 23.4997L103.753 23.6189L106.147 25.984L106.274 26.11L106.453 26.1263L108.716 26.332L110.033 26.5459L114.353 29.6499L115.935 31.9166ZM108.755 14.7625L110.871 13.4784L110.299 14.978L108.736 16.5675L108.655 16.625L108.755 14.7625Z" fill="white" stroke="#86D8FE"/>
</g>
<defs>
<filter id="filter0_d" x="0" y="0.250488" width="194" height="176.385" filterUnits="userSpaceOnUse" color-interpolation-filters="sRGB">
<feFlood flood-opacity="0" result="BackgroundImageFix"/>
<feColorMatrix in="SourceAlpha" type="matrix" values="0 0 0 0 0 0 0 0 0 0 0 0 0 0 0 0 0 0 127 0"/>
<feOffset dy="4"/>
<feGaussianBlur stdDeviation="5"/>
<feColorMatrix type="matrix" values="0 0 0 0 0.169965 0 0 0 0 0.227356 0 0 0 0 0.370833 0 0 0 0.4 0"/>
<feBlend mode="normal" in2="BackgroundImageFix" result="effect1_dropShadow"/>
<feBlend mode="normal" in="SourceGraphic" in2="effect1_dropShadow" result="shape"/>
</filter>
</defs>
</svg>
