<svg width="51" height="49" viewBox="0 0 51 49" fill="none" xmlns="http://www.w3.org/2000/svg">
<path d="M41.6236 28.8478H41.7722H42.1677C45.4834 28.8478 48.1677 26.162 48.1585 22.8674V22.8667C48.1585 20.4036 46.6875 18.2291 44.4005 17.3119C44.4001 17.3117 44.3997 17.3115 44.3993 17.3114L43.8808 17.1098L43.7126 17.0443L43.7218 16.864L43.7218 16.864L43.7218 16.8639L43.7218 16.8634L43.7219 16.8613L43.7223 16.8534L43.7238 16.8233L43.7293 16.7152L43.7459 16.3811C43.7519 16.2576 43.7579 16.1317 43.7624 16.0314C43.7647 15.9812 43.7665 15.9377 43.7678 15.9043L43.7693 15.863L43.7696 15.85L43.7697 15.8461L43.7697 15.8447C43.7697 8.67134 37.9302 2.83189 30.7569 2.83189C26.6878 2.83189 22.9316 4.69526 20.4417 7.94237C20.4417 7.94247 20.4416 7.94257 20.4415 7.94267L20.1333 8.34718L20.0271 8.48655L41.6236 28.8478ZM41.6236 28.8478L41.5528 28.9781L41.5528 28.9781L41.5527 28.9782L41.5526 28.9784L41.5522 28.9791L41.549 28.9848C41.546 28.9902 41.541 28.9989 41.5342 29.0104C41.5283 29.0205 41.521 29.0327 41.5122 29.0471C41.5007 29.0659 41.4868 29.0883 41.4704 29.114C41.4124 29.2046 41.3235 29.3358 41.202 29.4942C40.9587 29.8113 40.5857 30.2357 40.07 30.6604C39.0408 31.508 37.4411 32.3589 35.1553 32.3589C32.8646 32.3589 31.265 31.5079 30.2371 30.6604C29.7221 30.2358 29.35 29.8115 29.1075 29.4945C28.9864 29.3361 28.8978 29.2049 28.8401 29.1144C28.8112 29.0691 28.7901 29.034 28.7766 29.0109C28.7698 28.9993 28.7649 28.9907 28.7618 28.9853L28.7587 28.9796L28.7583 28.9788L28.7582 28.9787L28.7581 28.9786L28.7581 28.9786L28.6873 28.8478H28.5384H25.4237L28.81 24.0625L29.0891 23.6681H28.6059H22.4103L24.5448 18.4766L24.6867 18.1315H24.3136H17.06H16.889L16.827 18.2909L12.7221 28.8478H8.81299C5.51721 28.8478 2.83189 26.1625 2.83189 22.8667C2.83189 19.5709 5.51721 16.8856 8.81299 16.8856H9.60394H9.85394V16.6356V15.8447C9.85394 11.5749 13.33 8.10807 17.5906 8.10807C18.2013 8.10807 18.7703 8.18979 19.188 8.27215C19.3963 8.31323 19.5659 8.35424 19.6827 8.38478C19.741 8.40005 19.7861 8.41268 19.8163 8.42137L19.85 8.43128L19.858 8.43371L19.8597 8.43424L19.8599 8.43429L19.8599 8.43431L19.86 8.43432L41.6236 28.8478ZM8.81299 30.9201H11.9099L10.6732 34.0902L10.5402 34.4311H10.9061H15.0644L11.4654 47.6871L11.9107 47.8971L23.9413 30.9201H27.6396C29.517 33.1586 32.2259 34.4311 35.1553 34.4311C38.0878 34.4311 40.8085 33.1466 42.6861 30.9039C46.8947 30.6397 50.25 27.1308 50.25 22.8571C50.25 19.8042 48.547 17.0583 45.8604 15.6895C45.777 7.4335 39.042 0.75 30.7665 0.75C26.2645 0.75 22.088 2.71827 19.2078 6.15906C18.6641 6.06681 18.12 6.01653 17.5906 6.01653C12.5039 6.01653 8.31345 9.89714 7.82009 14.8567C3.83807 15.3489 0.75 18.7466 0.75 22.8571C0.75 27.307 4.37315 30.9201 8.81299 30.9201ZM18.3113 20.2134H21.5773L19.4428 25.4049L19.3009 25.75H19.674H25.0648L16.1843 38.2893L17.7064 32.6743L17.792 32.3589H17.4652H13.5866L18.3113 20.2134Z" fill="white" stroke="white" stroke-width="0.5"/>
</svg>
