<svg width="43" height="43" viewBox="0 0 43 43" fill="none" xmlns="http://www.w3.org/2000/svg">
<path d="M12.359 14.3029C12.359 12.7604 13.6115 11.5127 15.1487 11.5127C16.6869 11.5127 17.937 12.7606 17.937 14.3029C17.937 15.8425 16.6866 17.0923 15.1488 17.0923L12.359 14.3029ZM12.359 14.3029C12.359 15.8427 13.6114 17.0927 15.1487 17.0923L12.359 14.3029ZM25.0626 14.3029C25.0626 12.7608 26.3104 11.5127 27.8509 11.5127C29.3862 11.5127 30.6374 12.7607 30.6374 14.3029C30.6374 15.8427 29.3812 17.0923 27.851 17.0923L25.0626 14.3029ZM25.0626 14.3029C25.0626 15.8423 26.3102 17.0927 27.8509 17.0923L25.0626 14.3029ZM8.15907 23.6728L8.15853 23.6735C7.91637 23.9804 7.83003 24.3811 7.91981 24.7606L7.91993 24.7611C9.42597 31.068 15.0111 35.4754 21.4974 35.4754C27.9812 35.4754 33.563 31.0729 35.0754 24.7625C35.1704 24.3804 35.0805 23.9792 34.8393 23.6735C34.5974 23.3669 34.2287 23.1883 33.8363 23.1883H9.16115C8.77099 23.1883 8.40163 23.3675 8.15907 23.6728ZM21.5 0.75C10.0581 0.75 0.75 10.0581 0.75 21.5004C0.75 32.9412 10.0581 42.25 21.4996 42.25C32.9408 42.25 42.2496 32.9408 42.2496 21.5004C42.25 10.0581 32.9408 0.75 21.5 0.75ZM21.5 39.7005C11.4662 39.7005 3.29989 31.5342 3.29989 21.5004C3.29989 11.4662 11.4658 3.29989 21.5 3.29989C31.5342 3.29989 39.7005 11.4658 39.7005 21.5004C39.7001 31.5342 31.5338 39.7005 21.5 39.7005ZM21.5 32.9256C16.7533 32.9256 12.6001 30.0398 10.8963 25.7378H32.101C30.3962 30.0399 26.2427 32.9256 21.5 32.9256Z" fill="white" stroke="white" stroke-width="0.5"/>
</svg>
