<svg width="33" height="51" viewBox="0 0 33 51" fill="none" xmlns="http://www.w3.org/2000/svg">
<path d="M1.47372 50.303H30.9482C31.762 50.303 32.4219 49.6432 32.4219 48.8293C32.4219 48.0154 31.762 47.3556 30.9482 47.3556C28.5103 47.3556 26.527 45.3723 26.527 42.9344V25.1515C26.527 21.0885 23.2214 17.7829 19.1584 17.7829H17.6847V17.1569C21.0586 14.9479 22.3233 10.5014 20.4808 6.81645L17.5334 0.823319C17.2856 0.319306 16.7726 0 16.2109 0C15.6493 0 15.1363 0.319306 14.8885 0.823319L11.9454 6.80781C10.0989 10.5008 11.3633 14.9479 14.7372 17.1569V17.7829H7.36861C6.55472 17.7829 5.89489 18.4427 5.89489 19.2566V42.9344C5.89489 45.3723 3.91155 47.3556 1.47372 47.3556C0.659834 47.3556 0 48.0154 0 48.8293C0 49.6432 0.659834 50.303 1.47372 50.303ZM23.5795 25.1515V33.9938C23.5795 34.8065 22.9184 35.4676 22.1058 35.4676C21.2932 35.4676 20.6321 34.8065 20.6321 33.9938V28.099C20.6321 25.6611 18.6488 23.6778 16.2109 23.6778C15.3983 23.6778 14.7372 23.0167 14.7372 22.2041V20.7304H19.1584C21.5962 20.7304 23.5795 22.7137 23.5795 25.1515ZM14.5859 8.11726L16.2109 4.81308L17.8403 8.12591C18.9858 10.417 18.2454 13.1662 16.2109 14.5976C14.1766 13.1661 13.4365 10.4162 14.5859 8.11726ZM8.84233 42.9344V20.7304H11.7898V22.2041C11.7898 24.6419 13.7731 26.6252 16.2109 26.6252C17.0235 26.6252 17.6847 27.2863 17.6847 28.099V33.9938C17.6847 36.4317 19.668 38.415 22.1058 38.415C22.6225 38.415 23.1183 38.3251 23.5795 38.1615V42.9344C23.5795 44.5918 24.1297 46.1233 25.0567 47.3556H7.36517C8.29214 46.1233 8.84233 44.5918 8.84233 42.9344Z" fill="white"/>
</svg>
