<svg width="39" height="41" viewBox="0 0 39 41" fill="none" xmlns="http://www.w3.org/2000/svg">
<path d="M38.5612 26.4941L33.8008 27.3141L28.303 24.1099L36.4142 20.5007L28.3046 16.8904L33.8008 13.6875L38.5612 14.5075L39 11.9109L35.3259 11.2776L36.6198 7.74871L34.173 6.83421L32.4961 11.406L27 14.6089L27.9582 5.71455L20.8051 11.0007V5.43529L23.889 1.68213L21.8817 0L19.5002 2.89597L17.1186 0L15.1113 1.68213L18.1952 5.43398V10.9993L11.0454 5.71455L12.0039 14.6106L6.50451 11.406L4.82798 6.83421L2.3812 7.74871L3.67441 11.2776L0 11.9109L0.439115 14.5072L5.19956 13.6872L10.697 16.8907L2.58934 20.5007L10.6986 24.1093L5.19956 27.3138L0.439115 26.4941L0 29.0904L3.67441 29.7237L2.38022 33.2526L4.827 34.1671L6.50353 29.5953L12.0026 26.3904L11.0444 35.2845L18.1952 30.001V35.5664L15.1113 39.3179L17.1196 41L19.5011 38.1044L21.8827 41L23.891 39.3179L20.8051 35.5657V30.0003L27.9582 35.2861L27.0003 26.3947L32.4955 29.5972L34.1723 34.1691L36.6191 33.2546L35.3259 29.7237L39 29.0904L38.5612 26.4941ZM29.9456 20.5007L25.5029 22.4765L22.1101 20.5007L25.5029 18.5228L29.9456 20.5007ZM24.7239 11.3698L24.198 16.2413L20.8051 18.2192V14.2655L24.7239 11.3698ZM14.2804 11.3702L18.1952 14.2632V18.2192L14.805 16.2433L14.2804 11.3702ZM9.0583 20.5007L13.4974 18.5248L16.8903 20.5007L13.4997 22.4765L9.0583 20.5007ZM14.2804 29.6292L14.8053 24.758L18.1959 22.7821V26.7362L14.2804 29.6292ZM24.7245 29.6292L20.8051 26.7339V22.7821L24.198 24.7603L24.7245 29.6292Z" fill="white"/>
</svg>
